G04 #@! TF.FileFunction,Legend,Top*
%FSLAX46Y46*%
G04 Gerber Fmt 4.6, Leading zero omitted, Abs format (unit mm)*
G04 Created by KiCad (PCBNEW 4.0.0-2.201512091501+6195~38~ubuntu15.10.1-stable) date Fri 11 Dec 2015 10:20:27 PM CST*
%MOMM*%
G01*
G04 APERTURE LIST*
%ADD10C,0.100000*%
%ADD11C,0.150000*%
%ADD12C,0.203200*%
%ADD13C,0.152400*%
G04 APERTURE END LIST*
D10*
D11*
X105153192Y-98599452D02*
X105153192Y-99124452D01*
X99903192Y-103849452D02*
X99903192Y-103324452D01*
X105153192Y-103849452D02*
X105153192Y-103324452D01*
X99903192Y-98599452D02*
X100428192Y-98599452D01*
X99903192Y-103849452D02*
X100428192Y-103849452D01*
X105153192Y-103849452D02*
X104628192Y-103849452D01*
X105153192Y-98599452D02*
X104628192Y-98599452D01*
D12*
X111157000Y-109439000D02*
X111157000Y-108239000D01*
X111157000Y-108239000D02*
X111657000Y-108239000D01*
X111157000Y-109439000D02*
X111657000Y-109439000D01*
X113757000Y-108239000D02*
X113757000Y-109439000D01*
X113757000Y-109439000D02*
X113257000Y-109439000D01*
X113757000Y-108239000D02*
X113257000Y-108239000D01*
X111157000Y-108042000D02*
X111157000Y-106842000D01*
X111157000Y-106842000D02*
X111657000Y-106842000D01*
X111157000Y-108042000D02*
X111657000Y-108042000D01*
X113757000Y-106842000D02*
X113757000Y-108042000D01*
X113757000Y-108042000D02*
X113257000Y-108042000D01*
X113757000Y-106842000D02*
X113257000Y-106842000D01*
X111160000Y-110836000D02*
X111160000Y-109636000D01*
X111160000Y-109636000D02*
X111660000Y-109636000D01*
X111160000Y-110836000D02*
X111660000Y-110836000D01*
X113760000Y-109636000D02*
X113760000Y-110836000D01*
X113760000Y-110836000D02*
X113260000Y-110836000D01*
X113760000Y-109636000D02*
X113260000Y-109636000D01*
X74660200Y-92852800D02*
X74660200Y-91652800D01*
X74660200Y-91652800D02*
X75160200Y-91652800D01*
X74660200Y-92852800D02*
X75160200Y-92852800D01*
X77260200Y-91652800D02*
X77260200Y-92852800D01*
X77260200Y-92852800D02*
X76760200Y-92852800D01*
X77260200Y-91652800D02*
X76760200Y-91652800D01*
X94427600Y-100572320D02*
X93227600Y-100572320D01*
X93227600Y-100572320D02*
X93227600Y-100072320D01*
X94427600Y-100572320D02*
X94427600Y-100072320D01*
X93227600Y-97972320D02*
X94427600Y-97972320D01*
X94427600Y-97972320D02*
X94427600Y-98472320D01*
X93227600Y-97972320D02*
X93227600Y-98472320D01*
X97621800Y-99374400D02*
X98821800Y-99374400D01*
X98821800Y-99374400D02*
X98821800Y-99874400D01*
X97621800Y-99374400D02*
X97621800Y-99874400D01*
X98821800Y-101974400D02*
X97621800Y-101974400D01*
X97621800Y-101974400D02*
X97621800Y-101474400D01*
X98821800Y-101974400D02*
X98821800Y-101474400D01*
D11*
X127812800Y-101282500D02*
X127812800Y-96202500D01*
X127812800Y-96202500D02*
X125272800Y-96202500D01*
X125272800Y-96202500D02*
X125272800Y-101282500D01*
X124992800Y-104102500D02*
X124992800Y-102552500D01*
X125272800Y-101282500D02*
X127812800Y-101282500D01*
X128092800Y-102552500D02*
X128092800Y-104102500D01*
X128092800Y-104102500D02*
X124992800Y-104102500D01*
X69786500Y-94869000D02*
X69786500Y-107569000D01*
X69786500Y-107569000D02*
X67246500Y-107569000D01*
X67246500Y-107569000D02*
X67246500Y-94869000D01*
X70066500Y-92049000D02*
X70066500Y-93599000D01*
X69786500Y-94869000D02*
X67246500Y-94869000D01*
X66966500Y-93599000D02*
X66966500Y-92049000D01*
X66966500Y-92049000D02*
X70066500Y-92049000D01*
X120112000Y-96151000D02*
G75*
G03X120112000Y-96151000I-100000J0D01*
G01*
X120562000Y-96401000D02*
X120062000Y-96401000D01*
X120562000Y-99301000D02*
X120562000Y-96401000D01*
X120062000Y-99301000D02*
X120562000Y-99301000D01*
X120062000Y-96401000D02*
X120062000Y-99301000D01*
X125349000Y-95059500D02*
X127889000Y-95059500D01*
X127889000Y-93281500D02*
X125349000Y-93281500D01*
X127889000Y-93281500D02*
X127889000Y-95059500D01*
X125349000Y-95059500D02*
X125349000Y-93281500D01*
X104894000Y-96900000D02*
X101694000Y-96900000D01*
X101694000Y-96900000D02*
X101694000Y-94300000D01*
X101694000Y-94300000D02*
X104894000Y-94300000D01*
X104894000Y-94300000D02*
X104894000Y-96900000D01*
D12*
X92778200Y-103794000D02*
X92778200Y-104994000D01*
X92778200Y-104994000D02*
X92278200Y-104994000D01*
X92778200Y-103794000D02*
X92278200Y-103794000D01*
X90178200Y-104994000D02*
X90178200Y-103794000D01*
X90178200Y-103794000D02*
X90678200Y-103794000D01*
X90178200Y-104994000D02*
X90678200Y-104994000D01*
D11*
X77216000Y-100660200D02*
X80264000Y-100660200D01*
X80264000Y-100660200D02*
X80264000Y-93548200D01*
X80264000Y-93548200D02*
X77216000Y-93548200D01*
X74168000Y-100660200D02*
X73406000Y-100660200D01*
X73406000Y-100660200D02*
X71120000Y-99136200D01*
X71120000Y-99136200D02*
X71120000Y-95072200D01*
X71120000Y-95072200D02*
X73406000Y-93548200D01*
X73406000Y-93548200D02*
X74168000Y-93548200D01*
D12*
X82588800Y-99810000D02*
X82088800Y-99810000D01*
X82588800Y-99810000D02*
X82588800Y-99310000D01*
X81088800Y-99810000D02*
X81588800Y-99810000D01*
X81088800Y-99810000D02*
X81088800Y-99310000D01*
X81088800Y-96710000D02*
X81088800Y-97210000D01*
X81088800Y-96710000D02*
X81588800Y-96710000D01*
X82588800Y-96710000D02*
X82588800Y-97210000D01*
X82588800Y-96710000D02*
X82088800Y-96710000D01*
X82238800Y-98660000D02*
X81438800Y-98660000D01*
X82238800Y-97860000D02*
X81438800Y-97860000D01*
X82238800Y-97460000D02*
X81438800Y-97460000D01*
X81438800Y-97460000D02*
X81438800Y-99060000D01*
X81438800Y-99060000D02*
X82238800Y-99060000D01*
X82238800Y-99060000D02*
X82238800Y-97460000D01*
X81114200Y-92417400D02*
X81614200Y-92417400D01*
X81114200Y-92417400D02*
X81114200Y-92917400D01*
X82614200Y-92417400D02*
X82114200Y-92417400D01*
X82614200Y-92417400D02*
X82614200Y-92917400D01*
X82614200Y-95517400D02*
X82614200Y-95017400D01*
X82614200Y-95517400D02*
X82114200Y-95517400D01*
X81114200Y-95517400D02*
X81114200Y-95017400D01*
X81114200Y-95517400D02*
X81614200Y-95517400D01*
X81464200Y-93567400D02*
X82264200Y-93567400D01*
X81464200Y-94367400D02*
X82264200Y-94367400D01*
X81464200Y-94767400D02*
X82264200Y-94767400D01*
X82264200Y-94767400D02*
X82264200Y-93167400D01*
X82264200Y-93167400D02*
X81464200Y-93167400D01*
X81464200Y-93167400D02*
X81464200Y-94767400D01*
X95833500Y-103747000D02*
X95833500Y-103247000D01*
X95833500Y-103747000D02*
X96333500Y-103747000D01*
X95833500Y-102247000D02*
X95833500Y-102747000D01*
X95833500Y-102247000D02*
X96333500Y-102247000D01*
X98933500Y-102247000D02*
X98433500Y-102247000D01*
X98933500Y-102247000D02*
X98933500Y-102747000D01*
X98933500Y-103747000D02*
X98433500Y-103747000D01*
X98933500Y-103747000D02*
X98933500Y-103247000D01*
X96983500Y-103397000D02*
X96983500Y-102597000D01*
X97783500Y-103397000D02*
X97783500Y-102597000D01*
X98183500Y-103397000D02*
X98183500Y-102597000D01*
X98183500Y-102597000D02*
X96583500Y-102597000D01*
X96583500Y-102597000D02*
X96583500Y-103397000D01*
X96583500Y-103397000D02*
X98183500Y-103397000D01*
X96138500Y-97841500D02*
X96138500Y-97341500D01*
X96138500Y-97841500D02*
X96638500Y-97841500D01*
X96138500Y-96341500D02*
X96138500Y-96841500D01*
X96138500Y-96341500D02*
X96638500Y-96341500D01*
X99238500Y-96341500D02*
X98738500Y-96341500D01*
X99238500Y-96341500D02*
X99238500Y-96841500D01*
X99238500Y-97841500D02*
X98738500Y-97841500D01*
X99238500Y-97841500D02*
X99238500Y-97341500D01*
X97288500Y-97491500D02*
X97288500Y-96691500D01*
X98088500Y-97491500D02*
X98088500Y-96691500D01*
X98488500Y-97491500D02*
X98488500Y-96691500D01*
X98488500Y-96691500D02*
X96888500Y-96691500D01*
X96888500Y-96691500D02*
X96888500Y-97491500D01*
X96888500Y-97491500D02*
X98488500Y-97491500D01*
X94373000Y-94678000D02*
X94873000Y-94678000D01*
X94373000Y-94678000D02*
X94373000Y-95178000D01*
X95873000Y-94678000D02*
X95373000Y-94678000D01*
X95873000Y-94678000D02*
X95873000Y-95178000D01*
X95873000Y-97778000D02*
X95873000Y-97278000D01*
X95873000Y-97778000D02*
X95373000Y-97778000D01*
X94373000Y-97778000D02*
X94373000Y-97278000D01*
X94373000Y-97778000D02*
X94873000Y-97778000D01*
X94723000Y-95828000D02*
X95523000Y-95828000D01*
X94723000Y-96628000D02*
X95523000Y-96628000D01*
X94723000Y-97028000D02*
X95523000Y-97028000D01*
X95523000Y-97028000D02*
X95523000Y-95428000D01*
X95523000Y-95428000D02*
X94723000Y-95428000D01*
X94723000Y-95428000D02*
X94723000Y-97028000D01*
X94476192Y-100724452D02*
X94476192Y-100224452D01*
X94476192Y-100724452D02*
X94976192Y-100724452D01*
X94476192Y-99224452D02*
X94476192Y-99724452D01*
X94476192Y-99224452D02*
X94976192Y-99224452D01*
X97576192Y-99224452D02*
X97076192Y-99224452D01*
X97576192Y-99224452D02*
X97576192Y-99724452D01*
X97576192Y-100724452D02*
X97076192Y-100724452D01*
X97576192Y-100724452D02*
X97576192Y-100224452D01*
X95626192Y-100374452D02*
X95626192Y-99574452D01*
X96426192Y-100374452D02*
X96426192Y-99574452D01*
X96826192Y-100374452D02*
X96826192Y-99574452D01*
X96826192Y-99574452D02*
X95226192Y-99574452D01*
X95226192Y-99574452D02*
X95226192Y-100374452D01*
X95226192Y-100374452D02*
X96826192Y-100374452D01*
X106972800Y-97150000D02*
X106472800Y-97150000D01*
X106972800Y-97150000D02*
X106972800Y-96650000D01*
X105472800Y-97150000D02*
X105972800Y-97150000D01*
X105472800Y-97150000D02*
X105472800Y-96650000D01*
X105472800Y-94050000D02*
X105472800Y-94550000D01*
X105472800Y-94050000D02*
X105972800Y-94050000D01*
X106972800Y-94050000D02*
X106972800Y-94550000D01*
X106972800Y-94050000D02*
X106472800Y-94050000D01*
X106622800Y-96000000D02*
X105822800Y-96000000D01*
X106622800Y-95200000D02*
X105822800Y-95200000D01*
X106622800Y-94800000D02*
X105822800Y-94800000D01*
X105822800Y-94800000D02*
X105822800Y-96400000D01*
X105822800Y-96400000D02*
X106622800Y-96400000D01*
X106622800Y-96400000D02*
X106622800Y-94800000D01*
X99580000Y-94050000D02*
X100080000Y-94050000D01*
X99580000Y-94050000D02*
X99580000Y-94550000D01*
X101080000Y-94050000D02*
X100580000Y-94050000D01*
X101080000Y-94050000D02*
X101080000Y-94550000D01*
X101080000Y-97150000D02*
X101080000Y-96650000D01*
X101080000Y-97150000D02*
X100580000Y-97150000D01*
X99580000Y-97150000D02*
X99580000Y-96650000D01*
X99580000Y-97150000D02*
X100080000Y-97150000D01*
X99930000Y-95200000D02*
X100730000Y-95200000D01*
X99930000Y-96000000D02*
X100730000Y-96000000D01*
X99930000Y-96400000D02*
X100730000Y-96400000D01*
X100730000Y-96400000D02*
X100730000Y-94800000D01*
X100730000Y-94800000D02*
X99930000Y-94800000D01*
X99930000Y-94800000D02*
X99930000Y-96400000D01*
X121870500Y-95555500D02*
X121370500Y-95555500D01*
X121870500Y-95055500D02*
X121870500Y-95555500D01*
X121870500Y-94055500D02*
X121870500Y-94555500D01*
X121370500Y-94055500D02*
X121870500Y-94055500D01*
X118870500Y-94055500D02*
X119370500Y-94055500D01*
X118870500Y-94555500D02*
X118870500Y-94055500D01*
X118870500Y-95555500D02*
X118870500Y-95055500D01*
X118870500Y-95555500D02*
X119370500Y-95555500D01*
X121170500Y-95205500D02*
X121170500Y-94405500D01*
X121170500Y-94405500D02*
X119570500Y-94405500D01*
X119570500Y-94405500D02*
X119570500Y-95205500D01*
X119570500Y-95205500D02*
X121170500Y-95205500D01*
X121870500Y-93777500D02*
X121370500Y-93777500D01*
X121870500Y-93277500D02*
X121870500Y-93777500D01*
X121870500Y-92277500D02*
X121870500Y-92777500D01*
X121370500Y-92277500D02*
X121870500Y-92277500D01*
X118870500Y-92277500D02*
X119370500Y-92277500D01*
X118870500Y-92777500D02*
X118870500Y-92277500D01*
X118870500Y-93777500D02*
X118870500Y-93277500D01*
X118870500Y-93777500D02*
X119370500Y-93777500D01*
X121170500Y-93427500D02*
X121170500Y-92627500D01*
X121170500Y-92627500D02*
X119570500Y-92627500D01*
X119570500Y-92627500D02*
X119570500Y-93427500D01*
X119570500Y-93427500D02*
X121170500Y-93427500D01*
X123940000Y-94410500D02*
X123940000Y-94910500D01*
X123440000Y-94410500D02*
X123940000Y-94410500D01*
X122440000Y-94410500D02*
X122940000Y-94410500D01*
X122440000Y-94910500D02*
X122440000Y-94410500D01*
X122440000Y-97410500D02*
X122440000Y-96910500D01*
X122940000Y-97410500D02*
X122440000Y-97410500D01*
X123940000Y-97410500D02*
X123440000Y-97410500D01*
X123940000Y-97410500D02*
X123940000Y-96910500D01*
X123590000Y-95110500D02*
X122790000Y-95110500D01*
X122790000Y-95110500D02*
X122790000Y-96710500D01*
X122790000Y-96710500D02*
X123590000Y-96710500D01*
X123590000Y-96710500D02*
X123590000Y-95110500D01*
X91477400Y-106643200D02*
X91477400Y-106143200D01*
X91977400Y-106643200D02*
X91477400Y-106643200D01*
X92977400Y-106643200D02*
X92477400Y-106643200D01*
X92977400Y-106143200D02*
X92977400Y-106643200D01*
X92977400Y-103643200D02*
X92977400Y-104143200D01*
X92477400Y-103643200D02*
X92977400Y-103643200D01*
X91477400Y-103643200D02*
X91977400Y-103643200D01*
X91477400Y-103643200D02*
X91477400Y-104143200D01*
X91827400Y-105943200D02*
X92627400Y-105943200D01*
X92627400Y-105943200D02*
X92627400Y-104343200D01*
X92627400Y-104343200D02*
X91827400Y-104343200D01*
X91827400Y-104343200D02*
X91827400Y-105943200D01*
X112979161Y-104365703D02*
X112479161Y-104365703D01*
X112979161Y-103865703D02*
X112979161Y-104365703D01*
X112979161Y-102865703D02*
X112979161Y-103365703D01*
X112479161Y-102865703D02*
X112979161Y-102865703D01*
X109979161Y-102865703D02*
X110479161Y-102865703D01*
X109979161Y-103365703D02*
X109979161Y-102865703D01*
X109979161Y-104365703D02*
X109979161Y-103865703D01*
X109979161Y-104365703D02*
X110479161Y-104365703D01*
X112279161Y-104015703D02*
X112279161Y-103215703D01*
X112279161Y-103215703D02*
X110679161Y-103215703D01*
X110679161Y-103215703D02*
X110679161Y-104015703D01*
X110679161Y-104015703D02*
X112279161Y-104015703D01*
X112989121Y-105869321D02*
X112489121Y-105869321D01*
X112989121Y-105369321D02*
X112989121Y-105869321D01*
X112989121Y-104369321D02*
X112989121Y-104869321D01*
X112489121Y-104369321D02*
X112989121Y-104369321D01*
X109989121Y-104369321D02*
X110489121Y-104369321D01*
X109989121Y-104869321D02*
X109989121Y-104369321D01*
X109989121Y-105869321D02*
X109989121Y-105369321D01*
X109989121Y-105869321D02*
X110489121Y-105869321D01*
X112289121Y-105519321D02*
X112289121Y-104719321D01*
X112289121Y-104719321D02*
X110689121Y-104719321D01*
X110689121Y-104719321D02*
X110689121Y-105519321D01*
X110689121Y-105519321D02*
X112289121Y-105519321D01*
X112979161Y-98249321D02*
X112479161Y-98249321D01*
X112979161Y-97749321D02*
X112979161Y-98249321D01*
X112979161Y-96749321D02*
X112979161Y-97249321D01*
X112479161Y-96749321D02*
X112979161Y-96749321D01*
X109979161Y-96749321D02*
X110479161Y-96749321D01*
X109979161Y-97249321D02*
X109979161Y-96749321D01*
X109979161Y-98249321D02*
X109979161Y-97749321D01*
X109979161Y-98249321D02*
X110479161Y-98249321D01*
X112279161Y-97899321D02*
X112279161Y-97099321D01*
X112279161Y-97099321D02*
X110679161Y-97099321D01*
X110679161Y-97099321D02*
X110679161Y-97899321D01*
X110679161Y-97899321D02*
X112279161Y-97899321D01*
X112979161Y-99773321D02*
X112479161Y-99773321D01*
X112979161Y-99273321D02*
X112979161Y-99773321D01*
X112979161Y-98273321D02*
X112979161Y-98773321D01*
X112479161Y-98273321D02*
X112979161Y-98273321D01*
X109979161Y-98273321D02*
X110479161Y-98273321D01*
X109979161Y-98773321D02*
X109979161Y-98273321D01*
X109979161Y-99773321D02*
X109979161Y-99273321D01*
X109979161Y-99773321D02*
X110479161Y-99773321D01*
X112279161Y-99423321D02*
X112279161Y-98623321D01*
X112279161Y-98623321D02*
X110679161Y-98623321D01*
X110679161Y-98623321D02*
X110679161Y-99423321D01*
X110679161Y-99423321D02*
X112279161Y-99423321D01*
X112979161Y-102821321D02*
X112479161Y-102821321D01*
X112979161Y-102321321D02*
X112979161Y-102821321D01*
X112979161Y-101321321D02*
X112979161Y-101821321D01*
X112479161Y-101321321D02*
X112979161Y-101321321D01*
X109979161Y-101321321D02*
X110479161Y-101321321D01*
X109979161Y-101821321D02*
X109979161Y-101321321D01*
X109979161Y-102821321D02*
X109979161Y-102321321D01*
X109979161Y-102821321D02*
X110479161Y-102821321D01*
X112279161Y-102471321D02*
X112279161Y-101671321D01*
X112279161Y-101671321D02*
X110679161Y-101671321D01*
X110679161Y-101671321D02*
X110679161Y-102471321D01*
X110679161Y-102471321D02*
X112279161Y-102471321D01*
X112979161Y-101297321D02*
X112479161Y-101297321D01*
X112979161Y-100797321D02*
X112979161Y-101297321D01*
X112979161Y-99797321D02*
X112979161Y-100297321D01*
X112479161Y-99797321D02*
X112979161Y-99797321D01*
X109979161Y-99797321D02*
X110479161Y-99797321D01*
X109979161Y-100297321D02*
X109979161Y-99797321D01*
X109979161Y-101297321D02*
X109979161Y-100797321D01*
X109979161Y-101297321D02*
X110479161Y-101297321D01*
X112279161Y-100947321D02*
X112279161Y-100147321D01*
X112279161Y-100147321D02*
X110679161Y-100147321D01*
X110679161Y-100147321D02*
X110679161Y-100947321D01*
X110679161Y-100947321D02*
X112279161Y-100947321D01*
X96201000Y-94627000D02*
X96701000Y-94627000D01*
X96201000Y-95127000D02*
X96201000Y-94627000D01*
X96201000Y-96127000D02*
X96201000Y-95627000D01*
X96701000Y-96127000D02*
X96201000Y-96127000D01*
X99201000Y-96127000D02*
X98701000Y-96127000D01*
X99201000Y-95627000D02*
X99201000Y-96127000D01*
X99201000Y-94627000D02*
X99201000Y-95127000D01*
X99201000Y-94627000D02*
X98701000Y-94627000D01*
X96901000Y-94977000D02*
X96901000Y-95777000D01*
X96901000Y-95777000D02*
X98501000Y-95777000D01*
X98501000Y-95777000D02*
X98501000Y-94977000D01*
X98501000Y-94977000D02*
X96901000Y-94977000D01*
X86579400Y-104094000D02*
X86579400Y-104694000D01*
X86179400Y-104094000D02*
X86679400Y-104094000D01*
X86179400Y-104094000D02*
X86179400Y-104694000D01*
X86179400Y-104694000D02*
X86679400Y-104694000D01*
X87879400Y-104394000D02*
G75*
G03X87879400Y-104394000I-200000J0D01*
G01*
X88679400Y-104394000D02*
G75*
G03X88679400Y-104394000I-1000000J0D01*
G01*
X89679400Y-105394000D02*
G75*
G03X89679400Y-105394000I-200000J0D01*
G01*
X88979400Y-105694000D02*
X88979400Y-103094000D01*
X88979400Y-103094000D02*
X86379400Y-103094000D01*
X86379400Y-103094000D02*
X86379400Y-105694000D01*
X86379400Y-105694000D02*
X88979400Y-105694000D01*
D11*
X105765695Y-100747581D02*
X105765695Y-101557105D01*
X105813314Y-101652343D01*
X105860933Y-101699962D01*
X105956171Y-101747581D01*
X106146648Y-101747581D01*
X106241886Y-101699962D01*
X106289505Y-101652343D01*
X106337124Y-101557105D01*
X106337124Y-100747581D01*
X107337124Y-101747581D02*
X106765695Y-101747581D01*
X107051409Y-101747581D02*
X107051409Y-100747581D01*
X106956171Y-100890438D01*
X106860933Y-100985676D01*
X106765695Y-101033295D01*
D13*
X114427000Y-109209114D02*
X114173000Y-108846257D01*
X113991572Y-109209114D02*
X113991572Y-108447114D01*
X114281857Y-108447114D01*
X114354429Y-108483400D01*
X114390714Y-108519686D01*
X114427000Y-108592257D01*
X114427000Y-108701114D01*
X114390714Y-108773686D01*
X114354429Y-108809971D01*
X114281857Y-108846257D01*
X113991572Y-108846257D01*
X114717286Y-108519686D02*
X114753572Y-108483400D01*
X114826143Y-108447114D01*
X115007572Y-108447114D01*
X115080143Y-108483400D01*
X115116429Y-108519686D01*
X115152714Y-108592257D01*
X115152714Y-108664829D01*
X115116429Y-108773686D01*
X114681000Y-109209114D01*
X115152714Y-109209114D01*
X114427000Y-107786714D02*
X114173000Y-107423857D01*
X113991572Y-107786714D02*
X113991572Y-107024714D01*
X114281857Y-107024714D01*
X114354429Y-107061000D01*
X114390714Y-107097286D01*
X114427000Y-107169857D01*
X114427000Y-107278714D01*
X114390714Y-107351286D01*
X114354429Y-107387571D01*
X114281857Y-107423857D01*
X113991572Y-107423857D01*
X114681000Y-107024714D02*
X115152714Y-107024714D01*
X114898714Y-107315000D01*
X115007572Y-107315000D01*
X115080143Y-107351286D01*
X115116429Y-107387571D01*
X115152714Y-107460143D01*
X115152714Y-107641571D01*
X115116429Y-107714143D01*
X115080143Y-107750429D01*
X115007572Y-107786714D01*
X114789857Y-107786714D01*
X114717286Y-107750429D01*
X114681000Y-107714143D01*
X114427000Y-110631514D02*
X114173000Y-110268657D01*
X113991572Y-110631514D02*
X113991572Y-109869514D01*
X114281857Y-109869514D01*
X114354429Y-109905800D01*
X114390714Y-109942086D01*
X114427000Y-110014657D01*
X114427000Y-110123514D01*
X114390714Y-110196086D01*
X114354429Y-110232371D01*
X114281857Y-110268657D01*
X113991572Y-110268657D01*
X115152714Y-110631514D02*
X114717286Y-110631514D01*
X114935000Y-110631514D02*
X114935000Y-109869514D01*
X114862429Y-109978371D01*
X114789857Y-110050943D01*
X114717286Y-110087229D01*
X72720201Y-92198371D02*
X72466201Y-92198371D01*
X72466201Y-92597514D02*
X72466201Y-91835514D01*
X72829058Y-91835514D01*
X73373344Y-92198371D02*
X73482201Y-92234657D01*
X73518486Y-92270943D01*
X73554772Y-92343514D01*
X73554772Y-92452371D01*
X73518486Y-92524943D01*
X73482201Y-92561229D01*
X73409629Y-92597514D01*
X73119344Y-92597514D01*
X73119344Y-91835514D01*
X73373344Y-91835514D01*
X73445915Y-91871800D01*
X73482201Y-91908086D01*
X73518486Y-91980657D01*
X73518486Y-92053229D01*
X73482201Y-92125800D01*
X73445915Y-92162086D01*
X73373344Y-92198371D01*
X73119344Y-92198371D01*
X74280486Y-92597514D02*
X73845058Y-92597514D01*
X74062772Y-92597514D02*
X74062772Y-91835514D01*
X73990201Y-91944371D01*
X73917629Y-92016943D01*
X73845058Y-92053229D01*
X93003914Y-100406199D02*
X93003914Y-100769056D01*
X92241914Y-100769056D01*
X93003914Y-99753057D02*
X93003914Y-100188485D01*
X93003914Y-99970771D02*
X92241914Y-99970771D01*
X92350771Y-100043342D01*
X92423343Y-100115914D01*
X92459629Y-100188485D01*
X99099914Y-98831399D02*
X99099914Y-99194256D01*
X98337914Y-99194256D01*
X98410486Y-98613685D02*
X98374200Y-98577399D01*
X98337914Y-98504828D01*
X98337914Y-98323399D01*
X98374200Y-98250828D01*
X98410486Y-98214542D01*
X98483057Y-98178257D01*
X98555629Y-98178257D01*
X98664486Y-98214542D01*
X99099914Y-98649971D01*
X99099914Y-98178257D01*
D11*
X125804705Y-105455981D02*
X125804705Y-104455981D01*
X126185658Y-104455981D01*
X126280896Y-104503600D01*
X126328515Y-104551219D01*
X126376134Y-104646457D01*
X126376134Y-104789314D01*
X126328515Y-104884552D01*
X126280896Y-104932171D01*
X126185658Y-104979790D01*
X125804705Y-104979790D01*
X126757086Y-104551219D02*
X126804705Y-104503600D01*
X126899943Y-104455981D01*
X127138039Y-104455981D01*
X127233277Y-104503600D01*
X127280896Y-104551219D01*
X127328515Y-104646457D01*
X127328515Y-104741695D01*
X127280896Y-104884552D01*
X126709467Y-105455981D01*
X127328515Y-105455981D01*
X70686705Y-94178381D02*
X70686705Y-93178381D01*
X71067658Y-93178381D01*
X71162896Y-93226000D01*
X71210515Y-93273619D01*
X71258134Y-93368857D01*
X71258134Y-93511714D01*
X71210515Y-93606952D01*
X71162896Y-93654571D01*
X71067658Y-93702190D01*
X70686705Y-93702190D01*
X71591467Y-93178381D02*
X72210515Y-93178381D01*
X71877181Y-93559333D01*
X72020039Y-93559333D01*
X72115277Y-93606952D01*
X72162896Y-93654571D01*
X72210515Y-93749810D01*
X72210515Y-93987905D01*
X72162896Y-94083143D01*
X72115277Y-94130762D01*
X72020039Y-94178381D01*
X71734324Y-94178381D01*
X71639086Y-94130762D01*
X71591467Y-94083143D01*
X116321010Y-98343981D02*
X116321010Y-97343981D01*
X117368629Y-98248743D02*
X117321010Y-98296362D01*
X117178153Y-98343981D01*
X117082915Y-98343981D01*
X116940057Y-98296362D01*
X116844819Y-98201124D01*
X116797200Y-98105886D01*
X116749581Y-97915410D01*
X116749581Y-97772552D01*
X116797200Y-97582076D01*
X116844819Y-97486838D01*
X116940057Y-97391600D01*
X117082915Y-97343981D01*
X117178153Y-97343981D01*
X117321010Y-97391600D01*
X117368629Y-97439219D01*
X118321010Y-98343981D02*
X117749581Y-98343981D01*
X118035295Y-98343981D02*
X118035295Y-97343981D01*
X117940057Y-97486838D01*
X117844819Y-97582076D01*
X117749581Y-97629695D01*
X125785667Y-91844881D02*
X125785667Y-92559167D01*
X125738047Y-92702024D01*
X125642809Y-92797262D01*
X125499952Y-92844881D01*
X125404714Y-92844881D01*
X126261857Y-92844881D02*
X126261857Y-91844881D01*
X126642810Y-91844881D01*
X126738048Y-91892500D01*
X126785667Y-91940119D01*
X126833286Y-92035357D01*
X126833286Y-92178214D01*
X126785667Y-92273452D01*
X126738048Y-92321071D01*
X126642810Y-92368690D01*
X126261857Y-92368690D01*
X127785667Y-92844881D02*
X127214238Y-92844881D01*
X127499952Y-92844881D02*
X127499952Y-91844881D01*
X127404714Y-91987738D01*
X127309476Y-92082976D01*
X127214238Y-92130595D01*
X102917809Y-93448190D02*
X102917809Y-93924381D01*
X102584476Y-92924381D02*
X102917809Y-93448190D01*
X103251143Y-92924381D01*
X104108286Y-93924381D02*
X103536857Y-93924381D01*
X103822571Y-93924381D02*
X103822571Y-92924381D01*
X103727333Y-93067238D01*
X103632095Y-93162476D01*
X103536857Y-93210095D01*
X79919581Y-93319505D02*
X80729105Y-93319505D01*
X80824343Y-93271886D01*
X80871962Y-93224267D01*
X80919581Y-93129029D01*
X80919581Y-92938552D01*
X80871962Y-92843314D01*
X80824343Y-92795695D01*
X80729105Y-92748076D01*
X79919581Y-92748076D01*
X80014819Y-92319505D02*
X79967200Y-92271886D01*
X79919581Y-92176648D01*
X79919581Y-91938552D01*
X79967200Y-91843314D01*
X80014819Y-91795695D01*
X80110057Y-91748076D01*
X80205295Y-91748076D01*
X80348152Y-91795695D01*
X80919581Y-92367124D01*
X80919581Y-91748076D01*
D13*
X83482543Y-98374200D02*
X83518829Y-98410486D01*
X83555114Y-98519343D01*
X83555114Y-98591914D01*
X83518829Y-98700771D01*
X83446257Y-98773343D01*
X83373686Y-98809628D01*
X83228543Y-98845914D01*
X83119686Y-98845914D01*
X82974543Y-98809628D01*
X82901971Y-98773343D01*
X82829400Y-98700771D01*
X82793114Y-98591914D01*
X82793114Y-98519343D01*
X82829400Y-98410486D01*
X82865686Y-98374200D01*
X83119686Y-97938771D02*
X83083400Y-98011343D01*
X83047114Y-98047628D01*
X82974543Y-98083914D01*
X82938257Y-98083914D01*
X82865686Y-98047628D01*
X82829400Y-98011343D01*
X82793114Y-97938771D01*
X82793114Y-97793628D01*
X82829400Y-97721057D01*
X82865686Y-97684771D01*
X82938257Y-97648486D01*
X82974543Y-97648486D01*
X83047114Y-97684771D01*
X83083400Y-97721057D01*
X83119686Y-97793628D01*
X83119686Y-97938771D01*
X83155971Y-98011343D01*
X83192257Y-98047628D01*
X83264829Y-98083914D01*
X83409971Y-98083914D01*
X83482543Y-98047628D01*
X83518829Y-98011343D01*
X83555114Y-97938771D01*
X83555114Y-97793628D01*
X83518829Y-97721057D01*
X83482543Y-97684771D01*
X83409971Y-97648486D01*
X83264829Y-97648486D01*
X83192257Y-97684771D01*
X83155971Y-97721057D01*
X83119686Y-97793628D01*
X83533343Y-94157800D02*
X83569629Y-94194086D01*
X83605914Y-94302943D01*
X83605914Y-94375514D01*
X83569629Y-94484371D01*
X83497057Y-94556943D01*
X83424486Y-94593228D01*
X83279343Y-94629514D01*
X83170486Y-94629514D01*
X83025343Y-94593228D01*
X82952771Y-94556943D01*
X82880200Y-94484371D01*
X82843914Y-94375514D01*
X82843914Y-94302943D01*
X82880200Y-94194086D01*
X82916486Y-94157800D01*
X82843914Y-93903800D02*
X82843914Y-93395800D01*
X83605914Y-93722371D01*
X97358200Y-104513743D02*
X97321914Y-104550029D01*
X97213057Y-104586314D01*
X97140486Y-104586314D01*
X97031629Y-104550029D01*
X96959057Y-104477457D01*
X96922772Y-104404886D01*
X96886486Y-104259743D01*
X96886486Y-104150886D01*
X96922772Y-104005743D01*
X96959057Y-103933171D01*
X97031629Y-103860600D01*
X97140486Y-103824314D01*
X97213057Y-103824314D01*
X97321914Y-103860600D01*
X97358200Y-103896886D01*
X98011343Y-103824314D02*
X97866200Y-103824314D01*
X97793629Y-103860600D01*
X97757343Y-103896886D01*
X97684772Y-104005743D01*
X97648486Y-104150886D01*
X97648486Y-104441171D01*
X97684772Y-104513743D01*
X97721057Y-104550029D01*
X97793629Y-104586314D01*
X97938772Y-104586314D01*
X98011343Y-104550029D01*
X98047629Y-104513743D01*
X98083914Y-104441171D01*
X98083914Y-104259743D01*
X98047629Y-104187171D01*
X98011343Y-104150886D01*
X97938772Y-104114600D01*
X97793629Y-104114600D01*
X97721057Y-104150886D01*
X97684772Y-104187171D01*
X97648486Y-104259743D01*
X97155000Y-98620943D02*
X97118714Y-98657229D01*
X97009857Y-98693514D01*
X96937286Y-98693514D01*
X96828429Y-98657229D01*
X96755857Y-98584657D01*
X96719572Y-98512086D01*
X96683286Y-98366943D01*
X96683286Y-98258086D01*
X96719572Y-98112943D01*
X96755857Y-98040371D01*
X96828429Y-97967800D01*
X96937286Y-97931514D01*
X97009857Y-97931514D01*
X97118714Y-97967800D01*
X97155000Y-98004086D01*
X97844429Y-97931514D02*
X97481572Y-97931514D01*
X97445286Y-98294371D01*
X97481572Y-98258086D01*
X97554143Y-98221800D01*
X97735572Y-98221800D01*
X97808143Y-98258086D01*
X97844429Y-98294371D01*
X97880714Y-98366943D01*
X97880714Y-98548371D01*
X97844429Y-98620943D01*
X97808143Y-98657229D01*
X97735572Y-98693514D01*
X97554143Y-98693514D01*
X97481572Y-98657229D01*
X97445286Y-98620943D01*
X94150543Y-96355000D02*
X94186829Y-96391286D01*
X94223114Y-96500143D01*
X94223114Y-96572714D01*
X94186829Y-96681571D01*
X94114257Y-96754143D01*
X94041686Y-96790428D01*
X93896543Y-96826714D01*
X93787686Y-96826714D01*
X93642543Y-96790428D01*
X93569971Y-96754143D01*
X93497400Y-96681571D01*
X93461114Y-96572714D01*
X93461114Y-96500143D01*
X93497400Y-96391286D01*
X93533686Y-96355000D01*
X93715114Y-95701857D02*
X94223114Y-95701857D01*
X93424829Y-95883286D02*
X93969114Y-96064714D01*
X93969114Y-95593000D01*
X95834200Y-101618143D02*
X95797914Y-101654429D01*
X95689057Y-101690714D01*
X95616486Y-101690714D01*
X95507629Y-101654429D01*
X95435057Y-101581857D01*
X95398772Y-101509286D01*
X95362486Y-101364143D01*
X95362486Y-101255286D01*
X95398772Y-101110143D01*
X95435057Y-101037571D01*
X95507629Y-100965000D01*
X95616486Y-100928714D01*
X95689057Y-100928714D01*
X95797914Y-100965000D01*
X95834200Y-101001286D01*
X96124486Y-101001286D02*
X96160772Y-100965000D01*
X96233343Y-100928714D01*
X96414772Y-100928714D01*
X96487343Y-100965000D01*
X96523629Y-101001286D01*
X96559914Y-101073857D01*
X96559914Y-101146429D01*
X96523629Y-101255286D01*
X96088200Y-101690714D01*
X96559914Y-101690714D01*
X106494943Y-93395800D02*
X106531229Y-93432086D01*
X106567514Y-93540943D01*
X106567514Y-93613514D01*
X106531229Y-93722371D01*
X106458657Y-93794943D01*
X106386086Y-93831228D01*
X106240943Y-93867514D01*
X106132086Y-93867514D01*
X105986943Y-93831228D01*
X105914371Y-93794943D01*
X105841800Y-93722371D01*
X105805514Y-93613514D01*
X105805514Y-93540943D01*
X105841800Y-93432086D01*
X105878086Y-93395800D01*
X106567514Y-92670086D02*
X106567514Y-93105514D01*
X106567514Y-92887800D02*
X105805514Y-92887800D01*
X105914371Y-92960371D01*
X105986943Y-93032943D01*
X106023229Y-93105514D01*
X100652943Y-93395800D02*
X100689229Y-93432086D01*
X100725514Y-93540943D01*
X100725514Y-93613514D01*
X100689229Y-93722371D01*
X100616657Y-93794943D01*
X100544086Y-93831228D01*
X100398943Y-93867514D01*
X100290086Y-93867514D01*
X100144943Y-93831228D01*
X100072371Y-93794943D01*
X99999800Y-93722371D01*
X99963514Y-93613514D01*
X99963514Y-93540943D01*
X99999800Y-93432086D01*
X100036086Y-93395800D01*
X99963514Y-93141800D02*
X99963514Y-92670086D01*
X100253800Y-92924086D01*
X100253800Y-92815228D01*
X100290086Y-92742657D01*
X100326371Y-92706371D01*
X100398943Y-92670086D01*
X100580371Y-92670086D01*
X100652943Y-92706371D01*
X100689229Y-92742657D01*
X100725514Y-92815228D01*
X100725514Y-93032943D01*
X100689229Y-93105514D01*
X100652943Y-93141800D01*
X117061343Y-95188314D02*
X116807343Y-94825457D01*
X116625915Y-95188314D02*
X116625915Y-94426314D01*
X116916200Y-94426314D01*
X116988772Y-94462600D01*
X117025057Y-94498886D01*
X117061343Y-94571457D01*
X117061343Y-94680314D01*
X117025057Y-94752886D01*
X116988772Y-94789171D01*
X116916200Y-94825457D01*
X116625915Y-94825457D01*
X117787057Y-95188314D02*
X117351629Y-95188314D01*
X117569343Y-95188314D02*
X117569343Y-94426314D01*
X117496772Y-94535171D01*
X117424200Y-94607743D01*
X117351629Y-94644029D01*
X118476486Y-94426314D02*
X118113629Y-94426314D01*
X118077343Y-94789171D01*
X118113629Y-94752886D01*
X118186200Y-94716600D01*
X118367629Y-94716600D01*
X118440200Y-94752886D01*
X118476486Y-94789171D01*
X118512771Y-94861743D01*
X118512771Y-95043171D01*
X118476486Y-95115743D01*
X118440200Y-95152029D01*
X118367629Y-95188314D01*
X118186200Y-95188314D01*
X118113629Y-95152029D01*
X118077343Y-95115743D01*
X117112143Y-93359514D02*
X116858143Y-92996657D01*
X116676715Y-93359514D02*
X116676715Y-92597514D01*
X116967000Y-92597514D01*
X117039572Y-92633800D01*
X117075857Y-92670086D01*
X117112143Y-92742657D01*
X117112143Y-92851514D01*
X117075857Y-92924086D01*
X117039572Y-92960371D01*
X116967000Y-92996657D01*
X116676715Y-92996657D01*
X117837857Y-93359514D02*
X117402429Y-93359514D01*
X117620143Y-93359514D02*
X117620143Y-92597514D01*
X117547572Y-92706371D01*
X117475000Y-92778943D01*
X117402429Y-92815229D01*
X118491000Y-92851514D02*
X118491000Y-93359514D01*
X118309571Y-92561229D02*
X118128143Y-93105514D01*
X118599857Y-93105514D01*
X124957114Y-96349457D02*
X124594257Y-96603457D01*
X124957114Y-96784885D02*
X124195114Y-96784885D01*
X124195114Y-96494600D01*
X124231400Y-96422028D01*
X124267686Y-96385743D01*
X124340257Y-96349457D01*
X124449114Y-96349457D01*
X124521686Y-96385743D01*
X124557971Y-96422028D01*
X124594257Y-96494600D01*
X124594257Y-96784885D01*
X124957114Y-95623743D02*
X124957114Y-96059171D01*
X124957114Y-95841457D02*
X124195114Y-95841457D01*
X124303971Y-95914028D01*
X124376543Y-95986600D01*
X124412829Y-96059171D01*
X124195114Y-95369743D02*
X124195114Y-94898029D01*
X124485400Y-95152029D01*
X124485400Y-95043171D01*
X124521686Y-94970600D01*
X124557971Y-94934314D01*
X124630543Y-94898029D01*
X124811971Y-94898029D01*
X124884543Y-94934314D01*
X124920829Y-94970600D01*
X124957114Y-95043171D01*
X124957114Y-95260886D01*
X124920829Y-95333457D01*
X124884543Y-95369743D01*
X94019914Y-105544257D02*
X93657057Y-105798257D01*
X94019914Y-105979685D02*
X93257914Y-105979685D01*
X93257914Y-105689400D01*
X93294200Y-105616828D01*
X93330486Y-105580543D01*
X93403057Y-105544257D01*
X93511914Y-105544257D01*
X93584486Y-105580543D01*
X93620771Y-105616828D01*
X93657057Y-105689400D01*
X93657057Y-105979685D01*
X94019914Y-104818543D02*
X94019914Y-105253971D01*
X94019914Y-105036257D02*
X93257914Y-105036257D01*
X93366771Y-105108828D01*
X93439343Y-105181400D01*
X93475629Y-105253971D01*
X93330486Y-104528257D02*
X93294200Y-104491971D01*
X93257914Y-104419400D01*
X93257914Y-104237971D01*
X93294200Y-104165400D01*
X93330486Y-104129114D01*
X93403057Y-104092829D01*
X93475629Y-104092829D01*
X93584486Y-104129114D01*
X94019914Y-104564543D01*
X94019914Y-104092829D01*
X113708543Y-104027514D02*
X113454543Y-103664657D01*
X113273115Y-104027514D02*
X113273115Y-103265514D01*
X113563400Y-103265514D01*
X113635972Y-103301800D01*
X113672257Y-103338086D01*
X113708543Y-103410657D01*
X113708543Y-103519514D01*
X113672257Y-103592086D01*
X113635972Y-103628371D01*
X113563400Y-103664657D01*
X113273115Y-103664657D01*
X114434257Y-104027514D02*
X113998829Y-104027514D01*
X114216543Y-104027514D02*
X114216543Y-103265514D01*
X114143972Y-103374371D01*
X114071400Y-103446943D01*
X113998829Y-103483229D01*
X114905971Y-103265514D02*
X114978543Y-103265514D01*
X115051114Y-103301800D01*
X115087400Y-103338086D01*
X115123686Y-103410657D01*
X115159971Y-103555800D01*
X115159971Y-103737229D01*
X115123686Y-103882371D01*
X115087400Y-103954943D01*
X115051114Y-103991229D01*
X114978543Y-104027514D01*
X114905971Y-104027514D01*
X114833400Y-103991229D01*
X114797114Y-103954943D01*
X114760829Y-103882371D01*
X114724543Y-103737229D01*
X114724543Y-103555800D01*
X114760829Y-103410657D01*
X114797114Y-103338086D01*
X114833400Y-103301800D01*
X114905971Y-103265514D01*
X113665000Y-105500714D02*
X113411000Y-105137857D01*
X113229572Y-105500714D02*
X113229572Y-104738714D01*
X113519857Y-104738714D01*
X113592429Y-104775000D01*
X113628714Y-104811286D01*
X113665000Y-104883857D01*
X113665000Y-104992714D01*
X113628714Y-105065286D01*
X113592429Y-105101571D01*
X113519857Y-105137857D01*
X113229572Y-105137857D01*
X114027857Y-105500714D02*
X114173000Y-105500714D01*
X114245572Y-105464429D01*
X114281857Y-105428143D01*
X114354429Y-105319286D01*
X114390714Y-105174143D01*
X114390714Y-104883857D01*
X114354429Y-104811286D01*
X114318143Y-104775000D01*
X114245572Y-104738714D01*
X114100429Y-104738714D01*
X114027857Y-104775000D01*
X113991572Y-104811286D01*
X113955286Y-104883857D01*
X113955286Y-105065286D01*
X113991572Y-105137857D01*
X114027857Y-105174143D01*
X114100429Y-105210429D01*
X114245572Y-105210429D01*
X114318143Y-105174143D01*
X114354429Y-105137857D01*
X114390714Y-105065286D01*
X113665000Y-97829914D02*
X113411000Y-97467057D01*
X113229572Y-97829914D02*
X113229572Y-97067914D01*
X113519857Y-97067914D01*
X113592429Y-97104200D01*
X113628714Y-97140486D01*
X113665000Y-97213057D01*
X113665000Y-97321914D01*
X113628714Y-97394486D01*
X113592429Y-97430771D01*
X113519857Y-97467057D01*
X113229572Y-97467057D01*
X114100429Y-97394486D02*
X114027857Y-97358200D01*
X113991572Y-97321914D01*
X113955286Y-97249343D01*
X113955286Y-97213057D01*
X113991572Y-97140486D01*
X114027857Y-97104200D01*
X114100429Y-97067914D01*
X114245572Y-97067914D01*
X114318143Y-97104200D01*
X114354429Y-97140486D01*
X114390714Y-97213057D01*
X114390714Y-97249343D01*
X114354429Y-97321914D01*
X114318143Y-97358200D01*
X114245572Y-97394486D01*
X114100429Y-97394486D01*
X114027857Y-97430771D01*
X113991572Y-97467057D01*
X113955286Y-97539629D01*
X113955286Y-97684771D01*
X113991572Y-97757343D01*
X114027857Y-97793629D01*
X114100429Y-97829914D01*
X114245572Y-97829914D01*
X114318143Y-97793629D01*
X114354429Y-97757343D01*
X114390714Y-97684771D01*
X114390714Y-97539629D01*
X114354429Y-97467057D01*
X114318143Y-97430771D01*
X114245572Y-97394486D01*
X113665000Y-99404714D02*
X113411000Y-99041857D01*
X113229572Y-99404714D02*
X113229572Y-98642714D01*
X113519857Y-98642714D01*
X113592429Y-98679000D01*
X113628714Y-98715286D01*
X113665000Y-98787857D01*
X113665000Y-98896714D01*
X113628714Y-98969286D01*
X113592429Y-99005571D01*
X113519857Y-99041857D01*
X113229572Y-99041857D01*
X113919000Y-98642714D02*
X114427000Y-98642714D01*
X114100429Y-99404714D01*
X113715800Y-102503514D02*
X113461800Y-102140657D01*
X113280372Y-102503514D02*
X113280372Y-101741514D01*
X113570657Y-101741514D01*
X113643229Y-101777800D01*
X113679514Y-101814086D01*
X113715800Y-101886657D01*
X113715800Y-101995514D01*
X113679514Y-102068086D01*
X113643229Y-102104371D01*
X113570657Y-102140657D01*
X113280372Y-102140657D01*
X114368943Y-101741514D02*
X114223800Y-101741514D01*
X114151229Y-101777800D01*
X114114943Y-101814086D01*
X114042372Y-101922943D01*
X114006086Y-102068086D01*
X114006086Y-102358371D01*
X114042372Y-102430943D01*
X114078657Y-102467229D01*
X114151229Y-102503514D01*
X114296372Y-102503514D01*
X114368943Y-102467229D01*
X114405229Y-102430943D01*
X114441514Y-102358371D01*
X114441514Y-102176943D01*
X114405229Y-102104371D01*
X114368943Y-102068086D01*
X114296372Y-102031800D01*
X114151229Y-102031800D01*
X114078657Y-102068086D01*
X114042372Y-102104371D01*
X114006086Y-102176943D01*
X113715800Y-100979514D02*
X113461800Y-100616657D01*
X113280372Y-100979514D02*
X113280372Y-100217514D01*
X113570657Y-100217514D01*
X113643229Y-100253800D01*
X113679514Y-100290086D01*
X113715800Y-100362657D01*
X113715800Y-100471514D01*
X113679514Y-100544086D01*
X113643229Y-100580371D01*
X113570657Y-100616657D01*
X113280372Y-100616657D01*
X114405229Y-100217514D02*
X114042372Y-100217514D01*
X114006086Y-100580371D01*
X114042372Y-100544086D01*
X114114943Y-100507800D01*
X114296372Y-100507800D01*
X114368943Y-100544086D01*
X114405229Y-100580371D01*
X114441514Y-100652943D01*
X114441514Y-100834371D01*
X114405229Y-100906943D01*
X114368943Y-100943229D01*
X114296372Y-100979514D01*
X114114943Y-100979514D01*
X114042372Y-100943229D01*
X114006086Y-100906943D01*
X97574000Y-94527914D02*
X97320000Y-94165057D01*
X97138572Y-94527914D02*
X97138572Y-93765914D01*
X97428857Y-93765914D01*
X97501429Y-93802200D01*
X97537714Y-93838486D01*
X97574000Y-93911057D01*
X97574000Y-94019914D01*
X97537714Y-94092486D01*
X97501429Y-94128771D01*
X97428857Y-94165057D01*
X97138572Y-94165057D01*
X98227143Y-94019914D02*
X98227143Y-94527914D01*
X98045714Y-93729629D02*
X97864286Y-94273914D01*
X98336000Y-94273914D01*
X87425401Y-101436714D02*
X87425401Y-101981000D01*
X87389115Y-102089857D01*
X87316544Y-102162429D01*
X87207687Y-102198714D01*
X87135115Y-102198714D01*
X88187400Y-102198714D02*
X87751972Y-102198714D01*
X87969686Y-102198714D02*
X87969686Y-101436714D01*
X87897115Y-101545571D01*
X87824543Y-101618143D01*
X87751972Y-101654429D01*
M02*
