G04 #@! TF.FileFunction,Legend,Top*
%FSLAX46Y46*%
G04 Gerber Fmt 4.6, Leading zero omitted, Abs format (unit mm)*
G04 Created by KiCad (PCBNEW 4.0.1-3.201512221401+6198~38~ubuntu15.10.1-stable) date Mon 04 Jan 2016 12:08:53 AM CST*
%MOMM*%
G01*
G04 APERTURE LIST*
%ADD10C,0.150000*%
%ADD11C,0.125000*%
%ADD12C,0.375000*%
%ADD13C,0.203200*%
%ADD14C,0.152400*%
%ADD15R,1.365200X1.670000*%
%ADD16C,3.150000*%
%ADD17R,1.400000X1.350000*%
%ADD18R,1.800000X1.600000*%
%ADD19R,1.100000X0.650000*%
%ADD20R,0.650000X1.100000*%
%ADD21R,2.125000X2.125000*%
%ADD22R,2.127200X2.127200*%
%ADD23O,2.127200X2.127200*%
%ADD24R,1.350000X1.400000*%
%ADD25R,1.400000X1.300000*%
%ADD26R,1.400000X1.400000*%
%ADD27R,1.400000X2.600000*%
%ADD28R,1.300000X1.400000*%
%ADD29R,2.432000X4.057600*%
%ADD30R,2.432000X1.416000*%
%ADD31R,1.670000X1.365200*%
%ADD32C,1.400000*%
G04 APERTURE END LIST*
D10*
D11*
X80650000Y-109188095D02*
X80602381Y-109235714D01*
X80602381Y-109307142D01*
X80650000Y-109378571D01*
X80745238Y-109426190D01*
X80840476Y-109449999D01*
X81030952Y-109473809D01*
X81173810Y-109473809D01*
X81364286Y-109449999D01*
X81459524Y-109426190D01*
X81554762Y-109378571D01*
X81602381Y-109307142D01*
X81602381Y-109259523D01*
X81554762Y-109188095D01*
X81507143Y-109164285D01*
X81173810Y-109164285D01*
X81173810Y-109259523D01*
X81602381Y-108949999D02*
X80602381Y-108949999D01*
X80602381Y-108759523D01*
X80650000Y-108711904D01*
X80697619Y-108688095D01*
X80792857Y-108664285D01*
X80935714Y-108664285D01*
X81030952Y-108688095D01*
X81078571Y-108711904D01*
X81126190Y-108759523D01*
X81126190Y-108949999D01*
X81602381Y-108449999D02*
X80602381Y-108449999D01*
X80602381Y-108116666D02*
X80602381Y-108021428D01*
X80650000Y-107973809D01*
X80745238Y-107926190D01*
X80935714Y-107902381D01*
X81269048Y-107902381D01*
X81459524Y-107926190D01*
X81554762Y-107973809D01*
X81602381Y-108021428D01*
X81602381Y-108116666D01*
X81554762Y-108164285D01*
X81459524Y-108211904D01*
X81269048Y-108235714D01*
X80935714Y-108235714D01*
X80745238Y-108211904D01*
X80650000Y-108164285D01*
X80602381Y-108116666D01*
X80697619Y-107711904D02*
X80650000Y-107688094D01*
X80602381Y-107640475D01*
X80602381Y-107521428D01*
X80650000Y-107473809D01*
X80697619Y-107449999D01*
X80792857Y-107426190D01*
X80888095Y-107426190D01*
X81030952Y-107449999D01*
X81602381Y-107735713D01*
X81602381Y-107426190D01*
X82450000Y-109188095D02*
X82402381Y-109235714D01*
X82402381Y-109307142D01*
X82450000Y-109378571D01*
X82545238Y-109426190D01*
X82640476Y-109449999D01*
X82830952Y-109473809D01*
X82973810Y-109473809D01*
X83164286Y-109449999D01*
X83259524Y-109426190D01*
X83354762Y-109378571D01*
X83402381Y-109307142D01*
X83402381Y-109259523D01*
X83354762Y-109188095D01*
X83307143Y-109164285D01*
X82973810Y-109164285D01*
X82973810Y-109259523D01*
X83402381Y-108949999D02*
X82402381Y-108949999D01*
X82402381Y-108759523D01*
X82450000Y-108711904D01*
X82497619Y-108688095D01*
X82592857Y-108664285D01*
X82735714Y-108664285D01*
X82830952Y-108688095D01*
X82878571Y-108711904D01*
X82926190Y-108759523D01*
X82926190Y-108949999D01*
X83402381Y-108449999D02*
X82402381Y-108449999D01*
X82402381Y-108116666D02*
X82402381Y-108021428D01*
X82450000Y-107973809D01*
X82545238Y-107926190D01*
X82735714Y-107902381D01*
X83069048Y-107902381D01*
X83259524Y-107926190D01*
X83354762Y-107973809D01*
X83402381Y-108021428D01*
X83402381Y-108116666D01*
X83354762Y-108164285D01*
X83259524Y-108211904D01*
X83069048Y-108235714D01*
X82735714Y-108235714D01*
X82545238Y-108211904D01*
X82450000Y-108164285D01*
X82402381Y-108116666D01*
X82402381Y-107592856D02*
X82402381Y-107545237D01*
X82450000Y-107497618D01*
X82497619Y-107473809D01*
X82592857Y-107449999D01*
X82783333Y-107426190D01*
X83021429Y-107426190D01*
X83211905Y-107449999D01*
X83307143Y-107473809D01*
X83354762Y-107497618D01*
X83402381Y-107545237D01*
X83402381Y-107592856D01*
X83354762Y-107640475D01*
X83307143Y-107664285D01*
X83211905Y-107688094D01*
X83021429Y-107711904D01*
X82783333Y-107711904D01*
X82592857Y-107688094D01*
X82497619Y-107664285D01*
X82450000Y-107640475D01*
X82402381Y-107592856D01*
X79802381Y-109369047D02*
X78802381Y-109369047D01*
X79516667Y-109202381D01*
X78802381Y-109035714D01*
X79802381Y-109035714D01*
X78802381Y-108869047D02*
X78802381Y-108583333D01*
X79802381Y-108726190D02*
X78802381Y-108726190D01*
X79802381Y-108416666D02*
X78802381Y-108416666D01*
X78802381Y-108297619D01*
X78850000Y-108226190D01*
X78945238Y-108178571D01*
X79040476Y-108154762D01*
X79230952Y-108130952D01*
X79373810Y-108130952D01*
X79564286Y-108154762D01*
X79659524Y-108178571D01*
X79754762Y-108226190D01*
X79802381Y-108297619D01*
X79802381Y-108416666D01*
X78802381Y-107821428D02*
X78802381Y-107726190D01*
X78850000Y-107678571D01*
X78945238Y-107630952D01*
X79135714Y-107607143D01*
X79469048Y-107607143D01*
X79659524Y-107630952D01*
X79754762Y-107678571D01*
X79802381Y-107726190D01*
X79802381Y-107821428D01*
X79754762Y-107869047D01*
X79659524Y-107916666D01*
X79469048Y-107940476D01*
X79135714Y-107940476D01*
X78945238Y-107916666D01*
X78850000Y-107869047D01*
X78802381Y-107821428D01*
X106650000Y-93888095D02*
X106602381Y-93935714D01*
X106602381Y-94007142D01*
X106650000Y-94078571D01*
X106745238Y-94126190D01*
X106840476Y-94149999D01*
X107030952Y-94173809D01*
X107173810Y-94173809D01*
X107364286Y-94149999D01*
X107459524Y-94126190D01*
X107554762Y-94078571D01*
X107602381Y-94007142D01*
X107602381Y-93959523D01*
X107554762Y-93888095D01*
X107507143Y-93864285D01*
X107173810Y-93864285D01*
X107173810Y-93959523D01*
X107602381Y-93649999D02*
X106602381Y-93649999D01*
X106602381Y-93459523D01*
X106650000Y-93411904D01*
X106697619Y-93388095D01*
X106792857Y-93364285D01*
X106935714Y-93364285D01*
X107030952Y-93388095D01*
X107078571Y-93411904D01*
X107126190Y-93459523D01*
X107126190Y-93649999D01*
X107602381Y-93149999D02*
X106602381Y-93149999D01*
X106602381Y-92816666D02*
X106602381Y-92721428D01*
X106650000Y-92673809D01*
X106745238Y-92626190D01*
X106935714Y-92602381D01*
X107269048Y-92602381D01*
X107459524Y-92626190D01*
X107554762Y-92673809D01*
X107602381Y-92721428D01*
X107602381Y-92816666D01*
X107554762Y-92864285D01*
X107459524Y-92911904D01*
X107269048Y-92935714D01*
X106935714Y-92935714D01*
X106745238Y-92911904D01*
X106650000Y-92864285D01*
X106602381Y-92816666D01*
X106602381Y-92173809D02*
X106602381Y-92269047D01*
X106650000Y-92316666D01*
X106697619Y-92340475D01*
X106840476Y-92388094D01*
X107030952Y-92411904D01*
X107411905Y-92411904D01*
X107507143Y-92388094D01*
X107554762Y-92364285D01*
X107602381Y-92316666D01*
X107602381Y-92221428D01*
X107554762Y-92173809D01*
X107507143Y-92149999D01*
X107411905Y-92126190D01*
X107173810Y-92126190D01*
X107078571Y-92149999D01*
X107030952Y-92173809D01*
X106983333Y-92221428D01*
X106983333Y-92316666D01*
X107030952Y-92364285D01*
X107078571Y-92388094D01*
X107173810Y-92411904D01*
X101450000Y-93888095D02*
X101402381Y-93935714D01*
X101402381Y-94007142D01*
X101450000Y-94078571D01*
X101545238Y-94126190D01*
X101640476Y-94149999D01*
X101830952Y-94173809D01*
X101973810Y-94173809D01*
X102164286Y-94149999D01*
X102259524Y-94126190D01*
X102354762Y-94078571D01*
X102402381Y-94007142D01*
X102402381Y-93959523D01*
X102354762Y-93888095D01*
X102307143Y-93864285D01*
X101973810Y-93864285D01*
X101973810Y-93959523D01*
X102402381Y-93649999D02*
X101402381Y-93649999D01*
X101402381Y-93459523D01*
X101450000Y-93411904D01*
X101497619Y-93388095D01*
X101592857Y-93364285D01*
X101735714Y-93364285D01*
X101830952Y-93388095D01*
X101878571Y-93411904D01*
X101926190Y-93459523D01*
X101926190Y-93649999D01*
X102402381Y-93149999D02*
X101402381Y-93149999D01*
X101402381Y-92816666D02*
X101402381Y-92721428D01*
X101450000Y-92673809D01*
X101545238Y-92626190D01*
X101735714Y-92602381D01*
X102069048Y-92602381D01*
X102259524Y-92626190D01*
X102354762Y-92673809D01*
X102402381Y-92721428D01*
X102402381Y-92816666D01*
X102354762Y-92864285D01*
X102259524Y-92911904D01*
X102069048Y-92935714D01*
X101735714Y-92935714D01*
X101545238Y-92911904D01*
X101450000Y-92864285D01*
X101402381Y-92816666D01*
X101402381Y-92149999D02*
X101402381Y-92388094D01*
X101878571Y-92411904D01*
X101830952Y-92388094D01*
X101783333Y-92340475D01*
X101783333Y-92221428D01*
X101830952Y-92173809D01*
X101878571Y-92149999D01*
X101973810Y-92126190D01*
X102211905Y-92126190D01*
X102307143Y-92149999D01*
X102354762Y-92173809D01*
X102402381Y-92221428D01*
X102402381Y-92340475D01*
X102354762Y-92388094D01*
X102307143Y-92411904D01*
D12*
X61178571Y-102000000D02*
X59678571Y-102000000D01*
X61178571Y-101142857D01*
X59678571Y-101142857D01*
X59678571Y-100142857D02*
X59678571Y-99857143D01*
X59750000Y-99714285D01*
X59892857Y-99571428D01*
X60178571Y-99500000D01*
X60678571Y-99500000D01*
X60964286Y-99571428D01*
X61107143Y-99714285D01*
X61178571Y-99857143D01*
X61178571Y-100142857D01*
X61107143Y-100285714D01*
X60964286Y-100428571D01*
X60678571Y-100500000D01*
X60178571Y-100500000D01*
X59892857Y-100428571D01*
X59750000Y-100285714D01*
X59678571Y-100142857D01*
X61107143Y-97785714D02*
X61178571Y-97571428D01*
X61178571Y-97214285D01*
X61107143Y-97071428D01*
X61035714Y-96999999D01*
X60892857Y-96928571D01*
X60750000Y-96928571D01*
X60607143Y-96999999D01*
X60535714Y-97071428D01*
X60464286Y-97214285D01*
X60392857Y-97499999D01*
X60321429Y-97642857D01*
X60250000Y-97714285D01*
X60107143Y-97785714D01*
X59964286Y-97785714D01*
X59821429Y-97714285D01*
X59750000Y-97642857D01*
X59678571Y-97499999D01*
X59678571Y-97142857D01*
X59750000Y-96928571D01*
X59678571Y-96500000D02*
X59678571Y-95642857D01*
X61178571Y-96071428D02*
X59678571Y-96071428D01*
X60392857Y-95142857D02*
X60392857Y-94642857D01*
X61178571Y-94428571D02*
X61178571Y-95142857D01*
X59678571Y-95142857D01*
X59678571Y-94428571D01*
X61178571Y-93785714D02*
X59678571Y-93785714D01*
X59678571Y-93214286D01*
X59750000Y-93071428D01*
X59821429Y-93000000D01*
X59964286Y-92928571D01*
X60178571Y-92928571D01*
X60321429Y-93000000D01*
X60392857Y-93071428D01*
X60464286Y-93214286D01*
X60464286Y-93785714D01*
D10*
X102595000Y-94039000D02*
X106405000Y-94039000D01*
X106405000Y-94039000D02*
X106405000Y-92261000D01*
X106405000Y-92261000D02*
X102595000Y-92261000D01*
X102595000Y-94039000D02*
X102595000Y-92261000D01*
D13*
X77000000Y-96000000D02*
X77500000Y-96000000D01*
X77000000Y-96000000D02*
X77000000Y-96500000D01*
X78500000Y-96000000D02*
X78000000Y-96000000D01*
X78500000Y-96000000D02*
X78500000Y-96500000D01*
X78500000Y-99100000D02*
X78500000Y-98600000D01*
X78500000Y-99100000D02*
X78000000Y-99100000D01*
X77000000Y-99100000D02*
X77000000Y-98600000D01*
X77000000Y-99100000D02*
X77500000Y-99100000D01*
X77350000Y-97150000D02*
X78150000Y-97150000D01*
X77350000Y-97950000D02*
X78150000Y-97950000D01*
X77350000Y-98350000D02*
X78150000Y-98350000D01*
X78150000Y-98350000D02*
X78150000Y-96750000D01*
X78150000Y-96750000D02*
X77350000Y-96750000D01*
X77350000Y-96750000D02*
X77350000Y-98350000D01*
D10*
X86106700Y-98834120D02*
X82906700Y-98834120D01*
X82906700Y-98834120D02*
X82906700Y-96234120D01*
X82906700Y-96234120D02*
X86106700Y-96234120D01*
X86106700Y-96234120D02*
X86106700Y-98834120D01*
X85085800Y-100825000D02*
X85085800Y-101350000D01*
X79835800Y-106075000D02*
X79835800Y-105550000D01*
X85085800Y-106075000D02*
X85085800Y-105550000D01*
X79835800Y-100825000D02*
X80360800Y-100825000D01*
X79835800Y-106075000D02*
X80360800Y-106075000D01*
X85085800Y-106075000D02*
X84560800Y-106075000D01*
X85085800Y-100825000D02*
X84560800Y-100825000D01*
D13*
X76650000Y-99100000D02*
X76150000Y-99100000D01*
X76650000Y-99100000D02*
X76650000Y-98600000D01*
X75150000Y-99100000D02*
X75650000Y-99100000D01*
X75150000Y-99100000D02*
X75150000Y-98600000D01*
X75150000Y-96000000D02*
X75150000Y-96500000D01*
X75150000Y-96000000D02*
X75650000Y-96000000D01*
X76650000Y-96000000D02*
X76650000Y-96500000D01*
X76650000Y-96000000D02*
X76150000Y-96000000D01*
X76300000Y-97950000D02*
X75500000Y-97950000D01*
X76300000Y-97150000D02*
X75500000Y-97150000D01*
X76300000Y-96750000D02*
X75500000Y-96750000D01*
X75500000Y-96750000D02*
X75500000Y-98350000D01*
X75500000Y-98350000D02*
X76300000Y-98350000D01*
X76300000Y-98350000D02*
X76300000Y-96750000D01*
X78245200Y-92850000D02*
X78245200Y-93350000D01*
X78245200Y-92850000D02*
X77745200Y-92850000D01*
X78245200Y-94350000D02*
X78245200Y-93850000D01*
X78245200Y-94350000D02*
X77745200Y-94350000D01*
X75145200Y-94350000D02*
X75645200Y-94350000D01*
X75145200Y-94350000D02*
X75145200Y-93850000D01*
X75145200Y-92850000D02*
X75645200Y-92850000D01*
X75145200Y-92850000D02*
X75145200Y-93350000D01*
X77095200Y-93200000D02*
X77095200Y-94000000D01*
X76295200Y-93200000D02*
X76295200Y-94000000D01*
X75895200Y-93200000D02*
X75895200Y-94000000D01*
X75895200Y-94000000D02*
X77495200Y-94000000D01*
X77495200Y-94000000D02*
X77495200Y-93200000D01*
X77495200Y-93200000D02*
X75895200Y-93200000D01*
X79032800Y-107300000D02*
X78532800Y-107300000D01*
X79032800Y-107300000D02*
X79032800Y-106800000D01*
X77532800Y-107300000D02*
X78032800Y-107300000D01*
X77532800Y-107300000D02*
X77532800Y-106800000D01*
X77532800Y-104200000D02*
X77532800Y-104700000D01*
X77532800Y-104200000D02*
X78032800Y-104200000D01*
X79032800Y-104200000D02*
X79032800Y-104700000D01*
X79032800Y-104200000D02*
X78532800Y-104200000D01*
X78682800Y-106150000D02*
X77882800Y-106150000D01*
X78682800Y-105350000D02*
X77882800Y-105350000D01*
X78682800Y-104950000D02*
X77882800Y-104950000D01*
X77882800Y-104950000D02*
X77882800Y-106550000D01*
X77882800Y-106550000D02*
X78682800Y-106550000D01*
X78682800Y-106550000D02*
X78682800Y-104950000D01*
X80750000Y-96000000D02*
X81250000Y-96000000D01*
X80750000Y-96000000D02*
X80750000Y-96500000D01*
X82250000Y-96000000D02*
X81750000Y-96000000D01*
X82250000Y-96000000D02*
X82250000Y-96500000D01*
X82250000Y-99100000D02*
X82250000Y-98600000D01*
X82250000Y-99100000D02*
X81750000Y-99100000D01*
X80750000Y-99100000D02*
X80750000Y-98600000D01*
X80750000Y-99100000D02*
X81250000Y-99100000D01*
X81100000Y-97150000D02*
X81900000Y-97150000D01*
X81100000Y-97950000D02*
X81900000Y-97950000D01*
X81100000Y-98350000D02*
X81900000Y-98350000D01*
X81900000Y-98350000D02*
X81900000Y-96750000D01*
X81900000Y-96750000D02*
X81100000Y-96750000D01*
X81100000Y-96750000D02*
X81100000Y-98350000D01*
X88250000Y-99089000D02*
X87750000Y-99089000D01*
X88250000Y-99089000D02*
X88250000Y-98589000D01*
X86750000Y-99089000D02*
X87250000Y-99089000D01*
X86750000Y-99089000D02*
X86750000Y-98589000D01*
X86750000Y-95989000D02*
X86750000Y-96489000D01*
X86750000Y-95989000D02*
X87250000Y-95989000D01*
X88250000Y-95989000D02*
X88250000Y-96489000D01*
X88250000Y-95989000D02*
X87750000Y-95989000D01*
X87900000Y-97939000D02*
X87100000Y-97939000D01*
X87900000Y-97139000D02*
X87100000Y-97139000D01*
X87900000Y-96739000D02*
X87100000Y-96739000D01*
X87100000Y-96739000D02*
X87100000Y-98339000D01*
X87100000Y-98339000D02*
X87900000Y-98339000D01*
X87900000Y-98339000D02*
X87900000Y-96739000D01*
X70338200Y-102950000D02*
X70338200Y-102450000D01*
X70338200Y-102950000D02*
X70838200Y-102950000D01*
X70338200Y-101450000D02*
X70338200Y-101950000D01*
X70338200Y-101450000D02*
X70838200Y-101450000D01*
X73438200Y-101450000D02*
X72938200Y-101450000D01*
X73438200Y-101450000D02*
X73438200Y-101950000D01*
X73438200Y-102950000D02*
X72938200Y-102950000D01*
X73438200Y-102950000D02*
X73438200Y-102450000D01*
X71488200Y-102600000D02*
X71488200Y-101800000D01*
X72288200Y-102600000D02*
X72288200Y-101800000D01*
X72688200Y-102600000D02*
X72688200Y-101800000D01*
X72688200Y-101800000D02*
X71088200Y-101800000D01*
X71088200Y-101800000D02*
X71088200Y-102600000D01*
X71088200Y-102600000D02*
X72688200Y-102600000D01*
X104250000Y-95902280D02*
X104250000Y-96402280D01*
X103750000Y-95902280D02*
X104250000Y-95902280D01*
X102750000Y-95902280D02*
X103250000Y-95902280D01*
X102750000Y-96402280D02*
X102750000Y-95902280D01*
X102750000Y-98902280D02*
X102750000Y-98402280D01*
X103250000Y-98902280D02*
X102750000Y-98902280D01*
X104250000Y-98902280D02*
X103750000Y-98902280D01*
X104250000Y-98902280D02*
X104250000Y-98402280D01*
X103900000Y-96602280D02*
X103100000Y-96602280D01*
X103100000Y-96602280D02*
X103100000Y-98202280D01*
X103100000Y-98202280D02*
X103900000Y-98202280D01*
X103900000Y-98202280D02*
X103900000Y-96602280D01*
X97676360Y-95900000D02*
X97676360Y-96400000D01*
X97176360Y-95900000D02*
X97676360Y-95900000D01*
X96176360Y-95900000D02*
X96676360Y-95900000D01*
X96176360Y-96400000D02*
X96176360Y-95900000D01*
X96176360Y-98900000D02*
X96176360Y-98400000D01*
X96676360Y-98900000D02*
X96176360Y-98900000D01*
X97676360Y-98900000D02*
X97176360Y-98900000D01*
X97676360Y-98900000D02*
X97676360Y-98400000D01*
X97326360Y-96600000D02*
X96526360Y-96600000D01*
X96526360Y-96600000D02*
X96526360Y-98200000D01*
X96526360Y-98200000D02*
X97326360Y-98200000D01*
X97326360Y-98200000D02*
X97326360Y-96600000D01*
X99300000Y-95900000D02*
X99300000Y-96400000D01*
X98800000Y-95900000D02*
X99300000Y-95900000D01*
X97800000Y-95900000D02*
X98300000Y-95900000D01*
X97800000Y-96400000D02*
X97800000Y-95900000D01*
X97800000Y-98900000D02*
X97800000Y-98400000D01*
X98300000Y-98900000D02*
X97800000Y-98900000D01*
X99300000Y-98900000D02*
X98800000Y-98900000D01*
X99300000Y-98900000D02*
X99300000Y-98400000D01*
X98950000Y-96600000D02*
X98150000Y-96600000D01*
X98150000Y-96600000D02*
X98150000Y-98200000D01*
X98150000Y-98200000D02*
X98950000Y-98200000D01*
X98950000Y-98200000D02*
X98950000Y-96600000D01*
X102606500Y-95900000D02*
X102606500Y-96400000D01*
X102106500Y-95900000D02*
X102606500Y-95900000D01*
X101106500Y-95900000D02*
X101606500Y-95900000D01*
X101106500Y-96400000D02*
X101106500Y-95900000D01*
X101106500Y-98900000D02*
X101106500Y-98400000D01*
X101606500Y-98900000D02*
X101106500Y-98900000D01*
X102606500Y-98900000D02*
X102106500Y-98900000D01*
X102606500Y-98900000D02*
X102606500Y-98400000D01*
X102256500Y-96600000D02*
X101456500Y-96600000D01*
X101456500Y-96600000D02*
X101456500Y-98200000D01*
X101456500Y-98200000D02*
X102256500Y-98200000D01*
X102256500Y-98200000D02*
X102256500Y-96600000D01*
X100950000Y-95900000D02*
X100950000Y-96400000D01*
X100450000Y-95900000D02*
X100950000Y-95900000D01*
X99450000Y-95900000D02*
X99950000Y-95900000D01*
X99450000Y-96400000D02*
X99450000Y-95900000D01*
X99450000Y-98900000D02*
X99450000Y-98400000D01*
X99950000Y-98900000D02*
X99450000Y-98900000D01*
X100950000Y-98900000D02*
X100450000Y-98900000D01*
X100950000Y-98900000D02*
X100950000Y-98400000D01*
X100600000Y-96600000D02*
X99800000Y-96600000D01*
X99800000Y-96600000D02*
X99800000Y-98200000D01*
X99800000Y-98200000D02*
X100600000Y-98200000D01*
X100600000Y-98200000D02*
X100600000Y-96600000D01*
X80350000Y-96050000D02*
X80350000Y-96550000D01*
X79850000Y-96050000D02*
X80350000Y-96050000D01*
X78850000Y-96050000D02*
X79350000Y-96050000D01*
X78850000Y-96550000D02*
X78850000Y-96050000D01*
X78850000Y-99050000D02*
X78850000Y-98550000D01*
X79350000Y-99050000D02*
X78850000Y-99050000D01*
X80350000Y-99050000D02*
X79850000Y-99050000D01*
X80350000Y-99050000D02*
X80350000Y-98550000D01*
X80000000Y-96750000D02*
X79200000Y-96750000D01*
X79200000Y-96750000D02*
X79200000Y-98350000D01*
X79200000Y-98350000D02*
X80000000Y-98350000D01*
X80000000Y-98350000D02*
X80000000Y-96750000D01*
X67300000Y-107600000D02*
X67900000Y-107600000D01*
X67300000Y-108000000D02*
X67300000Y-107500000D01*
X67300000Y-108000000D02*
X67900000Y-108000000D01*
X67900000Y-108000000D02*
X67900000Y-107500000D01*
X67800000Y-106500000D02*
G75*
G03X67800000Y-106500000I-200000J0D01*
G01*
X68600000Y-106500000D02*
G75*
G03X68600000Y-106500000I-1000000J0D01*
G01*
X68800000Y-104700000D02*
G75*
G03X68800000Y-104700000I-200000J0D01*
G01*
X68900000Y-105200000D02*
X66300000Y-105200000D01*
X66300000Y-105200000D02*
X66300000Y-107800000D01*
X66300000Y-107800000D02*
X68900000Y-107800000D01*
X68900000Y-107800000D02*
X68900000Y-105200000D01*
X68350000Y-101500000D02*
X68350000Y-102000000D01*
X67850000Y-101500000D02*
X68350000Y-101500000D01*
X66850000Y-101500000D02*
X67350000Y-101500000D01*
X66850000Y-102000000D02*
X66850000Y-101500000D01*
X66850000Y-104500000D02*
X66850000Y-104000000D01*
X67350000Y-104500000D02*
X66850000Y-104500000D01*
X68350000Y-104500000D02*
X67850000Y-104500000D01*
X68350000Y-104500000D02*
X68350000Y-104000000D01*
X68000000Y-102200000D02*
X67200000Y-102200000D01*
X67200000Y-102200000D02*
X67200000Y-103800000D01*
X67200000Y-103800000D02*
X68000000Y-103800000D01*
X68000000Y-103800000D02*
X68000000Y-102200000D01*
X65238400Y-101450000D02*
X65738400Y-101450000D01*
X65238400Y-101950000D02*
X65238400Y-101450000D01*
X65238400Y-102950000D02*
X65238400Y-102450000D01*
X65738400Y-102950000D02*
X65238400Y-102950000D01*
X68238400Y-102950000D02*
X67738400Y-102950000D01*
X68238400Y-102450000D02*
X68238400Y-102950000D01*
X68238400Y-101450000D02*
X68238400Y-101950000D01*
X68238400Y-101450000D02*
X67738400Y-101450000D01*
X65938400Y-101800000D02*
X65938400Y-102600000D01*
X65938400Y-102600000D02*
X67538400Y-102600000D01*
X67538400Y-102600000D02*
X67538400Y-101800000D01*
X67538400Y-101800000D02*
X65938400Y-101800000D01*
D10*
X71678800Y-100279200D02*
X74726800Y-100279200D01*
X74726800Y-100279200D02*
X74726800Y-93167200D01*
X74726800Y-93167200D02*
X71678800Y-93167200D01*
X68630800Y-100279200D02*
X67868800Y-100279200D01*
X67868800Y-100279200D02*
X65582800Y-98755200D01*
X65582800Y-98755200D02*
X65582800Y-94691200D01*
X65582800Y-94691200D02*
X67868800Y-93167200D01*
X67868800Y-93167200D02*
X68630800Y-93167200D01*
X92768780Y-112189860D02*
X93129460Y-113660520D01*
X93129460Y-113660520D02*
X93408860Y-112598800D01*
X93408860Y-112598800D02*
X93718740Y-113670680D01*
X93718740Y-113670680D02*
X94059100Y-112220340D01*
X91348920Y-112880740D02*
X92138860Y-112870580D01*
X92138860Y-112870580D02*
X92149020Y-112880740D01*
X92149020Y-112880740D02*
X92149020Y-112870580D01*
X92189660Y-112159380D02*
X92189660Y-113701160D01*
X91300660Y-112149220D02*
X91300660Y-113718940D01*
X91300660Y-113718940D02*
X91310820Y-113708780D01*
X90749480Y-112250820D02*
X90398960Y-112169540D01*
X90398960Y-112169540D02*
X90078920Y-112159380D01*
X90078920Y-112159380D02*
X89840160Y-112360040D01*
X89840160Y-112360040D02*
X89809680Y-112629280D01*
X89809680Y-112629280D02*
X90050980Y-112870580D01*
X90050980Y-112870580D02*
X90439600Y-113000120D01*
X90439600Y-113000120D02*
X90619940Y-113160140D01*
X90619940Y-113160140D02*
X90660580Y-113459860D01*
X90660580Y-113459860D02*
X90429440Y-113680840D01*
X90429440Y-113680840D02*
X90109400Y-113708780D01*
X90109400Y-113708780D02*
X89758880Y-113599560D01*
X88720020Y-112149220D02*
X88471100Y-112169540D01*
X88471100Y-112169540D02*
X88229800Y-112410840D01*
X88229800Y-112410840D02*
X88140900Y-112901060D01*
X88140900Y-112901060D02*
X88168840Y-113249040D01*
X88168840Y-113249040D02*
X88369500Y-113569080D01*
X88369500Y-113569080D02*
X88620960Y-113691000D01*
X88620960Y-113691000D02*
X88930840Y-113619880D01*
X88930840Y-113619880D02*
X89149280Y-113439540D01*
X89149280Y-113439540D02*
X89220400Y-112979800D01*
X89220400Y-112979800D02*
X89169600Y-112570860D01*
X89169600Y-112570860D02*
X89060380Y-112288920D01*
X89060380Y-112288920D02*
X88699700Y-112159380D01*
X89319460Y-110429640D02*
X89060380Y-110990980D01*
X89060380Y-110990980D02*
X89598860Y-111509140D01*
X89598860Y-111509140D02*
X90119560Y-111239900D01*
X90119560Y-111239900D02*
X90398960Y-111399920D01*
X91839140Y-111379600D02*
X92169340Y-111189100D01*
X92169340Y-111189100D02*
X92608760Y-111519300D01*
X92608760Y-111519300D02*
X93081200Y-111029080D01*
X93081200Y-111029080D02*
X92799260Y-110549020D01*
X92799260Y-110549020D02*
X92989760Y-110079120D01*
X92989760Y-110079120D02*
X93599360Y-109891160D01*
X93599360Y-109891160D02*
X93599360Y-109210440D01*
X93599360Y-109210440D02*
X93040560Y-109070740D01*
X93040560Y-109070740D02*
X92839900Y-108499240D01*
X92839900Y-108499240D02*
X93109140Y-108029340D01*
X93109140Y-108029340D02*
X92639240Y-107518800D01*
X92639240Y-107518800D02*
X92121080Y-107780420D01*
X92121080Y-107780420D02*
X91651180Y-107579760D01*
X91651180Y-107579760D02*
X91481000Y-107038740D01*
X91481000Y-107038740D02*
X90790120Y-107020960D01*
X90790120Y-107020960D02*
X90579300Y-107569600D01*
X90579300Y-107569600D02*
X90160200Y-107739780D01*
X90160200Y-107739780D02*
X89609020Y-107470540D01*
X89609020Y-107470540D02*
X89090860Y-107998860D01*
X89090860Y-107998860D02*
X89339780Y-108539880D01*
X89339780Y-108539880D02*
X89169600Y-109019940D01*
X89169600Y-109019940D02*
X88620960Y-109119000D01*
X88620960Y-109119000D02*
X88610800Y-109820040D01*
X88610800Y-109820040D02*
X89169600Y-110020700D01*
X89169600Y-110020700D02*
X89309300Y-110419480D01*
X91450520Y-110399160D02*
X91750240Y-110249300D01*
X91750240Y-110249300D02*
X91950900Y-110051180D01*
X91950900Y-110051180D02*
X92100760Y-109649860D01*
X92100760Y-109649860D02*
X92100760Y-109251080D01*
X92100760Y-109251080D02*
X91950900Y-108900560D01*
X91950900Y-108900560D02*
X91498780Y-108550040D01*
X91498780Y-108550040D02*
X91049200Y-108499240D01*
X91049200Y-108499240D02*
X90650420Y-108600840D01*
X90650420Y-108600840D02*
X90249100Y-108948820D01*
X90249100Y-108948820D02*
X90099240Y-109400940D01*
X90099240Y-109400940D02*
X90150040Y-109898780D01*
X90150040Y-109898780D02*
X90398960Y-110201040D01*
X90398960Y-110201040D02*
X90749480Y-110399160D01*
X90749480Y-110399160D02*
X90398960Y-111399920D01*
X91450520Y-110399160D02*
X91849300Y-111399920D01*
X78408580Y-109632940D02*
X78408580Y-112172940D01*
X80186580Y-112172940D02*
X80186580Y-109632940D01*
X80186580Y-112172940D02*
X78408580Y-112172940D01*
X78408580Y-109632940D02*
X80186580Y-109632940D01*
X82005220Y-109640560D02*
X82005220Y-112180560D01*
X83783220Y-112180560D02*
X83783220Y-109640560D01*
X83783220Y-112180560D02*
X82005220Y-112180560D01*
X82005220Y-109640560D02*
X83783220Y-109640560D01*
X80194200Y-109640560D02*
X80194200Y-112180560D01*
X81972200Y-112180560D02*
X81972200Y-109640560D01*
X81972200Y-112180560D02*
X80194200Y-112180560D01*
X80194200Y-109640560D02*
X81972200Y-109640560D01*
D13*
X105900000Y-95900000D02*
X105900000Y-96400000D01*
X105400000Y-95900000D02*
X105900000Y-95900000D01*
X104400000Y-95900000D02*
X104900000Y-95900000D01*
X104400000Y-96400000D02*
X104400000Y-95900000D01*
X104400000Y-98900000D02*
X104400000Y-98400000D01*
X104900000Y-98900000D02*
X104400000Y-98900000D01*
X105900000Y-98900000D02*
X105400000Y-98900000D01*
X105900000Y-98900000D02*
X105900000Y-98400000D01*
X105550000Y-96600000D02*
X104750000Y-96600000D01*
X104750000Y-96600000D02*
X104750000Y-98200000D01*
X104750000Y-98200000D02*
X105550000Y-98200000D01*
X105550000Y-98200000D02*
X105550000Y-96600000D01*
X75100000Y-92850000D02*
X75100000Y-92350000D01*
X75100000Y-92850000D02*
X75600000Y-92850000D01*
X75100000Y-91350000D02*
X75100000Y-91850000D01*
X75100000Y-91350000D02*
X75600000Y-91350000D01*
X78200000Y-91350000D02*
X77700000Y-91350000D01*
X78200000Y-91350000D02*
X78200000Y-91850000D01*
X78200000Y-92850000D02*
X77700000Y-92850000D01*
X78200000Y-92850000D02*
X78200000Y-92350000D01*
X76250000Y-92500000D02*
X76250000Y-91700000D01*
X77050000Y-92500000D02*
X77050000Y-91700000D01*
X77450000Y-92500000D02*
X77450000Y-91700000D01*
X77450000Y-91700000D02*
X75850000Y-91700000D01*
X75850000Y-91700000D02*
X75850000Y-92500000D01*
X75850000Y-92500000D02*
X77450000Y-92500000D01*
X70350000Y-104450000D02*
X69850000Y-104450000D01*
X70350000Y-104450000D02*
X70350000Y-103950000D01*
X68850000Y-104450000D02*
X69350000Y-104450000D01*
X68850000Y-104450000D02*
X68850000Y-103950000D01*
X68850000Y-101350000D02*
X68850000Y-101850000D01*
X68850000Y-101350000D02*
X69350000Y-101350000D01*
X70350000Y-101350000D02*
X70350000Y-101850000D01*
X70350000Y-101350000D02*
X69850000Y-101350000D01*
X70000000Y-103300000D02*
X69200000Y-103300000D01*
X70000000Y-102500000D02*
X69200000Y-102500000D01*
X70000000Y-102100000D02*
X69200000Y-102100000D01*
X69200000Y-102100000D02*
X69200000Y-103700000D01*
X69200000Y-103700000D02*
X70000000Y-103700000D01*
X70000000Y-103700000D02*
X70000000Y-102100000D01*
X74950000Y-104450000D02*
X74450000Y-104450000D01*
X74950000Y-104450000D02*
X74950000Y-103950000D01*
X73450000Y-104450000D02*
X73950000Y-104450000D01*
X73450000Y-104450000D02*
X73450000Y-103950000D01*
X73450000Y-101350000D02*
X73450000Y-101850000D01*
X73450000Y-101350000D02*
X73950000Y-101350000D01*
X74950000Y-101350000D02*
X74950000Y-101850000D01*
X74950000Y-101350000D02*
X74450000Y-101350000D01*
X74600000Y-103300000D02*
X73800000Y-103300000D01*
X74600000Y-102500000D02*
X73800000Y-102500000D01*
X74600000Y-102100000D02*
X73800000Y-102100000D01*
X73800000Y-102100000D02*
X73800000Y-103700000D01*
X73800000Y-103700000D02*
X74600000Y-103700000D01*
X74600000Y-103700000D02*
X74600000Y-102100000D01*
D11*
X102652381Y-91735714D02*
X102614286Y-91773810D01*
X102500000Y-91811905D01*
X102423810Y-91811905D01*
X102309524Y-91773810D01*
X102233333Y-91697619D01*
X102195238Y-91621429D01*
X102157143Y-91469048D01*
X102157143Y-91354762D01*
X102195238Y-91202381D01*
X102233333Y-91126190D01*
X102309524Y-91050000D01*
X102423810Y-91011905D01*
X102500000Y-91011905D01*
X102614286Y-91050000D01*
X102652381Y-91088095D01*
X102995238Y-91811905D02*
X102995238Y-91011905D01*
X102995238Y-91392857D02*
X103452381Y-91392857D01*
X103452381Y-91811905D02*
X103452381Y-91011905D01*
X103833333Y-91811905D02*
X103833333Y-91011905D01*
X104214285Y-91811905D02*
X104214285Y-91011905D01*
X104519047Y-91011905D01*
X104595238Y-91050000D01*
X104633333Y-91088095D01*
X104671428Y-91164286D01*
X104671428Y-91278571D01*
X104633333Y-91354762D01*
X104595238Y-91392857D01*
X104519047Y-91430952D01*
X104214285Y-91430952D01*
X104823809Y-91888095D02*
X105433333Y-91888095D01*
X105623809Y-91392857D02*
X105890476Y-91392857D01*
X106004762Y-91811905D02*
X105623809Y-91811905D01*
X105623809Y-91011905D01*
X106004762Y-91011905D01*
X106347619Y-91811905D02*
X106347619Y-91011905D01*
X106804762Y-91811905D01*
X106804762Y-91011905D01*
D14*
X77673000Y-95472143D02*
X77636714Y-95508429D01*
X77527857Y-95544714D01*
X77455286Y-95544714D01*
X77346429Y-95508429D01*
X77273857Y-95435857D01*
X77237572Y-95363286D01*
X77201286Y-95218143D01*
X77201286Y-95109286D01*
X77237572Y-94964143D01*
X77273857Y-94891571D01*
X77346429Y-94819000D01*
X77455286Y-94782714D01*
X77527857Y-94782714D01*
X77636714Y-94819000D01*
X77673000Y-94855286D01*
X78362429Y-94782714D02*
X77999572Y-94782714D01*
X77963286Y-95145571D01*
X77999572Y-95109286D01*
X78072143Y-95073000D01*
X78253572Y-95073000D01*
X78326143Y-95109286D01*
X78362429Y-95145571D01*
X78398714Y-95218143D01*
X78398714Y-95399571D01*
X78362429Y-95472143D01*
X78326143Y-95508429D01*
X78253572Y-95544714D01*
X78072143Y-95544714D01*
X77999572Y-95508429D01*
X77963286Y-95472143D01*
D10*
X84023809Y-95026190D02*
X84023809Y-95502381D01*
X83690476Y-94502381D02*
X84023809Y-95026190D01*
X84357143Y-94502381D01*
X85214286Y-95502381D02*
X84642857Y-95502381D01*
X84928571Y-95502381D02*
X84928571Y-94502381D01*
X84833333Y-94645238D01*
X84738095Y-94740476D01*
X84642857Y-94788095D01*
X79488095Y-99402381D02*
X79488095Y-100211905D01*
X79535714Y-100307143D01*
X79583333Y-100354762D01*
X79678571Y-100402381D01*
X79869048Y-100402381D01*
X79964286Y-100354762D01*
X80011905Y-100307143D01*
X80059524Y-100211905D01*
X80059524Y-99402381D01*
X81059524Y-100402381D02*
X80488095Y-100402381D01*
X80773809Y-100402381D02*
X80773809Y-99402381D01*
X80678571Y-99545238D01*
X80583333Y-99640476D01*
X80488095Y-99688095D01*
D14*
X75823000Y-95472143D02*
X75786714Y-95508429D01*
X75677857Y-95544714D01*
X75605286Y-95544714D01*
X75496429Y-95508429D01*
X75423857Y-95435857D01*
X75387572Y-95363286D01*
X75351286Y-95218143D01*
X75351286Y-95109286D01*
X75387572Y-94964143D01*
X75423857Y-94891571D01*
X75496429Y-94819000D01*
X75605286Y-94782714D01*
X75677857Y-94782714D01*
X75786714Y-94819000D01*
X75823000Y-94855286D01*
X76077000Y-94782714D02*
X76585000Y-94782714D01*
X76258429Y-95544714D01*
X78923000Y-93872143D02*
X78886714Y-93908429D01*
X78777857Y-93944714D01*
X78705286Y-93944714D01*
X78596429Y-93908429D01*
X78523857Y-93835857D01*
X78487572Y-93763286D01*
X78451286Y-93618143D01*
X78451286Y-93509286D01*
X78487572Y-93364143D01*
X78523857Y-93291571D01*
X78596429Y-93219000D01*
X78705286Y-93182714D01*
X78777857Y-93182714D01*
X78886714Y-93219000D01*
X78923000Y-93255286D01*
X79576143Y-93182714D02*
X79431000Y-93182714D01*
X79358429Y-93219000D01*
X79322143Y-93255286D01*
X79249572Y-93364143D01*
X79213286Y-93509286D01*
X79213286Y-93799571D01*
X79249572Y-93872143D01*
X79285857Y-93908429D01*
X79358429Y-93944714D01*
X79503572Y-93944714D01*
X79576143Y-93908429D01*
X79612429Y-93872143D01*
X79648714Y-93799571D01*
X79648714Y-93618143D01*
X79612429Y-93545571D01*
X79576143Y-93509286D01*
X79503572Y-93473000D01*
X79358429Y-93473000D01*
X79285857Y-93509286D01*
X79249572Y-93545571D01*
X79213286Y-93618143D01*
X76773000Y-106022143D02*
X76736714Y-106058429D01*
X76627857Y-106094714D01*
X76555286Y-106094714D01*
X76446429Y-106058429D01*
X76373857Y-105985857D01*
X76337572Y-105913286D01*
X76301286Y-105768143D01*
X76301286Y-105659286D01*
X76337572Y-105514143D01*
X76373857Y-105441571D01*
X76446429Y-105369000D01*
X76555286Y-105332714D01*
X76627857Y-105332714D01*
X76736714Y-105369000D01*
X76773000Y-105405286D01*
X77426143Y-105586714D02*
X77426143Y-106094714D01*
X77244714Y-105296429D02*
X77063286Y-105840714D01*
X77535000Y-105840714D01*
X81373000Y-95422143D02*
X81336714Y-95458429D01*
X81227857Y-95494714D01*
X81155286Y-95494714D01*
X81046429Y-95458429D01*
X80973857Y-95385857D01*
X80937572Y-95313286D01*
X80901286Y-95168143D01*
X80901286Y-95059286D01*
X80937572Y-94914143D01*
X80973857Y-94841571D01*
X81046429Y-94769000D01*
X81155286Y-94732714D01*
X81227857Y-94732714D01*
X81336714Y-94769000D01*
X81373000Y-94805286D01*
X81663286Y-94805286D02*
X81699572Y-94769000D01*
X81772143Y-94732714D01*
X81953572Y-94732714D01*
X82026143Y-94769000D01*
X82062429Y-94805286D01*
X82098714Y-94877857D01*
X82098714Y-94950429D01*
X82062429Y-95059286D01*
X81627000Y-95494714D01*
X82098714Y-95494714D01*
X87373000Y-95422143D02*
X87336714Y-95458429D01*
X87227857Y-95494714D01*
X87155286Y-95494714D01*
X87046429Y-95458429D01*
X86973857Y-95385857D01*
X86937572Y-95313286D01*
X86901286Y-95168143D01*
X86901286Y-95059286D01*
X86937572Y-94914143D01*
X86973857Y-94841571D01*
X87046429Y-94769000D01*
X87155286Y-94732714D01*
X87227857Y-94732714D01*
X87336714Y-94769000D01*
X87373000Y-94805286D01*
X88098714Y-95494714D02*
X87663286Y-95494714D01*
X87881000Y-95494714D02*
X87881000Y-94732714D01*
X87808429Y-94841571D01*
X87735857Y-94914143D01*
X87663286Y-94950429D01*
X71873000Y-101222143D02*
X71836714Y-101258429D01*
X71727857Y-101294714D01*
X71655286Y-101294714D01*
X71546429Y-101258429D01*
X71473857Y-101185857D01*
X71437572Y-101113286D01*
X71401286Y-100968143D01*
X71401286Y-100859286D01*
X71437572Y-100714143D01*
X71473857Y-100641571D01*
X71546429Y-100569000D01*
X71655286Y-100532714D01*
X71727857Y-100532714D01*
X71836714Y-100569000D01*
X71873000Y-100605286D01*
X72127000Y-100532714D02*
X72598714Y-100532714D01*
X72344714Y-100823000D01*
X72453572Y-100823000D01*
X72526143Y-100859286D01*
X72562429Y-100895571D01*
X72598714Y-100968143D01*
X72598714Y-101149571D01*
X72562429Y-101222143D01*
X72526143Y-101258429D01*
X72453572Y-101294714D01*
X72235857Y-101294714D01*
X72163286Y-101258429D01*
X72127000Y-101222143D01*
X103844714Y-99927000D02*
X103481857Y-100181000D01*
X103844714Y-100362428D02*
X103082714Y-100362428D01*
X103082714Y-100072143D01*
X103119000Y-99999571D01*
X103155286Y-99963286D01*
X103227857Y-99927000D01*
X103336714Y-99927000D01*
X103409286Y-99963286D01*
X103445571Y-99999571D01*
X103481857Y-100072143D01*
X103481857Y-100362428D01*
X103082714Y-99237571D02*
X103082714Y-99600428D01*
X103445571Y-99636714D01*
X103409286Y-99600428D01*
X103373000Y-99527857D01*
X103373000Y-99346428D01*
X103409286Y-99273857D01*
X103445571Y-99237571D01*
X103518143Y-99201286D01*
X103699571Y-99201286D01*
X103772143Y-99237571D01*
X103808429Y-99273857D01*
X103844714Y-99346428D01*
X103844714Y-99527857D01*
X103808429Y-99600428D01*
X103772143Y-99636714D01*
X97244714Y-99927000D02*
X96881857Y-100181000D01*
X97244714Y-100362428D02*
X96482714Y-100362428D01*
X96482714Y-100072143D01*
X96519000Y-99999571D01*
X96555286Y-99963286D01*
X96627857Y-99927000D01*
X96736714Y-99927000D01*
X96809286Y-99963286D01*
X96845571Y-99999571D01*
X96881857Y-100072143D01*
X96881857Y-100362428D01*
X97244714Y-99564143D02*
X97244714Y-99419000D01*
X97208429Y-99346428D01*
X97172143Y-99310143D01*
X97063286Y-99237571D01*
X96918143Y-99201286D01*
X96627857Y-99201286D01*
X96555286Y-99237571D01*
X96519000Y-99273857D01*
X96482714Y-99346428D01*
X96482714Y-99491571D01*
X96519000Y-99564143D01*
X96555286Y-99600428D01*
X96627857Y-99636714D01*
X96809286Y-99636714D01*
X96881857Y-99600428D01*
X96918143Y-99564143D01*
X96954429Y-99491571D01*
X96954429Y-99346428D01*
X96918143Y-99273857D01*
X96881857Y-99237571D01*
X96809286Y-99201286D01*
X98894714Y-99927000D02*
X98531857Y-100181000D01*
X98894714Y-100362428D02*
X98132714Y-100362428D01*
X98132714Y-100072143D01*
X98169000Y-99999571D01*
X98205286Y-99963286D01*
X98277857Y-99927000D01*
X98386714Y-99927000D01*
X98459286Y-99963286D01*
X98495571Y-99999571D01*
X98531857Y-100072143D01*
X98531857Y-100362428D01*
X98459286Y-99491571D02*
X98423000Y-99564143D01*
X98386714Y-99600428D01*
X98314143Y-99636714D01*
X98277857Y-99636714D01*
X98205286Y-99600428D01*
X98169000Y-99564143D01*
X98132714Y-99491571D01*
X98132714Y-99346428D01*
X98169000Y-99273857D01*
X98205286Y-99237571D01*
X98277857Y-99201286D01*
X98314143Y-99201286D01*
X98386714Y-99237571D01*
X98423000Y-99273857D01*
X98459286Y-99346428D01*
X98459286Y-99491571D01*
X98495571Y-99564143D01*
X98531857Y-99600428D01*
X98604429Y-99636714D01*
X98749571Y-99636714D01*
X98822143Y-99600428D01*
X98858429Y-99564143D01*
X98894714Y-99491571D01*
X98894714Y-99346428D01*
X98858429Y-99273857D01*
X98822143Y-99237571D01*
X98749571Y-99201286D01*
X98604429Y-99201286D01*
X98531857Y-99237571D01*
X98495571Y-99273857D01*
X98459286Y-99346428D01*
X102194714Y-99927000D02*
X101831857Y-100181000D01*
X102194714Y-100362428D02*
X101432714Y-100362428D01*
X101432714Y-100072143D01*
X101469000Y-99999571D01*
X101505286Y-99963286D01*
X101577857Y-99927000D01*
X101686714Y-99927000D01*
X101759286Y-99963286D01*
X101795571Y-99999571D01*
X101831857Y-100072143D01*
X101831857Y-100362428D01*
X101432714Y-99273857D02*
X101432714Y-99419000D01*
X101469000Y-99491571D01*
X101505286Y-99527857D01*
X101614143Y-99600428D01*
X101759286Y-99636714D01*
X102049571Y-99636714D01*
X102122143Y-99600428D01*
X102158429Y-99564143D01*
X102194714Y-99491571D01*
X102194714Y-99346428D01*
X102158429Y-99273857D01*
X102122143Y-99237571D01*
X102049571Y-99201286D01*
X101868143Y-99201286D01*
X101795571Y-99237571D01*
X101759286Y-99273857D01*
X101723000Y-99346428D01*
X101723000Y-99491571D01*
X101759286Y-99564143D01*
X101795571Y-99600428D01*
X101868143Y-99636714D01*
X100544714Y-99927000D02*
X100181857Y-100181000D01*
X100544714Y-100362428D02*
X99782714Y-100362428D01*
X99782714Y-100072143D01*
X99819000Y-99999571D01*
X99855286Y-99963286D01*
X99927857Y-99927000D01*
X100036714Y-99927000D01*
X100109286Y-99963286D01*
X100145571Y-99999571D01*
X100181857Y-100072143D01*
X100181857Y-100362428D01*
X99782714Y-99673000D02*
X99782714Y-99165000D01*
X100544714Y-99491571D01*
X79473000Y-95494714D02*
X79219000Y-95131857D01*
X79037572Y-95494714D02*
X79037572Y-94732714D01*
X79327857Y-94732714D01*
X79400429Y-94769000D01*
X79436714Y-94805286D01*
X79473000Y-94877857D01*
X79473000Y-94986714D01*
X79436714Y-95059286D01*
X79400429Y-95095571D01*
X79327857Y-95131857D01*
X79037572Y-95131857D01*
X79727000Y-94732714D02*
X80198714Y-94732714D01*
X79944714Y-95023000D01*
X80053572Y-95023000D01*
X80126143Y-95059286D01*
X80162429Y-95095571D01*
X80198714Y-95168143D01*
X80198714Y-95349571D01*
X80162429Y-95422143D01*
X80126143Y-95458429D01*
X80053572Y-95494714D01*
X79835857Y-95494714D01*
X79763286Y-95458429D01*
X79727000Y-95422143D01*
X70246001Y-107032714D02*
X70246001Y-107577000D01*
X70209715Y-107685857D01*
X70137144Y-107758429D01*
X70028287Y-107794714D01*
X69955715Y-107794714D01*
X71008000Y-107794714D02*
X70572572Y-107794714D01*
X70790286Y-107794714D02*
X70790286Y-107032714D01*
X70717715Y-107141571D01*
X70645143Y-107214143D01*
X70572572Y-107250429D01*
X65423000Y-104594714D02*
X65169000Y-104231857D01*
X64987572Y-104594714D02*
X64987572Y-103832714D01*
X65277857Y-103832714D01*
X65350429Y-103869000D01*
X65386714Y-103905286D01*
X65423000Y-103977857D01*
X65423000Y-104086714D01*
X65386714Y-104159286D01*
X65350429Y-104195571D01*
X65277857Y-104231857D01*
X64987572Y-104231857D01*
X66148714Y-104594714D02*
X65713286Y-104594714D01*
X65931000Y-104594714D02*
X65931000Y-103832714D01*
X65858429Y-103941571D01*
X65785857Y-104014143D01*
X65713286Y-104050429D01*
X66611400Y-101244714D02*
X66357400Y-100881857D01*
X66175972Y-101244714D02*
X66175972Y-100482714D01*
X66466257Y-100482714D01*
X66538829Y-100519000D01*
X66575114Y-100555286D01*
X66611400Y-100627857D01*
X66611400Y-100736714D01*
X66575114Y-100809286D01*
X66538829Y-100845571D01*
X66466257Y-100881857D01*
X66175972Y-100881857D01*
X66901686Y-100555286D02*
X66937972Y-100519000D01*
X67010543Y-100482714D01*
X67191972Y-100482714D01*
X67264543Y-100519000D01*
X67300829Y-100555286D01*
X67337114Y-100627857D01*
X67337114Y-100700429D01*
X67300829Y-100809286D01*
X66865400Y-101244714D01*
X67337114Y-101244714D01*
D10*
X65702381Y-93711905D02*
X66511905Y-93711905D01*
X66607143Y-93664286D01*
X66654762Y-93616667D01*
X66702381Y-93521429D01*
X66702381Y-93330952D01*
X66654762Y-93235714D01*
X66607143Y-93188095D01*
X66511905Y-93140476D01*
X65702381Y-93140476D01*
X65797619Y-92711905D02*
X65750000Y-92664286D01*
X65702381Y-92569048D01*
X65702381Y-92330952D01*
X65750000Y-92235714D01*
X65797619Y-92188095D01*
X65892857Y-92140476D01*
X65988095Y-92140476D01*
X66130952Y-92188095D01*
X66702381Y-92759524D01*
X66702381Y-92140476D01*
D14*
X105494714Y-99927000D02*
X105131857Y-100181000D01*
X105494714Y-100362428D02*
X104732714Y-100362428D01*
X104732714Y-100072143D01*
X104769000Y-99999571D01*
X104805286Y-99963286D01*
X104877857Y-99927000D01*
X104986714Y-99927000D01*
X105059286Y-99963286D01*
X105095571Y-99999571D01*
X105131857Y-100072143D01*
X105131857Y-100362428D01*
X104986714Y-99273857D02*
X105494714Y-99273857D01*
X104696429Y-99455286D02*
X105240714Y-99636714D01*
X105240714Y-99165000D01*
X78715001Y-92045571D02*
X78461001Y-92045571D01*
X78461001Y-92444714D02*
X78461001Y-91682714D01*
X78823858Y-91682714D01*
X79368144Y-92045571D02*
X79477001Y-92081857D01*
X79513286Y-92118143D01*
X79549572Y-92190714D01*
X79549572Y-92299571D01*
X79513286Y-92372143D01*
X79477001Y-92408429D01*
X79404429Y-92444714D01*
X79114144Y-92444714D01*
X79114144Y-91682714D01*
X79368144Y-91682714D01*
X79440715Y-91719000D01*
X79477001Y-91755286D01*
X79513286Y-91827857D01*
X79513286Y-91900429D01*
X79477001Y-91973000D01*
X79440715Y-92009286D01*
X79368144Y-92045571D01*
X79114144Y-92045571D01*
X80275286Y-92444714D02*
X79839858Y-92444714D01*
X80057572Y-92444714D02*
X80057572Y-91682714D01*
X79985001Y-91791571D01*
X79912429Y-91864143D01*
X79839858Y-91900429D01*
X71344714Y-104626999D02*
X71344714Y-104989856D01*
X70582714Y-104989856D01*
X71344714Y-103973857D02*
X71344714Y-104409285D01*
X71344714Y-104191571D02*
X70582714Y-104191571D01*
X70691571Y-104264142D01*
X70764143Y-104336714D01*
X70800429Y-104409285D01*
X73194714Y-104626999D02*
X73194714Y-104989856D01*
X72432714Y-104989856D01*
X72505286Y-104409285D02*
X72469000Y-104372999D01*
X72432714Y-104300428D01*
X72432714Y-104118999D01*
X72469000Y-104046428D01*
X72505286Y-104010142D01*
X72577857Y-103973857D01*
X72650429Y-103973857D01*
X72759286Y-104010142D01*
X73194714Y-104445571D01*
X73194714Y-103973857D01*
D10*
X90202381Y-97461905D02*
X90202381Y-96890476D01*
X91202381Y-97176191D02*
X90202381Y-97176191D01*
X90202381Y-96652381D02*
X91202381Y-95985714D01*
X90202381Y-95985714D02*
X91202381Y-96652381D01*
X91202381Y-95604762D02*
X90202381Y-95604762D01*
X90202381Y-95366667D01*
X90250000Y-95223809D01*
X90345238Y-95128571D01*
X90440476Y-95080952D01*
X90630952Y-95033333D01*
X90773810Y-95033333D01*
X90964286Y-95080952D01*
X91059524Y-95128571D01*
X91154762Y-95223809D01*
X91202381Y-95366667D01*
X91202381Y-95604762D01*
X93152381Y-96966666D02*
X92676190Y-97300000D01*
X93152381Y-97538095D02*
X92152381Y-97538095D01*
X92152381Y-97157142D01*
X92200000Y-97061904D01*
X92247619Y-97014285D01*
X92342857Y-96966666D01*
X92485714Y-96966666D01*
X92580952Y-97014285D01*
X92628571Y-97061904D01*
X92676190Y-97157142D01*
X92676190Y-97538095D01*
X92152381Y-96633333D02*
X93152381Y-95966666D01*
X92152381Y-95966666D02*
X93152381Y-96633333D01*
X93152381Y-95585714D02*
X92152381Y-95585714D01*
X92152381Y-95347619D01*
X92200000Y-95204761D01*
X92295238Y-95109523D01*
X92390476Y-95061904D01*
X92580952Y-95014285D01*
X92723810Y-95014285D01*
X92914286Y-95061904D01*
X93009524Y-95109523D01*
X93104762Y-95204761D01*
X93152381Y-95347619D01*
X93152381Y-95585714D01*
%LPC*%
D15*
X103230000Y-93150000D03*
X104500000Y-93150000D03*
X105770000Y-93150000D03*
D16*
X126500000Y-88500000D03*
X126500000Y-111500000D03*
X68500000Y-88500000D03*
D17*
X77750000Y-98350000D03*
X77750000Y-96750000D03*
D18*
X85606700Y-96734120D03*
X83406700Y-96734120D03*
X85606700Y-98334120D03*
X83406700Y-98334120D03*
D19*
X80060800Y-101700000D03*
X80060800Y-102200000D03*
X80060800Y-102700000D03*
X80060800Y-103200000D03*
X80060800Y-103700000D03*
X80060800Y-104200000D03*
X80060800Y-104700000D03*
X80060800Y-105200000D03*
D20*
X80710800Y-105850000D03*
X81210800Y-105850000D03*
X81710800Y-105850000D03*
X82210800Y-105850000D03*
X82710800Y-105850000D03*
X83210800Y-105850000D03*
X83710800Y-105850000D03*
X84210800Y-105850000D03*
D19*
X84860800Y-105200000D03*
X84860800Y-104700000D03*
X84860800Y-104200000D03*
X84860800Y-103700000D03*
X84860800Y-103200000D03*
X84860800Y-102700000D03*
X84860800Y-102200000D03*
X84860800Y-101700000D03*
D20*
X84210800Y-101050000D03*
X83710800Y-101050000D03*
X83210800Y-101050000D03*
X82710800Y-101050000D03*
X82210800Y-101050000D03*
X81710800Y-101050000D03*
X81210800Y-101050000D03*
X80710800Y-101050000D03*
D21*
X83323300Y-104312500D03*
X83323300Y-102587500D03*
X81598300Y-104312500D03*
X81598300Y-102587500D03*
D22*
X73370000Y-89770000D03*
D23*
X73370000Y-87230000D03*
X75910000Y-89770000D03*
X75910000Y-87230000D03*
X78450000Y-89770000D03*
X78450000Y-87230000D03*
X80990000Y-89770000D03*
X80990000Y-87230000D03*
X83530000Y-89770000D03*
X83530000Y-87230000D03*
X86070000Y-89770000D03*
X86070000Y-87230000D03*
X88610000Y-89770000D03*
X88610000Y-87230000D03*
X91150000Y-89770000D03*
X91150000Y-87230000D03*
X93690000Y-89770000D03*
X93690000Y-87230000D03*
X96230000Y-89770000D03*
X96230000Y-87230000D03*
X98770000Y-89770000D03*
X98770000Y-87230000D03*
X101310000Y-89770000D03*
X101310000Y-87230000D03*
X103850000Y-89770000D03*
X103850000Y-87230000D03*
X106390000Y-89770000D03*
X106390000Y-87230000D03*
X108930000Y-89770000D03*
X108930000Y-87230000D03*
X111470000Y-89770000D03*
X111470000Y-87230000D03*
X114010000Y-89770000D03*
X114010000Y-87230000D03*
X116550000Y-89770000D03*
X116550000Y-87230000D03*
X119090000Y-89770000D03*
X119090000Y-87230000D03*
X121630000Y-89770000D03*
X121630000Y-87230000D03*
D17*
X75900000Y-96750000D03*
X75900000Y-98350000D03*
D24*
X75895200Y-93600000D03*
X77495200Y-93600000D03*
D17*
X78282800Y-104950000D03*
X78282800Y-106550000D03*
X81500000Y-98350000D03*
X81500000Y-96750000D03*
X87500000Y-96739000D03*
X87500000Y-98339000D03*
D24*
X72688200Y-102200000D03*
X71088200Y-102200000D03*
D25*
X103500000Y-96602280D03*
X103500000Y-98202280D03*
X96926360Y-96600000D03*
X96926360Y-98200000D03*
X98550000Y-96600000D03*
X98550000Y-98200000D03*
X101856500Y-96600000D03*
X101856500Y-98200000D03*
X100200000Y-96600000D03*
X100200000Y-98200000D03*
X79600000Y-96750000D03*
X79600000Y-98350000D03*
D26*
X67600000Y-105000000D03*
D27*
X69100000Y-106500000D03*
X66100000Y-106500000D03*
D25*
X67600000Y-102200000D03*
X67600000Y-103800000D03*
D28*
X65938400Y-102200000D03*
X67538400Y-102200000D03*
D29*
X66852800Y-96723200D03*
D30*
X73456800Y-96723200D03*
X73456800Y-94437200D03*
X73456800Y-99009200D03*
D16*
X68500000Y-111500000D03*
D31*
X79297580Y-110267940D03*
X79297580Y-111537940D03*
X82894220Y-110275560D03*
X82894220Y-111545560D03*
X81083200Y-110275560D03*
X81083200Y-111545560D03*
D25*
X105150000Y-96600000D03*
X105150000Y-98200000D03*
D24*
X77450000Y-92100000D03*
X75850000Y-92100000D03*
D17*
X69600000Y-102100000D03*
X69600000Y-103700000D03*
X74200000Y-102100000D03*
X74200000Y-103700000D03*
D32*
X90750000Y-98500000D03*
X92700000Y-98500000D03*
M02*
