M48
;DRILL file {KiCad 4.0.0-2.201512091501+6195~38~ubuntu15.10.1-stable} date Fri 11 Dec 2015 10:20:35 PM CST
;FORMAT={2:4/ absolute / inch / suppress leading zeros}
FMAT,2
INCH,TZ
T1C0.016
T2C0.040
T3C0.138
%
G90
G05
M72
T1
X25812Y-38640
X25920Y-36200
X25980Y-42440
X26000Y-40940
X26140Y-34220
X26200Y-44720
X27740Y-45000
X28680Y-37180
X28680Y-39260
X28800Y-43420
X28800Y-42100
X28800Y-45000
X30369Y-33825
X30540Y-35820
X31040Y-39760
X31354Y-35780
X31480Y-42080
X32950Y-37950
X32950Y-38775
X33460Y-36000
X33680Y-42080
X35100Y-36160
X35800Y-41580
X35800Y-42080
X35960Y-40000
X35960Y-40520
X36220Y-39260
X36520Y-39020
X36600Y-38535
X36650Y-37825
X36700Y-40000
X36700Y-40520
X36920Y-41980
X37480Y-38860
X37480Y-39880
X37611Y-41980
X37790Y-37160
X37983Y-41112
X38240Y-39880
X38545Y-41500
X38640Y-38976
X38920Y-37000
X39031Y-39695
X39054Y-38526
X39340Y-41245
X39875Y-41275
X39940Y-42120
X40026Y-39513
X40026Y-39513
X40026Y-40192
X40180Y-38520
X40320Y-41610
X40705Y-39513
X40705Y-40192
X41700Y-40900
X41760Y-41820
X41880Y-38965
X41960Y-43420
X41960Y-44900
X41980Y-42200
X42037Y-40625
X42360Y-38040
X42520Y-37620
X42830Y-38650
X42830Y-41050
X43980Y-44900
X44040Y-36440
X44311Y-36745
X44550Y-43820
X44620Y-40800
X44630Y-40200
X44630Y-39570
X44640Y-38400
X44640Y-38980
X45040Y-42310
X45200Y-37860
X45250Y-39470
X45480Y-37320
X46110Y-38210
X46400Y-44900
X46580Y-39340
X47880Y-39520
X48020Y-37760
X48180Y-44900
X48480Y-33760
X49050Y-37300
X50560Y-44720
X50680Y-34220
X50800Y-39500
X50800Y-41720
X50800Y-42940
X50820Y-36220
T2
X26975Y-36850
X26975Y-37850
X26975Y-38850
X26975Y-39850
X26975Y-40850
X26975Y-41850
X28886Y-34343
X28886Y-35343
X29886Y-34343
X29886Y-35343
X30886Y-34343
X30886Y-35343
X31886Y-34343
X31886Y-35343
X32886Y-34343
X32886Y-35343
X33886Y-34343
X33886Y-35343
X34886Y-34343
X34886Y-35343
X35886Y-34343
X35886Y-35343
X36886Y-34343
X36886Y-35343
X37886Y-34343
X37886Y-35343
X38886Y-34343
X38886Y-35343
X39886Y-34343
X39886Y-35343
X40886Y-34343
X40886Y-35343
X41886Y-34343
X41886Y-35343
X42886Y-34343
X42886Y-35343
X43886Y-34343
X43886Y-35343
X44886Y-34343
X44886Y-35343
X45886Y-34343
X45886Y-35343
X46886Y-34343
X46886Y-35343
X47886Y-34343
X47886Y-35343
X49820Y-38375
X49820Y-39375
X49820Y-40375
T3
X26969Y-34843
X26969Y-43898
X49803Y-34843
X49803Y-43898
T0
M30
