G04 #@! TF.FileFunction,Soldermask,Top*
%FSLAX46Y46*%
G04 Gerber Fmt 4.6, Leading zero omitted, Abs format (unit mm)*
G04 Created by KiCad (PCBNEW 4.0.1-3.201512221401+6198~38~ubuntu15.10.1-stable) date Fri 01 Jan 2016 03:31:08 PM CST*
%MOMM*%
G01*
G04 APERTURE LIST*
%ADD10C,0.100000*%
%ADD11R,1.365200X1.670000*%
%ADD12C,3.150000*%
%ADD13R,1.400000X1.350000*%
%ADD14R,1.800000X1.600000*%
%ADD15R,1.100000X0.650000*%
%ADD16R,0.650000X1.100000*%
%ADD17R,2.125000X2.125000*%
%ADD18R,1.100000X1.100000*%
%ADD19R,2.127200X2.127200*%
%ADD20O,2.127200X2.127200*%
%ADD21R,1.350000X1.400000*%
%ADD22R,1.400000X1.300000*%
%ADD23R,1.400000X1.400000*%
%ADD24R,1.400000X2.600000*%
%ADD25R,1.300000X1.400000*%
%ADD26C,1.924000*%
%ADD27R,2.432000X4.057600*%
%ADD28R,2.432000X1.416000*%
%ADD29R,1.670000X1.365200*%
G04 APERTURE END LIST*
D10*
D11*
X103230000Y-93150000D03*
X104500000Y-93150000D03*
X105770000Y-93150000D03*
D12*
X126500000Y-88500000D03*
X126500000Y-111500000D03*
X68500000Y-88500000D03*
D13*
X77750000Y-98350000D03*
X77750000Y-96750000D03*
D14*
X85606700Y-96734120D03*
X83406700Y-96734120D03*
X85606700Y-98334120D03*
X83406700Y-98334120D03*
D15*
X80060800Y-101700000D03*
X80060800Y-102200000D03*
X80060800Y-102700000D03*
X80060800Y-103200000D03*
X80060800Y-103700000D03*
X80060800Y-104200000D03*
X80060800Y-104700000D03*
X80060800Y-105200000D03*
D16*
X80710800Y-105850000D03*
X81210800Y-105850000D03*
X81710800Y-105850000D03*
X82210800Y-105850000D03*
X82710800Y-105850000D03*
X83210800Y-105850000D03*
X83710800Y-105850000D03*
X84210800Y-105850000D03*
D15*
X84860800Y-105200000D03*
X84860800Y-104700000D03*
X84860800Y-104200000D03*
X84860800Y-103700000D03*
X84860800Y-103200000D03*
X84860800Y-102700000D03*
X84860800Y-102200000D03*
X84860800Y-101700000D03*
D16*
X84210800Y-101050000D03*
X83710800Y-101050000D03*
X83210800Y-101050000D03*
X82710800Y-101050000D03*
X82210800Y-101050000D03*
X81710800Y-101050000D03*
X81210800Y-101050000D03*
X80710800Y-101050000D03*
D17*
X83323300Y-104312500D03*
X83323300Y-102587500D03*
X81598300Y-104312500D03*
X81598300Y-102587500D03*
D18*
X77350000Y-92100000D03*
X75950000Y-92100000D03*
X69600000Y-102200000D03*
X69600000Y-103600000D03*
X74200000Y-102200000D03*
X74200000Y-103600000D03*
D19*
X73370000Y-89770000D03*
D20*
X73370000Y-87230000D03*
X75910000Y-89770000D03*
X75910000Y-87230000D03*
X78450000Y-89770000D03*
X78450000Y-87230000D03*
X80990000Y-89770000D03*
X80990000Y-87230000D03*
X83530000Y-89770000D03*
X83530000Y-87230000D03*
X86070000Y-89770000D03*
X86070000Y-87230000D03*
X88610000Y-89770000D03*
X88610000Y-87230000D03*
X91150000Y-89770000D03*
X91150000Y-87230000D03*
X93690000Y-89770000D03*
X93690000Y-87230000D03*
X96230000Y-89770000D03*
X96230000Y-87230000D03*
X98770000Y-89770000D03*
X98770000Y-87230000D03*
X101310000Y-89770000D03*
X101310000Y-87230000D03*
X103850000Y-89770000D03*
X103850000Y-87230000D03*
X106390000Y-89770000D03*
X106390000Y-87230000D03*
X108930000Y-89770000D03*
X108930000Y-87230000D03*
X111470000Y-89770000D03*
X111470000Y-87230000D03*
X114010000Y-89770000D03*
X114010000Y-87230000D03*
X116550000Y-89770000D03*
X116550000Y-87230000D03*
X119090000Y-89770000D03*
X119090000Y-87230000D03*
X121630000Y-89770000D03*
X121630000Y-87230000D03*
D13*
X75900000Y-96750000D03*
X75900000Y-98350000D03*
D21*
X75895200Y-93600000D03*
X77495200Y-93600000D03*
D13*
X78282800Y-104950000D03*
X78282800Y-106550000D03*
X81500000Y-98350000D03*
X81500000Y-96750000D03*
X87500000Y-96739000D03*
X87500000Y-98339000D03*
D21*
X72688200Y-102200000D03*
X71088200Y-102200000D03*
D22*
X103500000Y-96602280D03*
X103500000Y-98202280D03*
X96926360Y-96600000D03*
X96926360Y-98200000D03*
X98550000Y-96600000D03*
X98550000Y-98200000D03*
X101856500Y-96600000D03*
X101856500Y-98200000D03*
X100200000Y-96600000D03*
X100200000Y-98200000D03*
X79600000Y-96750000D03*
X79600000Y-98350000D03*
D23*
X67600000Y-105000000D03*
D24*
X69100000Y-106500000D03*
X66100000Y-106500000D03*
D22*
X67600000Y-102200000D03*
X67600000Y-103800000D03*
D25*
X65938400Y-102200000D03*
X67538400Y-102200000D03*
D22*
X105150000Y-96600000D03*
X105150000Y-98200000D03*
D26*
X92700000Y-98500000D03*
X90750000Y-98500000D03*
D27*
X66852800Y-96723200D03*
D28*
X73456800Y-96723200D03*
X73456800Y-94437200D03*
X73456800Y-99009200D03*
D12*
X68500000Y-111500000D03*
D29*
X79297580Y-110267940D03*
X79297580Y-111537940D03*
X82894220Y-110275560D03*
X82894220Y-111545560D03*
X81083200Y-110275560D03*
X81083200Y-111545560D03*
M02*
