G04 #@! TF.FileFunction,Copper,L1,Top,Signal*
%FSLAX46Y46*%
G04 Gerber Fmt 4.6, Leading zero omitted, Abs format (unit mm)*
G04 Created by KiCad (PCBNEW 4.0.0-2.201512091501+6195~38~ubuntu15.10.1-stable) date Fri 11 Dec 2015 10:20:27 PM CST*
%MOMM*%
G01*
G04 APERTURE LIST*
%ADD10C,0.100000*%
%ADD11R,0.700000X0.250000*%
%ADD12R,0.250000X0.700000*%
%ADD13R,1.725000X1.725000*%
%ADD14R,0.700000X0.700000*%
%ADD15R,25.380000X1.210000*%
%ADD16R,7.000000X2.210000*%
%ADD17R,2.180000X5.970000*%
%ADD18R,9.980000X1.290000*%
%ADD19R,3.000000X1.210000*%
%ADD20R,3.200000X1.010000*%
%ADD21R,1.200000X4.220000*%
%ADD22R,1.150000X2.030000*%
%ADD23R,1.150000X1.930000*%
%ADD24R,0.460000X2.366000*%
%ADD25C,0.200000*%
%ADD26R,1.580000X1.010000*%
%ADD27R,0.200000X0.200000*%
%ADD28R,2.032000X1.727200*%
%ADD29O,2.032000X1.727200*%
%ADD30R,1.727200X1.727200*%
%ADD31O,1.727200X1.727200*%
%ADD32R,1.060000X0.650000*%
%ADD33R,0.965200X1.270000*%
%ADD34R,1.400000X1.200000*%
%ADD35R,2.032000X3.657600*%
%ADD36R,2.032000X1.016000*%
%ADD37R,1.000000X0.950000*%
%ADD38R,0.950000X1.000000*%
%ADD39R,0.900000X1.000000*%
%ADD40R,1.000000X0.900000*%
%ADD41R,1.000000X1.000000*%
%ADD42R,2.200000X1.000000*%
%ADD43C,0.800000*%
%ADD44C,0.685800*%
%ADD45C,0.500000*%
%ADD46C,0.250000*%
%ADD47C,0.200000*%
%ADD48C,0.254000*%
G04 APERTURE END LIST*
D10*
D11*
X100128192Y-99474452D03*
X100128192Y-99974452D03*
X100128192Y-100474452D03*
X100128192Y-100974452D03*
X100128192Y-101474452D03*
X100128192Y-101974452D03*
X100128192Y-102474452D03*
X100128192Y-102974452D03*
D12*
X100778192Y-103624452D03*
X101278192Y-103624452D03*
X101778192Y-103624452D03*
X102278192Y-103624452D03*
X102778192Y-103624452D03*
X103278192Y-103624452D03*
X103778192Y-103624452D03*
X104278192Y-103624452D03*
D11*
X104928192Y-102974452D03*
X104928192Y-102474452D03*
X104928192Y-101974452D03*
X104928192Y-101474452D03*
X104928192Y-100974452D03*
X104928192Y-100474452D03*
X104928192Y-99974452D03*
X104928192Y-99474452D03*
D12*
X104278192Y-98824452D03*
X103778192Y-98824452D03*
X103278192Y-98824452D03*
X102778192Y-98824452D03*
X102278192Y-98824452D03*
X101778192Y-98824452D03*
X101278192Y-98824452D03*
X100778192Y-98824452D03*
D13*
X103390692Y-102086952D03*
X103390692Y-100361952D03*
X101665692Y-102086952D03*
X101665692Y-100361952D03*
D14*
X111757000Y-108839000D03*
X113157000Y-108839000D03*
X111757000Y-107442000D03*
X113157000Y-107442000D03*
X111760000Y-110236000D03*
X113160000Y-110236000D03*
D15*
X90297400Y-113681600D03*
D16*
X97407400Y-113181600D03*
D17*
X101997400Y-111201600D03*
D18*
X97997400Y-108761600D03*
D19*
X94507400Y-110671600D03*
D20*
X94507400Y-110671600D03*
D21*
X94507400Y-112176600D03*
D22*
X95532400Y-108391600D03*
D23*
X93482400Y-108341600D03*
D24*
X92227400Y-108559600D03*
D10*
G36*
X92351507Y-109487438D02*
X93232562Y-110368493D01*
X92907293Y-110693762D01*
X92026238Y-109812707D01*
X92351507Y-109487438D01*
X92351507Y-109487438D01*
G37*
D25*
X102987400Y-114186600D03*
X102987400Y-108216600D03*
X93007400Y-109306600D03*
X92097400Y-109742600D03*
X93007400Y-111176600D03*
X96007400Y-110166600D03*
X96007400Y-111176600D03*
D26*
X78297400Y-113681600D03*
D25*
X77607400Y-114186600D03*
X77607400Y-113176600D03*
D27*
X93007400Y-110166600D03*
D14*
X75260200Y-92252800D03*
X76660200Y-92252800D03*
X93827600Y-99972320D03*
X93827600Y-98572320D03*
X98221800Y-99974400D03*
X98221800Y-101374400D03*
D28*
X126542800Y-102552500D03*
D29*
X126542800Y-100012500D03*
X126542800Y-97472500D03*
D28*
X68516500Y-93599000D03*
D29*
X68516500Y-96139000D03*
X68516500Y-98679000D03*
X68516500Y-101219000D03*
X68516500Y-103759000D03*
X68516500Y-106299000D03*
D30*
X73370000Y-89770000D03*
D31*
X73370000Y-87230000D03*
X75910000Y-89770000D03*
X75910000Y-87230000D03*
X78450000Y-89770000D03*
X78450000Y-87230000D03*
X80990000Y-89770000D03*
X80990000Y-87230000D03*
X83530000Y-89770000D03*
X83530000Y-87230000D03*
X86070000Y-89770000D03*
X86070000Y-87230000D03*
X88610000Y-89770000D03*
X88610000Y-87230000D03*
X91150000Y-89770000D03*
X91150000Y-87230000D03*
X93690000Y-89770000D03*
X93690000Y-87230000D03*
X96230000Y-89770000D03*
X96230000Y-87230000D03*
X98770000Y-89770000D03*
X98770000Y-87230000D03*
X101310000Y-89770000D03*
X101310000Y-87230000D03*
X103850000Y-89770000D03*
X103850000Y-87230000D03*
X106390000Y-89770000D03*
X106390000Y-87230000D03*
X108930000Y-89770000D03*
X108930000Y-87230000D03*
X111470000Y-89770000D03*
X111470000Y-87230000D03*
X114010000Y-89770000D03*
X114010000Y-87230000D03*
X116550000Y-89770000D03*
X116550000Y-87230000D03*
X119090000Y-89770000D03*
X119090000Y-87230000D03*
X121630000Y-89770000D03*
X121630000Y-87230000D03*
D32*
X119212000Y-96901000D03*
X119212000Y-97851000D03*
X119212000Y-98801000D03*
X121412000Y-98801000D03*
X121412000Y-96901000D03*
D33*
X125984000Y-94170500D03*
X127254000Y-94170500D03*
D34*
X104394000Y-94800000D03*
X102194000Y-94800000D03*
X104394000Y-96400000D03*
X102194000Y-96400000D03*
D14*
X92178200Y-104394000D03*
X90778200Y-104394000D03*
D35*
X72390000Y-97104200D03*
D36*
X78994000Y-97104200D03*
X78994000Y-94818200D03*
X78994000Y-99390200D03*
D37*
X81838800Y-97460000D03*
X81838800Y-99060000D03*
X81864200Y-94767400D03*
X81864200Y-93167400D03*
D38*
X98183500Y-102997000D03*
X96583500Y-102997000D03*
X98488500Y-97091500D03*
X96888500Y-97091500D03*
D37*
X95123000Y-97028000D03*
X95123000Y-95428000D03*
D38*
X96826192Y-99974452D03*
X95226192Y-99974452D03*
D37*
X106222800Y-94800000D03*
X106222800Y-96400000D03*
X100330000Y-96400000D03*
X100330000Y-94800000D03*
D39*
X121170500Y-94805500D03*
X119570500Y-94805500D03*
X121170500Y-93027500D03*
X119570500Y-93027500D03*
D40*
X123190000Y-95110500D03*
X123190000Y-96710500D03*
X92227400Y-105943200D03*
X92227400Y-104343200D03*
D39*
X112279161Y-103615703D03*
X110679161Y-103615703D03*
X112289121Y-105119321D03*
X110689121Y-105119321D03*
X112279161Y-97499321D03*
X110679161Y-97499321D03*
X112279161Y-99023321D03*
X110679161Y-99023321D03*
X112279161Y-102071321D03*
X110679161Y-102071321D03*
X112279161Y-100547321D03*
X110679161Y-100547321D03*
X96901000Y-95377000D03*
X98501000Y-95377000D03*
D41*
X89179400Y-104394000D03*
D42*
X87679400Y-105894000D03*
X87679400Y-102894000D03*
D43*
X66395600Y-86918800D03*
X66548000Y-113588800D03*
X128422402Y-113588800D03*
X128727200Y-86918800D03*
X77571600Y-90982800D03*
X79638601Y-90881200D03*
X77136399Y-85916399D03*
X121615200Y-100380800D03*
X118313200Y-99923600D03*
X97905410Y-105410000D03*
X96476191Y-104424736D03*
X99923600Y-104763190D03*
X102412800Y-105688501D03*
X106775199Y-103188380D03*
X129032000Y-109067600D03*
X129032000Y-105968800D03*
X129032000Y-100330000D03*
X129082800Y-91998800D03*
X65563481Y-98145600D03*
X65989200Y-107797600D03*
X70459600Y-114300000D03*
X122377200Y-114046000D03*
X117856000Y-114046000D03*
X111709200Y-114046000D03*
X107594400Y-96621600D03*
X106375200Y-98972220D03*
X108788200Y-104267000D03*
X98856800Y-93980000D03*
X89154000Y-91846400D03*
X84988400Y-91440000D03*
X78841600Y-100990400D03*
X72847200Y-99720400D03*
X72847200Y-94437200D03*
X79959200Y-106883200D03*
X106578400Y-110286800D03*
X73151999Y-110286801D03*
X73152000Y-106934000D03*
X101447600Y-106984800D03*
X106629200Y-107187998D03*
X106578400Y-114046000D03*
X123139200Y-85750400D03*
X65836800Y-91948000D03*
X66040000Y-103987600D03*
X73152000Y-114300000D03*
X85547200Y-106883200D03*
X92760800Y-99110800D03*
X91998800Y-99720400D03*
X93218000Y-101600000D03*
X93218000Y-102920800D03*
X91338400Y-101600000D03*
X91338400Y-102920800D03*
X90932000Y-106883200D03*
X90932000Y-105613200D03*
X95532400Y-106629200D03*
X93776800Y-106629200D03*
X95199200Y-101295200D03*
X97129598Y-101295200D03*
X98145600Y-98998010D03*
X95199200Y-98704400D03*
X114935000Y-100253800D03*
X117119400Y-97053400D03*
X114401600Y-107467400D03*
X113157000Y-111302800D03*
X95986600Y-94386400D03*
X101665692Y-102086952D03*
X108788200Y-98171000D03*
X101665692Y-100361952D03*
X101665692Y-100361952D03*
X103390692Y-102086952D03*
X103390692Y-100361952D03*
X83693000Y-96393000D03*
X83693000Y-98488500D03*
X93091000Y-96075500D03*
X92964000Y-97878010D03*
X105918000Y-103886000D03*
X99196211Y-97855268D03*
X99137490Y-100824407D03*
X102057200Y-97840800D03*
X101282500Y-104838500D03*
D44*
X113334800Y-103632000D03*
X113360202Y-100507800D03*
X113360200Y-102108000D03*
X113385600Y-99009201D03*
X113385600Y-97536000D03*
X106070400Y-106222800D03*
X108000800Y-95554800D03*
X112548869Y-93332516D03*
X111861600Y-92557600D03*
X115519200Y-94792800D03*
X114808000Y-96164402D03*
X121970800Y-95910400D03*
X124587000Y-94742000D03*
D45*
X127254000Y-94170500D02*
X127254000Y-93116400D01*
X127254000Y-93116400D02*
X126796800Y-92659200D01*
X126796800Y-92659200D02*
X125780800Y-92659200D01*
X125780800Y-92659200D02*
X122891600Y-89770000D01*
X122891600Y-89770000D02*
X121630000Y-89770000D01*
X66795599Y-86518801D02*
X66395600Y-86918800D01*
X77136399Y-85916399D02*
X67398001Y-85916399D01*
X65995601Y-87318799D02*
X66395600Y-86918800D01*
X67398001Y-85916399D02*
X66795599Y-86518801D01*
X65836800Y-87477600D02*
X65995601Y-87318799D01*
X65836800Y-91948000D02*
X65836800Y-87477600D01*
X66148001Y-113188801D02*
X66548000Y-113588800D01*
X65989200Y-107797600D02*
X65989200Y-113030000D01*
X65989200Y-113030000D02*
X66148001Y-113188801D01*
X127965202Y-114046000D02*
X128022403Y-113988799D01*
X128022403Y-113988799D02*
X128422402Y-113588800D01*
X122377200Y-114046000D02*
X127965202Y-114046000D01*
X127558800Y-85750400D02*
X128327201Y-86518801D01*
X123139200Y-85750400D02*
X127558800Y-85750400D01*
X128327201Y-86518801D02*
X128727200Y-86918800D01*
X77571600Y-90982800D02*
X78028800Y-91440000D01*
X78028800Y-91440000D02*
X84988400Y-91440000D01*
D46*
X79638601Y-90932000D02*
X79638601Y-88418601D01*
X79638601Y-91691801D02*
X79638601Y-90932000D01*
D45*
X79638601Y-90932000D02*
X79638601Y-90881200D01*
X78450000Y-87230000D02*
X77136399Y-85916399D01*
X114935000Y-100253800D02*
X117983000Y-100253800D01*
X117983000Y-100253800D02*
X118313200Y-99923600D01*
X96583500Y-102997000D02*
X96583500Y-104317427D01*
X95802612Y-105098315D02*
X96076192Y-104824735D01*
X96583500Y-104317427D02*
X96476191Y-104424736D01*
X95402400Y-105098315D02*
X95802612Y-105098315D01*
X96076192Y-104824735D02*
X96476191Y-104424736D01*
X107340884Y-103188380D02*
X106775199Y-103188380D01*
X108788200Y-104267000D02*
X107709580Y-103188380D01*
X107709580Y-103188380D02*
X107340884Y-103188380D01*
X101237999Y-93580001D02*
X101237999Y-92382001D01*
X101237999Y-92382001D02*
X103850000Y-89770000D01*
X98856800Y-93980000D02*
X99256799Y-93580001D01*
X99256799Y-93580001D02*
X101237999Y-93580001D01*
X65989200Y-107797600D02*
X65989200Y-104038400D01*
X122377200Y-114046000D02*
X117856000Y-114046000D01*
X117856000Y-114046000D02*
X111709200Y-114046000D01*
X111709200Y-114046000D02*
X106578400Y-114046000D01*
X107442000Y-96621600D02*
X107594400Y-96621600D01*
X107243000Y-96422600D02*
X107442000Y-96621600D01*
X106940885Y-98972220D02*
X106375200Y-98972220D01*
X107986980Y-98972220D02*
X106940885Y-98972220D01*
X108788200Y-98171000D02*
X107986980Y-98972220D01*
X98856800Y-93980000D02*
X99510000Y-93980000D01*
X99510000Y-93980000D02*
X100330000Y-94800000D01*
X107243000Y-96422600D02*
X107243000Y-96420200D01*
X107243000Y-96420200D02*
X107222800Y-96400000D01*
X107222800Y-96400000D02*
X106222800Y-96400000D01*
X107243000Y-96400000D02*
X107243000Y-96422600D01*
X89154000Y-91846400D02*
X89916799Y-91083601D01*
X89916799Y-91083601D02*
X92683801Y-91083601D01*
X92683801Y-91083601D02*
X95586601Y-93986401D01*
X95586601Y-93986401D02*
X95986600Y-94386400D01*
X84696100Y-93167400D02*
X84696100Y-91732300D01*
X84696100Y-91732300D02*
X84988400Y-91440000D01*
X78994000Y-99390200D02*
X78994000Y-100838000D01*
X78994000Y-100838000D02*
X78841600Y-100990400D01*
X72847200Y-99720400D02*
X77571600Y-99720400D01*
X77571600Y-99720400D02*
X78841600Y-100990400D01*
X72390000Y-97104200D02*
X72390000Y-94894400D01*
X72390000Y-94894400D02*
X72847200Y-94437200D01*
X73151999Y-109721116D02*
X73151999Y-110286801D01*
X73152000Y-106934000D02*
X73151999Y-107499686D01*
X73151999Y-110852486D02*
X73151999Y-110286801D01*
X73151999Y-107499686D02*
X73151999Y-109721116D01*
X73151999Y-113734314D02*
X73151999Y-110852486D01*
X73152000Y-114300000D02*
X73151999Y-113734314D01*
X101447600Y-106984800D02*
X95888000Y-106984800D01*
X95888000Y-106984800D02*
X95532400Y-106629200D01*
X65989200Y-104038400D02*
X66040000Y-103987600D01*
X90932000Y-106883200D02*
X85547200Y-106883200D01*
X91338400Y-101034315D02*
X91338400Y-100380800D01*
X91338400Y-100380800D02*
X91998800Y-99720400D01*
X91338400Y-101600000D02*
X91338400Y-101034315D01*
X93827600Y-98572320D02*
X93299280Y-98572320D01*
X93299280Y-98572320D02*
X92760800Y-99110800D01*
X93218000Y-102920800D02*
X93218000Y-101600000D01*
X87679400Y-102894000D02*
X91311600Y-102894000D01*
X91311600Y-102894000D02*
X91338400Y-102920800D01*
X87679400Y-105894000D02*
X90651200Y-105894000D01*
X90651200Y-105894000D02*
X90932000Y-105613200D01*
X95532400Y-105228315D02*
X95532400Y-106629200D01*
X95532400Y-106629200D02*
X95532400Y-108391600D01*
X93482400Y-108341600D02*
X93482400Y-106923600D01*
X93482400Y-106923600D02*
X93776800Y-106629200D01*
X97129598Y-101295200D02*
X95199200Y-101295200D01*
X97206100Y-101314015D02*
X97187285Y-101295200D01*
X97206100Y-101374400D02*
X97206100Y-101314015D01*
X97187285Y-101295200D02*
X97129598Y-101295200D01*
X95103290Y-98998010D02*
X98145600Y-98998010D01*
X98145600Y-98998010D02*
X98359990Y-98998010D01*
X92964000Y-97878010D02*
X94372810Y-97878010D01*
X94372810Y-97878010D02*
X95199200Y-98704400D01*
X93827600Y-98572320D02*
X94677600Y-98572320D01*
X94677600Y-98572320D02*
X95103290Y-98998010D01*
X93497400Y-107936600D02*
X93497400Y-105664000D01*
X117917000Y-97851000D02*
X117519399Y-97453399D01*
X119212000Y-97851000D02*
X117917000Y-97851000D01*
X117519399Y-97453399D02*
X117119400Y-97053400D01*
X78994000Y-99390200D02*
X74676000Y-99390200D01*
X74676000Y-99390200D02*
X74633200Y-99433000D01*
X74633200Y-99433000D02*
X73906000Y-99433000D01*
X72390000Y-97917000D02*
X72390000Y-97104200D01*
X73906000Y-99433000D02*
X72390000Y-97917000D01*
X73520300Y-94424500D02*
X71653400Y-92557600D01*
X71653400Y-92557600D02*
X71653400Y-92456000D01*
D47*
X71475600Y-92430600D02*
X71551800Y-92354400D01*
X71551800Y-92354400D02*
X71551800Y-91266835D01*
X71551800Y-91266835D02*
X71506388Y-91221423D01*
X71506388Y-91221423D02*
X71506388Y-88318577D01*
X71506388Y-88318577D02*
X71551800Y-88273165D01*
X71551800Y-88273165D02*
X71551800Y-87104070D01*
X71551800Y-87104070D02*
X72739471Y-85916399D01*
D45*
X72739471Y-85916399D02*
X77136399Y-85916399D01*
X114401600Y-107467400D02*
X113182400Y-107467400D01*
X113182400Y-107467400D02*
X113157000Y-107442000D01*
X93497400Y-105664000D02*
X94063085Y-105098315D01*
X94063085Y-105098315D02*
X95402400Y-105098315D01*
X93482400Y-108341600D02*
X93482400Y-107951600D01*
X93482400Y-107951600D02*
X93497400Y-107936600D01*
X95402400Y-105098315D02*
X95532400Y-105228315D01*
X113157000Y-111302800D02*
X113157000Y-110239000D01*
X113157000Y-110239000D02*
X113160000Y-110236000D01*
X113157000Y-108839000D02*
X113157000Y-107442000D01*
X113160000Y-110236000D02*
X113160000Y-108842000D01*
X113160000Y-108842000D02*
X113157000Y-108839000D01*
X96012000Y-95377000D02*
X95174000Y-95377000D01*
X96901000Y-95377000D02*
X96012000Y-95377000D01*
X96012000Y-95377000D02*
X96012000Y-94411800D01*
X96012000Y-94411800D02*
X95986600Y-94386400D01*
X68668900Y-93599000D02*
X68516500Y-93599000D01*
X96583500Y-102997000D02*
X96583500Y-101997000D01*
X96583500Y-101997000D02*
X97206100Y-101374400D01*
X97206100Y-101374400D02*
X97371800Y-101374400D01*
X97371800Y-101374400D02*
X98221800Y-101374400D01*
X83693000Y-98488500D02*
X92353510Y-98488500D01*
X92353510Y-98488500D02*
X92964000Y-97878010D01*
X103390692Y-102086952D02*
X101665692Y-102086952D01*
X126542800Y-97472500D02*
X127254000Y-96761300D01*
X127254000Y-96761300D02*
X127254000Y-94170500D01*
X101665692Y-102086952D02*
X101665692Y-100361952D01*
X103390692Y-102086952D02*
X101665692Y-100361952D01*
X103390692Y-100361952D02*
X103390692Y-102086952D01*
D46*
X100291500Y-94800000D02*
X100266500Y-94800000D01*
X106960529Y-86041399D02*
X107741399Y-86041399D01*
X107741399Y-86041399D02*
X108930000Y-87230000D01*
X96230000Y-87230000D02*
X97418601Y-86041399D01*
X97418601Y-86041399D02*
X106960529Y-86041399D01*
X103850000Y-89770000D02*
X105038601Y-88581399D01*
X105038601Y-88581399D02*
X105038601Y-86822269D01*
X105038601Y-86822269D02*
X105819471Y-86041399D01*
X105819471Y-86041399D02*
X107741399Y-86041399D01*
X81864200Y-93167400D02*
X81891730Y-93167400D01*
X84881399Y-90177731D02*
X84881399Y-89036673D01*
X81891730Y-93167400D02*
X84881399Y-90177731D01*
X84881399Y-89036673D02*
X85499471Y-88418601D01*
X85499471Y-88418601D02*
X87421399Y-88418601D01*
X87421399Y-88418601D02*
X87746401Y-88093599D01*
X87746401Y-88093599D02*
X88610000Y-87230000D01*
X88610000Y-87230000D02*
X89798601Y-86041399D01*
X95366401Y-86366401D02*
X96230000Y-87230000D01*
X89798601Y-86041399D02*
X95041399Y-86041399D01*
X95041399Y-86041399D02*
X95366401Y-86366401D01*
X79764500Y-85915500D02*
X87295500Y-85915500D01*
X87295500Y-85915500D02*
X88610000Y-87230000D01*
X78450000Y-87230000D02*
X79764500Y-85915500D01*
X84696100Y-93167400D02*
X87421399Y-90442101D01*
X87421399Y-90442101D02*
X87421399Y-88418601D01*
D45*
X81864200Y-93167400D02*
X84696100Y-93167400D01*
D46*
X81889200Y-93167400D02*
X81864200Y-93167400D01*
D45*
X82864200Y-93167400D02*
X81864200Y-93167400D01*
X83693000Y-93996200D02*
X82864200Y-93167400D01*
X83693000Y-96393000D02*
X83693000Y-93996200D01*
X78486000Y-99390200D02*
X73520300Y-94424500D01*
X68516500Y-93599000D02*
X72694800Y-93599000D01*
X72694800Y-93599000D02*
X73520300Y-94424500D01*
X78994000Y-99390200D02*
X78486000Y-99390200D01*
X81838800Y-99060000D02*
X83121500Y-99060000D01*
X83121500Y-99060000D02*
X83693000Y-98488500D01*
X93091000Y-96075500D02*
X94475500Y-96075500D01*
X94475500Y-96075500D02*
X95123000Y-95428000D01*
X93827600Y-98572320D02*
X93658310Y-98572320D01*
X93658310Y-98572320D02*
X92964000Y-97878010D01*
X95174000Y-95377000D02*
X95123000Y-95428000D01*
X96888500Y-97091500D02*
X96888500Y-95389500D01*
X96888500Y-95389500D02*
X96901000Y-95377000D01*
X87679400Y-105894000D02*
X87679400Y-102894000D01*
D46*
X81864200Y-93167400D02*
X81114200Y-93167400D01*
X81114200Y-93167400D02*
X79638601Y-91691801D01*
X79638601Y-88418601D02*
X79313599Y-88093599D01*
X79313599Y-88093599D02*
X78450000Y-87230000D01*
X78994000Y-99390200D02*
X81508600Y-99390200D01*
X81508600Y-99390200D02*
X81838800Y-99060000D01*
D45*
X92227400Y-108559600D02*
X92227400Y-105943200D01*
D46*
X104394000Y-94800000D02*
X106222800Y-94800000D01*
X104394000Y-94800000D02*
X104108998Y-94800000D01*
X104108998Y-94800000D02*
X103278192Y-95630806D01*
X103278192Y-95630806D02*
X103278192Y-98224452D01*
X103278192Y-98224452D02*
X103278192Y-98824452D01*
D45*
X98221800Y-99974400D02*
X96826244Y-99974400D01*
X96826244Y-99974400D02*
X96826192Y-99974452D01*
X99390200Y-99974400D02*
X98221800Y-99974400D01*
D46*
X99528140Y-99974400D02*
X99390200Y-99974400D01*
X100128192Y-99974452D02*
X99528192Y-99974452D01*
X99528192Y-99974452D02*
X99528140Y-99974400D01*
D45*
X92977600Y-99972320D02*
X93827600Y-99972320D01*
X92278200Y-100671720D02*
X92977600Y-99972320D01*
X92278200Y-104394000D02*
X92278200Y-100671720D01*
X93827600Y-99972320D02*
X95224060Y-99972320D01*
X95224060Y-99972320D02*
X95226192Y-99974452D01*
D46*
X102194000Y-96400000D02*
X100330000Y-96400000D01*
X102782201Y-97492799D02*
X102194000Y-96904598D01*
X102194000Y-96904598D02*
X102194000Y-96400000D01*
X102778192Y-98824452D02*
X102778192Y-98358592D01*
X102778192Y-98358592D02*
X102782201Y-98354583D01*
X102782201Y-98354583D02*
X102782201Y-97492799D01*
D45*
X106273600Y-104038400D02*
X106121200Y-103886000D01*
X121207000Y-98801000D02*
X113531200Y-106476800D01*
X109677200Y-106476800D02*
X107238800Y-104038400D01*
X121412000Y-98801000D02*
X121207000Y-98801000D01*
X113531200Y-106476800D02*
X109677200Y-106476800D01*
X107238800Y-104038400D02*
X106273600Y-104038400D01*
X106121200Y-103886000D02*
X105918000Y-103886000D01*
X105665662Y-103049462D02*
X105816400Y-103200200D01*
X105816400Y-103200200D02*
X105816400Y-103835200D01*
X105816400Y-103835200D02*
X105867200Y-103886000D01*
X105867200Y-103886000D02*
X105918000Y-103886000D01*
X95123000Y-97028000D02*
X95123000Y-97282000D01*
X95935800Y-98094800D02*
X97510200Y-98094800D01*
X98488500Y-97116500D02*
X98488500Y-97091500D01*
X95123000Y-97282000D02*
X95935800Y-98094800D01*
X97510200Y-98094800D02*
X98488500Y-97116500D01*
D46*
X104928192Y-102974452D02*
X105590652Y-102974452D01*
X105590652Y-102974452D02*
X105665662Y-103049462D01*
D45*
X98539100Y-97198157D02*
X98796212Y-97455269D01*
X99236079Y-97815400D02*
X99196211Y-97855268D01*
X99196211Y-98561211D02*
X99196211Y-98420953D01*
X99822000Y-99187000D02*
X99196211Y-98561211D01*
X98796212Y-97455269D02*
X99196211Y-97855268D01*
X98539100Y-97155000D02*
X98539100Y-97198157D01*
X99196211Y-98420953D02*
X99196211Y-97855268D01*
X98183500Y-102997000D02*
X99137490Y-102043010D01*
X99137490Y-102043010D02*
X99137490Y-100824407D01*
D46*
X100128192Y-100974452D02*
X99287535Y-100974452D01*
X99287535Y-100974452D02*
X99137490Y-100824407D01*
X100128192Y-100474452D02*
X100053234Y-100549410D01*
X100053234Y-100549410D02*
X99412487Y-100549410D01*
X99412487Y-100549410D02*
X99137490Y-100824407D01*
X102278192Y-98824452D02*
X102278192Y-98061792D01*
X102278192Y-98061792D02*
X102057200Y-97840800D01*
X101778192Y-98824452D02*
X101778192Y-98119808D01*
X101778192Y-98119808D02*
X102057200Y-97840800D01*
X100109452Y-99474452D02*
X99822000Y-99187000D01*
D45*
X78994000Y-97104200D02*
X81483000Y-97104200D01*
X81483000Y-97104200D02*
X81838800Y-97460000D01*
X91706500Y-97460000D02*
X92138500Y-97028000D01*
X92138500Y-97028000D02*
X95123000Y-97028000D01*
X81838800Y-97460000D02*
X91706500Y-97460000D01*
X121412000Y-98801000D02*
X122859502Y-98801000D01*
X122859502Y-98801000D02*
X124190000Y-97470502D01*
X124190000Y-97470502D02*
X124190000Y-96060500D01*
X124190000Y-96060500D02*
X123240000Y-95110500D01*
X123240000Y-95110500D02*
X123190000Y-95110500D01*
X121170500Y-93027500D02*
X121170500Y-94805500D01*
X121170500Y-94805500D02*
X122885000Y-94805500D01*
X122885000Y-94805500D02*
X123190000Y-95110500D01*
D46*
X99767952Y-100974452D02*
X100128192Y-100974452D01*
D45*
X101778192Y-104254692D02*
X101778192Y-104342808D01*
X101778192Y-104342808D02*
X101282500Y-104838500D01*
D46*
X101778192Y-103624452D02*
X101778192Y-104254692D01*
D45*
X72506401Y-88093599D02*
X73370000Y-87230000D01*
X72056399Y-88543601D02*
X72506401Y-88093599D01*
X72056399Y-90993601D02*
X72056399Y-88543601D01*
X73315598Y-92252800D02*
X72056399Y-90993601D01*
X75260200Y-92252800D02*
X73315598Y-92252800D01*
X73370000Y-87230000D02*
X75910000Y-87230000D01*
X90678200Y-104394000D02*
X89179400Y-104394000D01*
D46*
X113318503Y-103615703D02*
X113334800Y-103632000D01*
X112279161Y-103615703D02*
X113318503Y-103615703D01*
X112279161Y-100547321D02*
X113320681Y-100547321D01*
X113320681Y-100547321D02*
X113360202Y-100507800D01*
X113323521Y-102071321D02*
X113360200Y-102108000D01*
X112279161Y-102071321D02*
X113323521Y-102071321D01*
X113371480Y-99023321D02*
X113385600Y-99009201D01*
X112279161Y-99023321D02*
X113371480Y-99023321D01*
X113348921Y-97499321D02*
X113385600Y-97536000D01*
X112279161Y-97499321D02*
X113348921Y-97499321D01*
X97586800Y-104190800D02*
X98549702Y-104190800D01*
X102951503Y-106222800D02*
X102760801Y-106413502D01*
X101758602Y-106222800D02*
X97434400Y-106222800D01*
X101949304Y-106413502D02*
X101758602Y-106222800D01*
X97180400Y-104597200D02*
X97586800Y-104190800D01*
X106070400Y-106222800D02*
X102951503Y-106222800D01*
X98549702Y-104190800D02*
X99060000Y-103680502D01*
X102760801Y-106413502D02*
X101949304Y-106413502D01*
X97434400Y-106222800D02*
X97180400Y-105968800D01*
X97180400Y-105968800D02*
X97180400Y-104597200D01*
X99060000Y-103680502D02*
X99060000Y-102942644D01*
X99528192Y-102474452D02*
X100128192Y-102474452D01*
X99060000Y-102942644D02*
X99528192Y-102474452D01*
X108930000Y-89770000D02*
X108000800Y-90699200D01*
X108000800Y-90699200D02*
X108000800Y-95130536D01*
X108000800Y-95130536D02*
X108000800Y-95554800D01*
X120278601Y-88581399D02*
X120278601Y-86659471D01*
X119090000Y-89770000D02*
X120278601Y-88581399D01*
X114239201Y-99979199D02*
X114163001Y-100055399D01*
X114163001Y-100055399D02*
X114163001Y-103945441D01*
X112989121Y-105119321D02*
X112289121Y-105119321D01*
X120278601Y-86659471D02*
X119660529Y-86041399D01*
X113385600Y-90904730D02*
X113385600Y-95975998D01*
X114163001Y-103945441D02*
X112989121Y-105119321D01*
X113385600Y-95975998D02*
X114239201Y-96829599D01*
X114239201Y-96829599D02*
X114239201Y-99979199D01*
X113439471Y-86041399D02*
X112821399Y-86659471D01*
X112821399Y-86659471D02*
X112821399Y-90340529D01*
X119660529Y-86041399D02*
X113439471Y-86041399D01*
X112821399Y-90340529D02*
X113385600Y-90904730D01*
X104653192Y-98824452D02*
X105230444Y-98247200D01*
X107634185Y-98247200D02*
X112205970Y-93675415D01*
X104278192Y-98824452D02*
X104653192Y-98824452D01*
X105230444Y-98247200D02*
X107634185Y-98247200D01*
X112205970Y-93675415D02*
X112548869Y-93332516D01*
X107898374Y-97346601D02*
X111861600Y-93383375D01*
X111861600Y-93383375D02*
X111861600Y-93042533D01*
X103778192Y-98824452D02*
X103778192Y-98224452D01*
X103778192Y-98224452D02*
X104656043Y-97346601D01*
X104656043Y-97346601D02*
X107898374Y-97346601D01*
X111861600Y-93042533D02*
X111861600Y-92557600D01*
X102778192Y-104224452D02*
X102778192Y-103624452D01*
X106478899Y-105554899D02*
X103835817Y-105554899D01*
X111160000Y-110236000D02*
X106478899Y-105554899D01*
X102778192Y-104497274D02*
X102778192Y-104224452D01*
X103835817Y-105554899D02*
X102778192Y-104497274D01*
X111760000Y-110236000D02*
X111160000Y-110236000D01*
X110542210Y-108839000D02*
X106808098Y-105104888D01*
X106808098Y-105104888D02*
X104022217Y-105104888D01*
X111757000Y-108839000D02*
X110542210Y-108839000D01*
X104022217Y-105104888D02*
X103278192Y-104360863D01*
X103278192Y-104360863D02*
X103278192Y-104224452D01*
X103278192Y-104224452D02*
X103278192Y-103624452D01*
X104208617Y-104654877D02*
X103778192Y-104224452D01*
X111757000Y-107442000D02*
X109829212Y-107442000D01*
X109829212Y-107442000D02*
X107042089Y-104654877D01*
X107042089Y-104654877D02*
X104208617Y-104654877D01*
X103778192Y-104224452D02*
X103778192Y-103624452D01*
X101278192Y-98824452D02*
X101278192Y-98264450D01*
X101278192Y-98264450D02*
X100600542Y-97586800D01*
X100600542Y-97586800D02*
X100013303Y-97586800D01*
X100013303Y-97586800D02*
X99339101Y-96912598D01*
X99339101Y-96912598D02*
X99339101Y-96164101D01*
X99339101Y-96164101D02*
X98552000Y-95377000D01*
X110679161Y-100547321D02*
X110252030Y-100974452D01*
X110252030Y-100974452D02*
X106790360Y-100974452D01*
X106790360Y-100974452D02*
X104928192Y-100974452D01*
X110679161Y-100497321D02*
X110679161Y-100547321D01*
X104928192Y-101474452D02*
X110082292Y-101474452D01*
X110082292Y-101474452D02*
X110679161Y-102071321D01*
X104928192Y-100474452D02*
X109278030Y-100474452D01*
X109278030Y-100474452D02*
X110679161Y-99073321D01*
X110679161Y-99073321D02*
X110679161Y-99023321D01*
X104928192Y-99974452D02*
X108254030Y-99974452D01*
X108254030Y-99974452D02*
X110679161Y-97549321D01*
X110679161Y-97549321D02*
X110679161Y-97499321D01*
X105539265Y-102463379D02*
X108083179Y-102463379D01*
X110689121Y-105069321D02*
X110689121Y-105119321D01*
X105528192Y-102474452D02*
X105539265Y-102463379D01*
X104928192Y-102474452D02*
X105528192Y-102474452D01*
X108083179Y-102463379D02*
X110689121Y-105069321D01*
X110679161Y-103615703D02*
X110679161Y-103565703D01*
X110679161Y-103565703D02*
X109087910Y-101974452D01*
X109087910Y-101974452D02*
X106702718Y-101974452D01*
X106702718Y-101974452D02*
X104928192Y-101974452D01*
X116004133Y-94792800D02*
X115519200Y-94792800D01*
X116323800Y-94792800D02*
X116004133Y-94792800D01*
X118432000Y-96901000D02*
X116323800Y-94792800D01*
X119212000Y-96901000D02*
X118432000Y-96901000D01*
X119212000Y-96901000D02*
X119212000Y-95164000D01*
X119212000Y-95164000D02*
X119570500Y-94805500D01*
X115150899Y-96507301D02*
X114808000Y-96164402D01*
X119212000Y-98801000D02*
X117444598Y-98801000D01*
X117444598Y-98801000D02*
X115150899Y-96507301D01*
X119212000Y-98801000D02*
X119992000Y-98801000D01*
X119992000Y-98801000D02*
X120395499Y-98397501D01*
X120395499Y-98397501D02*
X120395499Y-93902499D01*
X120395499Y-93902499D02*
X119570500Y-93077500D01*
X119570500Y-93077500D02*
X119570500Y-93027500D01*
X122301000Y-96901000D02*
X122301000Y-96240600D01*
X122270799Y-96210399D02*
X121970800Y-95910400D01*
X122301000Y-96240600D02*
X122270799Y-96210399D01*
X124587000Y-94742000D02*
X125412500Y-94742000D01*
X125412500Y-94742000D02*
X125984000Y-94170500D01*
X122301000Y-96901000D02*
X122999500Y-96901000D01*
X121412000Y-96901000D02*
X122301000Y-96901000D01*
X122999500Y-96901000D02*
X123190000Y-96710500D01*
D45*
X78994000Y-94818200D02*
X81813400Y-94818200D01*
X81813400Y-94818200D02*
X81864200Y-94767400D01*
X76660200Y-92252800D02*
X76660200Y-92484400D01*
X76660200Y-92484400D02*
X78994000Y-94818200D01*
D48*
G36*
X127971688Y-85654136D02*
X128795446Y-86204554D01*
X129345864Y-87028311D01*
X129548000Y-88044518D01*
X129548000Y-111955482D01*
X129345864Y-112971689D01*
X128795446Y-113795446D01*
X127971688Y-114345864D01*
X126955482Y-114548000D01*
X106248200Y-114548000D01*
X106248200Y-111921230D01*
X124372632Y-111921230D01*
X124695766Y-112703274D01*
X125293578Y-113302131D01*
X126075057Y-113626630D01*
X126921230Y-113627368D01*
X127703274Y-113304234D01*
X128302131Y-112706422D01*
X128626630Y-111924943D01*
X128627368Y-111078770D01*
X128304234Y-110296726D01*
X127706422Y-109697869D01*
X126924943Y-109373370D01*
X126078770Y-109372632D01*
X125296726Y-109695766D01*
X124697869Y-110293578D01*
X124373370Y-111075057D01*
X124372632Y-111921230D01*
X106248200Y-111921230D01*
X106248200Y-107365800D01*
X106239515Y-107319641D01*
X106212235Y-107277247D01*
X106170610Y-107248806D01*
X106121200Y-107238800D01*
X92854400Y-107238800D01*
X92854400Y-106753688D01*
X92867108Y-106751297D01*
X92995420Y-106668730D01*
X93081501Y-106542747D01*
X93111785Y-106393200D01*
X93111785Y-105493200D01*
X93085497Y-105353492D01*
X93002930Y-105225180D01*
X92881369Y-105142120D01*
X92995420Y-105068730D01*
X93081501Y-104942747D01*
X93111785Y-104793200D01*
X93111785Y-103893200D01*
X93085497Y-103753492D01*
X93002930Y-103625180D01*
X92905200Y-103558404D01*
X92905200Y-103205750D01*
X95781500Y-103205750D01*
X95781500Y-103562045D01*
X95831283Y-103682231D01*
X95923270Y-103774217D01*
X96043456Y-103824000D01*
X96374750Y-103824000D01*
X96456500Y-103742250D01*
X96456500Y-103124000D01*
X95863250Y-103124000D01*
X95781500Y-103205750D01*
X92905200Y-103205750D01*
X92905200Y-102431955D01*
X95781500Y-102431955D01*
X95781500Y-102788250D01*
X95863250Y-102870000D01*
X96456500Y-102870000D01*
X96456500Y-102251750D01*
X96374750Y-102170000D01*
X96043456Y-102170000D01*
X95923270Y-102219783D01*
X95831283Y-102311769D01*
X95781500Y-102431955D01*
X92905200Y-102431955D01*
X92905200Y-101583150D01*
X97544800Y-101583150D01*
X97544800Y-101789444D01*
X97594583Y-101909630D01*
X97686569Y-102001617D01*
X97806755Y-102051400D01*
X98013050Y-102051400D01*
X98094800Y-101969650D01*
X98094800Y-101501400D01*
X97626550Y-101501400D01*
X97544800Y-101583150D01*
X92905200Y-101583150D01*
X92905200Y-100931432D01*
X93228341Y-100608291D01*
X93328053Y-100676421D01*
X93477600Y-100706705D01*
X94177600Y-100706705D01*
X94317308Y-100680417D01*
X94401054Y-100626528D01*
X94475662Y-100742472D01*
X94601645Y-100828553D01*
X94751192Y-100858837D01*
X95701192Y-100858837D01*
X95840900Y-100832549D01*
X95969212Y-100749982D01*
X96026522Y-100666107D01*
X96075662Y-100742472D01*
X96201645Y-100828553D01*
X96351192Y-100858837D01*
X97301192Y-100858837D01*
X97440900Y-100832549D01*
X97569212Y-100749982D01*
X97651217Y-100629964D01*
X97722253Y-100678501D01*
X97815579Y-100697400D01*
X97806755Y-100697400D01*
X97686569Y-100747183D01*
X97594583Y-100839170D01*
X97544800Y-100959356D01*
X97544800Y-101165650D01*
X97626550Y-101247400D01*
X98094800Y-101247400D01*
X98094800Y-101227400D01*
X98348800Y-101227400D01*
X98348800Y-101247400D01*
X98368800Y-101247400D01*
X98368800Y-101501400D01*
X98348800Y-101501400D01*
X98348800Y-101944988D01*
X98181173Y-102112615D01*
X97708500Y-102112615D01*
X97568792Y-102138903D01*
X97440480Y-102221470D01*
X97354399Y-102347453D01*
X97353118Y-102353779D01*
X97335717Y-102311769D01*
X97243730Y-102219783D01*
X97123544Y-102170000D01*
X96792250Y-102170000D01*
X96710500Y-102251750D01*
X96710500Y-102870000D01*
X96730500Y-102870000D01*
X96730500Y-103124000D01*
X96710500Y-103124000D01*
X96710500Y-103742250D01*
X96792250Y-103824000D01*
X97123544Y-103824000D01*
X97243730Y-103774217D01*
X97335717Y-103682231D01*
X97352940Y-103640651D01*
X97406944Y-103724575D01*
X97394692Y-103727012D01*
X97348599Y-103757811D01*
X97231832Y-103835832D01*
X97231830Y-103835835D01*
X96825432Y-104242232D01*
X96716612Y-104405093D01*
X96678399Y-104597200D01*
X96678400Y-104597205D01*
X96678400Y-105968795D01*
X96678399Y-105968800D01*
X96716612Y-106160907D01*
X96825432Y-106323768D01*
X97079430Y-106577765D01*
X97079432Y-106577768D01*
X97157690Y-106630058D01*
X97242292Y-106686588D01*
X97434400Y-106724800D01*
X101550667Y-106724800D01*
X101594334Y-106768467D01*
X101594336Y-106768470D01*
X101677413Y-106823980D01*
X101757196Y-106877290D01*
X101949304Y-106915502D01*
X102760796Y-106915502D01*
X102760801Y-106915503D01*
X102952908Y-106877290D01*
X103115769Y-106768470D01*
X103159439Y-106724800D01*
X105554319Y-106724800D01*
X105662077Y-106832746D01*
X105926575Y-106942575D01*
X106212969Y-106942825D01*
X106477658Y-106833458D01*
X106680346Y-106631123D01*
X106728711Y-106514647D01*
X110805030Y-110590965D01*
X110805032Y-110590968D01*
X110894944Y-110651045D01*
X110967893Y-110699788D01*
X111050103Y-110716141D01*
X111051903Y-110725708D01*
X111134470Y-110854020D01*
X111260453Y-110940101D01*
X111410000Y-110970385D01*
X112110000Y-110970385D01*
X112249708Y-110944097D01*
X112378020Y-110861530D01*
X112464101Y-110735547D01*
X112483000Y-110642221D01*
X112483000Y-110651045D01*
X112532783Y-110771231D01*
X112624770Y-110863217D01*
X112744956Y-110913000D01*
X112951250Y-110913000D01*
X113033000Y-110831250D01*
X113033000Y-110363000D01*
X113287000Y-110363000D01*
X113287000Y-110831250D01*
X113368750Y-110913000D01*
X113575044Y-110913000D01*
X113695230Y-110863217D01*
X113787217Y-110771231D01*
X113837000Y-110651045D01*
X113837000Y-110444750D01*
X113755250Y-110363000D01*
X113287000Y-110363000D01*
X113033000Y-110363000D01*
X113013000Y-110363000D01*
X113013000Y-110109000D01*
X113033000Y-110109000D01*
X113033000Y-109640750D01*
X113287000Y-109640750D01*
X113287000Y-110109000D01*
X113755250Y-110109000D01*
X113837000Y-110027250D01*
X113837000Y-109820955D01*
X113787217Y-109700769D01*
X113695230Y-109608783D01*
X113575044Y-109559000D01*
X113368750Y-109559000D01*
X113287000Y-109640750D01*
X113033000Y-109640750D01*
X112951250Y-109559000D01*
X112744956Y-109559000D01*
X112624770Y-109608783D01*
X112532783Y-109700769D01*
X112483000Y-109820955D01*
X112483000Y-109825494D01*
X112468097Y-109746292D01*
X112385530Y-109617980D01*
X112264775Y-109535471D01*
X112375020Y-109464530D01*
X112461101Y-109338547D01*
X112480000Y-109245221D01*
X112480000Y-109254045D01*
X112529783Y-109374231D01*
X112621770Y-109466217D01*
X112741956Y-109516000D01*
X112948250Y-109516000D01*
X113030000Y-109434250D01*
X113030000Y-108966000D01*
X113284000Y-108966000D01*
X113284000Y-109434250D01*
X113365750Y-109516000D01*
X113572044Y-109516000D01*
X113692230Y-109466217D01*
X113784217Y-109374231D01*
X113834000Y-109254045D01*
X113834000Y-109047750D01*
X113752250Y-108966000D01*
X113284000Y-108966000D01*
X113030000Y-108966000D01*
X113010000Y-108966000D01*
X113010000Y-108712000D01*
X113030000Y-108712000D01*
X113030000Y-108243750D01*
X113284000Y-108243750D01*
X113284000Y-108712000D01*
X113752250Y-108712000D01*
X113834000Y-108630250D01*
X113834000Y-108423955D01*
X113784217Y-108303769D01*
X113692230Y-108211783D01*
X113572044Y-108162000D01*
X113365750Y-108162000D01*
X113284000Y-108243750D01*
X113030000Y-108243750D01*
X112948250Y-108162000D01*
X112741956Y-108162000D01*
X112621770Y-108211783D01*
X112529783Y-108303769D01*
X112480000Y-108423955D01*
X112480000Y-108428494D01*
X112465097Y-108349292D01*
X112382530Y-108220980D01*
X112263230Y-108139465D01*
X112375020Y-108067530D01*
X112461101Y-107941547D01*
X112480000Y-107848221D01*
X112480000Y-107857045D01*
X112529783Y-107977231D01*
X112621770Y-108069217D01*
X112741956Y-108119000D01*
X112948250Y-108119000D01*
X113030000Y-108037250D01*
X113030000Y-107569000D01*
X113284000Y-107569000D01*
X113284000Y-108037250D01*
X113365750Y-108119000D01*
X113572044Y-108119000D01*
X113692230Y-108069217D01*
X113784217Y-107977231D01*
X113834000Y-107857045D01*
X113834000Y-107650750D01*
X113752250Y-107569000D01*
X113284000Y-107569000D01*
X113030000Y-107569000D01*
X113010000Y-107569000D01*
X113010000Y-107315000D01*
X113030000Y-107315000D01*
X113030000Y-107295000D01*
X113284000Y-107295000D01*
X113284000Y-107315000D01*
X113752250Y-107315000D01*
X113834000Y-107233250D01*
X113834000Y-107026955D01*
X113829821Y-107016865D01*
X113974556Y-106920156D01*
X119205812Y-101688900D01*
X125142415Y-101688900D01*
X125142415Y-103416100D01*
X125168703Y-103555808D01*
X125251270Y-103684120D01*
X125377253Y-103770201D01*
X125526800Y-103800485D01*
X127558800Y-103800485D01*
X127698508Y-103774197D01*
X127826820Y-103691630D01*
X127912901Y-103565647D01*
X127943185Y-103416100D01*
X127943185Y-101688900D01*
X127916897Y-101549192D01*
X127834330Y-101420880D01*
X127708347Y-101334799D01*
X127558800Y-101304515D01*
X125526800Y-101304515D01*
X125387092Y-101330803D01*
X125258780Y-101413370D01*
X125172699Y-101539353D01*
X125142415Y-101688900D01*
X119205812Y-101688900D01*
X120882212Y-100012500D01*
X125122510Y-100012500D01*
X125216945Y-100487257D01*
X125485873Y-100889737D01*
X125888353Y-101158665D01*
X126363110Y-101253100D01*
X126722490Y-101253100D01*
X127197247Y-101158665D01*
X127599727Y-100889737D01*
X127868655Y-100487257D01*
X127963090Y-100012500D01*
X127868655Y-99537743D01*
X127599727Y-99135263D01*
X127197247Y-98866335D01*
X126722490Y-98771900D01*
X126363110Y-98771900D01*
X125888353Y-98866335D01*
X125485873Y-99135263D01*
X125216945Y-99537743D01*
X125122510Y-100012500D01*
X120882212Y-100012500D01*
X121384327Y-99510385D01*
X121942000Y-99510385D01*
X122081708Y-99484097D01*
X122168885Y-99428000D01*
X122859502Y-99428000D01*
X123099445Y-99380272D01*
X123302858Y-99244356D01*
X124633356Y-97913858D01*
X124671620Y-97856592D01*
X124720708Y-97783125D01*
X125241035Y-97783125D01*
X125441020Y-98193661D01*
X125789264Y-98502078D01*
X126229025Y-98653751D01*
X126415800Y-98582702D01*
X126415800Y-97599500D01*
X126669800Y-97599500D01*
X126669800Y-98582702D01*
X126856575Y-98653751D01*
X127296336Y-98502078D01*
X127644580Y-98193661D01*
X127844565Y-97783125D01*
X127796753Y-97599500D01*
X126669800Y-97599500D01*
X126415800Y-97599500D01*
X125288847Y-97599500D01*
X125241035Y-97783125D01*
X124720708Y-97783125D01*
X124769272Y-97710445D01*
X124817000Y-97470502D01*
X124817000Y-97161875D01*
X125241035Y-97161875D01*
X125288847Y-97345500D01*
X126415800Y-97345500D01*
X126415800Y-96362298D01*
X126669800Y-96362298D01*
X126669800Y-97345500D01*
X127796753Y-97345500D01*
X127844565Y-97161875D01*
X127644580Y-96751339D01*
X127296336Y-96442922D01*
X126856575Y-96291249D01*
X126669800Y-96362298D01*
X126415800Y-96362298D01*
X126229025Y-96291249D01*
X125789264Y-96442922D01*
X125441020Y-96751339D01*
X125241035Y-97161875D01*
X124817000Y-97161875D01*
X124817000Y-96060500D01*
X124801976Y-95984970D01*
X124769273Y-95820558D01*
X124633356Y-95617144D01*
X124478017Y-95461805D01*
X124729569Y-95462025D01*
X124994258Y-95352658D01*
X125103106Y-95244000D01*
X125412495Y-95244000D01*
X125412500Y-95244001D01*
X125604607Y-95205788D01*
X125628408Y-95189885D01*
X126466600Y-95189885D01*
X126606308Y-95163597D01*
X126674889Y-95119466D01*
X126706355Y-95132500D01*
X127045250Y-95132500D01*
X127127000Y-95050750D01*
X127127000Y-94297500D01*
X127381000Y-94297500D01*
X127381000Y-95050750D01*
X127462750Y-95132500D01*
X127801645Y-95132500D01*
X127921831Y-95082717D01*
X128013817Y-94990730D01*
X128063600Y-94870544D01*
X128063600Y-94379250D01*
X127981850Y-94297500D01*
X127381000Y-94297500D01*
X127127000Y-94297500D01*
X127107000Y-94297500D01*
X127107000Y-94043500D01*
X127127000Y-94043500D01*
X127127000Y-93290250D01*
X127381000Y-93290250D01*
X127381000Y-94043500D01*
X127981850Y-94043500D01*
X128063600Y-93961750D01*
X128063600Y-93470456D01*
X128013817Y-93350270D01*
X127921831Y-93258283D01*
X127801645Y-93208500D01*
X127462750Y-93208500D01*
X127381000Y-93290250D01*
X127127000Y-93290250D01*
X127045250Y-93208500D01*
X126706355Y-93208500D01*
X126674887Y-93221535D01*
X126616147Y-93181399D01*
X126466600Y-93151115D01*
X125501400Y-93151115D01*
X125361692Y-93177403D01*
X125233380Y-93259970D01*
X125147299Y-93385953D01*
X125117015Y-93535500D01*
X125117015Y-94240000D01*
X125103081Y-94240000D01*
X124995323Y-94132054D01*
X124730825Y-94022225D01*
X124444431Y-94021975D01*
X124179742Y-94131342D01*
X123977054Y-94333677D01*
X123955486Y-94385617D01*
X123839547Y-94306399D01*
X123690000Y-94276115D01*
X123199604Y-94276115D01*
X123124943Y-94226228D01*
X122885000Y-94178500D01*
X121980988Y-94178500D01*
X121978597Y-94165792D01*
X121896030Y-94037480D01*
X121797500Y-93970157D01*
X121797500Y-93861600D01*
X121888520Y-93803030D01*
X121974601Y-93677047D01*
X122004885Y-93527500D01*
X122004885Y-92527500D01*
X121978597Y-92387792D01*
X121896030Y-92259480D01*
X121770047Y-92173399D01*
X121620500Y-92143115D01*
X120720500Y-92143115D01*
X120580792Y-92169403D01*
X120452480Y-92251970D01*
X120369420Y-92373531D01*
X120296030Y-92259480D01*
X120170047Y-92173399D01*
X120020500Y-92143115D01*
X119120500Y-92143115D01*
X118980792Y-92169403D01*
X118852480Y-92251970D01*
X118766399Y-92377953D01*
X118736115Y-92527500D01*
X118736115Y-93527500D01*
X118762403Y-93667208D01*
X118844970Y-93795520D01*
X118970953Y-93881601D01*
X119120500Y-93911885D01*
X119694950Y-93911885D01*
X119704180Y-93921115D01*
X119120500Y-93921115D01*
X118980792Y-93947403D01*
X118852480Y-94029970D01*
X118766399Y-94155953D01*
X118736115Y-94305500D01*
X118736115Y-95032708D01*
X118709999Y-95164000D01*
X118710000Y-95164005D01*
X118710000Y-96191615D01*
X118682000Y-96191615D01*
X118542292Y-96217903D01*
X118491514Y-96250578D01*
X116678768Y-94437832D01*
X116515907Y-94329012D01*
X116323800Y-94290799D01*
X116323795Y-94290800D01*
X116035281Y-94290800D01*
X115927523Y-94182854D01*
X115663025Y-94073025D01*
X115376631Y-94072775D01*
X115111942Y-94182142D01*
X114909254Y-94384477D01*
X114799425Y-94648975D01*
X114799175Y-94935369D01*
X114908542Y-95200058D01*
X115110877Y-95402746D01*
X115375375Y-95512575D01*
X115661769Y-95512825D01*
X115926458Y-95403458D01*
X116035306Y-95294800D01*
X116115864Y-95294800D01*
X118077032Y-97255968D01*
X118239892Y-97364788D01*
X118335556Y-97383817D01*
X118366824Y-97432409D01*
X118355000Y-97460955D01*
X118355000Y-97642250D01*
X118436750Y-97724000D01*
X119085000Y-97724000D01*
X119085000Y-97704000D01*
X119339000Y-97704000D01*
X119339000Y-97724000D01*
X119359000Y-97724000D01*
X119359000Y-97978000D01*
X119339000Y-97978000D01*
X119339000Y-97998000D01*
X119085000Y-97998000D01*
X119085000Y-97978000D01*
X118436750Y-97978000D01*
X118355000Y-98059750D01*
X118355000Y-98241045D01*
X118366797Y-98269525D01*
X118346657Y-98299000D01*
X117652533Y-98299000D01*
X115527892Y-96174358D01*
X115528025Y-96021833D01*
X115418658Y-95757144D01*
X115216323Y-95554456D01*
X114951825Y-95444627D01*
X114665431Y-95444377D01*
X114400742Y-95553744D01*
X114198054Y-95756079D01*
X114103450Y-95983912D01*
X113887600Y-95768062D01*
X113887600Y-90991088D01*
X113985695Y-91010600D01*
X114034305Y-91010600D01*
X114509062Y-90916165D01*
X114911542Y-90647237D01*
X115180470Y-90244757D01*
X115274905Y-89770000D01*
X115285095Y-89770000D01*
X115379530Y-90244757D01*
X115648458Y-90647237D01*
X116050938Y-90916165D01*
X116525695Y-91010600D01*
X116574305Y-91010600D01*
X117049062Y-90916165D01*
X117451542Y-90647237D01*
X117720470Y-90244757D01*
X117814905Y-89770000D01*
X117720470Y-89295243D01*
X117451542Y-88892763D01*
X117049062Y-88623835D01*
X116574305Y-88529400D01*
X116525695Y-88529400D01*
X116050938Y-88623835D01*
X115648458Y-88892763D01*
X115379530Y-89295243D01*
X115285095Y-89770000D01*
X115274905Y-89770000D01*
X115180470Y-89295243D01*
X114911542Y-88892763D01*
X114509062Y-88623835D01*
X114034305Y-88529400D01*
X113985695Y-88529400D01*
X113510938Y-88623835D01*
X113323399Y-88749144D01*
X113323399Y-88192960D01*
X113699373Y-88379377D01*
X113883000Y-88332069D01*
X113883000Y-87357000D01*
X114137000Y-87357000D01*
X114137000Y-88332069D01*
X114320627Y-88379377D01*
X114736829Y-88173014D01*
X115042378Y-87823086D01*
X115159365Y-87540625D01*
X115111553Y-87357000D01*
X114137000Y-87357000D01*
X113883000Y-87357000D01*
X113863000Y-87357000D01*
X113863000Y-87103000D01*
X113883000Y-87103000D01*
X113883000Y-87083000D01*
X114137000Y-87083000D01*
X114137000Y-87103000D01*
X115111553Y-87103000D01*
X115159365Y-86919375D01*
X115042378Y-86636914D01*
X114960723Y-86543399D01*
X115521079Y-86543399D01*
X115379530Y-86755243D01*
X115285095Y-87230000D01*
X115379530Y-87704757D01*
X115648458Y-88107237D01*
X116050938Y-88376165D01*
X116525695Y-88470600D01*
X116574305Y-88470600D01*
X117049062Y-88376165D01*
X117451542Y-88107237D01*
X117720470Y-87704757D01*
X117814905Y-87230000D01*
X117720470Y-86755243D01*
X117578921Y-86543399D01*
X118061079Y-86543399D01*
X117919530Y-86755243D01*
X117825095Y-87230000D01*
X117919530Y-87704757D01*
X118188458Y-88107237D01*
X118590938Y-88376165D01*
X119065695Y-88470600D01*
X119114305Y-88470600D01*
X119589062Y-88376165D01*
X119776601Y-88250856D01*
X119776601Y-88373464D01*
X119536654Y-88613410D01*
X119114305Y-88529400D01*
X119065695Y-88529400D01*
X118590938Y-88623835D01*
X118188458Y-88892763D01*
X117919530Y-89295243D01*
X117825095Y-89770000D01*
X117919530Y-90244757D01*
X118188458Y-90647237D01*
X118590938Y-90916165D01*
X119065695Y-91010600D01*
X119114305Y-91010600D01*
X119589062Y-90916165D01*
X119991542Y-90647237D01*
X120260470Y-90244757D01*
X120293117Y-90080625D01*
X120480635Y-90080625D01*
X120597622Y-90363086D01*
X120903171Y-90713014D01*
X121319373Y-90919377D01*
X121503000Y-90872069D01*
X121503000Y-89897000D01*
X121757000Y-89897000D01*
X121757000Y-90872069D01*
X121940627Y-90919377D01*
X122356829Y-90713014D01*
X122662378Y-90363086D01*
X122779365Y-90080625D01*
X122731553Y-89897000D01*
X121757000Y-89897000D01*
X121503000Y-89897000D01*
X120528447Y-89897000D01*
X120480635Y-90080625D01*
X120293117Y-90080625D01*
X120354905Y-89770000D01*
X120293119Y-89459375D01*
X120480635Y-89459375D01*
X120528447Y-89643000D01*
X121503000Y-89643000D01*
X121503000Y-88667931D01*
X121757000Y-88667931D01*
X121757000Y-89643000D01*
X122731553Y-89643000D01*
X122779365Y-89459375D01*
X122662378Y-89176914D01*
X122439121Y-88921230D01*
X124372632Y-88921230D01*
X124695766Y-89703274D01*
X125293578Y-90302131D01*
X126075057Y-90626630D01*
X126921230Y-90627368D01*
X127703274Y-90304234D01*
X128302131Y-89706422D01*
X128626630Y-88924943D01*
X128627368Y-88078770D01*
X128304234Y-87296726D01*
X127706422Y-86697869D01*
X126924943Y-86373370D01*
X126078770Y-86372632D01*
X125296726Y-86695766D01*
X124697869Y-87293578D01*
X124373370Y-88075057D01*
X124372632Y-88921230D01*
X122439121Y-88921230D01*
X122356829Y-88826986D01*
X121940627Y-88620623D01*
X121757000Y-88667931D01*
X121503000Y-88667931D01*
X121319373Y-88620623D01*
X120903171Y-88826986D01*
X120597622Y-89176914D01*
X120480635Y-89459375D01*
X120293119Y-89459375D01*
X120262830Y-89307106D01*
X120633566Y-88936369D01*
X120633569Y-88936367D01*
X120742389Y-88773506D01*
X120743744Y-88766692D01*
X120780602Y-88581399D01*
X120780601Y-88581394D01*
X120780601Y-88142078D01*
X121130938Y-88376165D01*
X121605695Y-88470600D01*
X121654305Y-88470600D01*
X122129062Y-88376165D01*
X122531542Y-88107237D01*
X122800470Y-87704757D01*
X122894905Y-87230000D01*
X122800470Y-86755243D01*
X122531542Y-86352763D01*
X122129062Y-86083835D01*
X121654305Y-85989400D01*
X121605695Y-85989400D01*
X121130938Y-86083835D01*
X120728458Y-86352763D01*
X120697137Y-86399639D01*
X120633569Y-86304503D01*
X120633566Y-86304501D01*
X120015497Y-85686431D01*
X119852636Y-85577611D01*
X119660529Y-85539398D01*
X119660524Y-85539399D01*
X113439476Y-85539399D01*
X113439471Y-85539398D01*
X113247364Y-85577611D01*
X113084503Y-85686431D01*
X113084501Y-85686434D01*
X112466431Y-86304503D01*
X112402863Y-86399639D01*
X112371542Y-86352763D01*
X111969062Y-86083835D01*
X111494305Y-85989400D01*
X111445695Y-85989400D01*
X110970938Y-86083835D01*
X110568458Y-86352763D01*
X110299530Y-86755243D01*
X110205095Y-87230000D01*
X110299530Y-87704757D01*
X110568458Y-88107237D01*
X110970938Y-88376165D01*
X111445695Y-88470600D01*
X111494305Y-88470600D01*
X111969062Y-88376165D01*
X112319399Y-88142078D01*
X112319399Y-88857922D01*
X111969062Y-88623835D01*
X111494305Y-88529400D01*
X111445695Y-88529400D01*
X110970938Y-88623835D01*
X110568458Y-88892763D01*
X110299530Y-89295243D01*
X110205095Y-89770000D01*
X110299530Y-90244757D01*
X110568458Y-90647237D01*
X110970938Y-90916165D01*
X111445695Y-91010600D01*
X111494305Y-91010600D01*
X111969062Y-90916165D01*
X112371542Y-90647237D01*
X112402863Y-90600361D01*
X112466431Y-90695497D01*
X112883600Y-91112665D01*
X112883600Y-92692012D01*
X112692694Y-92612741D01*
X112581452Y-92612644D01*
X112581625Y-92415031D01*
X112472258Y-92150342D01*
X112269923Y-91947654D01*
X112005425Y-91837825D01*
X111719031Y-91837575D01*
X111454342Y-91946942D01*
X111251654Y-92149277D01*
X111141825Y-92413775D01*
X111141575Y-92700169D01*
X111250942Y-92964858D01*
X111359600Y-93073706D01*
X111359600Y-93175439D01*
X108638319Y-95896720D01*
X108720575Y-95698625D01*
X108720825Y-95412231D01*
X108611458Y-95147542D01*
X108502800Y-95038694D01*
X108502800Y-90930459D01*
X108905695Y-91010600D01*
X108954305Y-91010600D01*
X109429062Y-90916165D01*
X109831542Y-90647237D01*
X110100470Y-90244757D01*
X110194905Y-89770000D01*
X110100470Y-89295243D01*
X109831542Y-88892763D01*
X109429062Y-88623835D01*
X108954305Y-88529400D01*
X108905695Y-88529400D01*
X108430938Y-88623835D01*
X108028458Y-88892763D01*
X107759530Y-89295243D01*
X107665095Y-89770000D01*
X107757170Y-90232894D01*
X107645832Y-90344232D01*
X107537012Y-90507093D01*
X107498799Y-90699200D01*
X107498800Y-90699205D01*
X107498800Y-95038719D01*
X107390854Y-95146477D01*
X107281025Y-95410975D01*
X107280775Y-95697369D01*
X107390142Y-95962058D01*
X107592477Y-96164746D01*
X107856975Y-96274575D01*
X108143369Y-96274825D01*
X108342488Y-96192551D01*
X107690438Y-96844601D01*
X107049800Y-96844601D01*
X107049800Y-96608750D01*
X106968050Y-96527000D01*
X106349800Y-96527000D01*
X106349800Y-96547000D01*
X106095800Y-96547000D01*
X106095800Y-96527000D01*
X106075800Y-96527000D01*
X106075800Y-96273000D01*
X106095800Y-96273000D01*
X106095800Y-96253000D01*
X106349800Y-96253000D01*
X106349800Y-96273000D01*
X106968050Y-96273000D01*
X107049800Y-96191250D01*
X107049800Y-95859956D01*
X107000017Y-95739770D01*
X106908031Y-95647783D01*
X106866451Y-95630560D01*
X106990820Y-95550530D01*
X107076901Y-95424547D01*
X107107185Y-95275000D01*
X107107185Y-94325000D01*
X107080897Y-94185292D01*
X106998330Y-94056980D01*
X106872347Y-93970899D01*
X106722800Y-93940615D01*
X105722800Y-93940615D01*
X105583092Y-93966903D01*
X105454780Y-94049470D01*
X105449812Y-94056741D01*
X105369530Y-93931980D01*
X105243547Y-93845899D01*
X105094000Y-93815615D01*
X103694000Y-93815615D01*
X103554292Y-93841903D01*
X103425980Y-93924470D01*
X103339899Y-94050453D01*
X103309615Y-94200000D01*
X103309615Y-94889447D01*
X103278385Y-94920677D01*
X103278385Y-94200000D01*
X103252097Y-94060292D01*
X103169530Y-93931980D01*
X103043547Y-93845899D01*
X102894000Y-93815615D01*
X101494000Y-93815615D01*
X101354292Y-93841903D01*
X101225980Y-93924470D01*
X101139899Y-94050453D01*
X101117020Y-94163435D01*
X101107217Y-94139770D01*
X101015231Y-94047783D01*
X100895045Y-93998000D01*
X100538750Y-93998000D01*
X100457000Y-94079750D01*
X100457000Y-94673000D01*
X100477000Y-94673000D01*
X100477000Y-94927000D01*
X100457000Y-94927000D01*
X100457000Y-94947000D01*
X100203000Y-94947000D01*
X100203000Y-94927000D01*
X99584750Y-94927000D01*
X99503000Y-95008750D01*
X99503000Y-95340044D01*
X99552783Y-95460230D01*
X99644769Y-95552217D01*
X99686349Y-95569440D01*
X99561980Y-95649470D01*
X99550787Y-95665851D01*
X99335385Y-95450449D01*
X99335385Y-94877000D01*
X99309097Y-94737292D01*
X99226530Y-94608980D01*
X99100547Y-94522899D01*
X98951000Y-94492615D01*
X98051000Y-94492615D01*
X97911292Y-94518903D01*
X97782980Y-94601470D01*
X97696899Y-94727453D01*
X97678000Y-94820779D01*
X97678000Y-94811955D01*
X97628217Y-94691769D01*
X97536230Y-94599783D01*
X97416044Y-94550000D01*
X97109750Y-94550000D01*
X97028000Y-94631750D01*
X97028000Y-95250000D01*
X97048000Y-95250000D01*
X97048000Y-95504000D01*
X97028000Y-95504000D01*
X97028000Y-96122250D01*
X97109750Y-96204000D01*
X97416044Y-96204000D01*
X97536230Y-96154217D01*
X97628217Y-96062231D01*
X97678000Y-95942045D01*
X97678000Y-95937506D01*
X97692903Y-96016708D01*
X97775470Y-96145020D01*
X97898122Y-96228825D01*
X97873792Y-96233403D01*
X97745480Y-96315970D01*
X97659399Y-96441953D01*
X97658118Y-96448279D01*
X97640717Y-96406269D01*
X97548730Y-96314283D01*
X97428544Y-96264500D01*
X97097250Y-96264500D01*
X97015500Y-96346250D01*
X97015500Y-96964500D01*
X97035500Y-96964500D01*
X97035500Y-97218500D01*
X97015500Y-97218500D01*
X97015500Y-97238500D01*
X96761500Y-97238500D01*
X96761500Y-97218500D01*
X96168250Y-97218500D01*
X96086500Y-97300250D01*
X96086500Y-97358788D01*
X96007385Y-97279673D01*
X96007385Y-96553000D01*
X96002391Y-96526455D01*
X96086500Y-96526455D01*
X96086500Y-96882750D01*
X96168250Y-96964500D01*
X96761500Y-96964500D01*
X96761500Y-96346250D01*
X96679750Y-96264500D01*
X96348456Y-96264500D01*
X96228270Y-96314283D01*
X96136283Y-96406269D01*
X96086500Y-96526455D01*
X96002391Y-96526455D01*
X95981097Y-96413292D01*
X95898530Y-96284980D01*
X95772547Y-96198899D01*
X95766221Y-96197618D01*
X95808231Y-96180217D01*
X95900217Y-96088230D01*
X95950000Y-95968044D01*
X95950000Y-95636750D01*
X95899000Y-95585750D01*
X96124000Y-95585750D01*
X96124000Y-95942045D01*
X96173783Y-96062231D01*
X96265770Y-96154217D01*
X96385956Y-96204000D01*
X96692250Y-96204000D01*
X96774000Y-96122250D01*
X96774000Y-95504000D01*
X96205750Y-95504000D01*
X96124000Y-95585750D01*
X95899000Y-95585750D01*
X95868250Y-95555000D01*
X95250000Y-95555000D01*
X95250000Y-95575000D01*
X94996000Y-95575000D01*
X94996000Y-95555000D01*
X94377750Y-95555000D01*
X94296000Y-95636750D01*
X94296000Y-95968044D01*
X94345783Y-96088230D01*
X94437769Y-96180217D01*
X94479349Y-96197440D01*
X94354980Y-96277470D01*
X94270575Y-96401000D01*
X92138500Y-96401000D01*
X91898557Y-96448728D01*
X91723994Y-96565367D01*
X91695144Y-96584644D01*
X91446788Y-96833000D01*
X82688987Y-96833000D01*
X82614330Y-96716980D01*
X82488347Y-96630899D01*
X82338800Y-96600615D01*
X81836217Y-96600615D01*
X81722943Y-96524928D01*
X81483000Y-96477200D01*
X80371993Y-96477200D01*
X80368097Y-96456492D01*
X80285530Y-96328180D01*
X80159547Y-96242099D01*
X80010000Y-96211815D01*
X77978000Y-96211815D01*
X77838292Y-96238103D01*
X77709980Y-96320670D01*
X77623899Y-96446653D01*
X77593615Y-96596200D01*
X77593615Y-97612200D01*
X77619903Y-97751908D01*
X77702470Y-97880220D01*
X77828453Y-97966301D01*
X77978000Y-97996585D01*
X80010000Y-97996585D01*
X80149708Y-97970297D01*
X80278020Y-97887730D01*
X80364101Y-97761747D01*
X80370287Y-97731200D01*
X80954415Y-97731200D01*
X80954415Y-97935000D01*
X80980703Y-98074708D01*
X81063270Y-98203020D01*
X81189253Y-98289101D01*
X81195579Y-98290382D01*
X81153569Y-98307783D01*
X81061583Y-98399770D01*
X81011800Y-98519956D01*
X81011800Y-98851250D01*
X81093550Y-98933000D01*
X81711800Y-98933000D01*
X81711800Y-98913000D01*
X81965800Y-98913000D01*
X81965800Y-98933000D01*
X82584050Y-98933000D01*
X82665800Y-98851250D01*
X82665800Y-98519956D01*
X82616017Y-98399770D01*
X82524031Y-98307783D01*
X82482451Y-98290560D01*
X82606820Y-98210530D01*
X82643207Y-98157276D01*
X93150600Y-98157276D01*
X93150600Y-98363570D01*
X93232350Y-98445320D01*
X93700600Y-98445320D01*
X93700600Y-97977070D01*
X93954600Y-97977070D01*
X93954600Y-98445320D01*
X94422850Y-98445320D01*
X94504600Y-98363570D01*
X94504600Y-98157276D01*
X94454817Y-98037090D01*
X94362831Y-97945103D01*
X94242645Y-97895320D01*
X94036350Y-97895320D01*
X93954600Y-97977070D01*
X93700600Y-97977070D01*
X93618850Y-97895320D01*
X93412555Y-97895320D01*
X93292369Y-97945103D01*
X93200383Y-98037090D01*
X93150600Y-98157276D01*
X82643207Y-98157276D01*
X82691225Y-98087000D01*
X91706500Y-98087000D01*
X91946443Y-98039272D01*
X92149856Y-97903356D01*
X92398212Y-97655000D01*
X94272813Y-97655000D01*
X94347470Y-97771020D01*
X94473453Y-97857101D01*
X94623000Y-97887385D01*
X94841673Y-97887385D01*
X95492444Y-98538156D01*
X95695858Y-98674073D01*
X95935800Y-98721800D01*
X97510200Y-98721800D01*
X97750143Y-98674072D01*
X97953556Y-98538156D01*
X98437640Y-98054072D01*
X98537119Y-98294828D01*
X98569211Y-98326976D01*
X98569211Y-98561211D01*
X98616939Y-98801154D01*
X98705036Y-98933000D01*
X98752855Y-99004567D01*
X99095688Y-99347400D01*
X98834187Y-99347400D01*
X98721347Y-99270299D01*
X98571800Y-99240015D01*
X97871800Y-99240015D01*
X97732092Y-99266303D01*
X97649463Y-99319474D01*
X97576722Y-99206432D01*
X97450739Y-99120351D01*
X97301192Y-99090067D01*
X96351192Y-99090067D01*
X96211484Y-99116355D01*
X96083172Y-99198922D01*
X96025862Y-99282797D01*
X95976722Y-99206432D01*
X95850739Y-99120351D01*
X95701192Y-99090067D01*
X94751192Y-99090067D01*
X94611484Y-99116355D01*
X94483172Y-99198922D01*
X94401234Y-99318841D01*
X94327147Y-99268219D01*
X94233821Y-99249320D01*
X94242645Y-99249320D01*
X94362831Y-99199537D01*
X94454817Y-99107550D01*
X94504600Y-98987364D01*
X94504600Y-98781070D01*
X94422850Y-98699320D01*
X93954600Y-98699320D01*
X93954600Y-98719320D01*
X93700600Y-98719320D01*
X93700600Y-98699320D01*
X93232350Y-98699320D01*
X93150600Y-98781070D01*
X93150600Y-98987364D01*
X93200383Y-99107550D01*
X93292369Y-99199537D01*
X93412555Y-99249320D01*
X93417094Y-99249320D01*
X93337892Y-99264223D01*
X93211864Y-99345320D01*
X92977600Y-99345320D01*
X92737658Y-99393047D01*
X92534244Y-99528964D01*
X91834844Y-100228364D01*
X91698928Y-100431777D01*
X91651200Y-100671720D01*
X91651200Y-103523153D01*
X91587692Y-103535103D01*
X91459380Y-103617670D01*
X91373299Y-103743653D01*
X91371247Y-103753785D01*
X91277747Y-103689899D01*
X91128200Y-103659615D01*
X90428200Y-103659615D01*
X90288492Y-103685903D01*
X90162464Y-103767000D01*
X90039888Y-103767000D01*
X90037497Y-103754292D01*
X89954930Y-103625980D01*
X89828947Y-103539899D01*
X89679400Y-103509615D01*
X89085453Y-103509615D01*
X89106400Y-103459045D01*
X89106400Y-103102750D01*
X89024650Y-103021000D01*
X87806400Y-103021000D01*
X87806400Y-103639250D01*
X87888150Y-103721000D01*
X88341324Y-103721000D01*
X88325299Y-103744453D01*
X88295015Y-103894000D01*
X88295015Y-104894000D01*
X88321303Y-105033708D01*
X88342726Y-105067000D01*
X87888150Y-105067000D01*
X87806400Y-105148750D01*
X87806400Y-105767000D01*
X89024650Y-105767000D01*
X89106400Y-105685250D01*
X89106400Y-105328955D01*
X89085453Y-105278385D01*
X89679400Y-105278385D01*
X89819108Y-105252097D01*
X89947420Y-105169530D01*
X90033501Y-105043547D01*
X90038067Y-105021000D01*
X90165813Y-105021000D01*
X90278653Y-105098101D01*
X90428200Y-105128385D01*
X91128200Y-105128385D01*
X91267908Y-105102097D01*
X91396220Y-105019530D01*
X91411064Y-104997806D01*
X91451870Y-105061220D01*
X91573431Y-105144280D01*
X91459380Y-105217670D01*
X91373299Y-105343653D01*
X91343015Y-105493200D01*
X91343015Y-106393200D01*
X91369303Y-106532908D01*
X91451870Y-106661220D01*
X91577853Y-106747301D01*
X91600400Y-106751867D01*
X91600400Y-107238800D01*
X73558400Y-107238800D01*
X73512241Y-107247485D01*
X73469847Y-107274765D01*
X73441406Y-107316390D01*
X73431400Y-107365800D01*
X73431400Y-114548000D01*
X68044518Y-114548000D01*
X67028311Y-114345864D01*
X66204554Y-113795446D01*
X65654136Y-112971688D01*
X65452000Y-111955482D01*
X65452000Y-111921230D01*
X66372632Y-111921230D01*
X66695766Y-112703274D01*
X67293578Y-113302131D01*
X68075057Y-113626630D01*
X68921230Y-113627368D01*
X69703274Y-113304234D01*
X70302131Y-112706422D01*
X70626630Y-111924943D01*
X70627368Y-111078770D01*
X70304234Y-110296726D01*
X69706422Y-109697869D01*
X68924943Y-109373370D01*
X68078770Y-109372632D01*
X67296726Y-109695766D01*
X66697869Y-110293578D01*
X66373370Y-111075057D01*
X66372632Y-111921230D01*
X65452000Y-111921230D01*
X65452000Y-106299000D01*
X67096210Y-106299000D01*
X67190645Y-106773757D01*
X67459573Y-107176237D01*
X67862053Y-107445165D01*
X68336810Y-107539600D01*
X68696190Y-107539600D01*
X69170947Y-107445165D01*
X69573427Y-107176237D01*
X69842355Y-106773757D01*
X69936790Y-106299000D01*
X69897754Y-106102750D01*
X86252400Y-106102750D01*
X86252400Y-106459045D01*
X86302183Y-106579231D01*
X86394170Y-106671217D01*
X86514356Y-106721000D01*
X87470650Y-106721000D01*
X87552400Y-106639250D01*
X87552400Y-106021000D01*
X87806400Y-106021000D01*
X87806400Y-106639250D01*
X87888150Y-106721000D01*
X88844444Y-106721000D01*
X88964630Y-106671217D01*
X89056617Y-106579231D01*
X89106400Y-106459045D01*
X89106400Y-106102750D01*
X89024650Y-106021000D01*
X87806400Y-106021000D01*
X87552400Y-106021000D01*
X86334150Y-106021000D01*
X86252400Y-106102750D01*
X69897754Y-106102750D01*
X69842355Y-105824243D01*
X69573427Y-105421763D01*
X69434530Y-105328955D01*
X86252400Y-105328955D01*
X86252400Y-105685250D01*
X86334150Y-105767000D01*
X87552400Y-105767000D01*
X87552400Y-105148750D01*
X87470650Y-105067000D01*
X86514356Y-105067000D01*
X86394170Y-105116783D01*
X86302183Y-105208769D01*
X86252400Y-105328955D01*
X69434530Y-105328955D01*
X69170947Y-105152835D01*
X68696190Y-105058400D01*
X68336810Y-105058400D01*
X67862053Y-105152835D01*
X67459573Y-105421763D01*
X67190645Y-105824243D01*
X67096210Y-106299000D01*
X65452000Y-106299000D01*
X65452000Y-103759000D01*
X67096210Y-103759000D01*
X67190645Y-104233757D01*
X67459573Y-104636237D01*
X67862053Y-104905165D01*
X68336810Y-104999600D01*
X68696190Y-104999600D01*
X69170947Y-104905165D01*
X69573427Y-104636237D01*
X69842355Y-104233757D01*
X69936790Y-103759000D01*
X69842355Y-103284243D01*
X69721086Y-103102750D01*
X86252400Y-103102750D01*
X86252400Y-103459045D01*
X86302183Y-103579231D01*
X86394170Y-103671217D01*
X86514356Y-103721000D01*
X87470650Y-103721000D01*
X87552400Y-103639250D01*
X87552400Y-103021000D01*
X86334150Y-103021000D01*
X86252400Y-103102750D01*
X69721086Y-103102750D01*
X69573427Y-102881763D01*
X69170947Y-102612835D01*
X68696190Y-102518400D01*
X68336810Y-102518400D01*
X67862053Y-102612835D01*
X67459573Y-102881763D01*
X67190645Y-103284243D01*
X67096210Y-103759000D01*
X65452000Y-103759000D01*
X65452000Y-101219000D01*
X67096210Y-101219000D01*
X67190645Y-101693757D01*
X67459573Y-102096237D01*
X67862053Y-102365165D01*
X68336810Y-102459600D01*
X68696190Y-102459600D01*
X69170947Y-102365165D01*
X69225139Y-102328955D01*
X86252400Y-102328955D01*
X86252400Y-102685250D01*
X86334150Y-102767000D01*
X87552400Y-102767000D01*
X87552400Y-102148750D01*
X87806400Y-102148750D01*
X87806400Y-102767000D01*
X89024650Y-102767000D01*
X89106400Y-102685250D01*
X89106400Y-102328955D01*
X89056617Y-102208769D01*
X88964630Y-102116783D01*
X88844444Y-102067000D01*
X87888150Y-102067000D01*
X87806400Y-102148750D01*
X87552400Y-102148750D01*
X87470650Y-102067000D01*
X86514356Y-102067000D01*
X86394170Y-102116783D01*
X86302183Y-102208769D01*
X86252400Y-102328955D01*
X69225139Y-102328955D01*
X69573427Y-102096237D01*
X69842355Y-101693757D01*
X69936790Y-101219000D01*
X69842355Y-100744243D01*
X69573427Y-100341763D01*
X69170947Y-100072835D01*
X68696190Y-99978400D01*
X68336810Y-99978400D01*
X67862053Y-100072835D01*
X67459573Y-100341763D01*
X67190645Y-100744243D01*
X67096210Y-101219000D01*
X65452000Y-101219000D01*
X65452000Y-98679000D01*
X67096210Y-98679000D01*
X67190645Y-99153757D01*
X67459573Y-99556237D01*
X67862053Y-99825165D01*
X68336810Y-99919600D01*
X68696190Y-99919600D01*
X69170947Y-99825165D01*
X69509502Y-99598950D01*
X77651000Y-99598950D01*
X77651000Y-99963244D01*
X77700783Y-100083430D01*
X77792769Y-100175417D01*
X77912955Y-100225200D01*
X78785250Y-100225200D01*
X78867000Y-100143450D01*
X78867000Y-99517200D01*
X79121000Y-99517200D01*
X79121000Y-100143450D01*
X79202750Y-100225200D01*
X80075045Y-100225200D01*
X80195231Y-100175417D01*
X80287217Y-100083430D01*
X80337000Y-99963244D01*
X80337000Y-99598950D01*
X80255250Y-99517200D01*
X79121000Y-99517200D01*
X78867000Y-99517200D01*
X77732750Y-99517200D01*
X77651000Y-99598950D01*
X69509502Y-99598950D01*
X69573427Y-99556237D01*
X69842355Y-99153757D01*
X69936790Y-98679000D01*
X69842355Y-98204243D01*
X69573427Y-97801763D01*
X69170947Y-97532835D01*
X68696190Y-97438400D01*
X68336810Y-97438400D01*
X67862053Y-97532835D01*
X67459573Y-97801763D01*
X67190645Y-98204243D01*
X67096210Y-98679000D01*
X65452000Y-98679000D01*
X65452000Y-96139000D01*
X67096210Y-96139000D01*
X67190645Y-96613757D01*
X67459573Y-97016237D01*
X67862053Y-97285165D01*
X68336810Y-97379600D01*
X68696190Y-97379600D01*
X69170947Y-97285165D01*
X69573427Y-97016237D01*
X69842355Y-96613757D01*
X69936790Y-96139000D01*
X69842355Y-95664243D01*
X69582539Y-95275400D01*
X70989615Y-95275400D01*
X70989615Y-98933000D01*
X71015903Y-99072708D01*
X71098470Y-99201020D01*
X71224453Y-99287101D01*
X71374000Y-99317385D01*
X73406000Y-99317385D01*
X73545708Y-99291097D01*
X73580436Y-99268750D01*
X81011800Y-99268750D01*
X81011800Y-99600044D01*
X81061583Y-99720230D01*
X81153569Y-99812217D01*
X81273755Y-99862000D01*
X81630050Y-99862000D01*
X81711800Y-99780250D01*
X81711800Y-99187000D01*
X81965800Y-99187000D01*
X81965800Y-99780250D01*
X82047550Y-99862000D01*
X82403845Y-99862000D01*
X82524031Y-99812217D01*
X82616017Y-99720230D01*
X82665800Y-99600044D01*
X82665800Y-99268750D01*
X82584050Y-99187000D01*
X81965800Y-99187000D01*
X81711800Y-99187000D01*
X81093550Y-99187000D01*
X81011800Y-99268750D01*
X73580436Y-99268750D01*
X73674020Y-99208530D01*
X73760101Y-99082547D01*
X73790385Y-98933000D01*
X73790385Y-98817156D01*
X77651000Y-98817156D01*
X77651000Y-99181450D01*
X77732750Y-99263200D01*
X78867000Y-99263200D01*
X78867000Y-98636950D01*
X79121000Y-98636950D01*
X79121000Y-99263200D01*
X80255250Y-99263200D01*
X80337000Y-99181450D01*
X80337000Y-98817156D01*
X80287217Y-98696970D01*
X80195231Y-98604983D01*
X80075045Y-98555200D01*
X79202750Y-98555200D01*
X79121000Y-98636950D01*
X78867000Y-98636950D01*
X78785250Y-98555200D01*
X77912955Y-98555200D01*
X77792769Y-98604983D01*
X77700783Y-98696970D01*
X77651000Y-98817156D01*
X73790385Y-98817156D01*
X73790385Y-95275400D01*
X73764097Y-95135692D01*
X73681530Y-95007380D01*
X73555547Y-94921299D01*
X73406000Y-94891015D01*
X71374000Y-94891015D01*
X71234292Y-94917303D01*
X71105980Y-94999870D01*
X71019899Y-95125853D01*
X70989615Y-95275400D01*
X69582539Y-95275400D01*
X69573427Y-95261763D01*
X69170947Y-94992835D01*
X68696190Y-94898400D01*
X68336810Y-94898400D01*
X67862053Y-94992835D01*
X67459573Y-95261763D01*
X67190645Y-95664243D01*
X67096210Y-96139000D01*
X65452000Y-96139000D01*
X65452000Y-93807750D01*
X67173500Y-93807750D01*
X67173500Y-94527645D01*
X67223283Y-94647831D01*
X67315270Y-94739817D01*
X67435456Y-94789600D01*
X68307750Y-94789600D01*
X68389500Y-94707850D01*
X68389500Y-93726000D01*
X68643500Y-93726000D01*
X68643500Y-94707850D01*
X68725250Y-94789600D01*
X69597544Y-94789600D01*
X69717730Y-94739817D01*
X69809717Y-94647831D01*
X69859500Y-94527645D01*
X69859500Y-93807750D01*
X69777750Y-93726000D01*
X68643500Y-93726000D01*
X68389500Y-93726000D01*
X67255250Y-93726000D01*
X67173500Y-93807750D01*
X65452000Y-93807750D01*
X65452000Y-92670355D01*
X67173500Y-92670355D01*
X67173500Y-93390250D01*
X67255250Y-93472000D01*
X68389500Y-93472000D01*
X68389500Y-92490150D01*
X68643500Y-92490150D01*
X68643500Y-93472000D01*
X69777750Y-93472000D01*
X69859500Y-93390250D01*
X69859500Y-92670355D01*
X69809717Y-92550169D01*
X69717730Y-92458183D01*
X69597544Y-92408400D01*
X68725250Y-92408400D01*
X68643500Y-92490150D01*
X68389500Y-92490150D01*
X68307750Y-92408400D01*
X67435456Y-92408400D01*
X67315270Y-92458183D01*
X67223283Y-92550169D01*
X67173500Y-92670355D01*
X65452000Y-92670355D01*
X65452000Y-88921230D01*
X66372632Y-88921230D01*
X66695766Y-89703274D01*
X67293578Y-90302131D01*
X68075057Y-90626630D01*
X68921230Y-90627368D01*
X69703274Y-90304234D01*
X70302131Y-89706422D01*
X70626630Y-88924943D01*
X70626962Y-88543601D01*
X71429399Y-88543601D01*
X71429399Y-90993601D01*
X71477127Y-91233544D01*
X71494603Y-91259698D01*
X71613043Y-91436957D01*
X72872242Y-92696156D01*
X73075655Y-92832072D01*
X73315598Y-92879800D01*
X74647813Y-92879800D01*
X74760653Y-92956901D01*
X74910200Y-92987185D01*
X75610200Y-92987185D01*
X75749908Y-92960897D01*
X75878220Y-92878330D01*
X75961280Y-92756769D01*
X76034670Y-92870820D01*
X76160653Y-92956901D01*
X76267658Y-92978570D01*
X77594570Y-94305482D01*
X77593615Y-94310200D01*
X77593615Y-95326200D01*
X77619903Y-95465908D01*
X77702470Y-95594220D01*
X77828453Y-95680301D01*
X77978000Y-95710585D01*
X80010000Y-95710585D01*
X80149708Y-95684297D01*
X80278020Y-95601730D01*
X80364101Y-95475747D01*
X80370287Y-95445200D01*
X81046702Y-95445200D01*
X81088670Y-95510420D01*
X81214653Y-95596501D01*
X81364200Y-95626785D01*
X82364200Y-95626785D01*
X82503908Y-95600497D01*
X82632220Y-95517930D01*
X82718301Y-95391947D01*
X82748585Y-95242400D01*
X82748585Y-94887956D01*
X94296000Y-94887956D01*
X94296000Y-95219250D01*
X94377750Y-95301000D01*
X94996000Y-95301000D01*
X94996000Y-94707750D01*
X95250000Y-94707750D01*
X95250000Y-95301000D01*
X95868250Y-95301000D01*
X95950000Y-95219250D01*
X95950000Y-94887956D01*
X95918520Y-94811955D01*
X96124000Y-94811955D01*
X96124000Y-95168250D01*
X96205750Y-95250000D01*
X96774000Y-95250000D01*
X96774000Y-94631750D01*
X96692250Y-94550000D01*
X96385956Y-94550000D01*
X96265770Y-94599783D01*
X96173783Y-94691769D01*
X96124000Y-94811955D01*
X95918520Y-94811955D01*
X95900217Y-94767770D01*
X95808231Y-94675783D01*
X95688045Y-94626000D01*
X95331750Y-94626000D01*
X95250000Y-94707750D01*
X94996000Y-94707750D01*
X94914250Y-94626000D01*
X94557955Y-94626000D01*
X94437769Y-94675783D01*
X94345783Y-94767770D01*
X94296000Y-94887956D01*
X82748585Y-94887956D01*
X82748585Y-94292400D01*
X82742481Y-94259956D01*
X99503000Y-94259956D01*
X99503000Y-94591250D01*
X99584750Y-94673000D01*
X100203000Y-94673000D01*
X100203000Y-94079750D01*
X100121250Y-93998000D01*
X99764955Y-93998000D01*
X99644769Y-94047783D01*
X99552783Y-94139770D01*
X99503000Y-94259956D01*
X82742481Y-94259956D01*
X82722297Y-94152692D01*
X82639730Y-94024380D01*
X82513747Y-93938299D01*
X82507421Y-93937018D01*
X82549431Y-93919617D01*
X82641417Y-93827630D01*
X82691200Y-93707444D01*
X82691200Y-93376150D01*
X82609450Y-93294400D01*
X81991200Y-93294400D01*
X81991200Y-93314400D01*
X81737200Y-93314400D01*
X81737200Y-93294400D01*
X81118950Y-93294400D01*
X81037200Y-93376150D01*
X81037200Y-93707444D01*
X81086983Y-93827630D01*
X81178969Y-93919617D01*
X81220549Y-93936840D01*
X81096180Y-94016870D01*
X81010099Y-94142853D01*
X81000308Y-94191200D01*
X80371993Y-94191200D01*
X80368097Y-94170492D01*
X80285530Y-94042180D01*
X80159547Y-93956099D01*
X80010000Y-93925815D01*
X78988327Y-93925815D01*
X77689868Y-92627356D01*
X81037200Y-92627356D01*
X81037200Y-92958650D01*
X81118950Y-93040400D01*
X81737200Y-93040400D01*
X81737200Y-92447150D01*
X81991200Y-92447150D01*
X81991200Y-93040400D01*
X82609450Y-93040400D01*
X82691200Y-92958650D01*
X82691200Y-92627356D01*
X82641417Y-92507170D01*
X82549431Y-92415183D01*
X82429245Y-92365400D01*
X82072950Y-92365400D01*
X81991200Y-92447150D01*
X81737200Y-92447150D01*
X81655450Y-92365400D01*
X81299155Y-92365400D01*
X81178969Y-92415183D01*
X81086983Y-92507170D01*
X81037200Y-92627356D01*
X77689868Y-92627356D01*
X77394585Y-92332073D01*
X77394585Y-91902800D01*
X77368297Y-91763092D01*
X77285730Y-91634780D01*
X77159747Y-91548699D01*
X77010200Y-91518415D01*
X76310200Y-91518415D01*
X76170492Y-91544703D01*
X76042180Y-91627270D01*
X75959120Y-91748831D01*
X75885730Y-91634780D01*
X75759747Y-91548699D01*
X75610200Y-91518415D01*
X74910200Y-91518415D01*
X74770492Y-91544703D01*
X74644464Y-91625800D01*
X73575310Y-91625800D01*
X72967495Y-91017985D01*
X74233600Y-91017985D01*
X74373308Y-90991697D01*
X74501620Y-90909130D01*
X74587701Y-90783147D01*
X74617985Y-90633600D01*
X74617985Y-89770000D01*
X74645095Y-89770000D01*
X74739530Y-90244757D01*
X75008458Y-90647237D01*
X75410938Y-90916165D01*
X75885695Y-91010600D01*
X75934305Y-91010600D01*
X76409062Y-90916165D01*
X76811542Y-90647237D01*
X77080470Y-90244757D01*
X77174905Y-89770000D01*
X77185095Y-89770000D01*
X77279530Y-90244757D01*
X77548458Y-90647237D01*
X77950938Y-90916165D01*
X78425695Y-91010600D01*
X78474305Y-91010600D01*
X78949062Y-90916165D01*
X79351542Y-90647237D01*
X79620470Y-90244757D01*
X79714905Y-89770000D01*
X79725095Y-89770000D01*
X79819530Y-90244757D01*
X80088458Y-90647237D01*
X80490938Y-90916165D01*
X80965695Y-91010600D01*
X81014305Y-91010600D01*
X81489062Y-90916165D01*
X81891542Y-90647237D01*
X82160470Y-90244757D01*
X82254905Y-89770000D01*
X82265095Y-89770000D01*
X82359530Y-90244757D01*
X82628458Y-90647237D01*
X83030938Y-90916165D01*
X83505695Y-91010600D01*
X83554305Y-91010600D01*
X84029062Y-90916165D01*
X84431542Y-90647237D01*
X84700470Y-90244757D01*
X84794905Y-89770000D01*
X84805095Y-89770000D01*
X84899530Y-90244757D01*
X85168458Y-90647237D01*
X85570938Y-90916165D01*
X86045695Y-91010600D01*
X86094305Y-91010600D01*
X86569062Y-90916165D01*
X86971542Y-90647237D01*
X87240470Y-90244757D01*
X87334905Y-89770000D01*
X87345095Y-89770000D01*
X87439530Y-90244757D01*
X87708458Y-90647237D01*
X88110938Y-90916165D01*
X88585695Y-91010600D01*
X88634305Y-91010600D01*
X89109062Y-90916165D01*
X89511542Y-90647237D01*
X89780470Y-90244757D01*
X89874905Y-89770000D01*
X89885095Y-89770000D01*
X89979530Y-90244757D01*
X90248458Y-90647237D01*
X90650938Y-90916165D01*
X91125695Y-91010600D01*
X91174305Y-91010600D01*
X91649062Y-90916165D01*
X92051542Y-90647237D01*
X92320470Y-90244757D01*
X92414905Y-89770000D01*
X92425095Y-89770000D01*
X92519530Y-90244757D01*
X92788458Y-90647237D01*
X93190938Y-90916165D01*
X93665695Y-91010600D01*
X93714305Y-91010600D01*
X94189062Y-90916165D01*
X94591542Y-90647237D01*
X94860470Y-90244757D01*
X94954905Y-89770000D01*
X94965095Y-89770000D01*
X95059530Y-90244757D01*
X95328458Y-90647237D01*
X95730938Y-90916165D01*
X96205695Y-91010600D01*
X96254305Y-91010600D01*
X96729062Y-90916165D01*
X97131542Y-90647237D01*
X97400470Y-90244757D01*
X97494905Y-89770000D01*
X97505095Y-89770000D01*
X97599530Y-90244757D01*
X97868458Y-90647237D01*
X98270938Y-90916165D01*
X98745695Y-91010600D01*
X98794305Y-91010600D01*
X99269062Y-90916165D01*
X99671542Y-90647237D01*
X99940470Y-90244757D01*
X100034905Y-89770000D01*
X100045095Y-89770000D01*
X100139530Y-90244757D01*
X100408458Y-90647237D01*
X100810938Y-90916165D01*
X101285695Y-91010600D01*
X101334305Y-91010600D01*
X101809062Y-90916165D01*
X102211542Y-90647237D01*
X102480470Y-90244757D01*
X102513117Y-90080625D01*
X102700635Y-90080625D01*
X102817622Y-90363086D01*
X103123171Y-90713014D01*
X103539373Y-90919377D01*
X103723000Y-90872069D01*
X103723000Y-89897000D01*
X103977000Y-89897000D01*
X103977000Y-90872069D01*
X104160627Y-90919377D01*
X104576829Y-90713014D01*
X104882378Y-90363086D01*
X104999365Y-90080625D01*
X104951553Y-89897000D01*
X103977000Y-89897000D01*
X103723000Y-89897000D01*
X102748447Y-89897000D01*
X102700635Y-90080625D01*
X102513117Y-90080625D01*
X102574905Y-89770000D01*
X105125095Y-89770000D01*
X105219530Y-90244757D01*
X105488458Y-90647237D01*
X105890938Y-90916165D01*
X106365695Y-91010600D01*
X106414305Y-91010600D01*
X106889062Y-90916165D01*
X107291542Y-90647237D01*
X107560470Y-90244757D01*
X107654905Y-89770000D01*
X107560470Y-89295243D01*
X107291542Y-88892763D01*
X106889062Y-88623835D01*
X106414305Y-88529400D01*
X106365695Y-88529400D01*
X105890938Y-88623835D01*
X105488458Y-88892763D01*
X105219530Y-89295243D01*
X105125095Y-89770000D01*
X102574905Y-89770000D01*
X102513118Y-89459375D01*
X102700635Y-89459375D01*
X102748447Y-89643000D01*
X103723000Y-89643000D01*
X103723000Y-88667931D01*
X103977000Y-88667931D01*
X103977000Y-89643000D01*
X104951553Y-89643000D01*
X104999365Y-89459375D01*
X104882378Y-89176914D01*
X104576829Y-88826986D01*
X104160627Y-88620623D01*
X103977000Y-88667931D01*
X103723000Y-88667931D01*
X103539373Y-88620623D01*
X103123171Y-88826986D01*
X102817622Y-89176914D01*
X102700635Y-89459375D01*
X102513118Y-89459375D01*
X102480470Y-89295243D01*
X102211542Y-88892763D01*
X101809062Y-88623835D01*
X101334305Y-88529400D01*
X101285695Y-88529400D01*
X100810938Y-88623835D01*
X100408458Y-88892763D01*
X100139530Y-89295243D01*
X100045095Y-89770000D01*
X100034905Y-89770000D01*
X99940470Y-89295243D01*
X99671542Y-88892763D01*
X99269062Y-88623835D01*
X98794305Y-88529400D01*
X98745695Y-88529400D01*
X98270938Y-88623835D01*
X97868458Y-88892763D01*
X97599530Y-89295243D01*
X97505095Y-89770000D01*
X97494905Y-89770000D01*
X97400470Y-89295243D01*
X97131542Y-88892763D01*
X96729062Y-88623835D01*
X96254305Y-88529400D01*
X96205695Y-88529400D01*
X95730938Y-88623835D01*
X95328458Y-88892763D01*
X95059530Y-89295243D01*
X94965095Y-89770000D01*
X94954905Y-89770000D01*
X94860470Y-89295243D01*
X94591542Y-88892763D01*
X94189062Y-88623835D01*
X93714305Y-88529400D01*
X93665695Y-88529400D01*
X93190938Y-88623835D01*
X92788458Y-88892763D01*
X92519530Y-89295243D01*
X92425095Y-89770000D01*
X92414905Y-89770000D01*
X92320470Y-89295243D01*
X92051542Y-88892763D01*
X91649062Y-88623835D01*
X91174305Y-88529400D01*
X91125695Y-88529400D01*
X90650938Y-88623835D01*
X90248458Y-88892763D01*
X89979530Y-89295243D01*
X89885095Y-89770000D01*
X89874905Y-89770000D01*
X89780470Y-89295243D01*
X89511542Y-88892763D01*
X89109062Y-88623835D01*
X88634305Y-88529400D01*
X88585695Y-88529400D01*
X88110938Y-88623835D01*
X87708458Y-88892763D01*
X87439530Y-89295243D01*
X87345095Y-89770000D01*
X87334905Y-89770000D01*
X87240470Y-89295243D01*
X86971542Y-88892763D01*
X86569062Y-88623835D01*
X86094305Y-88529400D01*
X86045695Y-88529400D01*
X85570938Y-88623835D01*
X85168458Y-88892763D01*
X84899530Y-89295243D01*
X84805095Y-89770000D01*
X84794905Y-89770000D01*
X84700470Y-89295243D01*
X84431542Y-88892763D01*
X84029062Y-88623835D01*
X83554305Y-88529400D01*
X83505695Y-88529400D01*
X83030938Y-88623835D01*
X82628458Y-88892763D01*
X82359530Y-89295243D01*
X82265095Y-89770000D01*
X82254905Y-89770000D01*
X82160470Y-89295243D01*
X81891542Y-88892763D01*
X81489062Y-88623835D01*
X81014305Y-88529400D01*
X80965695Y-88529400D01*
X80490938Y-88623835D01*
X80088458Y-88892763D01*
X79819530Y-89295243D01*
X79725095Y-89770000D01*
X79714905Y-89770000D01*
X79620470Y-89295243D01*
X79351542Y-88892763D01*
X78949062Y-88623835D01*
X78474305Y-88529400D01*
X78425695Y-88529400D01*
X77950938Y-88623835D01*
X77548458Y-88892763D01*
X77279530Y-89295243D01*
X77185095Y-89770000D01*
X77174905Y-89770000D01*
X77080470Y-89295243D01*
X76811542Y-88892763D01*
X76409062Y-88623835D01*
X75934305Y-88529400D01*
X75885695Y-88529400D01*
X75410938Y-88623835D01*
X75008458Y-88892763D01*
X74739530Y-89295243D01*
X74645095Y-89770000D01*
X74617985Y-89770000D01*
X74617985Y-88906400D01*
X74591697Y-88766692D01*
X74509130Y-88638380D01*
X74383147Y-88552299D01*
X74233600Y-88522015D01*
X72964697Y-88522015D01*
X73070793Y-88415919D01*
X73345695Y-88470600D01*
X73394305Y-88470600D01*
X73869062Y-88376165D01*
X74271542Y-88107237D01*
X74438745Y-87857000D01*
X74841255Y-87857000D01*
X75008458Y-88107237D01*
X75410938Y-88376165D01*
X75885695Y-88470600D01*
X75934305Y-88470600D01*
X76409062Y-88376165D01*
X76811542Y-88107237D01*
X77080470Y-87704757D01*
X77113117Y-87540625D01*
X77300635Y-87540625D01*
X77417622Y-87823086D01*
X77723171Y-88173014D01*
X78139373Y-88379377D01*
X78323000Y-88332069D01*
X78323000Y-87357000D01*
X78577000Y-87357000D01*
X78577000Y-88332069D01*
X78760627Y-88379377D01*
X79176829Y-88173014D01*
X79482378Y-87823086D01*
X79599365Y-87540625D01*
X79551553Y-87357000D01*
X78577000Y-87357000D01*
X78323000Y-87357000D01*
X77348447Y-87357000D01*
X77300635Y-87540625D01*
X77113117Y-87540625D01*
X77174905Y-87230000D01*
X79725095Y-87230000D01*
X79819530Y-87704757D01*
X80088458Y-88107237D01*
X80490938Y-88376165D01*
X80965695Y-88470600D01*
X81014305Y-88470600D01*
X81489062Y-88376165D01*
X81891542Y-88107237D01*
X82160470Y-87704757D01*
X82254905Y-87230000D01*
X82265095Y-87230000D01*
X82359530Y-87704757D01*
X82628458Y-88107237D01*
X83030938Y-88376165D01*
X83505695Y-88470600D01*
X83554305Y-88470600D01*
X84029062Y-88376165D01*
X84431542Y-88107237D01*
X84700470Y-87704757D01*
X84794905Y-87230000D01*
X84805095Y-87230000D01*
X84899530Y-87704757D01*
X85168458Y-88107237D01*
X85570938Y-88376165D01*
X86045695Y-88470600D01*
X86094305Y-88470600D01*
X86569062Y-88376165D01*
X86971542Y-88107237D01*
X87240470Y-87704757D01*
X87273117Y-87540625D01*
X87460635Y-87540625D01*
X87577622Y-87823086D01*
X87883171Y-88173014D01*
X88299373Y-88379377D01*
X88483000Y-88332069D01*
X88483000Y-87357000D01*
X88737000Y-87357000D01*
X88737000Y-88332069D01*
X88920627Y-88379377D01*
X89336829Y-88173014D01*
X89642378Y-87823086D01*
X89759365Y-87540625D01*
X89711553Y-87357000D01*
X88737000Y-87357000D01*
X88483000Y-87357000D01*
X87508447Y-87357000D01*
X87460635Y-87540625D01*
X87273117Y-87540625D01*
X87334905Y-87230000D01*
X89885095Y-87230000D01*
X89979530Y-87704757D01*
X90248458Y-88107237D01*
X90650938Y-88376165D01*
X91125695Y-88470600D01*
X91174305Y-88470600D01*
X91649062Y-88376165D01*
X92051542Y-88107237D01*
X92320470Y-87704757D01*
X92414905Y-87230000D01*
X92425095Y-87230000D01*
X92519530Y-87704757D01*
X92788458Y-88107237D01*
X93190938Y-88376165D01*
X93665695Y-88470600D01*
X93714305Y-88470600D01*
X94189062Y-88376165D01*
X94591542Y-88107237D01*
X94860470Y-87704757D01*
X94893117Y-87540625D01*
X95080635Y-87540625D01*
X95197622Y-87823086D01*
X95503171Y-88173014D01*
X95919373Y-88379377D01*
X96103000Y-88332069D01*
X96103000Y-87357000D01*
X96357000Y-87357000D01*
X96357000Y-88332069D01*
X96540627Y-88379377D01*
X96956829Y-88173014D01*
X97262378Y-87823086D01*
X97379365Y-87540625D01*
X97331553Y-87357000D01*
X96357000Y-87357000D01*
X96103000Y-87357000D01*
X95128447Y-87357000D01*
X95080635Y-87540625D01*
X94893117Y-87540625D01*
X94954905Y-87230000D01*
X97505095Y-87230000D01*
X97599530Y-87704757D01*
X97868458Y-88107237D01*
X98270938Y-88376165D01*
X98745695Y-88470600D01*
X98794305Y-88470600D01*
X99269062Y-88376165D01*
X99671542Y-88107237D01*
X99940470Y-87704757D01*
X100034905Y-87230000D01*
X100045095Y-87230000D01*
X100139530Y-87704757D01*
X100408458Y-88107237D01*
X100810938Y-88376165D01*
X101285695Y-88470600D01*
X101334305Y-88470600D01*
X101809062Y-88376165D01*
X102211542Y-88107237D01*
X102480470Y-87704757D01*
X102574905Y-87230000D01*
X102585095Y-87230000D01*
X102679530Y-87704757D01*
X102948458Y-88107237D01*
X103350938Y-88376165D01*
X103825695Y-88470600D01*
X103874305Y-88470600D01*
X104349062Y-88376165D01*
X104751542Y-88107237D01*
X105020470Y-87704757D01*
X105114905Y-87230000D01*
X105125095Y-87230000D01*
X105219530Y-87704757D01*
X105488458Y-88107237D01*
X105890938Y-88376165D01*
X106365695Y-88470600D01*
X106414305Y-88470600D01*
X106889062Y-88376165D01*
X107291542Y-88107237D01*
X107560470Y-87704757D01*
X107593117Y-87540625D01*
X107780635Y-87540625D01*
X107897622Y-87823086D01*
X108203171Y-88173014D01*
X108619373Y-88379377D01*
X108803000Y-88332069D01*
X108803000Y-87357000D01*
X109057000Y-87357000D01*
X109057000Y-88332069D01*
X109240627Y-88379377D01*
X109656829Y-88173014D01*
X109962378Y-87823086D01*
X110079365Y-87540625D01*
X110031553Y-87357000D01*
X109057000Y-87357000D01*
X108803000Y-87357000D01*
X107828447Y-87357000D01*
X107780635Y-87540625D01*
X107593117Y-87540625D01*
X107654905Y-87230000D01*
X107593118Y-86919375D01*
X107780635Y-86919375D01*
X107828447Y-87103000D01*
X108803000Y-87103000D01*
X108803000Y-86127931D01*
X109057000Y-86127931D01*
X109057000Y-87103000D01*
X110031553Y-87103000D01*
X110079365Y-86919375D01*
X109962378Y-86636914D01*
X109656829Y-86286986D01*
X109240627Y-86080623D01*
X109057000Y-86127931D01*
X108803000Y-86127931D01*
X108619373Y-86080623D01*
X108203171Y-86286986D01*
X107897622Y-86636914D01*
X107780635Y-86919375D01*
X107593118Y-86919375D01*
X107560470Y-86755243D01*
X107291542Y-86352763D01*
X106889062Y-86083835D01*
X106414305Y-85989400D01*
X106365695Y-85989400D01*
X105890938Y-86083835D01*
X105488458Y-86352763D01*
X105219530Y-86755243D01*
X105125095Y-87230000D01*
X105114905Y-87230000D01*
X105020470Y-86755243D01*
X104751542Y-86352763D01*
X104349062Y-86083835D01*
X103874305Y-85989400D01*
X103825695Y-85989400D01*
X103350938Y-86083835D01*
X102948458Y-86352763D01*
X102679530Y-86755243D01*
X102585095Y-87230000D01*
X102574905Y-87230000D01*
X102480470Y-86755243D01*
X102211542Y-86352763D01*
X101809062Y-86083835D01*
X101334305Y-85989400D01*
X101285695Y-85989400D01*
X100810938Y-86083835D01*
X100408458Y-86352763D01*
X100139530Y-86755243D01*
X100045095Y-87230000D01*
X100034905Y-87230000D01*
X99940470Y-86755243D01*
X99671542Y-86352763D01*
X99269062Y-86083835D01*
X98794305Y-85989400D01*
X98745695Y-85989400D01*
X98270938Y-86083835D01*
X97868458Y-86352763D01*
X97599530Y-86755243D01*
X97505095Y-87230000D01*
X94954905Y-87230000D01*
X94893118Y-86919375D01*
X95080635Y-86919375D01*
X95128447Y-87103000D01*
X96103000Y-87103000D01*
X96103000Y-86127931D01*
X96357000Y-86127931D01*
X96357000Y-87103000D01*
X97331553Y-87103000D01*
X97379365Y-86919375D01*
X97262378Y-86636914D01*
X96956829Y-86286986D01*
X96540627Y-86080623D01*
X96357000Y-86127931D01*
X96103000Y-86127931D01*
X95919373Y-86080623D01*
X95503171Y-86286986D01*
X95197622Y-86636914D01*
X95080635Y-86919375D01*
X94893118Y-86919375D01*
X94860470Y-86755243D01*
X94591542Y-86352763D01*
X94189062Y-86083835D01*
X93714305Y-85989400D01*
X93665695Y-85989400D01*
X93190938Y-86083835D01*
X92788458Y-86352763D01*
X92519530Y-86755243D01*
X92425095Y-87230000D01*
X92414905Y-87230000D01*
X92320470Y-86755243D01*
X92051542Y-86352763D01*
X91649062Y-86083835D01*
X91174305Y-85989400D01*
X91125695Y-85989400D01*
X90650938Y-86083835D01*
X90248458Y-86352763D01*
X89979530Y-86755243D01*
X89885095Y-87230000D01*
X87334905Y-87230000D01*
X87273118Y-86919375D01*
X87460635Y-86919375D01*
X87508447Y-87103000D01*
X88483000Y-87103000D01*
X88483000Y-86127931D01*
X88737000Y-86127931D01*
X88737000Y-87103000D01*
X89711553Y-87103000D01*
X89759365Y-86919375D01*
X89642378Y-86636914D01*
X89336829Y-86286986D01*
X88920627Y-86080623D01*
X88737000Y-86127931D01*
X88483000Y-86127931D01*
X88299373Y-86080623D01*
X87883171Y-86286986D01*
X87577622Y-86636914D01*
X87460635Y-86919375D01*
X87273118Y-86919375D01*
X87240470Y-86755243D01*
X86971542Y-86352763D01*
X86569062Y-86083835D01*
X86094305Y-85989400D01*
X86045695Y-85989400D01*
X85570938Y-86083835D01*
X85168458Y-86352763D01*
X84899530Y-86755243D01*
X84805095Y-87230000D01*
X84794905Y-87230000D01*
X84700470Y-86755243D01*
X84431542Y-86352763D01*
X84029062Y-86083835D01*
X83554305Y-85989400D01*
X83505695Y-85989400D01*
X83030938Y-86083835D01*
X82628458Y-86352763D01*
X82359530Y-86755243D01*
X82265095Y-87230000D01*
X82254905Y-87230000D01*
X82160470Y-86755243D01*
X81891542Y-86352763D01*
X81489062Y-86083835D01*
X81014305Y-85989400D01*
X80965695Y-85989400D01*
X80490938Y-86083835D01*
X80088458Y-86352763D01*
X79819530Y-86755243D01*
X79725095Y-87230000D01*
X77174905Y-87230000D01*
X77113118Y-86919375D01*
X77300635Y-86919375D01*
X77348447Y-87103000D01*
X78323000Y-87103000D01*
X78323000Y-86127931D01*
X78577000Y-86127931D01*
X78577000Y-87103000D01*
X79551553Y-87103000D01*
X79599365Y-86919375D01*
X79482378Y-86636914D01*
X79176829Y-86286986D01*
X78760627Y-86080623D01*
X78577000Y-86127931D01*
X78323000Y-86127931D01*
X78139373Y-86080623D01*
X77723171Y-86286986D01*
X77417622Y-86636914D01*
X77300635Y-86919375D01*
X77113118Y-86919375D01*
X77080470Y-86755243D01*
X76811542Y-86352763D01*
X76409062Y-86083835D01*
X75934305Y-85989400D01*
X75885695Y-85989400D01*
X75410938Y-86083835D01*
X75008458Y-86352763D01*
X74841255Y-86603000D01*
X74438745Y-86603000D01*
X74271542Y-86352763D01*
X73869062Y-86083835D01*
X73394305Y-85989400D01*
X73345695Y-85989400D01*
X72870938Y-86083835D01*
X72468458Y-86352763D01*
X72199530Y-86755243D01*
X72105095Y-87230000D01*
X72167841Y-87545447D01*
X71613043Y-88100245D01*
X71477127Y-88303658D01*
X71429399Y-88543601D01*
X70626962Y-88543601D01*
X70627368Y-88078770D01*
X70304234Y-87296726D01*
X69706422Y-86697869D01*
X68924943Y-86373370D01*
X68078770Y-86372632D01*
X67296726Y-86695766D01*
X66697869Y-87293578D01*
X66373370Y-88075057D01*
X66372632Y-88921230D01*
X65452000Y-88921230D01*
X65452000Y-88044518D01*
X65654136Y-87028312D01*
X66204554Y-86204554D01*
X67028311Y-85654136D01*
X68044518Y-85452000D01*
X126955482Y-85452000D01*
X127971688Y-85654136D01*
X127971688Y-85654136D01*
G37*
X127971688Y-85654136D02*
X128795446Y-86204554D01*
X129345864Y-87028311D01*
X129548000Y-88044518D01*
X129548000Y-111955482D01*
X129345864Y-112971689D01*
X128795446Y-113795446D01*
X127971688Y-114345864D01*
X126955482Y-114548000D01*
X106248200Y-114548000D01*
X106248200Y-111921230D01*
X124372632Y-111921230D01*
X124695766Y-112703274D01*
X125293578Y-113302131D01*
X126075057Y-113626630D01*
X126921230Y-113627368D01*
X127703274Y-113304234D01*
X128302131Y-112706422D01*
X128626630Y-111924943D01*
X128627368Y-111078770D01*
X128304234Y-110296726D01*
X127706422Y-109697869D01*
X126924943Y-109373370D01*
X126078770Y-109372632D01*
X125296726Y-109695766D01*
X124697869Y-110293578D01*
X124373370Y-111075057D01*
X124372632Y-111921230D01*
X106248200Y-111921230D01*
X106248200Y-107365800D01*
X106239515Y-107319641D01*
X106212235Y-107277247D01*
X106170610Y-107248806D01*
X106121200Y-107238800D01*
X92854400Y-107238800D01*
X92854400Y-106753688D01*
X92867108Y-106751297D01*
X92995420Y-106668730D01*
X93081501Y-106542747D01*
X93111785Y-106393200D01*
X93111785Y-105493200D01*
X93085497Y-105353492D01*
X93002930Y-105225180D01*
X92881369Y-105142120D01*
X92995420Y-105068730D01*
X93081501Y-104942747D01*
X93111785Y-104793200D01*
X93111785Y-103893200D01*
X93085497Y-103753492D01*
X93002930Y-103625180D01*
X92905200Y-103558404D01*
X92905200Y-103205750D01*
X95781500Y-103205750D01*
X95781500Y-103562045D01*
X95831283Y-103682231D01*
X95923270Y-103774217D01*
X96043456Y-103824000D01*
X96374750Y-103824000D01*
X96456500Y-103742250D01*
X96456500Y-103124000D01*
X95863250Y-103124000D01*
X95781500Y-103205750D01*
X92905200Y-103205750D01*
X92905200Y-102431955D01*
X95781500Y-102431955D01*
X95781500Y-102788250D01*
X95863250Y-102870000D01*
X96456500Y-102870000D01*
X96456500Y-102251750D01*
X96374750Y-102170000D01*
X96043456Y-102170000D01*
X95923270Y-102219783D01*
X95831283Y-102311769D01*
X95781500Y-102431955D01*
X92905200Y-102431955D01*
X92905200Y-101583150D01*
X97544800Y-101583150D01*
X97544800Y-101789444D01*
X97594583Y-101909630D01*
X97686569Y-102001617D01*
X97806755Y-102051400D01*
X98013050Y-102051400D01*
X98094800Y-101969650D01*
X98094800Y-101501400D01*
X97626550Y-101501400D01*
X97544800Y-101583150D01*
X92905200Y-101583150D01*
X92905200Y-100931432D01*
X93228341Y-100608291D01*
X93328053Y-100676421D01*
X93477600Y-100706705D01*
X94177600Y-100706705D01*
X94317308Y-100680417D01*
X94401054Y-100626528D01*
X94475662Y-100742472D01*
X94601645Y-100828553D01*
X94751192Y-100858837D01*
X95701192Y-100858837D01*
X95840900Y-100832549D01*
X95969212Y-100749982D01*
X96026522Y-100666107D01*
X96075662Y-100742472D01*
X96201645Y-100828553D01*
X96351192Y-100858837D01*
X97301192Y-100858837D01*
X97440900Y-100832549D01*
X97569212Y-100749982D01*
X97651217Y-100629964D01*
X97722253Y-100678501D01*
X97815579Y-100697400D01*
X97806755Y-100697400D01*
X97686569Y-100747183D01*
X97594583Y-100839170D01*
X97544800Y-100959356D01*
X97544800Y-101165650D01*
X97626550Y-101247400D01*
X98094800Y-101247400D01*
X98094800Y-101227400D01*
X98348800Y-101227400D01*
X98348800Y-101247400D01*
X98368800Y-101247400D01*
X98368800Y-101501400D01*
X98348800Y-101501400D01*
X98348800Y-101944988D01*
X98181173Y-102112615D01*
X97708500Y-102112615D01*
X97568792Y-102138903D01*
X97440480Y-102221470D01*
X97354399Y-102347453D01*
X97353118Y-102353779D01*
X97335717Y-102311769D01*
X97243730Y-102219783D01*
X97123544Y-102170000D01*
X96792250Y-102170000D01*
X96710500Y-102251750D01*
X96710500Y-102870000D01*
X96730500Y-102870000D01*
X96730500Y-103124000D01*
X96710500Y-103124000D01*
X96710500Y-103742250D01*
X96792250Y-103824000D01*
X97123544Y-103824000D01*
X97243730Y-103774217D01*
X97335717Y-103682231D01*
X97352940Y-103640651D01*
X97406944Y-103724575D01*
X97394692Y-103727012D01*
X97348599Y-103757811D01*
X97231832Y-103835832D01*
X97231830Y-103835835D01*
X96825432Y-104242232D01*
X96716612Y-104405093D01*
X96678399Y-104597200D01*
X96678400Y-104597205D01*
X96678400Y-105968795D01*
X96678399Y-105968800D01*
X96716612Y-106160907D01*
X96825432Y-106323768D01*
X97079430Y-106577765D01*
X97079432Y-106577768D01*
X97157690Y-106630058D01*
X97242292Y-106686588D01*
X97434400Y-106724800D01*
X101550667Y-106724800D01*
X101594334Y-106768467D01*
X101594336Y-106768470D01*
X101677413Y-106823980D01*
X101757196Y-106877290D01*
X101949304Y-106915502D01*
X102760796Y-106915502D01*
X102760801Y-106915503D01*
X102952908Y-106877290D01*
X103115769Y-106768470D01*
X103159439Y-106724800D01*
X105554319Y-106724800D01*
X105662077Y-106832746D01*
X105926575Y-106942575D01*
X106212969Y-106942825D01*
X106477658Y-106833458D01*
X106680346Y-106631123D01*
X106728711Y-106514647D01*
X110805030Y-110590965D01*
X110805032Y-110590968D01*
X110894944Y-110651045D01*
X110967893Y-110699788D01*
X111050103Y-110716141D01*
X111051903Y-110725708D01*
X111134470Y-110854020D01*
X111260453Y-110940101D01*
X111410000Y-110970385D01*
X112110000Y-110970385D01*
X112249708Y-110944097D01*
X112378020Y-110861530D01*
X112464101Y-110735547D01*
X112483000Y-110642221D01*
X112483000Y-110651045D01*
X112532783Y-110771231D01*
X112624770Y-110863217D01*
X112744956Y-110913000D01*
X112951250Y-110913000D01*
X113033000Y-110831250D01*
X113033000Y-110363000D01*
X113287000Y-110363000D01*
X113287000Y-110831250D01*
X113368750Y-110913000D01*
X113575044Y-110913000D01*
X113695230Y-110863217D01*
X113787217Y-110771231D01*
X113837000Y-110651045D01*
X113837000Y-110444750D01*
X113755250Y-110363000D01*
X113287000Y-110363000D01*
X113033000Y-110363000D01*
X113013000Y-110363000D01*
X113013000Y-110109000D01*
X113033000Y-110109000D01*
X113033000Y-109640750D01*
X113287000Y-109640750D01*
X113287000Y-110109000D01*
X113755250Y-110109000D01*
X113837000Y-110027250D01*
X113837000Y-109820955D01*
X113787217Y-109700769D01*
X113695230Y-109608783D01*
X113575044Y-109559000D01*
X113368750Y-109559000D01*
X113287000Y-109640750D01*
X113033000Y-109640750D01*
X112951250Y-109559000D01*
X112744956Y-109559000D01*
X112624770Y-109608783D01*
X112532783Y-109700769D01*
X112483000Y-109820955D01*
X112483000Y-109825494D01*
X112468097Y-109746292D01*
X112385530Y-109617980D01*
X112264775Y-109535471D01*
X112375020Y-109464530D01*
X112461101Y-109338547D01*
X112480000Y-109245221D01*
X112480000Y-109254045D01*
X112529783Y-109374231D01*
X112621770Y-109466217D01*
X112741956Y-109516000D01*
X112948250Y-109516000D01*
X113030000Y-109434250D01*
X113030000Y-108966000D01*
X113284000Y-108966000D01*
X113284000Y-109434250D01*
X113365750Y-109516000D01*
X113572044Y-109516000D01*
X113692230Y-109466217D01*
X113784217Y-109374231D01*
X113834000Y-109254045D01*
X113834000Y-109047750D01*
X113752250Y-108966000D01*
X113284000Y-108966000D01*
X113030000Y-108966000D01*
X113010000Y-108966000D01*
X113010000Y-108712000D01*
X113030000Y-108712000D01*
X113030000Y-108243750D01*
X113284000Y-108243750D01*
X113284000Y-108712000D01*
X113752250Y-108712000D01*
X113834000Y-108630250D01*
X113834000Y-108423955D01*
X113784217Y-108303769D01*
X113692230Y-108211783D01*
X113572044Y-108162000D01*
X113365750Y-108162000D01*
X113284000Y-108243750D01*
X113030000Y-108243750D01*
X112948250Y-108162000D01*
X112741956Y-108162000D01*
X112621770Y-108211783D01*
X112529783Y-108303769D01*
X112480000Y-108423955D01*
X112480000Y-108428494D01*
X112465097Y-108349292D01*
X112382530Y-108220980D01*
X112263230Y-108139465D01*
X112375020Y-108067530D01*
X112461101Y-107941547D01*
X112480000Y-107848221D01*
X112480000Y-107857045D01*
X112529783Y-107977231D01*
X112621770Y-108069217D01*
X112741956Y-108119000D01*
X112948250Y-108119000D01*
X113030000Y-108037250D01*
X113030000Y-107569000D01*
X113284000Y-107569000D01*
X113284000Y-108037250D01*
X113365750Y-108119000D01*
X113572044Y-108119000D01*
X113692230Y-108069217D01*
X113784217Y-107977231D01*
X113834000Y-107857045D01*
X113834000Y-107650750D01*
X113752250Y-107569000D01*
X113284000Y-107569000D01*
X113030000Y-107569000D01*
X113010000Y-107569000D01*
X113010000Y-107315000D01*
X113030000Y-107315000D01*
X113030000Y-107295000D01*
X113284000Y-107295000D01*
X113284000Y-107315000D01*
X113752250Y-107315000D01*
X113834000Y-107233250D01*
X113834000Y-107026955D01*
X113829821Y-107016865D01*
X113974556Y-106920156D01*
X119205812Y-101688900D01*
X125142415Y-101688900D01*
X125142415Y-103416100D01*
X125168703Y-103555808D01*
X125251270Y-103684120D01*
X125377253Y-103770201D01*
X125526800Y-103800485D01*
X127558800Y-103800485D01*
X127698508Y-103774197D01*
X127826820Y-103691630D01*
X127912901Y-103565647D01*
X127943185Y-103416100D01*
X127943185Y-101688900D01*
X127916897Y-101549192D01*
X127834330Y-101420880D01*
X127708347Y-101334799D01*
X127558800Y-101304515D01*
X125526800Y-101304515D01*
X125387092Y-101330803D01*
X125258780Y-101413370D01*
X125172699Y-101539353D01*
X125142415Y-101688900D01*
X119205812Y-101688900D01*
X120882212Y-100012500D01*
X125122510Y-100012500D01*
X125216945Y-100487257D01*
X125485873Y-100889737D01*
X125888353Y-101158665D01*
X126363110Y-101253100D01*
X126722490Y-101253100D01*
X127197247Y-101158665D01*
X127599727Y-100889737D01*
X127868655Y-100487257D01*
X127963090Y-100012500D01*
X127868655Y-99537743D01*
X127599727Y-99135263D01*
X127197247Y-98866335D01*
X126722490Y-98771900D01*
X126363110Y-98771900D01*
X125888353Y-98866335D01*
X125485873Y-99135263D01*
X125216945Y-99537743D01*
X125122510Y-100012500D01*
X120882212Y-100012500D01*
X121384327Y-99510385D01*
X121942000Y-99510385D01*
X122081708Y-99484097D01*
X122168885Y-99428000D01*
X122859502Y-99428000D01*
X123099445Y-99380272D01*
X123302858Y-99244356D01*
X124633356Y-97913858D01*
X124671620Y-97856592D01*
X124720708Y-97783125D01*
X125241035Y-97783125D01*
X125441020Y-98193661D01*
X125789264Y-98502078D01*
X126229025Y-98653751D01*
X126415800Y-98582702D01*
X126415800Y-97599500D01*
X126669800Y-97599500D01*
X126669800Y-98582702D01*
X126856575Y-98653751D01*
X127296336Y-98502078D01*
X127644580Y-98193661D01*
X127844565Y-97783125D01*
X127796753Y-97599500D01*
X126669800Y-97599500D01*
X126415800Y-97599500D01*
X125288847Y-97599500D01*
X125241035Y-97783125D01*
X124720708Y-97783125D01*
X124769272Y-97710445D01*
X124817000Y-97470502D01*
X124817000Y-97161875D01*
X125241035Y-97161875D01*
X125288847Y-97345500D01*
X126415800Y-97345500D01*
X126415800Y-96362298D01*
X126669800Y-96362298D01*
X126669800Y-97345500D01*
X127796753Y-97345500D01*
X127844565Y-97161875D01*
X127644580Y-96751339D01*
X127296336Y-96442922D01*
X126856575Y-96291249D01*
X126669800Y-96362298D01*
X126415800Y-96362298D01*
X126229025Y-96291249D01*
X125789264Y-96442922D01*
X125441020Y-96751339D01*
X125241035Y-97161875D01*
X124817000Y-97161875D01*
X124817000Y-96060500D01*
X124801976Y-95984970D01*
X124769273Y-95820558D01*
X124633356Y-95617144D01*
X124478017Y-95461805D01*
X124729569Y-95462025D01*
X124994258Y-95352658D01*
X125103106Y-95244000D01*
X125412495Y-95244000D01*
X125412500Y-95244001D01*
X125604607Y-95205788D01*
X125628408Y-95189885D01*
X126466600Y-95189885D01*
X126606308Y-95163597D01*
X126674889Y-95119466D01*
X126706355Y-95132500D01*
X127045250Y-95132500D01*
X127127000Y-95050750D01*
X127127000Y-94297500D01*
X127381000Y-94297500D01*
X127381000Y-95050750D01*
X127462750Y-95132500D01*
X127801645Y-95132500D01*
X127921831Y-95082717D01*
X128013817Y-94990730D01*
X128063600Y-94870544D01*
X128063600Y-94379250D01*
X127981850Y-94297500D01*
X127381000Y-94297500D01*
X127127000Y-94297500D01*
X127107000Y-94297500D01*
X127107000Y-94043500D01*
X127127000Y-94043500D01*
X127127000Y-93290250D01*
X127381000Y-93290250D01*
X127381000Y-94043500D01*
X127981850Y-94043500D01*
X128063600Y-93961750D01*
X128063600Y-93470456D01*
X128013817Y-93350270D01*
X127921831Y-93258283D01*
X127801645Y-93208500D01*
X127462750Y-93208500D01*
X127381000Y-93290250D01*
X127127000Y-93290250D01*
X127045250Y-93208500D01*
X126706355Y-93208500D01*
X126674887Y-93221535D01*
X126616147Y-93181399D01*
X126466600Y-93151115D01*
X125501400Y-93151115D01*
X125361692Y-93177403D01*
X125233380Y-93259970D01*
X125147299Y-93385953D01*
X125117015Y-93535500D01*
X125117015Y-94240000D01*
X125103081Y-94240000D01*
X124995323Y-94132054D01*
X124730825Y-94022225D01*
X124444431Y-94021975D01*
X124179742Y-94131342D01*
X123977054Y-94333677D01*
X123955486Y-94385617D01*
X123839547Y-94306399D01*
X123690000Y-94276115D01*
X123199604Y-94276115D01*
X123124943Y-94226228D01*
X122885000Y-94178500D01*
X121980988Y-94178500D01*
X121978597Y-94165792D01*
X121896030Y-94037480D01*
X121797500Y-93970157D01*
X121797500Y-93861600D01*
X121888520Y-93803030D01*
X121974601Y-93677047D01*
X122004885Y-93527500D01*
X122004885Y-92527500D01*
X121978597Y-92387792D01*
X121896030Y-92259480D01*
X121770047Y-92173399D01*
X121620500Y-92143115D01*
X120720500Y-92143115D01*
X120580792Y-92169403D01*
X120452480Y-92251970D01*
X120369420Y-92373531D01*
X120296030Y-92259480D01*
X120170047Y-92173399D01*
X120020500Y-92143115D01*
X119120500Y-92143115D01*
X118980792Y-92169403D01*
X118852480Y-92251970D01*
X118766399Y-92377953D01*
X118736115Y-92527500D01*
X118736115Y-93527500D01*
X118762403Y-93667208D01*
X118844970Y-93795520D01*
X118970953Y-93881601D01*
X119120500Y-93911885D01*
X119694950Y-93911885D01*
X119704180Y-93921115D01*
X119120500Y-93921115D01*
X118980792Y-93947403D01*
X118852480Y-94029970D01*
X118766399Y-94155953D01*
X118736115Y-94305500D01*
X118736115Y-95032708D01*
X118709999Y-95164000D01*
X118710000Y-95164005D01*
X118710000Y-96191615D01*
X118682000Y-96191615D01*
X118542292Y-96217903D01*
X118491514Y-96250578D01*
X116678768Y-94437832D01*
X116515907Y-94329012D01*
X116323800Y-94290799D01*
X116323795Y-94290800D01*
X116035281Y-94290800D01*
X115927523Y-94182854D01*
X115663025Y-94073025D01*
X115376631Y-94072775D01*
X115111942Y-94182142D01*
X114909254Y-94384477D01*
X114799425Y-94648975D01*
X114799175Y-94935369D01*
X114908542Y-95200058D01*
X115110877Y-95402746D01*
X115375375Y-95512575D01*
X115661769Y-95512825D01*
X115926458Y-95403458D01*
X116035306Y-95294800D01*
X116115864Y-95294800D01*
X118077032Y-97255968D01*
X118239892Y-97364788D01*
X118335556Y-97383817D01*
X118366824Y-97432409D01*
X118355000Y-97460955D01*
X118355000Y-97642250D01*
X118436750Y-97724000D01*
X119085000Y-97724000D01*
X119085000Y-97704000D01*
X119339000Y-97704000D01*
X119339000Y-97724000D01*
X119359000Y-97724000D01*
X119359000Y-97978000D01*
X119339000Y-97978000D01*
X119339000Y-97998000D01*
X119085000Y-97998000D01*
X119085000Y-97978000D01*
X118436750Y-97978000D01*
X118355000Y-98059750D01*
X118355000Y-98241045D01*
X118366797Y-98269525D01*
X118346657Y-98299000D01*
X117652533Y-98299000D01*
X115527892Y-96174358D01*
X115528025Y-96021833D01*
X115418658Y-95757144D01*
X115216323Y-95554456D01*
X114951825Y-95444627D01*
X114665431Y-95444377D01*
X114400742Y-95553744D01*
X114198054Y-95756079D01*
X114103450Y-95983912D01*
X113887600Y-95768062D01*
X113887600Y-90991088D01*
X113985695Y-91010600D01*
X114034305Y-91010600D01*
X114509062Y-90916165D01*
X114911542Y-90647237D01*
X115180470Y-90244757D01*
X115274905Y-89770000D01*
X115285095Y-89770000D01*
X115379530Y-90244757D01*
X115648458Y-90647237D01*
X116050938Y-90916165D01*
X116525695Y-91010600D01*
X116574305Y-91010600D01*
X117049062Y-90916165D01*
X117451542Y-90647237D01*
X117720470Y-90244757D01*
X117814905Y-89770000D01*
X117720470Y-89295243D01*
X117451542Y-88892763D01*
X117049062Y-88623835D01*
X116574305Y-88529400D01*
X116525695Y-88529400D01*
X116050938Y-88623835D01*
X115648458Y-88892763D01*
X115379530Y-89295243D01*
X115285095Y-89770000D01*
X115274905Y-89770000D01*
X115180470Y-89295243D01*
X114911542Y-88892763D01*
X114509062Y-88623835D01*
X114034305Y-88529400D01*
X113985695Y-88529400D01*
X113510938Y-88623835D01*
X113323399Y-88749144D01*
X113323399Y-88192960D01*
X113699373Y-88379377D01*
X113883000Y-88332069D01*
X113883000Y-87357000D01*
X114137000Y-87357000D01*
X114137000Y-88332069D01*
X114320627Y-88379377D01*
X114736829Y-88173014D01*
X115042378Y-87823086D01*
X115159365Y-87540625D01*
X115111553Y-87357000D01*
X114137000Y-87357000D01*
X113883000Y-87357000D01*
X113863000Y-87357000D01*
X113863000Y-87103000D01*
X113883000Y-87103000D01*
X113883000Y-87083000D01*
X114137000Y-87083000D01*
X114137000Y-87103000D01*
X115111553Y-87103000D01*
X115159365Y-86919375D01*
X115042378Y-86636914D01*
X114960723Y-86543399D01*
X115521079Y-86543399D01*
X115379530Y-86755243D01*
X115285095Y-87230000D01*
X115379530Y-87704757D01*
X115648458Y-88107237D01*
X116050938Y-88376165D01*
X116525695Y-88470600D01*
X116574305Y-88470600D01*
X117049062Y-88376165D01*
X117451542Y-88107237D01*
X117720470Y-87704757D01*
X117814905Y-87230000D01*
X117720470Y-86755243D01*
X117578921Y-86543399D01*
X118061079Y-86543399D01*
X117919530Y-86755243D01*
X117825095Y-87230000D01*
X117919530Y-87704757D01*
X118188458Y-88107237D01*
X118590938Y-88376165D01*
X119065695Y-88470600D01*
X119114305Y-88470600D01*
X119589062Y-88376165D01*
X119776601Y-88250856D01*
X119776601Y-88373464D01*
X119536654Y-88613410D01*
X119114305Y-88529400D01*
X119065695Y-88529400D01*
X118590938Y-88623835D01*
X118188458Y-88892763D01*
X117919530Y-89295243D01*
X117825095Y-89770000D01*
X117919530Y-90244757D01*
X118188458Y-90647237D01*
X118590938Y-90916165D01*
X119065695Y-91010600D01*
X119114305Y-91010600D01*
X119589062Y-90916165D01*
X119991542Y-90647237D01*
X120260470Y-90244757D01*
X120293117Y-90080625D01*
X120480635Y-90080625D01*
X120597622Y-90363086D01*
X120903171Y-90713014D01*
X121319373Y-90919377D01*
X121503000Y-90872069D01*
X121503000Y-89897000D01*
X121757000Y-89897000D01*
X121757000Y-90872069D01*
X121940627Y-90919377D01*
X122356829Y-90713014D01*
X122662378Y-90363086D01*
X122779365Y-90080625D01*
X122731553Y-89897000D01*
X121757000Y-89897000D01*
X121503000Y-89897000D01*
X120528447Y-89897000D01*
X120480635Y-90080625D01*
X120293117Y-90080625D01*
X120354905Y-89770000D01*
X120293119Y-89459375D01*
X120480635Y-89459375D01*
X120528447Y-89643000D01*
X121503000Y-89643000D01*
X121503000Y-88667931D01*
X121757000Y-88667931D01*
X121757000Y-89643000D01*
X122731553Y-89643000D01*
X122779365Y-89459375D01*
X122662378Y-89176914D01*
X122439121Y-88921230D01*
X124372632Y-88921230D01*
X124695766Y-89703274D01*
X125293578Y-90302131D01*
X126075057Y-90626630D01*
X126921230Y-90627368D01*
X127703274Y-90304234D01*
X128302131Y-89706422D01*
X128626630Y-88924943D01*
X128627368Y-88078770D01*
X128304234Y-87296726D01*
X127706422Y-86697869D01*
X126924943Y-86373370D01*
X126078770Y-86372632D01*
X125296726Y-86695766D01*
X124697869Y-87293578D01*
X124373370Y-88075057D01*
X124372632Y-88921230D01*
X122439121Y-88921230D01*
X122356829Y-88826986D01*
X121940627Y-88620623D01*
X121757000Y-88667931D01*
X121503000Y-88667931D01*
X121319373Y-88620623D01*
X120903171Y-88826986D01*
X120597622Y-89176914D01*
X120480635Y-89459375D01*
X120293119Y-89459375D01*
X120262830Y-89307106D01*
X120633566Y-88936369D01*
X120633569Y-88936367D01*
X120742389Y-88773506D01*
X120743744Y-88766692D01*
X120780602Y-88581399D01*
X120780601Y-88581394D01*
X120780601Y-88142078D01*
X121130938Y-88376165D01*
X121605695Y-88470600D01*
X121654305Y-88470600D01*
X122129062Y-88376165D01*
X122531542Y-88107237D01*
X122800470Y-87704757D01*
X122894905Y-87230000D01*
X122800470Y-86755243D01*
X122531542Y-86352763D01*
X122129062Y-86083835D01*
X121654305Y-85989400D01*
X121605695Y-85989400D01*
X121130938Y-86083835D01*
X120728458Y-86352763D01*
X120697137Y-86399639D01*
X120633569Y-86304503D01*
X120633566Y-86304501D01*
X120015497Y-85686431D01*
X119852636Y-85577611D01*
X119660529Y-85539398D01*
X119660524Y-85539399D01*
X113439476Y-85539399D01*
X113439471Y-85539398D01*
X113247364Y-85577611D01*
X113084503Y-85686431D01*
X113084501Y-85686434D01*
X112466431Y-86304503D01*
X112402863Y-86399639D01*
X112371542Y-86352763D01*
X111969062Y-86083835D01*
X111494305Y-85989400D01*
X111445695Y-85989400D01*
X110970938Y-86083835D01*
X110568458Y-86352763D01*
X110299530Y-86755243D01*
X110205095Y-87230000D01*
X110299530Y-87704757D01*
X110568458Y-88107237D01*
X110970938Y-88376165D01*
X111445695Y-88470600D01*
X111494305Y-88470600D01*
X111969062Y-88376165D01*
X112319399Y-88142078D01*
X112319399Y-88857922D01*
X111969062Y-88623835D01*
X111494305Y-88529400D01*
X111445695Y-88529400D01*
X110970938Y-88623835D01*
X110568458Y-88892763D01*
X110299530Y-89295243D01*
X110205095Y-89770000D01*
X110299530Y-90244757D01*
X110568458Y-90647237D01*
X110970938Y-90916165D01*
X111445695Y-91010600D01*
X111494305Y-91010600D01*
X111969062Y-90916165D01*
X112371542Y-90647237D01*
X112402863Y-90600361D01*
X112466431Y-90695497D01*
X112883600Y-91112665D01*
X112883600Y-92692012D01*
X112692694Y-92612741D01*
X112581452Y-92612644D01*
X112581625Y-92415031D01*
X112472258Y-92150342D01*
X112269923Y-91947654D01*
X112005425Y-91837825D01*
X111719031Y-91837575D01*
X111454342Y-91946942D01*
X111251654Y-92149277D01*
X111141825Y-92413775D01*
X111141575Y-92700169D01*
X111250942Y-92964858D01*
X111359600Y-93073706D01*
X111359600Y-93175439D01*
X108638319Y-95896720D01*
X108720575Y-95698625D01*
X108720825Y-95412231D01*
X108611458Y-95147542D01*
X108502800Y-95038694D01*
X108502800Y-90930459D01*
X108905695Y-91010600D01*
X108954305Y-91010600D01*
X109429062Y-90916165D01*
X109831542Y-90647237D01*
X110100470Y-90244757D01*
X110194905Y-89770000D01*
X110100470Y-89295243D01*
X109831542Y-88892763D01*
X109429062Y-88623835D01*
X108954305Y-88529400D01*
X108905695Y-88529400D01*
X108430938Y-88623835D01*
X108028458Y-88892763D01*
X107759530Y-89295243D01*
X107665095Y-89770000D01*
X107757170Y-90232894D01*
X107645832Y-90344232D01*
X107537012Y-90507093D01*
X107498799Y-90699200D01*
X107498800Y-90699205D01*
X107498800Y-95038719D01*
X107390854Y-95146477D01*
X107281025Y-95410975D01*
X107280775Y-95697369D01*
X107390142Y-95962058D01*
X107592477Y-96164746D01*
X107856975Y-96274575D01*
X108143369Y-96274825D01*
X108342488Y-96192551D01*
X107690438Y-96844601D01*
X107049800Y-96844601D01*
X107049800Y-96608750D01*
X106968050Y-96527000D01*
X106349800Y-96527000D01*
X106349800Y-96547000D01*
X106095800Y-96547000D01*
X106095800Y-96527000D01*
X106075800Y-96527000D01*
X106075800Y-96273000D01*
X106095800Y-96273000D01*
X106095800Y-96253000D01*
X106349800Y-96253000D01*
X106349800Y-96273000D01*
X106968050Y-96273000D01*
X107049800Y-96191250D01*
X107049800Y-95859956D01*
X107000017Y-95739770D01*
X106908031Y-95647783D01*
X106866451Y-95630560D01*
X106990820Y-95550530D01*
X107076901Y-95424547D01*
X107107185Y-95275000D01*
X107107185Y-94325000D01*
X107080897Y-94185292D01*
X106998330Y-94056980D01*
X106872347Y-93970899D01*
X106722800Y-93940615D01*
X105722800Y-93940615D01*
X105583092Y-93966903D01*
X105454780Y-94049470D01*
X105449812Y-94056741D01*
X105369530Y-93931980D01*
X105243547Y-93845899D01*
X105094000Y-93815615D01*
X103694000Y-93815615D01*
X103554292Y-93841903D01*
X103425980Y-93924470D01*
X103339899Y-94050453D01*
X103309615Y-94200000D01*
X103309615Y-94889447D01*
X103278385Y-94920677D01*
X103278385Y-94200000D01*
X103252097Y-94060292D01*
X103169530Y-93931980D01*
X103043547Y-93845899D01*
X102894000Y-93815615D01*
X101494000Y-93815615D01*
X101354292Y-93841903D01*
X101225980Y-93924470D01*
X101139899Y-94050453D01*
X101117020Y-94163435D01*
X101107217Y-94139770D01*
X101015231Y-94047783D01*
X100895045Y-93998000D01*
X100538750Y-93998000D01*
X100457000Y-94079750D01*
X100457000Y-94673000D01*
X100477000Y-94673000D01*
X100477000Y-94927000D01*
X100457000Y-94927000D01*
X100457000Y-94947000D01*
X100203000Y-94947000D01*
X100203000Y-94927000D01*
X99584750Y-94927000D01*
X99503000Y-95008750D01*
X99503000Y-95340044D01*
X99552783Y-95460230D01*
X99644769Y-95552217D01*
X99686349Y-95569440D01*
X99561980Y-95649470D01*
X99550787Y-95665851D01*
X99335385Y-95450449D01*
X99335385Y-94877000D01*
X99309097Y-94737292D01*
X99226530Y-94608980D01*
X99100547Y-94522899D01*
X98951000Y-94492615D01*
X98051000Y-94492615D01*
X97911292Y-94518903D01*
X97782980Y-94601470D01*
X97696899Y-94727453D01*
X97678000Y-94820779D01*
X97678000Y-94811955D01*
X97628217Y-94691769D01*
X97536230Y-94599783D01*
X97416044Y-94550000D01*
X97109750Y-94550000D01*
X97028000Y-94631750D01*
X97028000Y-95250000D01*
X97048000Y-95250000D01*
X97048000Y-95504000D01*
X97028000Y-95504000D01*
X97028000Y-96122250D01*
X97109750Y-96204000D01*
X97416044Y-96204000D01*
X97536230Y-96154217D01*
X97628217Y-96062231D01*
X97678000Y-95942045D01*
X97678000Y-95937506D01*
X97692903Y-96016708D01*
X97775470Y-96145020D01*
X97898122Y-96228825D01*
X97873792Y-96233403D01*
X97745480Y-96315970D01*
X97659399Y-96441953D01*
X97658118Y-96448279D01*
X97640717Y-96406269D01*
X97548730Y-96314283D01*
X97428544Y-96264500D01*
X97097250Y-96264500D01*
X97015500Y-96346250D01*
X97015500Y-96964500D01*
X97035500Y-96964500D01*
X97035500Y-97218500D01*
X97015500Y-97218500D01*
X97015500Y-97238500D01*
X96761500Y-97238500D01*
X96761500Y-97218500D01*
X96168250Y-97218500D01*
X96086500Y-97300250D01*
X96086500Y-97358788D01*
X96007385Y-97279673D01*
X96007385Y-96553000D01*
X96002391Y-96526455D01*
X96086500Y-96526455D01*
X96086500Y-96882750D01*
X96168250Y-96964500D01*
X96761500Y-96964500D01*
X96761500Y-96346250D01*
X96679750Y-96264500D01*
X96348456Y-96264500D01*
X96228270Y-96314283D01*
X96136283Y-96406269D01*
X96086500Y-96526455D01*
X96002391Y-96526455D01*
X95981097Y-96413292D01*
X95898530Y-96284980D01*
X95772547Y-96198899D01*
X95766221Y-96197618D01*
X95808231Y-96180217D01*
X95900217Y-96088230D01*
X95950000Y-95968044D01*
X95950000Y-95636750D01*
X95899000Y-95585750D01*
X96124000Y-95585750D01*
X96124000Y-95942045D01*
X96173783Y-96062231D01*
X96265770Y-96154217D01*
X96385956Y-96204000D01*
X96692250Y-96204000D01*
X96774000Y-96122250D01*
X96774000Y-95504000D01*
X96205750Y-95504000D01*
X96124000Y-95585750D01*
X95899000Y-95585750D01*
X95868250Y-95555000D01*
X95250000Y-95555000D01*
X95250000Y-95575000D01*
X94996000Y-95575000D01*
X94996000Y-95555000D01*
X94377750Y-95555000D01*
X94296000Y-95636750D01*
X94296000Y-95968044D01*
X94345783Y-96088230D01*
X94437769Y-96180217D01*
X94479349Y-96197440D01*
X94354980Y-96277470D01*
X94270575Y-96401000D01*
X92138500Y-96401000D01*
X91898557Y-96448728D01*
X91723994Y-96565367D01*
X91695144Y-96584644D01*
X91446788Y-96833000D01*
X82688987Y-96833000D01*
X82614330Y-96716980D01*
X82488347Y-96630899D01*
X82338800Y-96600615D01*
X81836217Y-96600615D01*
X81722943Y-96524928D01*
X81483000Y-96477200D01*
X80371993Y-96477200D01*
X80368097Y-96456492D01*
X80285530Y-96328180D01*
X80159547Y-96242099D01*
X80010000Y-96211815D01*
X77978000Y-96211815D01*
X77838292Y-96238103D01*
X77709980Y-96320670D01*
X77623899Y-96446653D01*
X77593615Y-96596200D01*
X77593615Y-97612200D01*
X77619903Y-97751908D01*
X77702470Y-97880220D01*
X77828453Y-97966301D01*
X77978000Y-97996585D01*
X80010000Y-97996585D01*
X80149708Y-97970297D01*
X80278020Y-97887730D01*
X80364101Y-97761747D01*
X80370287Y-97731200D01*
X80954415Y-97731200D01*
X80954415Y-97935000D01*
X80980703Y-98074708D01*
X81063270Y-98203020D01*
X81189253Y-98289101D01*
X81195579Y-98290382D01*
X81153569Y-98307783D01*
X81061583Y-98399770D01*
X81011800Y-98519956D01*
X81011800Y-98851250D01*
X81093550Y-98933000D01*
X81711800Y-98933000D01*
X81711800Y-98913000D01*
X81965800Y-98913000D01*
X81965800Y-98933000D01*
X82584050Y-98933000D01*
X82665800Y-98851250D01*
X82665800Y-98519956D01*
X82616017Y-98399770D01*
X82524031Y-98307783D01*
X82482451Y-98290560D01*
X82606820Y-98210530D01*
X82643207Y-98157276D01*
X93150600Y-98157276D01*
X93150600Y-98363570D01*
X93232350Y-98445320D01*
X93700600Y-98445320D01*
X93700600Y-97977070D01*
X93954600Y-97977070D01*
X93954600Y-98445320D01*
X94422850Y-98445320D01*
X94504600Y-98363570D01*
X94504600Y-98157276D01*
X94454817Y-98037090D01*
X94362831Y-97945103D01*
X94242645Y-97895320D01*
X94036350Y-97895320D01*
X93954600Y-97977070D01*
X93700600Y-97977070D01*
X93618850Y-97895320D01*
X93412555Y-97895320D01*
X93292369Y-97945103D01*
X93200383Y-98037090D01*
X93150600Y-98157276D01*
X82643207Y-98157276D01*
X82691225Y-98087000D01*
X91706500Y-98087000D01*
X91946443Y-98039272D01*
X92149856Y-97903356D01*
X92398212Y-97655000D01*
X94272813Y-97655000D01*
X94347470Y-97771020D01*
X94473453Y-97857101D01*
X94623000Y-97887385D01*
X94841673Y-97887385D01*
X95492444Y-98538156D01*
X95695858Y-98674073D01*
X95935800Y-98721800D01*
X97510200Y-98721800D01*
X97750143Y-98674072D01*
X97953556Y-98538156D01*
X98437640Y-98054072D01*
X98537119Y-98294828D01*
X98569211Y-98326976D01*
X98569211Y-98561211D01*
X98616939Y-98801154D01*
X98705036Y-98933000D01*
X98752855Y-99004567D01*
X99095688Y-99347400D01*
X98834187Y-99347400D01*
X98721347Y-99270299D01*
X98571800Y-99240015D01*
X97871800Y-99240015D01*
X97732092Y-99266303D01*
X97649463Y-99319474D01*
X97576722Y-99206432D01*
X97450739Y-99120351D01*
X97301192Y-99090067D01*
X96351192Y-99090067D01*
X96211484Y-99116355D01*
X96083172Y-99198922D01*
X96025862Y-99282797D01*
X95976722Y-99206432D01*
X95850739Y-99120351D01*
X95701192Y-99090067D01*
X94751192Y-99090067D01*
X94611484Y-99116355D01*
X94483172Y-99198922D01*
X94401234Y-99318841D01*
X94327147Y-99268219D01*
X94233821Y-99249320D01*
X94242645Y-99249320D01*
X94362831Y-99199537D01*
X94454817Y-99107550D01*
X94504600Y-98987364D01*
X94504600Y-98781070D01*
X94422850Y-98699320D01*
X93954600Y-98699320D01*
X93954600Y-98719320D01*
X93700600Y-98719320D01*
X93700600Y-98699320D01*
X93232350Y-98699320D01*
X93150600Y-98781070D01*
X93150600Y-98987364D01*
X93200383Y-99107550D01*
X93292369Y-99199537D01*
X93412555Y-99249320D01*
X93417094Y-99249320D01*
X93337892Y-99264223D01*
X93211864Y-99345320D01*
X92977600Y-99345320D01*
X92737658Y-99393047D01*
X92534244Y-99528964D01*
X91834844Y-100228364D01*
X91698928Y-100431777D01*
X91651200Y-100671720D01*
X91651200Y-103523153D01*
X91587692Y-103535103D01*
X91459380Y-103617670D01*
X91373299Y-103743653D01*
X91371247Y-103753785D01*
X91277747Y-103689899D01*
X91128200Y-103659615D01*
X90428200Y-103659615D01*
X90288492Y-103685903D01*
X90162464Y-103767000D01*
X90039888Y-103767000D01*
X90037497Y-103754292D01*
X89954930Y-103625980D01*
X89828947Y-103539899D01*
X89679400Y-103509615D01*
X89085453Y-103509615D01*
X89106400Y-103459045D01*
X89106400Y-103102750D01*
X89024650Y-103021000D01*
X87806400Y-103021000D01*
X87806400Y-103639250D01*
X87888150Y-103721000D01*
X88341324Y-103721000D01*
X88325299Y-103744453D01*
X88295015Y-103894000D01*
X88295015Y-104894000D01*
X88321303Y-105033708D01*
X88342726Y-105067000D01*
X87888150Y-105067000D01*
X87806400Y-105148750D01*
X87806400Y-105767000D01*
X89024650Y-105767000D01*
X89106400Y-105685250D01*
X89106400Y-105328955D01*
X89085453Y-105278385D01*
X89679400Y-105278385D01*
X89819108Y-105252097D01*
X89947420Y-105169530D01*
X90033501Y-105043547D01*
X90038067Y-105021000D01*
X90165813Y-105021000D01*
X90278653Y-105098101D01*
X90428200Y-105128385D01*
X91128200Y-105128385D01*
X91267908Y-105102097D01*
X91396220Y-105019530D01*
X91411064Y-104997806D01*
X91451870Y-105061220D01*
X91573431Y-105144280D01*
X91459380Y-105217670D01*
X91373299Y-105343653D01*
X91343015Y-105493200D01*
X91343015Y-106393200D01*
X91369303Y-106532908D01*
X91451870Y-106661220D01*
X91577853Y-106747301D01*
X91600400Y-106751867D01*
X91600400Y-107238800D01*
X73558400Y-107238800D01*
X73512241Y-107247485D01*
X73469847Y-107274765D01*
X73441406Y-107316390D01*
X73431400Y-107365800D01*
X73431400Y-114548000D01*
X68044518Y-114548000D01*
X67028311Y-114345864D01*
X66204554Y-113795446D01*
X65654136Y-112971688D01*
X65452000Y-111955482D01*
X65452000Y-111921230D01*
X66372632Y-111921230D01*
X66695766Y-112703274D01*
X67293578Y-113302131D01*
X68075057Y-113626630D01*
X68921230Y-113627368D01*
X69703274Y-113304234D01*
X70302131Y-112706422D01*
X70626630Y-111924943D01*
X70627368Y-111078770D01*
X70304234Y-110296726D01*
X69706422Y-109697869D01*
X68924943Y-109373370D01*
X68078770Y-109372632D01*
X67296726Y-109695766D01*
X66697869Y-110293578D01*
X66373370Y-111075057D01*
X66372632Y-111921230D01*
X65452000Y-111921230D01*
X65452000Y-106299000D01*
X67096210Y-106299000D01*
X67190645Y-106773757D01*
X67459573Y-107176237D01*
X67862053Y-107445165D01*
X68336810Y-107539600D01*
X68696190Y-107539600D01*
X69170947Y-107445165D01*
X69573427Y-107176237D01*
X69842355Y-106773757D01*
X69936790Y-106299000D01*
X69897754Y-106102750D01*
X86252400Y-106102750D01*
X86252400Y-106459045D01*
X86302183Y-106579231D01*
X86394170Y-106671217D01*
X86514356Y-106721000D01*
X87470650Y-106721000D01*
X87552400Y-106639250D01*
X87552400Y-106021000D01*
X87806400Y-106021000D01*
X87806400Y-106639250D01*
X87888150Y-106721000D01*
X88844444Y-106721000D01*
X88964630Y-106671217D01*
X89056617Y-106579231D01*
X89106400Y-106459045D01*
X89106400Y-106102750D01*
X89024650Y-106021000D01*
X87806400Y-106021000D01*
X87552400Y-106021000D01*
X86334150Y-106021000D01*
X86252400Y-106102750D01*
X69897754Y-106102750D01*
X69842355Y-105824243D01*
X69573427Y-105421763D01*
X69434530Y-105328955D01*
X86252400Y-105328955D01*
X86252400Y-105685250D01*
X86334150Y-105767000D01*
X87552400Y-105767000D01*
X87552400Y-105148750D01*
X87470650Y-105067000D01*
X86514356Y-105067000D01*
X86394170Y-105116783D01*
X86302183Y-105208769D01*
X86252400Y-105328955D01*
X69434530Y-105328955D01*
X69170947Y-105152835D01*
X68696190Y-105058400D01*
X68336810Y-105058400D01*
X67862053Y-105152835D01*
X67459573Y-105421763D01*
X67190645Y-105824243D01*
X67096210Y-106299000D01*
X65452000Y-106299000D01*
X65452000Y-103759000D01*
X67096210Y-103759000D01*
X67190645Y-104233757D01*
X67459573Y-104636237D01*
X67862053Y-104905165D01*
X68336810Y-104999600D01*
X68696190Y-104999600D01*
X69170947Y-104905165D01*
X69573427Y-104636237D01*
X69842355Y-104233757D01*
X69936790Y-103759000D01*
X69842355Y-103284243D01*
X69721086Y-103102750D01*
X86252400Y-103102750D01*
X86252400Y-103459045D01*
X86302183Y-103579231D01*
X86394170Y-103671217D01*
X86514356Y-103721000D01*
X87470650Y-103721000D01*
X87552400Y-103639250D01*
X87552400Y-103021000D01*
X86334150Y-103021000D01*
X86252400Y-103102750D01*
X69721086Y-103102750D01*
X69573427Y-102881763D01*
X69170947Y-102612835D01*
X68696190Y-102518400D01*
X68336810Y-102518400D01*
X67862053Y-102612835D01*
X67459573Y-102881763D01*
X67190645Y-103284243D01*
X67096210Y-103759000D01*
X65452000Y-103759000D01*
X65452000Y-101219000D01*
X67096210Y-101219000D01*
X67190645Y-101693757D01*
X67459573Y-102096237D01*
X67862053Y-102365165D01*
X68336810Y-102459600D01*
X68696190Y-102459600D01*
X69170947Y-102365165D01*
X69225139Y-102328955D01*
X86252400Y-102328955D01*
X86252400Y-102685250D01*
X86334150Y-102767000D01*
X87552400Y-102767000D01*
X87552400Y-102148750D01*
X87806400Y-102148750D01*
X87806400Y-102767000D01*
X89024650Y-102767000D01*
X89106400Y-102685250D01*
X89106400Y-102328955D01*
X89056617Y-102208769D01*
X88964630Y-102116783D01*
X88844444Y-102067000D01*
X87888150Y-102067000D01*
X87806400Y-102148750D01*
X87552400Y-102148750D01*
X87470650Y-102067000D01*
X86514356Y-102067000D01*
X86394170Y-102116783D01*
X86302183Y-102208769D01*
X86252400Y-102328955D01*
X69225139Y-102328955D01*
X69573427Y-102096237D01*
X69842355Y-101693757D01*
X69936790Y-101219000D01*
X69842355Y-100744243D01*
X69573427Y-100341763D01*
X69170947Y-100072835D01*
X68696190Y-99978400D01*
X68336810Y-99978400D01*
X67862053Y-100072835D01*
X67459573Y-100341763D01*
X67190645Y-100744243D01*
X67096210Y-101219000D01*
X65452000Y-101219000D01*
X65452000Y-98679000D01*
X67096210Y-98679000D01*
X67190645Y-99153757D01*
X67459573Y-99556237D01*
X67862053Y-99825165D01*
X68336810Y-99919600D01*
X68696190Y-99919600D01*
X69170947Y-99825165D01*
X69509502Y-99598950D01*
X77651000Y-99598950D01*
X77651000Y-99963244D01*
X77700783Y-100083430D01*
X77792769Y-100175417D01*
X77912955Y-100225200D01*
X78785250Y-100225200D01*
X78867000Y-100143450D01*
X78867000Y-99517200D01*
X79121000Y-99517200D01*
X79121000Y-100143450D01*
X79202750Y-100225200D01*
X80075045Y-100225200D01*
X80195231Y-100175417D01*
X80287217Y-100083430D01*
X80337000Y-99963244D01*
X80337000Y-99598950D01*
X80255250Y-99517200D01*
X79121000Y-99517200D01*
X78867000Y-99517200D01*
X77732750Y-99517200D01*
X77651000Y-99598950D01*
X69509502Y-99598950D01*
X69573427Y-99556237D01*
X69842355Y-99153757D01*
X69936790Y-98679000D01*
X69842355Y-98204243D01*
X69573427Y-97801763D01*
X69170947Y-97532835D01*
X68696190Y-97438400D01*
X68336810Y-97438400D01*
X67862053Y-97532835D01*
X67459573Y-97801763D01*
X67190645Y-98204243D01*
X67096210Y-98679000D01*
X65452000Y-98679000D01*
X65452000Y-96139000D01*
X67096210Y-96139000D01*
X67190645Y-96613757D01*
X67459573Y-97016237D01*
X67862053Y-97285165D01*
X68336810Y-97379600D01*
X68696190Y-97379600D01*
X69170947Y-97285165D01*
X69573427Y-97016237D01*
X69842355Y-96613757D01*
X69936790Y-96139000D01*
X69842355Y-95664243D01*
X69582539Y-95275400D01*
X70989615Y-95275400D01*
X70989615Y-98933000D01*
X71015903Y-99072708D01*
X71098470Y-99201020D01*
X71224453Y-99287101D01*
X71374000Y-99317385D01*
X73406000Y-99317385D01*
X73545708Y-99291097D01*
X73580436Y-99268750D01*
X81011800Y-99268750D01*
X81011800Y-99600044D01*
X81061583Y-99720230D01*
X81153569Y-99812217D01*
X81273755Y-99862000D01*
X81630050Y-99862000D01*
X81711800Y-99780250D01*
X81711800Y-99187000D01*
X81965800Y-99187000D01*
X81965800Y-99780250D01*
X82047550Y-99862000D01*
X82403845Y-99862000D01*
X82524031Y-99812217D01*
X82616017Y-99720230D01*
X82665800Y-99600044D01*
X82665800Y-99268750D01*
X82584050Y-99187000D01*
X81965800Y-99187000D01*
X81711800Y-99187000D01*
X81093550Y-99187000D01*
X81011800Y-99268750D01*
X73580436Y-99268750D01*
X73674020Y-99208530D01*
X73760101Y-99082547D01*
X73790385Y-98933000D01*
X73790385Y-98817156D01*
X77651000Y-98817156D01*
X77651000Y-99181450D01*
X77732750Y-99263200D01*
X78867000Y-99263200D01*
X78867000Y-98636950D01*
X79121000Y-98636950D01*
X79121000Y-99263200D01*
X80255250Y-99263200D01*
X80337000Y-99181450D01*
X80337000Y-98817156D01*
X80287217Y-98696970D01*
X80195231Y-98604983D01*
X80075045Y-98555200D01*
X79202750Y-98555200D01*
X79121000Y-98636950D01*
X78867000Y-98636950D01*
X78785250Y-98555200D01*
X77912955Y-98555200D01*
X77792769Y-98604983D01*
X77700783Y-98696970D01*
X77651000Y-98817156D01*
X73790385Y-98817156D01*
X73790385Y-95275400D01*
X73764097Y-95135692D01*
X73681530Y-95007380D01*
X73555547Y-94921299D01*
X73406000Y-94891015D01*
X71374000Y-94891015D01*
X71234292Y-94917303D01*
X71105980Y-94999870D01*
X71019899Y-95125853D01*
X70989615Y-95275400D01*
X69582539Y-95275400D01*
X69573427Y-95261763D01*
X69170947Y-94992835D01*
X68696190Y-94898400D01*
X68336810Y-94898400D01*
X67862053Y-94992835D01*
X67459573Y-95261763D01*
X67190645Y-95664243D01*
X67096210Y-96139000D01*
X65452000Y-96139000D01*
X65452000Y-93807750D01*
X67173500Y-93807750D01*
X67173500Y-94527645D01*
X67223283Y-94647831D01*
X67315270Y-94739817D01*
X67435456Y-94789600D01*
X68307750Y-94789600D01*
X68389500Y-94707850D01*
X68389500Y-93726000D01*
X68643500Y-93726000D01*
X68643500Y-94707850D01*
X68725250Y-94789600D01*
X69597544Y-94789600D01*
X69717730Y-94739817D01*
X69809717Y-94647831D01*
X69859500Y-94527645D01*
X69859500Y-93807750D01*
X69777750Y-93726000D01*
X68643500Y-93726000D01*
X68389500Y-93726000D01*
X67255250Y-93726000D01*
X67173500Y-93807750D01*
X65452000Y-93807750D01*
X65452000Y-92670355D01*
X67173500Y-92670355D01*
X67173500Y-93390250D01*
X67255250Y-93472000D01*
X68389500Y-93472000D01*
X68389500Y-92490150D01*
X68643500Y-92490150D01*
X68643500Y-93472000D01*
X69777750Y-93472000D01*
X69859500Y-93390250D01*
X69859500Y-92670355D01*
X69809717Y-92550169D01*
X69717730Y-92458183D01*
X69597544Y-92408400D01*
X68725250Y-92408400D01*
X68643500Y-92490150D01*
X68389500Y-92490150D01*
X68307750Y-92408400D01*
X67435456Y-92408400D01*
X67315270Y-92458183D01*
X67223283Y-92550169D01*
X67173500Y-92670355D01*
X65452000Y-92670355D01*
X65452000Y-88921230D01*
X66372632Y-88921230D01*
X66695766Y-89703274D01*
X67293578Y-90302131D01*
X68075057Y-90626630D01*
X68921230Y-90627368D01*
X69703274Y-90304234D01*
X70302131Y-89706422D01*
X70626630Y-88924943D01*
X70626962Y-88543601D01*
X71429399Y-88543601D01*
X71429399Y-90993601D01*
X71477127Y-91233544D01*
X71494603Y-91259698D01*
X71613043Y-91436957D01*
X72872242Y-92696156D01*
X73075655Y-92832072D01*
X73315598Y-92879800D01*
X74647813Y-92879800D01*
X74760653Y-92956901D01*
X74910200Y-92987185D01*
X75610200Y-92987185D01*
X75749908Y-92960897D01*
X75878220Y-92878330D01*
X75961280Y-92756769D01*
X76034670Y-92870820D01*
X76160653Y-92956901D01*
X76267658Y-92978570D01*
X77594570Y-94305482D01*
X77593615Y-94310200D01*
X77593615Y-95326200D01*
X77619903Y-95465908D01*
X77702470Y-95594220D01*
X77828453Y-95680301D01*
X77978000Y-95710585D01*
X80010000Y-95710585D01*
X80149708Y-95684297D01*
X80278020Y-95601730D01*
X80364101Y-95475747D01*
X80370287Y-95445200D01*
X81046702Y-95445200D01*
X81088670Y-95510420D01*
X81214653Y-95596501D01*
X81364200Y-95626785D01*
X82364200Y-95626785D01*
X82503908Y-95600497D01*
X82632220Y-95517930D01*
X82718301Y-95391947D01*
X82748585Y-95242400D01*
X82748585Y-94887956D01*
X94296000Y-94887956D01*
X94296000Y-95219250D01*
X94377750Y-95301000D01*
X94996000Y-95301000D01*
X94996000Y-94707750D01*
X95250000Y-94707750D01*
X95250000Y-95301000D01*
X95868250Y-95301000D01*
X95950000Y-95219250D01*
X95950000Y-94887956D01*
X95918520Y-94811955D01*
X96124000Y-94811955D01*
X96124000Y-95168250D01*
X96205750Y-95250000D01*
X96774000Y-95250000D01*
X96774000Y-94631750D01*
X96692250Y-94550000D01*
X96385956Y-94550000D01*
X96265770Y-94599783D01*
X96173783Y-94691769D01*
X96124000Y-94811955D01*
X95918520Y-94811955D01*
X95900217Y-94767770D01*
X95808231Y-94675783D01*
X95688045Y-94626000D01*
X95331750Y-94626000D01*
X95250000Y-94707750D01*
X94996000Y-94707750D01*
X94914250Y-94626000D01*
X94557955Y-94626000D01*
X94437769Y-94675783D01*
X94345783Y-94767770D01*
X94296000Y-94887956D01*
X82748585Y-94887956D01*
X82748585Y-94292400D01*
X82742481Y-94259956D01*
X99503000Y-94259956D01*
X99503000Y-94591250D01*
X99584750Y-94673000D01*
X100203000Y-94673000D01*
X100203000Y-94079750D01*
X100121250Y-93998000D01*
X99764955Y-93998000D01*
X99644769Y-94047783D01*
X99552783Y-94139770D01*
X99503000Y-94259956D01*
X82742481Y-94259956D01*
X82722297Y-94152692D01*
X82639730Y-94024380D01*
X82513747Y-93938299D01*
X82507421Y-93937018D01*
X82549431Y-93919617D01*
X82641417Y-93827630D01*
X82691200Y-93707444D01*
X82691200Y-93376150D01*
X82609450Y-93294400D01*
X81991200Y-93294400D01*
X81991200Y-93314400D01*
X81737200Y-93314400D01*
X81737200Y-93294400D01*
X81118950Y-93294400D01*
X81037200Y-93376150D01*
X81037200Y-93707444D01*
X81086983Y-93827630D01*
X81178969Y-93919617D01*
X81220549Y-93936840D01*
X81096180Y-94016870D01*
X81010099Y-94142853D01*
X81000308Y-94191200D01*
X80371993Y-94191200D01*
X80368097Y-94170492D01*
X80285530Y-94042180D01*
X80159547Y-93956099D01*
X80010000Y-93925815D01*
X78988327Y-93925815D01*
X77689868Y-92627356D01*
X81037200Y-92627356D01*
X81037200Y-92958650D01*
X81118950Y-93040400D01*
X81737200Y-93040400D01*
X81737200Y-92447150D01*
X81991200Y-92447150D01*
X81991200Y-93040400D01*
X82609450Y-93040400D01*
X82691200Y-92958650D01*
X82691200Y-92627356D01*
X82641417Y-92507170D01*
X82549431Y-92415183D01*
X82429245Y-92365400D01*
X82072950Y-92365400D01*
X81991200Y-92447150D01*
X81737200Y-92447150D01*
X81655450Y-92365400D01*
X81299155Y-92365400D01*
X81178969Y-92415183D01*
X81086983Y-92507170D01*
X81037200Y-92627356D01*
X77689868Y-92627356D01*
X77394585Y-92332073D01*
X77394585Y-91902800D01*
X77368297Y-91763092D01*
X77285730Y-91634780D01*
X77159747Y-91548699D01*
X77010200Y-91518415D01*
X76310200Y-91518415D01*
X76170492Y-91544703D01*
X76042180Y-91627270D01*
X75959120Y-91748831D01*
X75885730Y-91634780D01*
X75759747Y-91548699D01*
X75610200Y-91518415D01*
X74910200Y-91518415D01*
X74770492Y-91544703D01*
X74644464Y-91625800D01*
X73575310Y-91625800D01*
X72967495Y-91017985D01*
X74233600Y-91017985D01*
X74373308Y-90991697D01*
X74501620Y-90909130D01*
X74587701Y-90783147D01*
X74617985Y-90633600D01*
X74617985Y-89770000D01*
X74645095Y-89770000D01*
X74739530Y-90244757D01*
X75008458Y-90647237D01*
X75410938Y-90916165D01*
X75885695Y-91010600D01*
X75934305Y-91010600D01*
X76409062Y-90916165D01*
X76811542Y-90647237D01*
X77080470Y-90244757D01*
X77174905Y-89770000D01*
X77185095Y-89770000D01*
X77279530Y-90244757D01*
X77548458Y-90647237D01*
X77950938Y-90916165D01*
X78425695Y-91010600D01*
X78474305Y-91010600D01*
X78949062Y-90916165D01*
X79351542Y-90647237D01*
X79620470Y-90244757D01*
X79714905Y-89770000D01*
X79725095Y-89770000D01*
X79819530Y-90244757D01*
X80088458Y-90647237D01*
X80490938Y-90916165D01*
X80965695Y-91010600D01*
X81014305Y-91010600D01*
X81489062Y-90916165D01*
X81891542Y-90647237D01*
X82160470Y-90244757D01*
X82254905Y-89770000D01*
X82265095Y-89770000D01*
X82359530Y-90244757D01*
X82628458Y-90647237D01*
X83030938Y-90916165D01*
X83505695Y-91010600D01*
X83554305Y-91010600D01*
X84029062Y-90916165D01*
X84431542Y-90647237D01*
X84700470Y-90244757D01*
X84794905Y-89770000D01*
X84805095Y-89770000D01*
X84899530Y-90244757D01*
X85168458Y-90647237D01*
X85570938Y-90916165D01*
X86045695Y-91010600D01*
X86094305Y-91010600D01*
X86569062Y-90916165D01*
X86971542Y-90647237D01*
X87240470Y-90244757D01*
X87334905Y-89770000D01*
X87345095Y-89770000D01*
X87439530Y-90244757D01*
X87708458Y-90647237D01*
X88110938Y-90916165D01*
X88585695Y-91010600D01*
X88634305Y-91010600D01*
X89109062Y-90916165D01*
X89511542Y-90647237D01*
X89780470Y-90244757D01*
X89874905Y-89770000D01*
X89885095Y-89770000D01*
X89979530Y-90244757D01*
X90248458Y-90647237D01*
X90650938Y-90916165D01*
X91125695Y-91010600D01*
X91174305Y-91010600D01*
X91649062Y-90916165D01*
X92051542Y-90647237D01*
X92320470Y-90244757D01*
X92414905Y-89770000D01*
X92425095Y-89770000D01*
X92519530Y-90244757D01*
X92788458Y-90647237D01*
X93190938Y-90916165D01*
X93665695Y-91010600D01*
X93714305Y-91010600D01*
X94189062Y-90916165D01*
X94591542Y-90647237D01*
X94860470Y-90244757D01*
X94954905Y-89770000D01*
X94965095Y-89770000D01*
X95059530Y-90244757D01*
X95328458Y-90647237D01*
X95730938Y-90916165D01*
X96205695Y-91010600D01*
X96254305Y-91010600D01*
X96729062Y-90916165D01*
X97131542Y-90647237D01*
X97400470Y-90244757D01*
X97494905Y-89770000D01*
X97505095Y-89770000D01*
X97599530Y-90244757D01*
X97868458Y-90647237D01*
X98270938Y-90916165D01*
X98745695Y-91010600D01*
X98794305Y-91010600D01*
X99269062Y-90916165D01*
X99671542Y-90647237D01*
X99940470Y-90244757D01*
X100034905Y-89770000D01*
X100045095Y-89770000D01*
X100139530Y-90244757D01*
X100408458Y-90647237D01*
X100810938Y-90916165D01*
X101285695Y-91010600D01*
X101334305Y-91010600D01*
X101809062Y-90916165D01*
X102211542Y-90647237D01*
X102480470Y-90244757D01*
X102513117Y-90080625D01*
X102700635Y-90080625D01*
X102817622Y-90363086D01*
X103123171Y-90713014D01*
X103539373Y-90919377D01*
X103723000Y-90872069D01*
X103723000Y-89897000D01*
X103977000Y-89897000D01*
X103977000Y-90872069D01*
X104160627Y-90919377D01*
X104576829Y-90713014D01*
X104882378Y-90363086D01*
X104999365Y-90080625D01*
X104951553Y-89897000D01*
X103977000Y-89897000D01*
X103723000Y-89897000D01*
X102748447Y-89897000D01*
X102700635Y-90080625D01*
X102513117Y-90080625D01*
X102574905Y-89770000D01*
X105125095Y-89770000D01*
X105219530Y-90244757D01*
X105488458Y-90647237D01*
X105890938Y-90916165D01*
X106365695Y-91010600D01*
X106414305Y-91010600D01*
X106889062Y-90916165D01*
X107291542Y-90647237D01*
X107560470Y-90244757D01*
X107654905Y-89770000D01*
X107560470Y-89295243D01*
X107291542Y-88892763D01*
X106889062Y-88623835D01*
X106414305Y-88529400D01*
X106365695Y-88529400D01*
X105890938Y-88623835D01*
X105488458Y-88892763D01*
X105219530Y-89295243D01*
X105125095Y-89770000D01*
X102574905Y-89770000D01*
X102513118Y-89459375D01*
X102700635Y-89459375D01*
X102748447Y-89643000D01*
X103723000Y-89643000D01*
X103723000Y-88667931D01*
X103977000Y-88667931D01*
X103977000Y-89643000D01*
X104951553Y-89643000D01*
X104999365Y-89459375D01*
X104882378Y-89176914D01*
X104576829Y-88826986D01*
X104160627Y-88620623D01*
X103977000Y-88667931D01*
X103723000Y-88667931D01*
X103539373Y-88620623D01*
X103123171Y-88826986D01*
X102817622Y-89176914D01*
X102700635Y-89459375D01*
X102513118Y-89459375D01*
X102480470Y-89295243D01*
X102211542Y-88892763D01*
X101809062Y-88623835D01*
X101334305Y-88529400D01*
X101285695Y-88529400D01*
X100810938Y-88623835D01*
X100408458Y-88892763D01*
X100139530Y-89295243D01*
X100045095Y-89770000D01*
X100034905Y-89770000D01*
X99940470Y-89295243D01*
X99671542Y-88892763D01*
X99269062Y-88623835D01*
X98794305Y-88529400D01*
X98745695Y-88529400D01*
X98270938Y-88623835D01*
X97868458Y-88892763D01*
X97599530Y-89295243D01*
X97505095Y-89770000D01*
X97494905Y-89770000D01*
X97400470Y-89295243D01*
X97131542Y-88892763D01*
X96729062Y-88623835D01*
X96254305Y-88529400D01*
X96205695Y-88529400D01*
X95730938Y-88623835D01*
X95328458Y-88892763D01*
X95059530Y-89295243D01*
X94965095Y-89770000D01*
X94954905Y-89770000D01*
X94860470Y-89295243D01*
X94591542Y-88892763D01*
X94189062Y-88623835D01*
X93714305Y-88529400D01*
X93665695Y-88529400D01*
X93190938Y-88623835D01*
X92788458Y-88892763D01*
X92519530Y-89295243D01*
X92425095Y-89770000D01*
X92414905Y-89770000D01*
X92320470Y-89295243D01*
X92051542Y-88892763D01*
X91649062Y-88623835D01*
X91174305Y-88529400D01*
X91125695Y-88529400D01*
X90650938Y-88623835D01*
X90248458Y-88892763D01*
X89979530Y-89295243D01*
X89885095Y-89770000D01*
X89874905Y-89770000D01*
X89780470Y-89295243D01*
X89511542Y-88892763D01*
X89109062Y-88623835D01*
X88634305Y-88529400D01*
X88585695Y-88529400D01*
X88110938Y-88623835D01*
X87708458Y-88892763D01*
X87439530Y-89295243D01*
X87345095Y-89770000D01*
X87334905Y-89770000D01*
X87240470Y-89295243D01*
X86971542Y-88892763D01*
X86569062Y-88623835D01*
X86094305Y-88529400D01*
X86045695Y-88529400D01*
X85570938Y-88623835D01*
X85168458Y-88892763D01*
X84899530Y-89295243D01*
X84805095Y-89770000D01*
X84794905Y-89770000D01*
X84700470Y-89295243D01*
X84431542Y-88892763D01*
X84029062Y-88623835D01*
X83554305Y-88529400D01*
X83505695Y-88529400D01*
X83030938Y-88623835D01*
X82628458Y-88892763D01*
X82359530Y-89295243D01*
X82265095Y-89770000D01*
X82254905Y-89770000D01*
X82160470Y-89295243D01*
X81891542Y-88892763D01*
X81489062Y-88623835D01*
X81014305Y-88529400D01*
X80965695Y-88529400D01*
X80490938Y-88623835D01*
X80088458Y-88892763D01*
X79819530Y-89295243D01*
X79725095Y-89770000D01*
X79714905Y-89770000D01*
X79620470Y-89295243D01*
X79351542Y-88892763D01*
X78949062Y-88623835D01*
X78474305Y-88529400D01*
X78425695Y-88529400D01*
X77950938Y-88623835D01*
X77548458Y-88892763D01*
X77279530Y-89295243D01*
X77185095Y-89770000D01*
X77174905Y-89770000D01*
X77080470Y-89295243D01*
X76811542Y-88892763D01*
X76409062Y-88623835D01*
X75934305Y-88529400D01*
X75885695Y-88529400D01*
X75410938Y-88623835D01*
X75008458Y-88892763D01*
X74739530Y-89295243D01*
X74645095Y-89770000D01*
X74617985Y-89770000D01*
X74617985Y-88906400D01*
X74591697Y-88766692D01*
X74509130Y-88638380D01*
X74383147Y-88552299D01*
X74233600Y-88522015D01*
X72964697Y-88522015D01*
X73070793Y-88415919D01*
X73345695Y-88470600D01*
X73394305Y-88470600D01*
X73869062Y-88376165D01*
X74271542Y-88107237D01*
X74438745Y-87857000D01*
X74841255Y-87857000D01*
X75008458Y-88107237D01*
X75410938Y-88376165D01*
X75885695Y-88470600D01*
X75934305Y-88470600D01*
X76409062Y-88376165D01*
X76811542Y-88107237D01*
X77080470Y-87704757D01*
X77113117Y-87540625D01*
X77300635Y-87540625D01*
X77417622Y-87823086D01*
X77723171Y-88173014D01*
X78139373Y-88379377D01*
X78323000Y-88332069D01*
X78323000Y-87357000D01*
X78577000Y-87357000D01*
X78577000Y-88332069D01*
X78760627Y-88379377D01*
X79176829Y-88173014D01*
X79482378Y-87823086D01*
X79599365Y-87540625D01*
X79551553Y-87357000D01*
X78577000Y-87357000D01*
X78323000Y-87357000D01*
X77348447Y-87357000D01*
X77300635Y-87540625D01*
X77113117Y-87540625D01*
X77174905Y-87230000D01*
X79725095Y-87230000D01*
X79819530Y-87704757D01*
X80088458Y-88107237D01*
X80490938Y-88376165D01*
X80965695Y-88470600D01*
X81014305Y-88470600D01*
X81489062Y-88376165D01*
X81891542Y-88107237D01*
X82160470Y-87704757D01*
X82254905Y-87230000D01*
X82265095Y-87230000D01*
X82359530Y-87704757D01*
X82628458Y-88107237D01*
X83030938Y-88376165D01*
X83505695Y-88470600D01*
X83554305Y-88470600D01*
X84029062Y-88376165D01*
X84431542Y-88107237D01*
X84700470Y-87704757D01*
X84794905Y-87230000D01*
X84805095Y-87230000D01*
X84899530Y-87704757D01*
X85168458Y-88107237D01*
X85570938Y-88376165D01*
X86045695Y-88470600D01*
X86094305Y-88470600D01*
X86569062Y-88376165D01*
X86971542Y-88107237D01*
X87240470Y-87704757D01*
X87273117Y-87540625D01*
X87460635Y-87540625D01*
X87577622Y-87823086D01*
X87883171Y-88173014D01*
X88299373Y-88379377D01*
X88483000Y-88332069D01*
X88483000Y-87357000D01*
X88737000Y-87357000D01*
X88737000Y-88332069D01*
X88920627Y-88379377D01*
X89336829Y-88173014D01*
X89642378Y-87823086D01*
X89759365Y-87540625D01*
X89711553Y-87357000D01*
X88737000Y-87357000D01*
X88483000Y-87357000D01*
X87508447Y-87357000D01*
X87460635Y-87540625D01*
X87273117Y-87540625D01*
X87334905Y-87230000D01*
X89885095Y-87230000D01*
X89979530Y-87704757D01*
X90248458Y-88107237D01*
X90650938Y-88376165D01*
X91125695Y-88470600D01*
X91174305Y-88470600D01*
X91649062Y-88376165D01*
X92051542Y-88107237D01*
X92320470Y-87704757D01*
X92414905Y-87230000D01*
X92425095Y-87230000D01*
X92519530Y-87704757D01*
X92788458Y-88107237D01*
X93190938Y-88376165D01*
X93665695Y-88470600D01*
X93714305Y-88470600D01*
X94189062Y-88376165D01*
X94591542Y-88107237D01*
X94860470Y-87704757D01*
X94893117Y-87540625D01*
X95080635Y-87540625D01*
X95197622Y-87823086D01*
X95503171Y-88173014D01*
X95919373Y-88379377D01*
X96103000Y-88332069D01*
X96103000Y-87357000D01*
X96357000Y-87357000D01*
X96357000Y-88332069D01*
X96540627Y-88379377D01*
X96956829Y-88173014D01*
X97262378Y-87823086D01*
X97379365Y-87540625D01*
X97331553Y-87357000D01*
X96357000Y-87357000D01*
X96103000Y-87357000D01*
X95128447Y-87357000D01*
X95080635Y-87540625D01*
X94893117Y-87540625D01*
X94954905Y-87230000D01*
X97505095Y-87230000D01*
X97599530Y-87704757D01*
X97868458Y-88107237D01*
X98270938Y-88376165D01*
X98745695Y-88470600D01*
X98794305Y-88470600D01*
X99269062Y-88376165D01*
X99671542Y-88107237D01*
X99940470Y-87704757D01*
X100034905Y-87230000D01*
X100045095Y-87230000D01*
X100139530Y-87704757D01*
X100408458Y-88107237D01*
X100810938Y-88376165D01*
X101285695Y-88470600D01*
X101334305Y-88470600D01*
X101809062Y-88376165D01*
X102211542Y-88107237D01*
X102480470Y-87704757D01*
X102574905Y-87230000D01*
X102585095Y-87230000D01*
X102679530Y-87704757D01*
X102948458Y-88107237D01*
X103350938Y-88376165D01*
X103825695Y-88470600D01*
X103874305Y-88470600D01*
X104349062Y-88376165D01*
X104751542Y-88107237D01*
X105020470Y-87704757D01*
X105114905Y-87230000D01*
X105125095Y-87230000D01*
X105219530Y-87704757D01*
X105488458Y-88107237D01*
X105890938Y-88376165D01*
X106365695Y-88470600D01*
X106414305Y-88470600D01*
X106889062Y-88376165D01*
X107291542Y-88107237D01*
X107560470Y-87704757D01*
X107593117Y-87540625D01*
X107780635Y-87540625D01*
X107897622Y-87823086D01*
X108203171Y-88173014D01*
X108619373Y-88379377D01*
X108803000Y-88332069D01*
X108803000Y-87357000D01*
X109057000Y-87357000D01*
X109057000Y-88332069D01*
X109240627Y-88379377D01*
X109656829Y-88173014D01*
X109962378Y-87823086D01*
X110079365Y-87540625D01*
X110031553Y-87357000D01*
X109057000Y-87357000D01*
X108803000Y-87357000D01*
X107828447Y-87357000D01*
X107780635Y-87540625D01*
X107593117Y-87540625D01*
X107654905Y-87230000D01*
X107593118Y-86919375D01*
X107780635Y-86919375D01*
X107828447Y-87103000D01*
X108803000Y-87103000D01*
X108803000Y-86127931D01*
X109057000Y-86127931D01*
X109057000Y-87103000D01*
X110031553Y-87103000D01*
X110079365Y-86919375D01*
X109962378Y-86636914D01*
X109656829Y-86286986D01*
X109240627Y-86080623D01*
X109057000Y-86127931D01*
X108803000Y-86127931D01*
X108619373Y-86080623D01*
X108203171Y-86286986D01*
X107897622Y-86636914D01*
X107780635Y-86919375D01*
X107593118Y-86919375D01*
X107560470Y-86755243D01*
X107291542Y-86352763D01*
X106889062Y-86083835D01*
X106414305Y-85989400D01*
X106365695Y-85989400D01*
X105890938Y-86083835D01*
X105488458Y-86352763D01*
X105219530Y-86755243D01*
X105125095Y-87230000D01*
X105114905Y-87230000D01*
X105020470Y-86755243D01*
X104751542Y-86352763D01*
X104349062Y-86083835D01*
X103874305Y-85989400D01*
X103825695Y-85989400D01*
X103350938Y-86083835D01*
X102948458Y-86352763D01*
X102679530Y-86755243D01*
X102585095Y-87230000D01*
X102574905Y-87230000D01*
X102480470Y-86755243D01*
X102211542Y-86352763D01*
X101809062Y-86083835D01*
X101334305Y-85989400D01*
X101285695Y-85989400D01*
X100810938Y-86083835D01*
X100408458Y-86352763D01*
X100139530Y-86755243D01*
X100045095Y-87230000D01*
X100034905Y-87230000D01*
X99940470Y-86755243D01*
X99671542Y-86352763D01*
X99269062Y-86083835D01*
X98794305Y-85989400D01*
X98745695Y-85989400D01*
X98270938Y-86083835D01*
X97868458Y-86352763D01*
X97599530Y-86755243D01*
X97505095Y-87230000D01*
X94954905Y-87230000D01*
X94893118Y-86919375D01*
X95080635Y-86919375D01*
X95128447Y-87103000D01*
X96103000Y-87103000D01*
X96103000Y-86127931D01*
X96357000Y-86127931D01*
X96357000Y-87103000D01*
X97331553Y-87103000D01*
X97379365Y-86919375D01*
X97262378Y-86636914D01*
X96956829Y-86286986D01*
X96540627Y-86080623D01*
X96357000Y-86127931D01*
X96103000Y-86127931D01*
X95919373Y-86080623D01*
X95503171Y-86286986D01*
X95197622Y-86636914D01*
X95080635Y-86919375D01*
X94893118Y-86919375D01*
X94860470Y-86755243D01*
X94591542Y-86352763D01*
X94189062Y-86083835D01*
X93714305Y-85989400D01*
X93665695Y-85989400D01*
X93190938Y-86083835D01*
X92788458Y-86352763D01*
X92519530Y-86755243D01*
X92425095Y-87230000D01*
X92414905Y-87230000D01*
X92320470Y-86755243D01*
X92051542Y-86352763D01*
X91649062Y-86083835D01*
X91174305Y-85989400D01*
X91125695Y-85989400D01*
X90650938Y-86083835D01*
X90248458Y-86352763D01*
X89979530Y-86755243D01*
X89885095Y-87230000D01*
X87334905Y-87230000D01*
X87273118Y-86919375D01*
X87460635Y-86919375D01*
X87508447Y-87103000D01*
X88483000Y-87103000D01*
X88483000Y-86127931D01*
X88737000Y-86127931D01*
X88737000Y-87103000D01*
X89711553Y-87103000D01*
X89759365Y-86919375D01*
X89642378Y-86636914D01*
X89336829Y-86286986D01*
X88920627Y-86080623D01*
X88737000Y-86127931D01*
X88483000Y-86127931D01*
X88299373Y-86080623D01*
X87883171Y-86286986D01*
X87577622Y-86636914D01*
X87460635Y-86919375D01*
X87273118Y-86919375D01*
X87240470Y-86755243D01*
X86971542Y-86352763D01*
X86569062Y-86083835D01*
X86094305Y-85989400D01*
X86045695Y-85989400D01*
X85570938Y-86083835D01*
X85168458Y-86352763D01*
X84899530Y-86755243D01*
X84805095Y-87230000D01*
X84794905Y-87230000D01*
X84700470Y-86755243D01*
X84431542Y-86352763D01*
X84029062Y-86083835D01*
X83554305Y-85989400D01*
X83505695Y-85989400D01*
X83030938Y-86083835D01*
X82628458Y-86352763D01*
X82359530Y-86755243D01*
X82265095Y-87230000D01*
X82254905Y-87230000D01*
X82160470Y-86755243D01*
X81891542Y-86352763D01*
X81489062Y-86083835D01*
X81014305Y-85989400D01*
X80965695Y-85989400D01*
X80490938Y-86083835D01*
X80088458Y-86352763D01*
X79819530Y-86755243D01*
X79725095Y-87230000D01*
X77174905Y-87230000D01*
X77113118Y-86919375D01*
X77300635Y-86919375D01*
X77348447Y-87103000D01*
X78323000Y-87103000D01*
X78323000Y-86127931D01*
X78577000Y-86127931D01*
X78577000Y-87103000D01*
X79551553Y-87103000D01*
X79599365Y-86919375D01*
X79482378Y-86636914D01*
X79176829Y-86286986D01*
X78760627Y-86080623D01*
X78577000Y-86127931D01*
X78323000Y-86127931D01*
X78139373Y-86080623D01*
X77723171Y-86286986D01*
X77417622Y-86636914D01*
X77300635Y-86919375D01*
X77113118Y-86919375D01*
X77080470Y-86755243D01*
X76811542Y-86352763D01*
X76409062Y-86083835D01*
X75934305Y-85989400D01*
X75885695Y-85989400D01*
X75410938Y-86083835D01*
X75008458Y-86352763D01*
X74841255Y-86603000D01*
X74438745Y-86603000D01*
X74271542Y-86352763D01*
X73869062Y-86083835D01*
X73394305Y-85989400D01*
X73345695Y-85989400D01*
X72870938Y-86083835D01*
X72468458Y-86352763D01*
X72199530Y-86755243D01*
X72105095Y-87230000D01*
X72167841Y-87545447D01*
X71613043Y-88100245D01*
X71477127Y-88303658D01*
X71429399Y-88543601D01*
X70626962Y-88543601D01*
X70627368Y-88078770D01*
X70304234Y-87296726D01*
X69706422Y-86697869D01*
X68924943Y-86373370D01*
X68078770Y-86372632D01*
X67296726Y-86695766D01*
X66697869Y-87293578D01*
X66373370Y-88075057D01*
X66372632Y-88921230D01*
X65452000Y-88921230D01*
X65452000Y-88044518D01*
X65654136Y-87028312D01*
X66204554Y-86204554D01*
X67028311Y-85654136D01*
X68044518Y-85452000D01*
X126955482Y-85452000D01*
X127971688Y-85654136D01*
G36*
X99628645Y-103453553D02*
X99778192Y-103483837D01*
X100268807Y-103483837D01*
X100268807Y-103974452D01*
X100295095Y-104114160D01*
X100377662Y-104242472D01*
X100503645Y-104328553D01*
X100653192Y-104358837D01*
X100663197Y-104358837D01*
X100624176Y-104397790D01*
X100505635Y-104683267D01*
X100505366Y-104992377D01*
X100623408Y-105278060D01*
X100841790Y-105496824D01*
X101127267Y-105615365D01*
X101436377Y-105615634D01*
X101722060Y-105497592D01*
X101940824Y-105279210D01*
X102059365Y-104993733D01*
X102059405Y-104948307D01*
X102221548Y-104786164D01*
X102236122Y-104764353D01*
X102307938Y-104656873D01*
X102314404Y-104689381D01*
X102423224Y-104852242D01*
X103291783Y-105720800D01*
X102951503Y-105720800D01*
X102759395Y-105759012D01*
X102744645Y-105768868D01*
X102596535Y-105867832D01*
X102596533Y-105867835D01*
X102552866Y-105911502D01*
X102157240Y-105911502D01*
X102113570Y-105867832D01*
X101950709Y-105759012D01*
X101758602Y-105720799D01*
X101758597Y-105720800D01*
X97682400Y-105720800D01*
X97682400Y-104805136D01*
X97794735Y-104692800D01*
X98549697Y-104692800D01*
X98549702Y-104692801D01*
X98741809Y-104654588D01*
X98904670Y-104545768D01*
X99414965Y-104035472D01*
X99414968Y-104035470D01*
X99502618Y-103904292D01*
X99523788Y-103872610D01*
X99562000Y-103680502D01*
X99562000Y-103408016D01*
X99628645Y-103453553D01*
X99628645Y-103453553D01*
G37*
X99628645Y-103453553D02*
X99778192Y-103483837D01*
X100268807Y-103483837D01*
X100268807Y-103974452D01*
X100295095Y-104114160D01*
X100377662Y-104242472D01*
X100503645Y-104328553D01*
X100653192Y-104358837D01*
X100663197Y-104358837D01*
X100624176Y-104397790D01*
X100505635Y-104683267D01*
X100505366Y-104992377D01*
X100623408Y-105278060D01*
X100841790Y-105496824D01*
X101127267Y-105615365D01*
X101436377Y-105615634D01*
X101722060Y-105497592D01*
X101940824Y-105279210D01*
X102059365Y-104993733D01*
X102059405Y-104948307D01*
X102221548Y-104786164D01*
X102236122Y-104764353D01*
X102307938Y-104656873D01*
X102314404Y-104689381D01*
X102423224Y-104852242D01*
X103291783Y-105720800D01*
X102951503Y-105720800D01*
X102759395Y-105759012D01*
X102744645Y-105768868D01*
X102596535Y-105867832D01*
X102596533Y-105867835D01*
X102552866Y-105911502D01*
X102157240Y-105911502D01*
X102113570Y-105867832D01*
X101950709Y-105759012D01*
X101758602Y-105720799D01*
X101758597Y-105720800D01*
X97682400Y-105720800D01*
X97682400Y-104805136D01*
X97794735Y-104692800D01*
X98549697Y-104692800D01*
X98549702Y-104692801D01*
X98741809Y-104654588D01*
X98904670Y-104545768D01*
X99414965Y-104035472D01*
X99414968Y-104035470D01*
X99502618Y-103904292D01*
X99523788Y-103872610D01*
X99562000Y-103680502D01*
X99562000Y-103408016D01*
X99628645Y-103453553D01*
G36*
X114817973Y-96884311D02*
X117089628Y-99155965D01*
X117089630Y-99155968D01*
X117187258Y-99221200D01*
X117252490Y-99264788D01*
X117444598Y-99303000D01*
X118347900Y-99303000D01*
X118406470Y-99394020D01*
X118532453Y-99480101D01*
X118682000Y-99510385D01*
X119610903Y-99510385D01*
X113271488Y-105849800D01*
X113037923Y-105849800D01*
X113093222Y-105768868D01*
X113123506Y-105619321D01*
X113123506Y-105594591D01*
X113181228Y-105583109D01*
X113344089Y-105474289D01*
X114517969Y-104300409D01*
X114626789Y-104137548D01*
X114665002Y-103945441D01*
X114665001Y-103945436D01*
X114665001Y-100228160D01*
X114702989Y-100171307D01*
X114741202Y-99979199D01*
X114741201Y-99979194D01*
X114741201Y-96884244D01*
X114817973Y-96884311D01*
X114817973Y-96884311D01*
G37*
X114817973Y-96884311D02*
X117089628Y-99155965D01*
X117089630Y-99155968D01*
X117187258Y-99221200D01*
X117252490Y-99264788D01*
X117444598Y-99303000D01*
X118347900Y-99303000D01*
X118406470Y-99394020D01*
X118532453Y-99480101D01*
X118682000Y-99510385D01*
X119610903Y-99510385D01*
X113271488Y-105849800D01*
X113037923Y-105849800D01*
X113093222Y-105768868D01*
X113123506Y-105619321D01*
X113123506Y-105594591D01*
X113181228Y-105583109D01*
X113344089Y-105474289D01*
X114517969Y-104300409D01*
X114626789Y-104137548D01*
X114665002Y-103945441D01*
X114665001Y-103945436D01*
X114665001Y-100228160D01*
X114702989Y-100171307D01*
X114741202Y-99979199D01*
X114741201Y-99979194D01*
X114741201Y-96884244D01*
X114817973Y-96884311D01*
G36*
X109854736Y-104944871D02*
X109854736Y-105619321D01*
X109881024Y-105759029D01*
X109939434Y-105849800D01*
X109936912Y-105849800D01*
X107682156Y-103595044D01*
X107616931Y-103551462D01*
X107478743Y-103459128D01*
X107238800Y-103411400D01*
X106542113Y-103411400D01*
X106443400Y-103312514D01*
X106443400Y-103200200D01*
X106435536Y-103160664D01*
X106396692Y-102965379D01*
X107875243Y-102965379D01*
X109854736Y-104944871D01*
X109854736Y-104944871D01*
G37*
X109854736Y-104944871D02*
X109854736Y-105619321D01*
X109881024Y-105759029D01*
X109939434Y-105849800D01*
X109936912Y-105849800D01*
X107682156Y-103595044D01*
X107616931Y-103551462D01*
X107478743Y-103459128D01*
X107238800Y-103411400D01*
X106542113Y-103411400D01*
X106443400Y-103312514D01*
X106443400Y-103200200D01*
X106435536Y-103160664D01*
X106396692Y-102965379D01*
X107875243Y-102965379D01*
X109854736Y-104944871D01*
G36*
X101792692Y-100234952D02*
X103263692Y-100234952D01*
X103263692Y-100214952D01*
X103517692Y-100214952D01*
X103517692Y-100234952D01*
X103537692Y-100234952D01*
X103537692Y-100488952D01*
X103517692Y-100488952D01*
X103517692Y-101959952D01*
X103537692Y-101959952D01*
X103537692Y-102213952D01*
X103517692Y-102213952D01*
X103517692Y-102233952D01*
X103263692Y-102233952D01*
X103263692Y-102213952D01*
X101792692Y-102213952D01*
X101792692Y-102233952D01*
X101538692Y-102233952D01*
X101538692Y-102213952D01*
X101518692Y-102213952D01*
X101518692Y-101959952D01*
X101538692Y-101959952D01*
X101538692Y-100488952D01*
X101792692Y-100488952D01*
X101792692Y-101959952D01*
X103263692Y-101959952D01*
X103263692Y-100488952D01*
X101792692Y-100488952D01*
X101538692Y-100488952D01*
X101518692Y-100488952D01*
X101518692Y-100234952D01*
X101538692Y-100234952D01*
X101538692Y-100214952D01*
X101792692Y-100214952D01*
X101792692Y-100234952D01*
X101792692Y-100234952D01*
G37*
X101792692Y-100234952D02*
X103263692Y-100234952D01*
X103263692Y-100214952D01*
X103517692Y-100214952D01*
X103517692Y-100234952D01*
X103537692Y-100234952D01*
X103537692Y-100488952D01*
X103517692Y-100488952D01*
X103517692Y-101959952D01*
X103537692Y-101959952D01*
X103537692Y-102213952D01*
X103517692Y-102213952D01*
X103517692Y-102233952D01*
X103263692Y-102233952D01*
X103263692Y-102213952D01*
X101792692Y-102213952D01*
X101792692Y-102233952D01*
X101538692Y-102233952D01*
X101538692Y-102213952D01*
X101518692Y-102213952D01*
X101518692Y-101959952D01*
X101538692Y-101959952D01*
X101538692Y-100488952D01*
X101792692Y-100488952D01*
X101792692Y-101959952D01*
X103263692Y-101959952D01*
X103263692Y-100488952D01*
X101792692Y-100488952D01*
X101538692Y-100488952D01*
X101518692Y-100488952D01*
X101518692Y-100234952D01*
X101538692Y-100234952D01*
X101538692Y-100214952D01*
X101792692Y-100214952D01*
X101792692Y-100234952D01*
G36*
X112883600Y-95975993D02*
X112883599Y-95975998D01*
X112921812Y-96168105D01*
X113030632Y-96330966D01*
X113515879Y-96816213D01*
X113243031Y-96815975D01*
X113090877Y-96878844D01*
X113087258Y-96859613D01*
X113004691Y-96731301D01*
X112878708Y-96645220D01*
X112729161Y-96614936D01*
X111829161Y-96614936D01*
X111689453Y-96641224D01*
X111561141Y-96723791D01*
X111478081Y-96845352D01*
X111404691Y-96731301D01*
X111278708Y-96645220D01*
X111129161Y-96614936D01*
X110229161Y-96614936D01*
X110089453Y-96641224D01*
X109961141Y-96723791D01*
X109875060Y-96849774D01*
X109844776Y-96999321D01*
X109844776Y-97673771D01*
X108046094Y-99472452D01*
X105662577Y-99472452D01*
X105662577Y-99349452D01*
X105636289Y-99209744D01*
X105553722Y-99081432D01*
X105427739Y-98995351D01*
X105278192Y-98965067D01*
X105222513Y-98965067D01*
X105438379Y-98749200D01*
X107634180Y-98749200D01*
X107634185Y-98749201D01*
X107826292Y-98710988D01*
X107989153Y-98602168D01*
X112538912Y-94052408D01*
X112691438Y-94052541D01*
X112883600Y-93973141D01*
X112883600Y-95975993D01*
X112883600Y-95975993D01*
G37*
X112883600Y-95975993D02*
X112883599Y-95975998D01*
X112921812Y-96168105D01*
X113030632Y-96330966D01*
X113515879Y-96816213D01*
X113243031Y-96815975D01*
X113090877Y-96878844D01*
X113087258Y-96859613D01*
X113004691Y-96731301D01*
X112878708Y-96645220D01*
X112729161Y-96614936D01*
X111829161Y-96614936D01*
X111689453Y-96641224D01*
X111561141Y-96723791D01*
X111478081Y-96845352D01*
X111404691Y-96731301D01*
X111278708Y-96645220D01*
X111129161Y-96614936D01*
X110229161Y-96614936D01*
X110089453Y-96641224D01*
X109961141Y-96723791D01*
X109875060Y-96849774D01*
X109844776Y-96999321D01*
X109844776Y-97673771D01*
X108046094Y-99472452D01*
X105662577Y-99472452D01*
X105662577Y-99349452D01*
X105636289Y-99209744D01*
X105553722Y-99081432D01*
X105427739Y-98995351D01*
X105278192Y-98965067D01*
X105222513Y-98965067D01*
X105438379Y-98749200D01*
X107634180Y-98749200D01*
X107634185Y-98749201D01*
X107826292Y-98710988D01*
X107989153Y-98602168D01*
X112538912Y-94052408D01*
X112691438Y-94052541D01*
X112883600Y-93973141D01*
X112883600Y-95975993D01*
M02*
