G04 #@! TF.FileFunction,Legend,Bot*
%FSLAX46Y46*%
G04 Gerber Fmt 4.6, Leading zero omitted, Abs format (unit mm)*
G04 Created by KiCad (PCBNEW 4.0.1-3.201512221401+6198~38~ubuntu15.10.1-stable) date Fri 01 Jan 2016 03:11:18 PM CST*
%MOMM*%
G01*
G04 APERTURE LIST*
%ADD10C,0.100000*%
%ADD11C,0.125000*%
%ADD12C,0.150000*%
%ADD13C,3.150000*%
%ADD14R,2.127200X2.127200*%
%ADD15O,2.127200X2.127200*%
G04 APERTURE END LIST*
D10*
D11*
X111390955Y-108461071D02*
X111057621Y-108461071D01*
X110914764Y-108984881D02*
X111390955Y-108984881D01*
X111390955Y-107984881D01*
X110914764Y-107984881D01*
X110533812Y-108937262D02*
X110390955Y-108984881D01*
X110152859Y-108984881D01*
X110057621Y-108937262D01*
X110010002Y-108889643D01*
X109962383Y-108794405D01*
X109962383Y-108699167D01*
X110010002Y-108603929D01*
X110057621Y-108556310D01*
X110152859Y-108508690D01*
X110343336Y-108461071D01*
X110438574Y-108413452D01*
X110486193Y-108365833D01*
X110533812Y-108270595D01*
X110533812Y-108175357D01*
X110486193Y-108080119D01*
X110438574Y-108032500D01*
X110343336Y-107984881D01*
X110105240Y-107984881D01*
X109962383Y-108032500D01*
X109533812Y-108984881D02*
X109533812Y-107984881D01*
X109152859Y-107984881D01*
X109057621Y-108032500D01*
X109010002Y-108080119D01*
X108962383Y-108175357D01*
X108962383Y-108318214D01*
X109010002Y-108413452D01*
X109057621Y-108461071D01*
X109152859Y-108508690D01*
X109533812Y-108508690D01*
X108390955Y-108413452D02*
X108486193Y-108365833D01*
X108533812Y-108318214D01*
X108581431Y-108222976D01*
X108581431Y-108175357D01*
X108533812Y-108080119D01*
X108486193Y-108032500D01*
X108390955Y-107984881D01*
X108200478Y-107984881D01*
X108105240Y-108032500D01*
X108057621Y-108080119D01*
X108010002Y-108175357D01*
X108010002Y-108222976D01*
X108057621Y-108318214D01*
X108105240Y-108365833D01*
X108200478Y-108413452D01*
X108390955Y-108413452D01*
X108486193Y-108461071D01*
X108533812Y-108508690D01*
X108581431Y-108603929D01*
X108581431Y-108794405D01*
X108533812Y-108889643D01*
X108486193Y-108937262D01*
X108390955Y-108984881D01*
X108200478Y-108984881D01*
X108105240Y-108937262D01*
X108057621Y-108889643D01*
X108010002Y-108794405D01*
X108010002Y-108603929D01*
X108057621Y-108508690D01*
X108105240Y-108461071D01*
X108200478Y-108413452D01*
X107629050Y-108080119D02*
X107581431Y-108032500D01*
X107486193Y-107984881D01*
X107248097Y-107984881D01*
X107152859Y-108032500D01*
X107105240Y-108080119D01*
X107057621Y-108175357D01*
X107057621Y-108270595D01*
X107105240Y-108413452D01*
X107676669Y-108984881D01*
X107057621Y-108984881D01*
X106200478Y-107984881D02*
X106390955Y-107984881D01*
X106486193Y-108032500D01*
X106533812Y-108080119D01*
X106629050Y-108222976D01*
X106676669Y-108413452D01*
X106676669Y-108794405D01*
X106629050Y-108889643D01*
X106581431Y-108937262D01*
X106486193Y-108984881D01*
X106295716Y-108984881D01*
X106200478Y-108937262D01*
X106152859Y-108889643D01*
X106105240Y-108794405D01*
X106105240Y-108556310D01*
X106152859Y-108461071D01*
X106200478Y-108413452D01*
X106295716Y-108365833D01*
X106486193Y-108365833D01*
X106581431Y-108413452D01*
X106629050Y-108461071D01*
X106676669Y-108556310D01*
X105248097Y-107984881D02*
X105438574Y-107984881D01*
X105533812Y-108032500D01*
X105581431Y-108080119D01*
X105676669Y-108222976D01*
X105724288Y-108413452D01*
X105724288Y-108794405D01*
X105676669Y-108889643D01*
X105629050Y-108937262D01*
X105533812Y-108984881D01*
X105343335Y-108984881D01*
X105248097Y-108937262D01*
X105200478Y-108889643D01*
X105152859Y-108794405D01*
X105152859Y-108556310D01*
X105200478Y-108461071D01*
X105248097Y-108413452D01*
X105343335Y-108365833D01*
X105533812Y-108365833D01*
X105629050Y-108413452D01*
X105676669Y-108461071D01*
X105724288Y-108556310D01*
X104057621Y-107984881D02*
X103819526Y-108984881D01*
X103629049Y-108270595D01*
X103438573Y-108984881D01*
X103200478Y-107984881D01*
X102819526Y-108984881D02*
X102819526Y-108318214D01*
X102819526Y-107984881D02*
X102867145Y-108032500D01*
X102819526Y-108080119D01*
X102771907Y-108032500D01*
X102819526Y-107984881D01*
X102819526Y-108080119D01*
X102010002Y-108461071D02*
X102343336Y-108461071D01*
X102343336Y-108984881D02*
X102343336Y-107984881D01*
X101867145Y-107984881D01*
X101486193Y-108984881D02*
X101486193Y-108318214D01*
X101486193Y-107984881D02*
X101533812Y-108032500D01*
X101486193Y-108080119D01*
X101438574Y-108032500D01*
X101486193Y-107984881D01*
X101486193Y-108080119D01*
X100390955Y-108318214D02*
X100010003Y-108318214D01*
X100248098Y-108984881D02*
X100248098Y-108127738D01*
X100200479Y-108032500D01*
X100105241Y-107984881D01*
X100010003Y-107984881D01*
X99533812Y-108984881D02*
X99629050Y-108937262D01*
X99676669Y-108889643D01*
X99724288Y-108794405D01*
X99724288Y-108508690D01*
X99676669Y-108413452D01*
X99629050Y-108365833D01*
X99533812Y-108318214D01*
X99390954Y-108318214D01*
X99295716Y-108365833D01*
X99248097Y-108413452D01*
X99200478Y-108508690D01*
X99200478Y-108794405D01*
X99248097Y-108889643D01*
X99295716Y-108937262D01*
X99390954Y-108984881D01*
X99533812Y-108984881D01*
X98771907Y-108984881D02*
X98771907Y-108318214D01*
X98771907Y-108508690D02*
X98724288Y-108413452D01*
X98676669Y-108365833D01*
X98581431Y-108318214D01*
X98486192Y-108318214D01*
X96819525Y-108984881D02*
X97152859Y-108508690D01*
X97390954Y-108984881D02*
X97390954Y-107984881D01*
X97010001Y-107984881D01*
X96914763Y-108032500D01*
X96867144Y-108080119D01*
X96819525Y-108175357D01*
X96819525Y-108318214D01*
X96867144Y-108413452D01*
X96914763Y-108461071D01*
X97010001Y-108508690D01*
X97390954Y-108508690D01*
X95962382Y-108984881D02*
X95962382Y-108461071D01*
X96010001Y-108365833D01*
X96105239Y-108318214D01*
X96295716Y-108318214D01*
X96390954Y-108365833D01*
X95962382Y-108937262D02*
X96057620Y-108984881D01*
X96295716Y-108984881D01*
X96390954Y-108937262D01*
X96438573Y-108842024D01*
X96438573Y-108746786D01*
X96390954Y-108651548D01*
X96295716Y-108603929D01*
X96057620Y-108603929D01*
X95962382Y-108556310D01*
X95533811Y-108937262D02*
X95438573Y-108984881D01*
X95248097Y-108984881D01*
X95152858Y-108937262D01*
X95105239Y-108842024D01*
X95105239Y-108794405D01*
X95152858Y-108699167D01*
X95248097Y-108651548D01*
X95390954Y-108651548D01*
X95486192Y-108603929D01*
X95533811Y-108508690D01*
X95533811Y-108461071D01*
X95486192Y-108365833D01*
X95390954Y-108318214D01*
X95248097Y-108318214D01*
X95152858Y-108365833D01*
X94676668Y-108318214D02*
X94676668Y-109318214D01*
X94676668Y-108365833D02*
X94581430Y-108318214D01*
X94390953Y-108318214D01*
X94295715Y-108365833D01*
X94248096Y-108413452D01*
X94200477Y-108508690D01*
X94200477Y-108794405D01*
X94248096Y-108889643D01*
X94295715Y-108937262D01*
X94390953Y-108984881D01*
X94581430Y-108984881D01*
X94676668Y-108937262D01*
X93771906Y-108984881D02*
X93771906Y-107984881D01*
X93771906Y-108365833D02*
X93676668Y-108318214D01*
X93486191Y-108318214D01*
X93390953Y-108365833D01*
X93343334Y-108413452D01*
X93295715Y-108508690D01*
X93295715Y-108794405D01*
X93343334Y-108889643D01*
X93390953Y-108937262D01*
X93486191Y-108984881D01*
X93676668Y-108984881D01*
X93771906Y-108937262D01*
X92486191Y-108937262D02*
X92581429Y-108984881D01*
X92771906Y-108984881D01*
X92867144Y-108937262D01*
X92914763Y-108842024D01*
X92914763Y-108461071D01*
X92867144Y-108365833D01*
X92771906Y-108318214D01*
X92581429Y-108318214D01*
X92486191Y-108365833D01*
X92438572Y-108461071D01*
X92438572Y-108556310D01*
X92914763Y-108651548D01*
X92010001Y-108984881D02*
X92010001Y-108318214D01*
X92010001Y-108508690D02*
X91962382Y-108413452D01*
X91914763Y-108365833D01*
X91819525Y-108318214D01*
X91724286Y-108318214D01*
X91390953Y-108984881D02*
X91390953Y-108318214D01*
X91390953Y-108508690D02*
X91343334Y-108413452D01*
X91295715Y-108365833D01*
X91200477Y-108318214D01*
X91105238Y-108318214D01*
X90867143Y-108318214D02*
X90629048Y-108984881D01*
X90390952Y-108318214D02*
X90629048Y-108984881D01*
X90724286Y-109222976D01*
X90771905Y-109270595D01*
X90867143Y-109318214D01*
X89248095Y-108984881D02*
X89248095Y-107984881D01*
X88867142Y-107984881D01*
X88771904Y-108032500D01*
X88724285Y-108080119D01*
X88676666Y-108175357D01*
X88676666Y-108318214D01*
X88724285Y-108413452D01*
X88771904Y-108461071D01*
X88867142Y-108508690D01*
X89248095Y-108508690D01*
X88248095Y-108984881D02*
X88248095Y-108318214D01*
X88248095Y-107984881D02*
X88295714Y-108032500D01*
X88248095Y-108080119D01*
X88200476Y-108032500D01*
X88248095Y-107984881D01*
X88248095Y-108080119D01*
X101867143Y-109843214D02*
X101629048Y-110509881D01*
X101390952Y-109843214D01*
X100819524Y-109509881D02*
X100724285Y-109509881D01*
X100629047Y-109557500D01*
X100581428Y-109605119D01*
X100533809Y-109700357D01*
X100486190Y-109890833D01*
X100486190Y-110128929D01*
X100533809Y-110319405D01*
X100581428Y-110414643D01*
X100629047Y-110462262D01*
X100724285Y-110509881D01*
X100819524Y-110509881D01*
X100914762Y-110462262D01*
X100962381Y-110414643D01*
X101010000Y-110319405D01*
X101057619Y-110128929D01*
X101057619Y-109890833D01*
X101010000Y-109700357D01*
X100962381Y-109605119D01*
X100914762Y-109557500D01*
X100819524Y-109509881D01*
X100057619Y-110414643D02*
X100010000Y-110462262D01*
X100057619Y-110509881D01*
X100105238Y-110462262D01*
X100057619Y-110414643D01*
X100057619Y-110509881D01*
X99629048Y-109605119D02*
X99581429Y-109557500D01*
X99486191Y-109509881D01*
X99248095Y-109509881D01*
X99152857Y-109557500D01*
X99105238Y-109605119D01*
X99057619Y-109700357D01*
X99057619Y-109795595D01*
X99105238Y-109938452D01*
X99676667Y-110509881D01*
X99057619Y-110509881D01*
X97914762Y-109605119D02*
X97867143Y-109557500D01*
X97771905Y-109509881D01*
X97533809Y-109509881D01*
X97438571Y-109557500D01*
X97390952Y-109605119D01*
X97343333Y-109700357D01*
X97343333Y-109795595D01*
X97390952Y-109938452D01*
X97962381Y-110509881D01*
X97343333Y-110509881D01*
X96724286Y-109509881D02*
X96629047Y-109509881D01*
X96533809Y-109557500D01*
X96486190Y-109605119D01*
X96438571Y-109700357D01*
X96390952Y-109890833D01*
X96390952Y-110128929D01*
X96438571Y-110319405D01*
X96486190Y-110414643D01*
X96533809Y-110462262D01*
X96629047Y-110509881D01*
X96724286Y-110509881D01*
X96819524Y-110462262D01*
X96867143Y-110414643D01*
X96914762Y-110319405D01*
X96962381Y-110128929D01*
X96962381Y-109890833D01*
X96914762Y-109700357D01*
X96867143Y-109605119D01*
X96819524Y-109557500D01*
X96724286Y-109509881D01*
X95438571Y-110509881D02*
X96010000Y-110509881D01*
X95724286Y-110509881D02*
X95724286Y-109509881D01*
X95819524Y-109652738D01*
X95914762Y-109747976D01*
X96010000Y-109795595D01*
X94533809Y-109509881D02*
X95010000Y-109509881D01*
X95057619Y-109986071D01*
X95010000Y-109938452D01*
X94914762Y-109890833D01*
X94676666Y-109890833D01*
X94581428Y-109938452D01*
X94533809Y-109986071D01*
X94486190Y-110081310D01*
X94486190Y-110319405D01*
X94533809Y-110414643D01*
X94581428Y-110462262D01*
X94676666Y-110509881D01*
X94914762Y-110509881D01*
X95010000Y-110462262D01*
X95057619Y-110414643D01*
X94057619Y-110128929D02*
X93295714Y-110128929D01*
X92295714Y-110509881D02*
X92867143Y-110509881D01*
X92581429Y-110509881D02*
X92581429Y-109509881D01*
X92676667Y-109652738D01*
X92771905Y-109747976D01*
X92867143Y-109795595D01*
X91914762Y-109605119D02*
X91867143Y-109557500D01*
X91771905Y-109509881D01*
X91533809Y-109509881D01*
X91438571Y-109557500D01*
X91390952Y-109605119D01*
X91343333Y-109700357D01*
X91343333Y-109795595D01*
X91390952Y-109938452D01*
X91962381Y-110509881D01*
X91343333Y-110509881D01*
X90914762Y-110128929D02*
X90152857Y-110128929D01*
X89771905Y-109509881D02*
X89152857Y-109509881D01*
X89486191Y-109890833D01*
X89343333Y-109890833D01*
X89248095Y-109938452D01*
X89200476Y-109986071D01*
X89152857Y-110081310D01*
X89152857Y-110319405D01*
X89200476Y-110414643D01*
X89248095Y-110462262D01*
X89343333Y-110509881D01*
X89629048Y-110509881D01*
X89724286Y-110462262D01*
X89771905Y-110414643D01*
X88200476Y-110509881D02*
X88771905Y-110509881D01*
X88486191Y-110509881D02*
X88486191Y-109509881D01*
X88581429Y-109652738D01*
X88676667Y-109747976D01*
X88771905Y-109795595D01*
X98581431Y-112034881D02*
X98581431Y-111034881D01*
X98581431Y-111415833D02*
X98486193Y-111368214D01*
X98295716Y-111368214D01*
X98200478Y-111415833D01*
X98152859Y-111463452D01*
X98105240Y-111558690D01*
X98105240Y-111844405D01*
X98152859Y-111939643D01*
X98200478Y-111987262D01*
X98295716Y-112034881D01*
X98486193Y-112034881D01*
X98581431Y-111987262D01*
X97771907Y-111368214D02*
X97533812Y-112034881D01*
X97295716Y-111368214D02*
X97533812Y-112034881D01*
X97629050Y-112272976D01*
X97676669Y-112320595D01*
X97771907Y-112368214D01*
X96200478Y-111749167D02*
X95724287Y-111749167D01*
X96295716Y-112034881D02*
X95962383Y-111034881D01*
X95629049Y-112034881D01*
X95295716Y-111368214D02*
X95295716Y-112034881D01*
X95295716Y-111463452D02*
X95248097Y-111415833D01*
X95152859Y-111368214D01*
X95010001Y-111368214D01*
X94914763Y-111415833D01*
X94867144Y-111511071D01*
X94867144Y-112034881D01*
X93962382Y-112034881D02*
X93962382Y-111034881D01*
X93962382Y-111987262D02*
X94057620Y-112034881D01*
X94248097Y-112034881D01*
X94343335Y-111987262D01*
X94390954Y-111939643D01*
X94438573Y-111844405D01*
X94438573Y-111558690D01*
X94390954Y-111463452D01*
X94343335Y-111415833D01*
X94248097Y-111368214D01*
X94057620Y-111368214D01*
X93962382Y-111415833D01*
X93486192Y-112034881D02*
X93486192Y-111368214D01*
X93486192Y-111558690D02*
X93438573Y-111463452D01*
X93390954Y-111415833D01*
X93295716Y-111368214D01*
X93200477Y-111368214D01*
X92486191Y-111987262D02*
X92581429Y-112034881D01*
X92771906Y-112034881D01*
X92867144Y-111987262D01*
X92914763Y-111892024D01*
X92914763Y-111511071D01*
X92867144Y-111415833D01*
X92771906Y-111368214D01*
X92581429Y-111368214D01*
X92486191Y-111415833D01*
X92438572Y-111511071D01*
X92438572Y-111606310D01*
X92914763Y-111701548D01*
X92105239Y-111368214D02*
X91914763Y-112034881D01*
X91724286Y-111558690D01*
X91533810Y-112034881D01*
X91343334Y-111368214D01*
X89724286Y-112034881D02*
X90200477Y-112034881D01*
X90200477Y-111034881D01*
X89390953Y-112034881D02*
X89390953Y-111368214D01*
X89390953Y-111034881D02*
X89438572Y-111082500D01*
X89390953Y-111130119D01*
X89343334Y-111082500D01*
X89390953Y-111034881D01*
X89390953Y-111130119D01*
X89057620Y-111368214D02*
X88676668Y-111368214D01*
X88914763Y-111034881D02*
X88914763Y-111892024D01*
X88867144Y-111987262D01*
X88771906Y-112034881D01*
X88676668Y-112034881D01*
X88486191Y-111368214D02*
X88105239Y-111368214D01*
X88343334Y-111034881D02*
X88343334Y-111892024D01*
X88295715Y-111987262D01*
X88200477Y-112034881D01*
X88105239Y-112034881D01*
X114438574Y-113559881D02*
X114438574Y-112559881D01*
X114010002Y-113559881D02*
X114010002Y-113036071D01*
X114057621Y-112940833D01*
X114152859Y-112893214D01*
X114295717Y-112893214D01*
X114390955Y-112940833D01*
X114438574Y-112988452D01*
X113676669Y-112893214D02*
X113295717Y-112893214D01*
X113533812Y-112559881D02*
X113533812Y-113417024D01*
X113486193Y-113512262D01*
X113390955Y-113559881D01*
X113295717Y-113559881D01*
X113105240Y-112893214D02*
X112724288Y-112893214D01*
X112962383Y-112559881D02*
X112962383Y-113417024D01*
X112914764Y-113512262D01*
X112819526Y-113559881D01*
X112724288Y-113559881D01*
X112390954Y-112893214D02*
X112390954Y-113893214D01*
X112390954Y-112940833D02*
X112295716Y-112893214D01*
X112105239Y-112893214D01*
X112010001Y-112940833D01*
X111962382Y-112988452D01*
X111914763Y-113083690D01*
X111914763Y-113369405D01*
X111962382Y-113464643D01*
X112010001Y-113512262D01*
X112105239Y-113559881D01*
X112295716Y-113559881D01*
X112390954Y-113512262D01*
X111533811Y-113512262D02*
X111438573Y-113559881D01*
X111248097Y-113559881D01*
X111152858Y-113512262D01*
X111105239Y-113417024D01*
X111105239Y-113369405D01*
X111152858Y-113274167D01*
X111248097Y-113226548D01*
X111390954Y-113226548D01*
X111486192Y-113178929D01*
X111533811Y-113083690D01*
X111533811Y-113036071D01*
X111486192Y-112940833D01*
X111390954Y-112893214D01*
X111248097Y-112893214D01*
X111152858Y-112940833D01*
X110676668Y-113464643D02*
X110629049Y-113512262D01*
X110676668Y-113559881D01*
X110724287Y-113512262D01*
X110676668Y-113464643D01*
X110676668Y-113559881D01*
X110676668Y-112940833D02*
X110629049Y-112988452D01*
X110676668Y-113036071D01*
X110724287Y-112988452D01*
X110676668Y-112940833D01*
X110676668Y-113036071D01*
X109486192Y-112512262D02*
X110343335Y-113797976D01*
X108438573Y-112512262D02*
X109295716Y-113797976D01*
X107676668Y-112893214D02*
X107676668Y-113702738D01*
X107724287Y-113797976D01*
X107771906Y-113845595D01*
X107867145Y-113893214D01*
X108010002Y-113893214D01*
X108105240Y-113845595D01*
X107676668Y-113512262D02*
X107771906Y-113559881D01*
X107962383Y-113559881D01*
X108057621Y-113512262D01*
X108105240Y-113464643D01*
X108152859Y-113369405D01*
X108152859Y-113083690D01*
X108105240Y-112988452D01*
X108057621Y-112940833D01*
X107962383Y-112893214D01*
X107771906Y-112893214D01*
X107676668Y-112940833D01*
X107200478Y-113559881D02*
X107200478Y-112893214D01*
X107200478Y-112559881D02*
X107248097Y-112607500D01*
X107200478Y-112655119D01*
X107152859Y-112607500D01*
X107200478Y-112559881D01*
X107200478Y-112655119D01*
X106867145Y-112893214D02*
X106486193Y-112893214D01*
X106724288Y-112559881D02*
X106724288Y-113417024D01*
X106676669Y-113512262D01*
X106581431Y-113559881D01*
X106486193Y-113559881D01*
X106152859Y-113559881D02*
X106152859Y-112559881D01*
X105724287Y-113559881D02*
X105724287Y-113036071D01*
X105771906Y-112940833D01*
X105867144Y-112893214D01*
X106010002Y-112893214D01*
X106105240Y-112940833D01*
X106152859Y-112988452D01*
X104819525Y-112893214D02*
X104819525Y-113559881D01*
X105248097Y-112893214D02*
X105248097Y-113417024D01*
X105200478Y-113512262D01*
X105105240Y-113559881D01*
X104962382Y-113559881D01*
X104867144Y-113512262D01*
X104819525Y-113464643D01*
X104343335Y-113559881D02*
X104343335Y-112559881D01*
X104343335Y-112940833D02*
X104248097Y-112893214D01*
X104057620Y-112893214D01*
X103962382Y-112940833D01*
X103914763Y-112988452D01*
X103867144Y-113083690D01*
X103867144Y-113369405D01*
X103914763Y-113464643D01*
X103962382Y-113512262D01*
X104057620Y-113559881D01*
X104248097Y-113559881D01*
X104343335Y-113512262D01*
X103438573Y-113464643D02*
X103390954Y-113512262D01*
X103438573Y-113559881D01*
X103486192Y-113512262D01*
X103438573Y-113464643D01*
X103438573Y-113559881D01*
X102533811Y-113512262D02*
X102629049Y-113559881D01*
X102819526Y-113559881D01*
X102914764Y-113512262D01*
X102962383Y-113464643D01*
X103010002Y-113369405D01*
X103010002Y-113083690D01*
X102962383Y-112988452D01*
X102914764Y-112940833D01*
X102819526Y-112893214D01*
X102629049Y-112893214D01*
X102533811Y-112940833D01*
X101962383Y-113559881D02*
X102057621Y-113512262D01*
X102105240Y-113464643D01*
X102152859Y-113369405D01*
X102152859Y-113083690D01*
X102105240Y-112988452D01*
X102057621Y-112940833D01*
X101962383Y-112893214D01*
X101819525Y-112893214D01*
X101724287Y-112940833D01*
X101676668Y-112988452D01*
X101629049Y-113083690D01*
X101629049Y-113369405D01*
X101676668Y-113464643D01*
X101724287Y-113512262D01*
X101819525Y-113559881D01*
X101962383Y-113559881D01*
X101200478Y-113559881D02*
X101200478Y-112893214D01*
X101200478Y-112988452D02*
X101152859Y-112940833D01*
X101057621Y-112893214D01*
X100914763Y-112893214D01*
X100819525Y-112940833D01*
X100771906Y-113036071D01*
X100771906Y-113559881D01*
X100771906Y-113036071D02*
X100724287Y-112940833D01*
X100629049Y-112893214D01*
X100486192Y-112893214D01*
X100390954Y-112940833D01*
X100343335Y-113036071D01*
X100343335Y-113559881D01*
X99152859Y-112512262D02*
X100010002Y-113797976D01*
X98390954Y-113559881D02*
X98390954Y-113036071D01*
X98438573Y-112940833D01*
X98533811Y-112893214D01*
X98724288Y-112893214D01*
X98819526Y-112940833D01*
X98390954Y-113512262D02*
X98486192Y-113559881D01*
X98724288Y-113559881D01*
X98819526Y-113512262D01*
X98867145Y-113417024D01*
X98867145Y-113321786D01*
X98819526Y-113226548D01*
X98724288Y-113178929D01*
X98486192Y-113178929D01*
X98390954Y-113131310D01*
X97771907Y-113559881D02*
X97867145Y-113512262D01*
X97914764Y-113417024D01*
X97914764Y-112559881D01*
X96867144Y-113559881D02*
X97438573Y-113559881D01*
X97152859Y-113559881D02*
X97152859Y-112559881D01*
X97248097Y-112702738D01*
X97343335Y-112797976D01*
X97438573Y-112845595D01*
X96533811Y-112559881D02*
X95867144Y-112559881D01*
X96295716Y-113559881D01*
X95581430Y-112559881D02*
X94914763Y-112559881D01*
X95343335Y-113559881D01*
X93819525Y-112512262D02*
X94676668Y-113797976D01*
X93105239Y-113512262D02*
X93200477Y-113559881D01*
X93390954Y-113559881D01*
X93486192Y-113512262D01*
X93533811Y-113417024D01*
X93533811Y-113036071D01*
X93486192Y-112940833D01*
X93390954Y-112893214D01*
X93200477Y-112893214D01*
X93105239Y-112940833D01*
X93057620Y-113036071D01*
X93057620Y-113131310D01*
X93533811Y-113226548D01*
X92676668Y-113512262D02*
X92581430Y-113559881D01*
X92390954Y-113559881D01*
X92295715Y-113512262D01*
X92248096Y-113417024D01*
X92248096Y-113369405D01*
X92295715Y-113274167D01*
X92390954Y-113226548D01*
X92533811Y-113226548D01*
X92629049Y-113178929D01*
X92676668Y-113083690D01*
X92676668Y-113036071D01*
X92629049Y-112940833D01*
X92533811Y-112893214D01*
X92390954Y-112893214D01*
X92295715Y-112940833D01*
X91819525Y-112893214D02*
X91819525Y-113893214D01*
X91819525Y-112940833D02*
X91724287Y-112893214D01*
X91533810Y-112893214D01*
X91438572Y-112940833D01*
X91390953Y-112988452D01*
X91343334Y-113083690D01*
X91343334Y-113369405D01*
X91390953Y-113464643D01*
X91438572Y-113512262D01*
X91533810Y-113559881D01*
X91724287Y-113559881D01*
X91819525Y-113512262D01*
X91152858Y-113655119D02*
X90390953Y-113655119D01*
X90152858Y-113559881D02*
X90152858Y-112559881D01*
X89724286Y-113559881D02*
X89724286Y-113036071D01*
X89771905Y-112940833D01*
X89867143Y-112893214D01*
X90010001Y-112893214D01*
X90105239Y-112940833D01*
X90152858Y-112988452D01*
X88819524Y-113559881D02*
X88819524Y-113036071D01*
X88867143Y-112940833D01*
X88962381Y-112893214D01*
X89152858Y-112893214D01*
X89248096Y-112940833D01*
X88819524Y-113512262D02*
X88914762Y-113559881D01*
X89152858Y-113559881D01*
X89248096Y-113512262D01*
X89295715Y-113417024D01*
X89295715Y-113321786D01*
X89248096Y-113226548D01*
X89152858Y-113178929D01*
X88914762Y-113178929D01*
X88819524Y-113131310D01*
X88486191Y-112893214D02*
X88105239Y-112893214D01*
X88343334Y-112559881D02*
X88343334Y-113417024D01*
X88295715Y-113512262D01*
X88200477Y-113559881D01*
X88105239Y-113559881D01*
D12*
X122900000Y-85960000D02*
X72100000Y-85960000D01*
X74640000Y-91040000D02*
X122900000Y-91040000D01*
X122900000Y-85960000D02*
X122900000Y-91040000D01*
X72100000Y-85960000D02*
X72100000Y-88500000D01*
X73370000Y-91320000D02*
X71820000Y-91320000D01*
X72100000Y-88500000D02*
X74640000Y-88500000D01*
X74640000Y-88500000D02*
X74640000Y-91040000D01*
X71820000Y-91320000D02*
X71820000Y-89770000D01*
X72772495Y-92959181D02*
X72772495Y-91959181D01*
X72391542Y-91959181D01*
X72296304Y-92006800D01*
X72248685Y-92054419D01*
X72201066Y-92149657D01*
X72201066Y-92292514D01*
X72248685Y-92387752D01*
X72296304Y-92435371D01*
X72391542Y-92482990D01*
X72772495Y-92482990D01*
X71248685Y-92959181D02*
X71820114Y-92959181D01*
X71534400Y-92959181D02*
X71534400Y-91959181D01*
X71629638Y-92102038D01*
X71724876Y-92197276D01*
X71820114Y-92244895D01*
%LPC*%
D13*
X126500000Y-88500000D03*
X126500000Y-111500000D03*
X68500000Y-88500000D03*
D14*
X73370000Y-89770000D03*
D15*
X73370000Y-87230000D03*
X75910000Y-89770000D03*
X75910000Y-87230000D03*
X78450000Y-89770000D03*
X78450000Y-87230000D03*
X80990000Y-89770000D03*
X80990000Y-87230000D03*
X83530000Y-89770000D03*
X83530000Y-87230000D03*
X86070000Y-89770000D03*
X86070000Y-87230000D03*
X88610000Y-89770000D03*
X88610000Y-87230000D03*
X91150000Y-89770000D03*
X91150000Y-87230000D03*
X93690000Y-89770000D03*
X93690000Y-87230000D03*
X96230000Y-89770000D03*
X96230000Y-87230000D03*
X98770000Y-89770000D03*
X98770000Y-87230000D03*
X101310000Y-89770000D03*
X101310000Y-87230000D03*
X103850000Y-89770000D03*
X103850000Y-87230000D03*
X106390000Y-89770000D03*
X106390000Y-87230000D03*
X108930000Y-89770000D03*
X108930000Y-87230000D03*
X111470000Y-89770000D03*
X111470000Y-87230000D03*
X114010000Y-89770000D03*
X114010000Y-87230000D03*
X116550000Y-89770000D03*
X116550000Y-87230000D03*
X119090000Y-89770000D03*
X119090000Y-87230000D03*
X121630000Y-89770000D03*
X121630000Y-87230000D03*
D13*
X68500000Y-111500000D03*
M02*
