G04 #@! TF.FileFunction,Legend,Bot*
%FSLAX46Y46*%
G04 Gerber Fmt 4.6, Leading zero omitted, Abs format (unit mm)*
G04 Created by KiCad (PCBNEW 4.0.0-2.201512091501+6195~38~ubuntu15.10.1-stable) date Fri 11 Dec 2015 10:20:27 PM CST*
%MOMM*%
G01*
G04 APERTURE LIST*
%ADD10C,0.100000*%
%ADD11C,0.300000*%
%ADD12C,0.150000*%
G04 APERTURE END LIST*
D10*
D11*
X92104286Y-96622857D02*
X91604286Y-96622857D01*
X91390000Y-97408571D02*
X92104286Y-97408571D01*
X92104286Y-95908571D01*
X91390000Y-95908571D01*
X90818572Y-97337143D02*
X90604286Y-97408571D01*
X90247143Y-97408571D01*
X90104286Y-97337143D01*
X90032857Y-97265714D01*
X89961429Y-97122857D01*
X89961429Y-96980000D01*
X90032857Y-96837143D01*
X90104286Y-96765714D01*
X90247143Y-96694286D01*
X90532857Y-96622857D01*
X90675715Y-96551429D01*
X90747143Y-96480000D01*
X90818572Y-96337143D01*
X90818572Y-96194286D01*
X90747143Y-96051429D01*
X90675715Y-95980000D01*
X90532857Y-95908571D01*
X90175715Y-95908571D01*
X89961429Y-95980000D01*
X89318572Y-97408571D02*
X89318572Y-95908571D01*
X88747144Y-95908571D01*
X88604286Y-95980000D01*
X88532858Y-96051429D01*
X88461429Y-96194286D01*
X88461429Y-96408571D01*
X88532858Y-96551429D01*
X88604286Y-96622857D01*
X88747144Y-96694286D01*
X89318572Y-96694286D01*
X87604286Y-96551429D02*
X87747144Y-96480000D01*
X87818572Y-96408571D01*
X87890001Y-96265714D01*
X87890001Y-96194286D01*
X87818572Y-96051429D01*
X87747144Y-95980000D01*
X87604286Y-95908571D01*
X87318572Y-95908571D01*
X87175715Y-95980000D01*
X87104286Y-96051429D01*
X87032858Y-96194286D01*
X87032858Y-96265714D01*
X87104286Y-96408571D01*
X87175715Y-96480000D01*
X87318572Y-96551429D01*
X87604286Y-96551429D01*
X87747144Y-96622857D01*
X87818572Y-96694286D01*
X87890001Y-96837143D01*
X87890001Y-97122857D01*
X87818572Y-97265714D01*
X87747144Y-97337143D01*
X87604286Y-97408571D01*
X87318572Y-97408571D01*
X87175715Y-97337143D01*
X87104286Y-97265714D01*
X87032858Y-97122857D01*
X87032858Y-96837143D01*
X87104286Y-96694286D01*
X87175715Y-96622857D01*
X87318572Y-96551429D01*
X86532858Y-97408571D02*
X85747144Y-96408571D01*
X86532858Y-96408571D02*
X85747144Y-97408571D01*
X85318572Y-97408571D02*
X84532858Y-96408571D01*
X85318572Y-96408571D02*
X84532858Y-97408571D01*
X84104286Y-97408571D02*
X83318572Y-96408571D01*
X84104286Y-96408571D02*
X83318572Y-97408571D01*
X81747143Y-95908571D02*
X81390000Y-97408571D01*
X81104286Y-96337143D01*
X80818572Y-97408571D01*
X80461429Y-95908571D01*
X79890000Y-97408571D02*
X79890000Y-96408571D01*
X79890000Y-95908571D02*
X79961429Y-95980000D01*
X79890000Y-96051429D01*
X79818572Y-95980000D01*
X79890000Y-95908571D01*
X79890000Y-96051429D01*
X78675714Y-96622857D02*
X79175714Y-96622857D01*
X79175714Y-97408571D02*
X79175714Y-95908571D01*
X78461428Y-95908571D01*
X77890000Y-97408571D02*
X77890000Y-96408571D01*
X77890000Y-95908571D02*
X77961429Y-95980000D01*
X77890000Y-96051429D01*
X77818572Y-95980000D01*
X77890000Y-95908571D01*
X77890000Y-96051429D01*
X76032857Y-97408571D02*
X76032857Y-95908571D01*
X76032857Y-96622857D02*
X75175714Y-96622857D01*
X75175714Y-97408571D02*
X75175714Y-95908571D01*
X74532857Y-96980000D02*
X73818571Y-96980000D01*
X74675714Y-97408571D02*
X74175714Y-95908571D01*
X73675714Y-97408571D01*
X73390000Y-95908571D02*
X72532857Y-95908571D01*
X72961428Y-97408571D02*
X72961428Y-95908571D01*
X88247143Y-99808571D02*
X88247143Y-98308571D01*
X88247143Y-98880000D02*
X88104286Y-98808571D01*
X87818572Y-98808571D01*
X87675715Y-98880000D01*
X87604286Y-98951429D01*
X87532857Y-99094286D01*
X87532857Y-99522857D01*
X87604286Y-99665714D01*
X87675715Y-99737143D01*
X87818572Y-99808571D01*
X88104286Y-99808571D01*
X88247143Y-99737143D01*
X87032857Y-98808571D02*
X86675714Y-99808571D01*
X86318572Y-98808571D02*
X86675714Y-99808571D01*
X86818572Y-100165714D01*
X86890000Y-100237143D01*
X87032857Y-100308571D01*
X84675715Y-99380000D02*
X83961429Y-99380000D01*
X84818572Y-99808571D02*
X84318572Y-98308571D01*
X83818572Y-99808571D01*
X83318572Y-98808571D02*
X83318572Y-99808571D01*
X83318572Y-98951429D02*
X83247144Y-98880000D01*
X83104286Y-98808571D01*
X82890001Y-98808571D01*
X82747144Y-98880000D01*
X82675715Y-99022857D01*
X82675715Y-99808571D01*
X81318572Y-99808571D02*
X81318572Y-98308571D01*
X81318572Y-99737143D02*
X81461429Y-99808571D01*
X81747143Y-99808571D01*
X81890001Y-99737143D01*
X81961429Y-99665714D01*
X82032858Y-99522857D01*
X82032858Y-99094286D01*
X81961429Y-98951429D01*
X81890001Y-98880000D01*
X81747143Y-98808571D01*
X81461429Y-98808571D01*
X81318572Y-98880000D01*
X80604286Y-99808571D02*
X80604286Y-98808571D01*
X80604286Y-99094286D02*
X80532858Y-98951429D01*
X80461429Y-98880000D01*
X80318572Y-98808571D01*
X80175715Y-98808571D01*
X79104287Y-99737143D02*
X79247144Y-99808571D01*
X79532858Y-99808571D01*
X79675715Y-99737143D01*
X79747144Y-99594286D01*
X79747144Y-99022857D01*
X79675715Y-98880000D01*
X79532858Y-98808571D01*
X79247144Y-98808571D01*
X79104287Y-98880000D01*
X79032858Y-99022857D01*
X79032858Y-99165714D01*
X79747144Y-99308571D01*
X78532858Y-98808571D02*
X78247144Y-99808571D01*
X77961430Y-99094286D01*
X77675715Y-99808571D01*
X77390001Y-98808571D01*
X74961429Y-99808571D02*
X75675715Y-99808571D01*
X75675715Y-98308571D01*
X74461429Y-99808571D02*
X74461429Y-98808571D01*
X74461429Y-98308571D02*
X74532858Y-98380000D01*
X74461429Y-98451429D01*
X74390001Y-98380000D01*
X74461429Y-98308571D01*
X74461429Y-98451429D01*
X73961429Y-98808571D02*
X73390000Y-98808571D01*
X73747143Y-98308571D02*
X73747143Y-99594286D01*
X73675715Y-99737143D01*
X73532857Y-99808571D01*
X73390000Y-99808571D01*
X73104286Y-98808571D02*
X72532857Y-98808571D01*
X72890000Y-98308571D02*
X72890000Y-99594286D01*
X72818572Y-99737143D01*
X72675714Y-99808571D01*
X72532857Y-99808571D01*
X87247140Y-100851429D02*
X87175711Y-100780000D01*
X87032854Y-100708571D01*
X86675711Y-100708571D01*
X86532854Y-100780000D01*
X86461425Y-100851429D01*
X86389997Y-100994286D01*
X86389997Y-101137143D01*
X86461425Y-101351429D01*
X87318568Y-102208571D01*
X86389997Y-102208571D01*
X85461426Y-100708571D02*
X85318569Y-100708571D01*
X85175712Y-100780000D01*
X85104283Y-100851429D01*
X85032854Y-100994286D01*
X84961426Y-101280000D01*
X84961426Y-101637143D01*
X85032854Y-101922857D01*
X85104283Y-102065714D01*
X85175712Y-102137143D01*
X85318569Y-102208571D01*
X85461426Y-102208571D01*
X85604283Y-102137143D01*
X85675712Y-102065714D01*
X85747140Y-101922857D01*
X85818569Y-101637143D01*
X85818569Y-101280000D01*
X85747140Y-100994286D01*
X85675712Y-100851429D01*
X85604283Y-100780000D01*
X85461426Y-100708571D01*
X83532855Y-102208571D02*
X84389998Y-102208571D01*
X83961426Y-102208571D02*
X83961426Y-100708571D01*
X84104283Y-100922857D01*
X84247141Y-101065714D01*
X84389998Y-101137143D01*
X82175712Y-100708571D02*
X82889998Y-100708571D01*
X82961427Y-101422857D01*
X82889998Y-101351429D01*
X82747141Y-101280000D01*
X82389998Y-101280000D01*
X82247141Y-101351429D01*
X82175712Y-101422857D01*
X82104284Y-101565714D01*
X82104284Y-101922857D01*
X82175712Y-102065714D01*
X82247141Y-102137143D01*
X82389998Y-102208571D01*
X82747141Y-102208571D01*
X82889998Y-102137143D01*
X82961427Y-102065714D01*
X81461427Y-101637143D02*
X80318570Y-101637143D01*
X78818570Y-102208571D02*
X79675713Y-102208571D01*
X79247141Y-102208571D02*
X79247141Y-100708571D01*
X79389998Y-100922857D01*
X79532856Y-101065714D01*
X79675713Y-101137143D01*
X78247142Y-100851429D02*
X78175713Y-100780000D01*
X78032856Y-100708571D01*
X77675713Y-100708571D01*
X77532856Y-100780000D01*
X77461427Y-100851429D01*
X77389999Y-100994286D01*
X77389999Y-101137143D01*
X77461427Y-101351429D01*
X78318570Y-102208571D01*
X77389999Y-102208571D01*
X76747142Y-101637143D02*
X75604285Y-101637143D01*
X74104285Y-102208571D02*
X74961428Y-102208571D01*
X74532856Y-102208571D02*
X74532856Y-100708571D01*
X74675713Y-100922857D01*
X74818571Y-101065714D01*
X74961428Y-101137143D01*
X72675714Y-102208571D02*
X73532857Y-102208571D01*
X73104285Y-102208571D02*
X73104285Y-100708571D01*
X73247142Y-100922857D01*
X73390000Y-101065714D01*
X73532857Y-101137143D01*
X115675718Y-104608571D02*
X115675718Y-103108571D01*
X115032861Y-104608571D02*
X115032861Y-103822857D01*
X115104290Y-103680000D01*
X115247147Y-103608571D01*
X115461432Y-103608571D01*
X115604290Y-103680000D01*
X115675718Y-103751429D01*
X114532861Y-103608571D02*
X113961432Y-103608571D01*
X114318575Y-103108571D02*
X114318575Y-104394286D01*
X114247147Y-104537143D01*
X114104289Y-104608571D01*
X113961432Y-104608571D01*
X113675718Y-103608571D02*
X113104289Y-103608571D01*
X113461432Y-103108571D02*
X113461432Y-104394286D01*
X113390004Y-104537143D01*
X113247146Y-104608571D01*
X113104289Y-104608571D01*
X112604289Y-103608571D02*
X112604289Y-105108571D01*
X112604289Y-103680000D02*
X112461432Y-103608571D01*
X112175718Y-103608571D01*
X112032861Y-103680000D01*
X111961432Y-103751429D01*
X111890003Y-103894286D01*
X111890003Y-104322857D01*
X111961432Y-104465714D01*
X112032861Y-104537143D01*
X112175718Y-104608571D01*
X112461432Y-104608571D01*
X112604289Y-104537143D01*
X111318575Y-104537143D02*
X111175718Y-104608571D01*
X110890003Y-104608571D01*
X110747146Y-104537143D01*
X110675718Y-104394286D01*
X110675718Y-104322857D01*
X110747146Y-104180000D01*
X110890003Y-104108571D01*
X111104289Y-104108571D01*
X111247146Y-104037143D01*
X111318575Y-103894286D01*
X111318575Y-103822857D01*
X111247146Y-103680000D01*
X111104289Y-103608571D01*
X110890003Y-103608571D01*
X110747146Y-103680000D01*
X110032860Y-104465714D02*
X109961432Y-104537143D01*
X110032860Y-104608571D01*
X110104289Y-104537143D01*
X110032860Y-104465714D01*
X110032860Y-104608571D01*
X110032860Y-103680000D02*
X109961432Y-103751429D01*
X110032860Y-103822857D01*
X110104289Y-103751429D01*
X110032860Y-103680000D01*
X110032860Y-103822857D01*
X108247146Y-103037143D02*
X109532860Y-104965714D01*
X106675717Y-103037143D02*
X107961431Y-104965714D01*
X105532859Y-103608571D02*
X105532859Y-104822857D01*
X105604288Y-104965714D01*
X105675716Y-105037143D01*
X105818573Y-105108571D01*
X106032859Y-105108571D01*
X106175716Y-105037143D01*
X105532859Y-104537143D02*
X105675716Y-104608571D01*
X105961430Y-104608571D01*
X106104288Y-104537143D01*
X106175716Y-104465714D01*
X106247145Y-104322857D01*
X106247145Y-103894286D01*
X106175716Y-103751429D01*
X106104288Y-103680000D01*
X105961430Y-103608571D01*
X105675716Y-103608571D01*
X105532859Y-103680000D01*
X104818573Y-104608571D02*
X104818573Y-103608571D01*
X104818573Y-103108571D02*
X104890002Y-103180000D01*
X104818573Y-103251429D01*
X104747145Y-103180000D01*
X104818573Y-103108571D01*
X104818573Y-103251429D01*
X104318573Y-103608571D02*
X103747144Y-103608571D01*
X104104287Y-103108571D02*
X104104287Y-104394286D01*
X104032859Y-104537143D01*
X103890001Y-104608571D01*
X103747144Y-104608571D01*
X103247144Y-104608571D02*
X103247144Y-103108571D01*
X102604287Y-104608571D02*
X102604287Y-103822857D01*
X102675716Y-103680000D01*
X102818573Y-103608571D01*
X103032858Y-103608571D01*
X103175716Y-103680000D01*
X103247144Y-103751429D01*
X101247144Y-103608571D02*
X101247144Y-104608571D01*
X101890001Y-103608571D02*
X101890001Y-104394286D01*
X101818573Y-104537143D01*
X101675715Y-104608571D01*
X101461430Y-104608571D01*
X101318573Y-104537143D01*
X101247144Y-104465714D01*
X100532858Y-104608571D02*
X100532858Y-103108571D01*
X100532858Y-103680000D02*
X100390001Y-103608571D01*
X100104287Y-103608571D01*
X99961430Y-103680000D01*
X99890001Y-103751429D01*
X99818572Y-103894286D01*
X99818572Y-104322857D01*
X99890001Y-104465714D01*
X99961430Y-104537143D01*
X100104287Y-104608571D01*
X100390001Y-104608571D01*
X100532858Y-104537143D01*
X99175715Y-104465714D02*
X99104287Y-104537143D01*
X99175715Y-104608571D01*
X99247144Y-104537143D01*
X99175715Y-104465714D01*
X99175715Y-104608571D01*
X97818572Y-104537143D02*
X97961429Y-104608571D01*
X98247143Y-104608571D01*
X98390001Y-104537143D01*
X98461429Y-104465714D01*
X98532858Y-104322857D01*
X98532858Y-103894286D01*
X98461429Y-103751429D01*
X98390001Y-103680000D01*
X98247143Y-103608571D01*
X97961429Y-103608571D01*
X97818572Y-103680000D01*
X96961429Y-104608571D02*
X97104287Y-104537143D01*
X97175715Y-104465714D01*
X97247144Y-104322857D01*
X97247144Y-103894286D01*
X97175715Y-103751429D01*
X97104287Y-103680000D01*
X96961429Y-103608571D01*
X96747144Y-103608571D01*
X96604287Y-103680000D01*
X96532858Y-103751429D01*
X96461429Y-103894286D01*
X96461429Y-104322857D01*
X96532858Y-104465714D01*
X96604287Y-104537143D01*
X96747144Y-104608571D01*
X96961429Y-104608571D01*
X95818572Y-104608571D02*
X95818572Y-103608571D01*
X95818572Y-103751429D02*
X95747144Y-103680000D01*
X95604286Y-103608571D01*
X95390001Y-103608571D01*
X95247144Y-103680000D01*
X95175715Y-103822857D01*
X95175715Y-104608571D01*
X95175715Y-103822857D02*
X95104286Y-103680000D01*
X94961429Y-103608571D01*
X94747144Y-103608571D01*
X94604286Y-103680000D01*
X94532858Y-103822857D01*
X94532858Y-104608571D01*
X92747144Y-103037143D02*
X94032858Y-104965714D01*
X91604286Y-104608571D02*
X91604286Y-103822857D01*
X91675715Y-103680000D01*
X91818572Y-103608571D01*
X92104286Y-103608571D01*
X92247143Y-103680000D01*
X91604286Y-104537143D02*
X91747143Y-104608571D01*
X92104286Y-104608571D01*
X92247143Y-104537143D01*
X92318572Y-104394286D01*
X92318572Y-104251429D01*
X92247143Y-104108571D01*
X92104286Y-104037143D01*
X91747143Y-104037143D01*
X91604286Y-103965714D01*
X90675714Y-104608571D02*
X90818572Y-104537143D01*
X90890000Y-104394286D01*
X90890000Y-103108571D01*
X89318572Y-104608571D02*
X90175715Y-104608571D01*
X89747143Y-104608571D02*
X89747143Y-103108571D01*
X89890000Y-103322857D01*
X90032858Y-103465714D01*
X90175715Y-103537143D01*
X88818572Y-103108571D02*
X87818572Y-103108571D01*
X88461429Y-104608571D01*
X87390001Y-103108571D02*
X86390001Y-103108571D01*
X87032858Y-104608571D01*
X84747145Y-103037143D02*
X86032859Y-104965714D01*
X83675716Y-104537143D02*
X83818573Y-104608571D01*
X84104287Y-104608571D01*
X84247144Y-104537143D01*
X84318573Y-104394286D01*
X84318573Y-103822857D01*
X84247144Y-103680000D01*
X84104287Y-103608571D01*
X83818573Y-103608571D01*
X83675716Y-103680000D01*
X83604287Y-103822857D01*
X83604287Y-103965714D01*
X84318573Y-104108571D01*
X83032859Y-104537143D02*
X82890002Y-104608571D01*
X82604287Y-104608571D01*
X82461430Y-104537143D01*
X82390002Y-104394286D01*
X82390002Y-104322857D01*
X82461430Y-104180000D01*
X82604287Y-104108571D01*
X82818573Y-104108571D01*
X82961430Y-104037143D01*
X83032859Y-103894286D01*
X83032859Y-103822857D01*
X82961430Y-103680000D01*
X82818573Y-103608571D01*
X82604287Y-103608571D01*
X82461430Y-103680000D01*
X81747144Y-103608571D02*
X81747144Y-105108571D01*
X81747144Y-103680000D02*
X81604287Y-103608571D01*
X81318573Y-103608571D01*
X81175716Y-103680000D01*
X81104287Y-103751429D01*
X81032858Y-103894286D01*
X81032858Y-104322857D01*
X81104287Y-104465714D01*
X81175716Y-104537143D01*
X81318573Y-104608571D01*
X81604287Y-104608571D01*
X81747144Y-104537143D01*
X80747144Y-104751429D02*
X79604287Y-104751429D01*
X79247144Y-104608571D02*
X79247144Y-103108571D01*
X78604287Y-104608571D02*
X78604287Y-103822857D01*
X78675716Y-103680000D01*
X78818573Y-103608571D01*
X79032858Y-103608571D01*
X79175716Y-103680000D01*
X79247144Y-103751429D01*
X77247144Y-104608571D02*
X77247144Y-103822857D01*
X77318573Y-103680000D01*
X77461430Y-103608571D01*
X77747144Y-103608571D01*
X77890001Y-103680000D01*
X77247144Y-104537143D02*
X77390001Y-104608571D01*
X77747144Y-104608571D01*
X77890001Y-104537143D01*
X77961430Y-104394286D01*
X77961430Y-104251429D01*
X77890001Y-104108571D01*
X77747144Y-104037143D01*
X77390001Y-104037143D01*
X77247144Y-103965714D01*
X76747144Y-103608571D02*
X76175715Y-103608571D01*
X76532858Y-103108571D02*
X76532858Y-104394286D01*
X76461430Y-104537143D01*
X76318572Y-104608571D01*
X76175715Y-104608571D01*
X75675715Y-104465714D02*
X75604287Y-104537143D01*
X75675715Y-104608571D01*
X75747144Y-104537143D01*
X75675715Y-104465714D01*
X75675715Y-104608571D01*
X74318572Y-103608571D02*
X74318572Y-104822857D01*
X74390001Y-104965714D01*
X74461429Y-105037143D01*
X74604286Y-105108571D01*
X74818572Y-105108571D01*
X74961429Y-105037143D01*
X74318572Y-104537143D02*
X74461429Y-104608571D01*
X74747143Y-104608571D01*
X74890001Y-104537143D01*
X74961429Y-104465714D01*
X75032858Y-104322857D01*
X75032858Y-103894286D01*
X74961429Y-103751429D01*
X74890001Y-103680000D01*
X74747143Y-103608571D01*
X74461429Y-103608571D01*
X74318572Y-103680000D01*
X73604286Y-104608571D02*
X73604286Y-103608571D01*
X73604286Y-103108571D02*
X73675715Y-103180000D01*
X73604286Y-103251429D01*
X73532858Y-103180000D01*
X73604286Y-103108571D01*
X73604286Y-103251429D01*
X73104286Y-103608571D02*
X72532857Y-103608571D01*
X72890000Y-103108571D02*
X72890000Y-104394286D01*
X72818572Y-104537143D01*
X72675714Y-104608571D01*
X72532857Y-104608571D01*
D12*
X122900000Y-85960000D02*
X72100000Y-85960000D01*
X74640000Y-91040000D02*
X122900000Y-91040000D01*
X122900000Y-85960000D02*
X122900000Y-91040000D01*
X72100000Y-85960000D02*
X72100000Y-88500000D01*
X73370000Y-91320000D02*
X71820000Y-91320000D01*
X72100000Y-88500000D02*
X74640000Y-88500000D01*
X74640000Y-88500000D02*
X74640000Y-91040000D01*
X71820000Y-91320000D02*
X71820000Y-89770000D01*
X117711220Y-108099860D02*
X117350540Y-109570520D01*
X117350540Y-109570520D02*
X117071140Y-108508800D01*
X117071140Y-108508800D02*
X116761260Y-109580680D01*
X116761260Y-109580680D02*
X116420900Y-108130340D01*
X119131080Y-108790740D02*
X118341140Y-108780580D01*
X118341140Y-108780580D02*
X118330980Y-108790740D01*
X118330980Y-108790740D02*
X118330980Y-108780580D01*
X118290340Y-108069380D02*
X118290340Y-109611160D01*
X119179340Y-108059220D02*
X119179340Y-109628940D01*
X119179340Y-109628940D02*
X119169180Y-109618780D01*
X119730520Y-108160820D02*
X120081040Y-108079540D01*
X120081040Y-108079540D02*
X120401080Y-108069380D01*
X120401080Y-108069380D02*
X120639840Y-108270040D01*
X120639840Y-108270040D02*
X120670320Y-108539280D01*
X120670320Y-108539280D02*
X120429020Y-108780580D01*
X120429020Y-108780580D02*
X120040400Y-108910120D01*
X120040400Y-108910120D02*
X119860060Y-109070140D01*
X119860060Y-109070140D02*
X119819420Y-109369860D01*
X119819420Y-109369860D02*
X120050560Y-109590840D01*
X120050560Y-109590840D02*
X120370600Y-109618780D01*
X120370600Y-109618780D02*
X120721120Y-109509560D01*
X121759980Y-108059220D02*
X122008900Y-108079540D01*
X122008900Y-108079540D02*
X122250200Y-108320840D01*
X122250200Y-108320840D02*
X122339100Y-108811060D01*
X122339100Y-108811060D02*
X122311160Y-109159040D01*
X122311160Y-109159040D02*
X122110500Y-109479080D01*
X122110500Y-109479080D02*
X121859040Y-109601000D01*
X121859040Y-109601000D02*
X121549160Y-109529880D01*
X121549160Y-109529880D02*
X121330720Y-109349540D01*
X121330720Y-109349540D02*
X121259600Y-108889800D01*
X121259600Y-108889800D02*
X121310400Y-108480860D01*
X121310400Y-108480860D02*
X121419620Y-108198920D01*
X121419620Y-108198920D02*
X121780300Y-108069380D01*
X121160540Y-106339640D02*
X121419620Y-106900980D01*
X121419620Y-106900980D02*
X120881140Y-107419140D01*
X120881140Y-107419140D02*
X120360440Y-107149900D01*
X120360440Y-107149900D02*
X120081040Y-107309920D01*
X118640860Y-107289600D02*
X118310660Y-107099100D01*
X118310660Y-107099100D02*
X117871240Y-107429300D01*
X117871240Y-107429300D02*
X117398800Y-106939080D01*
X117398800Y-106939080D02*
X117680740Y-106459020D01*
X117680740Y-106459020D02*
X117490240Y-105989120D01*
X117490240Y-105989120D02*
X116880640Y-105801160D01*
X116880640Y-105801160D02*
X116880640Y-105120440D01*
X116880640Y-105120440D02*
X117439440Y-104980740D01*
X117439440Y-104980740D02*
X117640100Y-104409240D01*
X117640100Y-104409240D02*
X117370860Y-103939340D01*
X117370860Y-103939340D02*
X117840760Y-103428800D01*
X117840760Y-103428800D02*
X118358920Y-103690420D01*
X118358920Y-103690420D02*
X118828820Y-103489760D01*
X118828820Y-103489760D02*
X118999000Y-102948740D01*
X118999000Y-102948740D02*
X119689880Y-102930960D01*
X119689880Y-102930960D02*
X119900700Y-103479600D01*
X119900700Y-103479600D02*
X120319800Y-103649780D01*
X120319800Y-103649780D02*
X120870980Y-103380540D01*
X120870980Y-103380540D02*
X121389140Y-103908860D01*
X121389140Y-103908860D02*
X121140220Y-104449880D01*
X121140220Y-104449880D02*
X121310400Y-104929940D01*
X121310400Y-104929940D02*
X121859040Y-105029000D01*
X121859040Y-105029000D02*
X121869200Y-105730040D01*
X121869200Y-105730040D02*
X121310400Y-105930700D01*
X121310400Y-105930700D02*
X121170700Y-106329480D01*
X119029480Y-106309160D02*
X118729760Y-106159300D01*
X118729760Y-106159300D02*
X118529100Y-105961180D01*
X118529100Y-105961180D02*
X118379240Y-105559860D01*
X118379240Y-105559860D02*
X118379240Y-105161080D01*
X118379240Y-105161080D02*
X118529100Y-104810560D01*
X118529100Y-104810560D02*
X118981220Y-104460040D01*
X118981220Y-104460040D02*
X119430800Y-104409240D01*
X119430800Y-104409240D02*
X119829580Y-104510840D01*
X119829580Y-104510840D02*
X120230900Y-104858820D01*
X120230900Y-104858820D02*
X120380760Y-105310940D01*
X120380760Y-105310940D02*
X120329960Y-105808780D01*
X120329960Y-105808780D02*
X120081040Y-106111040D01*
X120081040Y-106111040D02*
X119730520Y-106309160D01*
X119730520Y-106309160D02*
X120081040Y-107309920D01*
X119029480Y-106309160D02*
X118630700Y-107309920D01*
X72772495Y-92959181D02*
X72772495Y-91959181D01*
X72391542Y-91959181D01*
X72296304Y-92006800D01*
X72248685Y-92054419D01*
X72201066Y-92149657D01*
X72201066Y-92292514D01*
X72248685Y-92387752D01*
X72296304Y-92435371D01*
X72391542Y-92482990D01*
X72772495Y-92482990D01*
X71248685Y-92959181D02*
X71820114Y-92959181D01*
X71534400Y-92959181D02*
X71534400Y-91959181D01*
X71629638Y-92102038D01*
X71724876Y-92197276D01*
X71820114Y-92244895D01*
M02*
