G04 #@! TF.FileFunction,Soldermask,Top*
%FSLAX46Y46*%
G04 Gerber Fmt 4.6, Leading zero omitted, Abs format (unit mm)*
G04 Created by KiCad (PCBNEW 4.0.0-2.201512091501+6195~38~ubuntu15.10.1-stable) date Fri 11 Dec 2015 10:20:27 PM CST*
%MOMM*%
G01*
G04 APERTURE LIST*
%ADD10C,0.100000*%
%ADD11R,1.100000X0.650000*%
%ADD12R,0.650000X1.100000*%
%ADD13R,2.125000X2.125000*%
%ADD14R,1.100000X1.100000*%
%ADD15R,25.780000X1.610000*%
%ADD16R,7.400000X2.610000*%
%ADD17R,2.580000X6.370000*%
%ADD18R,10.380000X1.690000*%
%ADD19R,3.400000X1.610000*%
%ADD20R,3.600000X1.410000*%
%ADD21R,1.600000X4.620000*%
%ADD22R,1.550000X2.430000*%
%ADD23R,1.550000X2.330000*%
%ADD24R,0.860000X2.766000*%
%ADD25C,0.600000*%
%ADD26R,1.980000X1.410000*%
%ADD27R,0.600000X0.600000*%
%ADD28R,2.432000X2.127200*%
%ADD29O,2.432000X2.127200*%
%ADD30R,2.127200X2.127200*%
%ADD31O,2.127200X2.127200*%
%ADD32R,1.460000X1.050000*%
%ADD33R,1.365200X1.670000*%
%ADD34C,5.500000*%
%ADD35R,1.800000X1.600000*%
%ADD36R,2.432000X4.057600*%
%ADD37R,2.432000X1.416000*%
%ADD38R,1.400000X1.350000*%
%ADD39R,1.350000X1.400000*%
%ADD40R,1.300000X1.400000*%
%ADD41R,1.400000X1.300000*%
%ADD42R,1.400000X1.400000*%
%ADD43R,2.600000X1.400000*%
G04 APERTURE END LIST*
D10*
D11*
X100128192Y-99474452D03*
X100128192Y-99974452D03*
X100128192Y-100474452D03*
X100128192Y-100974452D03*
X100128192Y-101474452D03*
X100128192Y-101974452D03*
X100128192Y-102474452D03*
X100128192Y-102974452D03*
D12*
X100778192Y-103624452D03*
X101278192Y-103624452D03*
X101778192Y-103624452D03*
X102278192Y-103624452D03*
X102778192Y-103624452D03*
X103278192Y-103624452D03*
X103778192Y-103624452D03*
X104278192Y-103624452D03*
D11*
X104928192Y-102974452D03*
X104928192Y-102474452D03*
X104928192Y-101974452D03*
X104928192Y-101474452D03*
X104928192Y-100974452D03*
X104928192Y-100474452D03*
X104928192Y-99974452D03*
X104928192Y-99474452D03*
D12*
X104278192Y-98824452D03*
X103778192Y-98824452D03*
X103278192Y-98824452D03*
X102778192Y-98824452D03*
X102278192Y-98824452D03*
X101778192Y-98824452D03*
X101278192Y-98824452D03*
X100778192Y-98824452D03*
D13*
X103390692Y-102086952D03*
X103390692Y-100361952D03*
X101665692Y-102086952D03*
X101665692Y-100361952D03*
D14*
X111757000Y-108839000D03*
X113157000Y-108839000D03*
X111757000Y-107442000D03*
X113157000Y-107442000D03*
X111760000Y-110236000D03*
X113160000Y-110236000D03*
D15*
X90297400Y-113681600D03*
D16*
X97407400Y-113181600D03*
D17*
X101997400Y-111201600D03*
D18*
X97997400Y-108761600D03*
D19*
X94507400Y-110671600D03*
D20*
X94507400Y-110671600D03*
D21*
X94507400Y-112176600D03*
D22*
X95532400Y-108391600D03*
D23*
X93482400Y-108341600D03*
D24*
X92227400Y-108559600D03*
D10*
G36*
X92351507Y-109204595D02*
X93515405Y-110368493D01*
X92907293Y-110976605D01*
X91743395Y-109812707D01*
X92351507Y-109204595D01*
X92351507Y-109204595D01*
G37*
D25*
X102987400Y-114186600D03*
X102987400Y-108216600D03*
X93007400Y-109306600D03*
X92097400Y-109742600D03*
X93007400Y-111176600D03*
X96007400Y-110166600D03*
X96007400Y-111176600D03*
D26*
X78297400Y-113681600D03*
D25*
X77607400Y-114186600D03*
X77607400Y-113176600D03*
D27*
X93007400Y-110166600D03*
D14*
X75260200Y-92252800D03*
X76660200Y-92252800D03*
X93827600Y-99972320D03*
X93827600Y-98572320D03*
X98221800Y-99974400D03*
X98221800Y-101374400D03*
D28*
X126542800Y-102552500D03*
D29*
X126542800Y-100012500D03*
X126542800Y-97472500D03*
D28*
X68516500Y-93599000D03*
D29*
X68516500Y-96139000D03*
X68516500Y-98679000D03*
X68516500Y-101219000D03*
X68516500Y-103759000D03*
X68516500Y-106299000D03*
D30*
X73370000Y-89770000D03*
D31*
X73370000Y-87230000D03*
X75910000Y-89770000D03*
X75910000Y-87230000D03*
X78450000Y-89770000D03*
X78450000Y-87230000D03*
X80990000Y-89770000D03*
X80990000Y-87230000D03*
X83530000Y-89770000D03*
X83530000Y-87230000D03*
X86070000Y-89770000D03*
X86070000Y-87230000D03*
X88610000Y-89770000D03*
X88610000Y-87230000D03*
X91150000Y-89770000D03*
X91150000Y-87230000D03*
X93690000Y-89770000D03*
X93690000Y-87230000D03*
X96230000Y-89770000D03*
X96230000Y-87230000D03*
X98770000Y-89770000D03*
X98770000Y-87230000D03*
X101310000Y-89770000D03*
X101310000Y-87230000D03*
X103850000Y-89770000D03*
X103850000Y-87230000D03*
X106390000Y-89770000D03*
X106390000Y-87230000D03*
X108930000Y-89770000D03*
X108930000Y-87230000D03*
X111470000Y-89770000D03*
X111470000Y-87230000D03*
X114010000Y-89770000D03*
X114010000Y-87230000D03*
X116550000Y-89770000D03*
X116550000Y-87230000D03*
X119090000Y-89770000D03*
X119090000Y-87230000D03*
X121630000Y-89770000D03*
X121630000Y-87230000D03*
D32*
X119212000Y-96901000D03*
X119212000Y-97851000D03*
X119212000Y-98801000D03*
X121412000Y-98801000D03*
X121412000Y-96901000D03*
D33*
X125984000Y-94170500D03*
X127254000Y-94170500D03*
D34*
X68500000Y-88500000D03*
X68500000Y-111500000D03*
X126500000Y-111500000D03*
X126500000Y-88500000D03*
D35*
X104394000Y-94800000D03*
X102194000Y-94800000D03*
X104394000Y-96400000D03*
X102194000Y-96400000D03*
D14*
X92178200Y-104394000D03*
X90778200Y-104394000D03*
D36*
X72390000Y-97104200D03*
D37*
X78994000Y-97104200D03*
X78994000Y-94818200D03*
X78994000Y-99390200D03*
D38*
X81838800Y-97460000D03*
X81838800Y-99060000D03*
X81864200Y-94767400D03*
X81864200Y-93167400D03*
D39*
X98183500Y-102997000D03*
X96583500Y-102997000D03*
X98488500Y-97091500D03*
X96888500Y-97091500D03*
D38*
X95123000Y-97028000D03*
X95123000Y-95428000D03*
D39*
X96826192Y-99974452D03*
X95226192Y-99974452D03*
D38*
X106222800Y-94800000D03*
X106222800Y-96400000D03*
X100330000Y-96400000D03*
X100330000Y-94800000D03*
D40*
X121170500Y-94805500D03*
X119570500Y-94805500D03*
X121170500Y-93027500D03*
X119570500Y-93027500D03*
D41*
X123190000Y-95110500D03*
X123190000Y-96710500D03*
X92227400Y-105943200D03*
X92227400Y-104343200D03*
D40*
X112279161Y-103615703D03*
X110679161Y-103615703D03*
X112289121Y-105119321D03*
X110689121Y-105119321D03*
X112279161Y-97499321D03*
X110679161Y-97499321D03*
X112279161Y-99023321D03*
X110679161Y-99023321D03*
X112279161Y-102071321D03*
X110679161Y-102071321D03*
X112279161Y-100547321D03*
X110679161Y-100547321D03*
X96901000Y-95377000D03*
X98501000Y-95377000D03*
D42*
X89179400Y-104394000D03*
D43*
X87679400Y-105894000D03*
X87679400Y-102894000D03*
M02*
