M48
;DRILL file {KiCad 4.0.1-3.201512221401+6198~38~ubuntu15.10.1-stable} date Mon 04 Jan 2016 12:08:55 AM CST
;FORMAT={2:4/ absolute / inch / suppress leading zeros}
FMAT,2
INCH,TZ
T1C0.016
T2C0.040
T3C0.108
%
G90
G05
M72
T1
X25591Y-33780
X25591Y-34961
X25591Y-36142
X25591Y-37323
X25591Y-38504
X25591Y-39665
X25591Y-40748
X25591Y-41535
X25591Y-42283
X25591Y-43110
X25591Y-44291
X25591Y-44882
X25866Y-34843
X25866Y-43898
X26004Y-42667
X26014Y-34291
X26014Y-35394
X26014Y-43346
X26014Y-44449
X26142Y-40748
X26142Y-41201
X26417Y-33888
X26417Y-35797
X26417Y-42943
X26417Y-44852
X26772Y-39665
X26969Y-33740
X26969Y-35945
X26969Y-42795
X26969Y-45000
X27047Y-37638
X27047Y-38583
X27047Y-40748
X27047Y-41201
X27520Y-33888
X27520Y-35797
X27520Y-42943
X27520Y-44852
X27677Y-41929
X27913Y-39016
X27923Y-34291
X27923Y-35394
X27923Y-43346
X27923Y-44449
X27953Y-39665
X27953Y-40748
X28071Y-34843
X28071Y-43898
X28386Y-33780
X28386Y-44882
X28406Y-35886
X28780Y-40748
X28957Y-39665
X29193Y-35896
X29386Y-44882
X29390Y-33780
X29626Y-40748
X29961Y-39665
X30177Y-40748
X30207Y-43819
X30374Y-33780
X30386Y-44882
X30699Y-42697
X30728Y-39665
X30728Y-40748
X30965Y-37677
X31094Y-40984
X31122Y-39449
X31378Y-33780
X31378Y-35846
X31386Y-44882
X31594Y-42244
X31713Y-37736
X32125Y-40389
X32125Y-41068
X32205Y-42146
X32264Y-39370
X32382Y-33780
X32386Y-44882
X32736Y-37539
X32804Y-40389
X32804Y-41068
X33287Y-42953
X33386Y-33780
X33386Y-35846
X33386Y-44882
X33858Y-41870
X33878Y-37520
X33878Y-39931
X34173Y-43878
X34197Y-39099
X34203Y-41526
X34370Y-33780
X34386Y-44882
X34685Y-42382
X35059Y-37992
X35374Y-33780
X35386Y-44882
X35453Y-35691
X35866Y-36142
X36037Y-36452
X36386Y-44882
X36398Y-33780
X36575Y-36969
X36801Y-39882
X36821Y-41545
X36878Y-36123
X37146Y-42382
X37323Y-35866
X37343Y-37087
X37386Y-44882
X37402Y-33780
X37638Y-37598
X37638Y-36129
X37697Y-38386
X37776Y-37028
X38169Y-37598
X38386Y-33780
X38386Y-35846
X38386Y-44882
X38720Y-39862
X39203Y-41516
X39370Y-33780
X39370Y-35846
X39386Y-44882
X39518Y-36447
X39646Y-42362
X40251Y-40556
X40374Y-33780
X40386Y-44882
X41014Y-40994
X41083Y-37618
X41161Y-39656
X41377Y-35846
X41378Y-33780
X41386Y-44882
X41417Y-37244
X41949Y-38051
X42283Y-39705
X42382Y-33780
X42386Y-44882
X42539Y-38465
X42579Y-36516
X42579Y-37756
X43150Y-37185
X43356Y-35846
X43366Y-33780
X43386Y-44882
X43917Y-36398
X44370Y-33780
X44386Y-44882
X45256Y-36535
X45266Y-37116
X45374Y-35846
X45374Y-33780
X45386Y-44882
X46378Y-33780
X46386Y-44882
X47382Y-33780
X47386Y-44882
X48386Y-44882
X48425Y-33799
X48701Y-34843
X48701Y-43898
X48848Y-34291
X48848Y-35394
X48848Y-43346
X48848Y-44449
X49252Y-33888
X49252Y-35797
X49252Y-42943
X49252Y-44852
X49803Y-33740
X49803Y-35945
X49803Y-42795
X49803Y-45000
X50354Y-33888
X50354Y-35797
X50354Y-42943
X50354Y-44852
X50758Y-34291
X50758Y-35394
X50758Y-43346
X50758Y-44449
X50787Y-36323
X50787Y-37323
X50787Y-38323
X50787Y-39323
X50787Y-40323
X50787Y-41323
X50787Y-42323
X50906Y-34843
X50906Y-43898
T2
X28886Y-34343
X28886Y-35343
X29886Y-34343
X29886Y-35343
X30886Y-34343
X30886Y-35343
X31886Y-34343
X31886Y-35343
X32886Y-34343
X32886Y-35343
X33886Y-34343
X33886Y-35343
X34886Y-34343
X34886Y-35343
X35886Y-34343
X35886Y-35343
X36886Y-34343
X36886Y-35343
X37886Y-34343
X37886Y-35343
X38886Y-34343
X38886Y-35343
X39886Y-34343
X39886Y-35343
X40886Y-34343
X40886Y-35343
X41886Y-34343
X41886Y-35343
X42886Y-34343
X42886Y-35343
X43886Y-34343
X43886Y-35343
X44886Y-34343
X44886Y-35343
X45886Y-34343
X45886Y-35343
X46886Y-34343
X46886Y-35343
X47886Y-34343
X47886Y-35343
T3
X26969Y-34843
X26969Y-43898
X49803Y-34843
X49803Y-43898
T0
M30
